<svg xmlns="http://www.w3.org/2000/svg" xmlns:vectornator="http://vectornator.io" viewBox="0 0 550 300" clip-rule="evenodd" stroke-linecap="round" stroke-linejoin="round"><g vectornator:layerName="Untitled"><path d="M60 263.7c-.7.2-1.4.3-2.2.3-1.4 0-2.7-.4-3.9-1.2-1.2-.8-2.1-1.8-2.8-3.2-.7-1.3-1-2.8-1-4.5v-6.7c0-2.7.8-4.9 2.5-6.7 1.7-1.8 4-2.7 7-2.7 2.8 0 5.1.9 6.9 2.6 1.7 1.7 2.6 4 2.6 6.8v4.9c0 1.7-.2 3.3-.6 4.7-.4 1.4-1.1 2.9-2.1 4.5L57 277.4h-6.1l9.1-13.7zm2.6-4.9c.7-.8 1.1-2 1.1-3.6v-6.7c0-1.5-.4-2.7-1.1-3.5-.7-.9-1.7-1.3-3-1.3-1.4 0-2.4.5-3.1 1.3-.7.9-1 2.1-1 3.5v6.7c0 1.5.4 2.7 1.1 3.6.7.8 1.7 1.3 3 1.3s2.3-.4 3-1.3zm18.9-2.3h-5.4v-7.7h5.4v7.7zm0 16.6h-5.4v-7.7h5.4v7.7zm26.8-4.3c0 2.7-.9 4.9-2.6 6.7-1.7 1.7-4 2.6-6.9 2.6-2.9 0-5.2-.9-6.9-2.6-1.7-1.8-2.6-4-2.6-6.6v-20.5c0-2.7.9-4.9 2.6-6.6 1.8-1.7 4.1-2.6 6.9-2.6 2.9 0 5.2.9 6.9 2.6 1.7 1.7 2.6 4 2.6 6.6v20.4zm-5.3-20.5c0-1.5-.4-2.7-1.1-3.5-.7-.9-1.8-1.3-3.1-1.3-1.4 0-2.4.4-3.2 1.3-.8.9-1.1 2-1.1 3.5v20.5c0 1.5.4 2.7 1.1 3.5.8.9 1.8 1.3 3.2 1.3 1.4 0 2.4-.4 3.1-1.3.7-.9 1.1-2 1.1-3.5v-20.5zm28.9 20.5c0 2.7-.9 4.9-2.6 6.7-1.7 1.7-4 2.6-6.9 2.6-2.9 0-5.2-.9-6.9-2.6-1.7-1.8-2.6-4-2.6-6.6v-20.5c0-2.7.9-4.9 2.6-6.6 1.8-1.7 4.1-2.6 6.9-2.6 2.9 0 5.2.9 6.9 2.6 1.7 1.7 2.6 4 2.6 6.6v20.4zm-5.2-20.5c0-1.5-.4-2.7-1.1-3.5-.7-.8-1.8-1.3-3.1-1.3-1.4 0-2.4.4-3.2 1.3-.8.9-1.1 2-1.1 3.5v20.5c0 1.5.4 2.7 1.1 3.5.8.9 1.8 1.3 3.2 1.3 1.4 0 2.4-.4 3.1-1.3.7-.9 1.1-2 1.1-3.5v-20.5zm8.6 9.8c2.3-1.3 4.8-2.7 7.4-4.2 1.9 1.5 3.7 2.9 5.4 4.2 1.7-1 3.6-2 5.5-3 .9 1.2 1.8 2.4 2.7 3.7-2.7 1.2-5.4 2.5-8.2 3.7-2-1.6-3.8-2.8-5.2-3.9-1.2.9-2.6 2-4.3 3.1-1.1-1.3-2.2-2.5-3.3-3.6zm33-18.5v37.9H163V244h-2l-2.8-4.4h10.1zm17.9 0v37.9h-5.4V244h-2l-2.8-4.4h10.2zm18 16.9h-5.4v-7.7h5.4v7.7zm0 16.6h-5.4v-7.7h5.4v7.7zm25.7-9.1h2.7l-2.7 4.3v9.2h-5.2v-9.2h-13.5v-4.2l15.4-24.4h3.3V264zm-5.2-12.4L217 264h7.8v-12.4h-.1zm28 4.3c1.4 1.7 2.1 3.7 2.1 6.2v6.5c0 2.9-.9 5.2-2.6 6.9-1.8 1.7-4 2.5-6.8 2.5-3.2 0-5.6-.9-7.2-2.6-1.5-1.7-2.3-4-2.3-6.9v-1.9h5.2v1.9c0 1.5.3 2.8 1 3.7.7 1 1.8 1.4 3.2 1.4 1.2 0 2.2-.5 3-1.4.8-1 1.1-2.2 1.1-3.7v-6.2c0-1.3-.3-2.4-1-3.4-.7-.9-1.7-1.4-3.1-1.4-.9 0-1.7.3-2.5.8-.7.5-1.2 1.4-1.5 2.5h-5.6v-21.4H254l-2.8 4.4h-10.3v11.7c1.5-1.5 3.3-2.3 5.4-2.3 2.9.2 5 1 6.4 2.7zm52.8-16.3v37.9h-5.4V244h-2l-2.8-4.4h10.2zm25.2 33.4v4.5h-20.3c0-2.2.4-4.3 1.1-6.2.8-1.9 1.7-3.7 2.8-5.3 1.1-1.6 2.5-3.4 4.3-5.6 2.3-2.8 3.9-5 5-6.9 1.1-1.8 1.6-3.8 1.6-5.8 0-1.1-.4-2-1.1-2.8-.8-.8-1.8-1.2-3-1.2-1.4 0-2.5.5-3.1 1.5-.7 1-1 2.1-1 3.4v3.4h-3.1l-2.3-3.6c0-2.5.8-4.7 2.4-6.5 1.6-1.8 3.9-2.8 7.1-2.8 1.8 0 3.4.4 4.8 1.2 1.4.8 2.6 1.8 3.4 3.1.8 1.3 1.2 2.7 1.2 4.3 0 2.6-.6 4.9-1.9 7.1-1.2 2.2-3.1 4.7-5.5 7.7-1.9 2.3-3.3 4.2-4.3 5.7s-1.8 3.1-2.4 4.8h14.3zm13.1-16.5h-5.4v-7.7h5.4v7.7zm0 16.6h-5.4v-7.7h5.4v7.7zm25.7-9.1h2.7l-2.7 4.3v9.2h-5.2v-9.2h-13.5v-4.2l15.4-24.4h3.3V264zm-5.2-12.4l-7.8 12.3h7.8v-12.3zm28 4.3c1.4 1.7 2.1 3.7 2.1 6.2v6.5c0 2.9-.9 5.2-2.6 6.9-1.8 1.7-4 2.5-6.8 2.5-3.2 0-5.6-.9-7.2-2.6-1.5-1.7-2.3-4-2.3-6.9v-1.9h5.2v1.9c0 1.5.3 2.8 1 3.7.7 1 1.8 1.4 3.2 1.4 1.2 0 2.2-.5 3-1.4.8-1 1.1-2.2 1.1-3.7v-6.2c0-1.3-.3-2.4-1-3.4-.7-.9-1.7-1.4-3.1-1.4-.9 0-1.7.3-2.5.8-.7.5-1.2 1.4-1.5 2.5h-5.6v-21.4h18.3l-2.8 4.4h-10.3v11.7c1.5-1.5 3.3-2.3 5.4-2.3 2.9.2 5 1 6.4 2.7zm4.9 2.2c2.3-1.3 4.8-2.7 7.4-4.2 1.9 1.5 3.7 2.9 5.4 4.2 1.7-1 3.6-2 5.5-3 .9 1.2 1.8 2.4 2.7 3.7-2.7 1.2-5.4 2.5-8.2 3.7-2-1.6-3.8-2.8-5.2-3.9-1.2.9-2.6 2-4.3 3.1-1.2-1.3-2.3-2.5-3.3-3.6zm32.9-18.5v37.9h-5.4V244h-2l-2.8-4.4h10.2zm22.4 16.3c1.4 1.7 2.1 3.7 2.1 6.2v6.5c0 2.9-.9 5.2-2.6 6.9-1.8 1.7-4 2.5-6.8 2.5-3.2 0-5.6-.9-7.2-2.6-1.6-1.7-2.3-4-2.3-6.9v-1.9h5.2v1.9c0 1.5.3 2.8 1 3.7.7 1 1.8 1.4 3.2 1.4 1.2 0 2.2-.5 3-1.4.8-1 1.1-2.2 1.1-3.7v-6.2c0-1.3-.3-2.4-1-3.4-.7-.9-1.7-1.4-3.1-1.4-.9 0-1.7.3-2.5.8-.7.5-1.2 1.4-1.5 2.5h-5.6v-21.4H454l-2.8 4.4h-10.3v11.7c1.5-1.5 3.3-2.3 5.4-2.3 2.8.2 4.8 1 6.2 2.7zm14.7.6h-5.4v-7.7h5.4v7.7zm0 16.6h-5.4v-7.7h5.4v7.7zm26.7-22.1c0 3.1-1.7 5.3-5.2 6.5 1.7.4 3 1.2 3.9 2.3.9 1.1 1.3 2.5 1.3 4.3v5.6c0 1.3-.4 2.6-1.1 3.9-.7 1.3-1.8 2.4-3.2 3.2-1.4.9-3.1 1.3-5 1.3-3.4 0-5.9-.9-7.4-2.8s-2.3-4.2-2.3-7.1v-3.4h5.2v3.8c0 1.4.4 2.6 1.1 3.5.7.9 1.7 1.4 3 1.4 1.2 0 2.2-.4 3-1.1.8-.8 1.2-1.7 1.2-2.9v-4.8c0-1.1-.3-2.2-.9-3.2-.6-1-1.7-1.5-3.3-1.5h-3.5v-4.5h3.7c1.3 0 2.2-.4 2.9-1.3.7-.9 1-2 1-3.5v-2.9c0-1.2-.4-2.2-1.2-2.9-.8-.8-1.8-1.1-3-1.1-1.3 0-2.3.5-3 1.3-.7.9-1.1 2.1-1.1 3.5v3.4h-2.9l-2.3-3.6c0-2.6.9-4.8 2.5-6.5 1.6-1.8 3.9-2.7 6.9-2.7 2.2 0 4.1.5 5.5 1.4 1.4.9 2.5 2 3.1 3.4.7 1.3 1 2.6 1 3.9v3.1h.1zm23.7 17.8c0 2.7-.9 4.9-2.6 6.7-1.7 1.7-4 2.6-6.9 2.6-2.9 0-5.2-.9-6.9-2.6-1.7-1.8-2.6-4-2.6-6.6v-20.5c0-2.7.9-4.9 2.6-6.6 1.8-1.7 4.1-2.6 6.9-2.6 2.9 0 5.2.9 6.9 2.6 1.7 1.7 2.6 4 2.6 6.6v20.4zm-5.3-20.5c0-1.5-.4-2.7-1.1-3.5-.7-.9-1.8-1.3-3.1-1.3s-2.4.4-3.2 1.3c-.8.9-1.1 2-1.1 3.5v20.5c0 1.5.4 2.7 1.1 3.5.8.9 1.8 1.3 3.2 1.3 1.4 0 2.4-.4 3.1-1.3.7-.9 1.1-2 1.1-3.5v-20.5z" fill="#d8be59"/><path d="M301.2 210.9h-3.1l.4.6-1.6 2.3-2-2.9h-.9l-2.2 3.1h-1.6l-1.5-2.1h1.2l2.9-4.1h3.3l-.7.9h5.7v2.2h.1zm1.9 11.1h9.4v9h-5.7l-1.6-2.3h4.2v-4.6H303v7.9h-3v-6.7l-4.1 5.8h-4.4l-1.6-2.2h4.3l3.3-4.8h-7.1l4.2-5.9h5.4v-2.3h-7.4v-2.2h18.3v6.7h-7.8v1.6zm-3.1-1.5h-3.5l-1.1 1.5h4.6v-1.5zm7.2-12.7l-.6.9h6.9v2.1H310l.4.6-1.6 2.3-2-2.8h-1.6l-1.9 2.7H302l-1.5-2h.9l2.6-3.7h3.2v-.1zm.5 8.1H303v2.3h4.7v-2.3zm24.7 1.3c-.5.9-1.1 1.7-1.8 2.4s-1.7 1.6-2.9 2.7c-1.4 1.2-2.4 2.2-3.2 3-.8.8-1.4 1.7-1.8 2.6h10.4v2.4H319c0-1.2.3-2.3.8-3.3.6-1 1.2-2 2-2.8.8-.8 1.8-1.8 3.2-3 1.7-1.4 2.9-2.6 3.7-3.6.8-1 1.2-2 1.2-3.1 0-.7-.3-1.3-1-1.8s-1.6-.7-2.9-.7c-1.3 0-2.2.3-2.9.8-.6.5-1 1.1-1 1.8v1.8h-1.8l-1.4-1.9c0-1.4.6-2.5 1.7-3.5s2.9-1.5 5.4-1.5c2.3 0 4 .4 5.3 1.3 1.2.9 1.8 2 1.8 3.5 0 1.1-.3 2-.7 2.9zm14.5-3.8h3.1l-3.4 4.8h4.4v2.2h-12.6v-2.2h5.1l3.4-4.8zm-.6-2.7h4.4v2.2h-11.9v-2.2h4.4v-2.9h3.1v2.9zm-1.8 5.2l-1.6 2.2-3.3-4.7h3.1l1.8 2.5zm5.4 6.1v10.1h-10.2V222h10.2zm-7.2 2.3v5.6h4.1v-5.6h-4.1zm20.2-16l-5.3 7.5 4.9 7v7.9h-4.9l-1.6-2.3h3.5v-5.1l-4.9-7v15.9h-3.1v-23.8h11.4v-.1zm-8.3 2.2v4.8l3.4-4.8h-3.4zM46.1 210.6H43l.4.6-1.6 2.3-2-2.9h-.9l-2.2 3.1h-1.6l-1.5-2.1h1.2l2.9-4.1H41l-.7.9H46v2.2h.1zm1.8 11.1h9.4v9h-5.7l-1.6-2.3h4.2v-4.6h-6.4v7.9h-3.1V225l-4.1 5.8h-4.4l-1.6-2.2h4.3l3.3-4.8h-7.1l4.2-5.9h5.4v-2.3h-7.4v-2.2h18.3v6.7h-7.8v1.6h.1zm-3-1.5h-3.5l-1.1 1.5h4.6v-1.5zm7.2-12.6l-.6.9h6.9v2.1h-3.6l.4.6-1.6 2.3-2-2.8H50l-1.9 2.7h-1.3l-1.5-2h.9l2.6-3.7h3.3v-.1zm.5 8.1h-4.7v2.3h4.7v-2.3zm10.2-6h7v20.4h-3.2V212h-2l-1.8-2.3zm23 3.4h3.1l-3.4 4.8h4.4v2.2H77.3V218h5.1l3.4-4.9zm-.6-2.6h4.4v2.2H77.7v-2.2h4.4v-2.9h3.1v2.9zm-1.9 5.1l-1.6 2.2-3.3-4.7h3.1l1.8 2.5zm5.5 6.2v10.1H78.6v-10.1h10.2zm-7.2 2.2v5.6h4.1V224h-4.1zm20.2-16l-5.3 7.5 4.9 7v7.9h-4.9l-1.6-2.3h3.5V223l-4.9-7v15.9h-3.1V208h11.4zm-8.4 2.3v4.8l3.4-4.8h-3.4z" fill="#c74380"/><path d="M195.8 117.3c0 3.3-.9 6.5-2.6 9.7-1.7 3.1-4.9 5.5-9.5 7.1 4.1 1.6 7.1 4.1 9.1 7.4 2 3.3 3 7.1 3 11.2V165c0 6-2.4 11.1-7.1 15.3-4.8 4.2-11.8 6.3-21.1 6.3-10.1 0-17.4-2.3-21.7-6.8-4.3-4.5-6.5-10.5-6.5-17.9v-9.2H152v9.7c0 5.2 1.3 8.5 3.9 10.1 2.6 1.6 6.5 2.3 11.8 2.3 5.1 0 9-.9 11.5-2.7 2.6-1.8 3.8-4.3 3.8-7.5v-12.4c0-2.8-.7-5.5-2-8.2-1.3-2.6-3.9-3.9-7.9-3.9h-19v-11.6h19.3c3.7 0 6.2-1.2 7.5-3.7 1.4-2.4 2-5.3 2-8.6v-4.4c0-9.3-5.1-13.9-15.4-13.9-5.5 0-9.5 1.1-12 3.2-2.5 2.2-3.7 5.6-3.7 10.3v8.7h-7.5l-5-8.5c0-16.6 9.4-24.9 28.2-24.9 8.9 0 15.8 1.9 20.8 5.6 5 3.8 7.5 9.2 7.5 16.3v8.7zm22.1 62.1c-5.2-4.7-7.8-11.2-7.8-19.5v-46.5c0-8.3 2.6-14.8 7.8-19.5 5.2-4.7 12-7.1 20.4-7.1 8.4 0 15.2 2.4 20.4 7.1 5.2 4.7 7.8 11.2 7.8 19.5v46.5c0 8.3-2.6 14.8-7.8 19.5-5.2 4.7-12 7.1-20.4 7.1-8.3 0-15.1-2.3-20.4-7.1zm32.5-8.6c2.4-3 3.6-6.6 3.6-10.9v-46.5c0-4.3-1.2-8-3.6-10.9-2.4-3-6.4-4.4-12.1-4.4-5.6 0-9.7 1.5-12.1 4.4-2.4 3-3.6 6.6-3.6 10.9v46.5c0 4.3 1.2 8 3.6 10.9 2.4 3 6.4 4.4 12.1 4.4 5.7.1 9.7-1.4 12.1-4.4zm205-53.5c0 3.3-.9 6.5-2.6 9.7-1.7 3.1-4.9 5.5-9.5 7.1 4.1 1.6 7.1 4.1 9.1 7.4 2 3.3 3 7.1 3 11.2V165c0 6-2.4 11.1-7.1 15.3-4.8 4.2-11.8 6.3-21.1 6.3-10.1 0-17.4-2.3-21.7-6.8-4.3-4.5-6.5-10.5-6.5-17.9v-9.2h12.6v9.7c0 5.2 1.3 8.5 3.9 10.1 2.6 1.6 6.5 2.3 11.8 2.3 5.1 0 9-.9 11.5-2.7 2.6-1.8 3.8-4.3 3.8-7.5v-12.4c0-2.8-.7-5.5-2-8.2-1.3-2.6-3.9-3.9-7.9-3.9h-19v-11.6H433c3.7 0 6.2-1.2 7.5-3.7 1.4-2.4 2-5.3 2-8.6v-4.4c0-9.3-5.1-13.9-15.4-13.9-5.5 0-9.5 1.1-12 3.2-2.5 2.2-3.7 5.6-3.7 10.3v8.7H404l-5-8.5c0-16.6 9.4-24.9 28.2-24.9 8.9 0 15.8 1.9 20.8 5.6 5 3.8 7.5 9.2 7.5 16.3v8.7h-.1zm24.5-29.1h27.8v96.9h-12.9V99.4h-8.2l-6.7-11.2z" fill="#d8be59"/><path d="M349.939-3.56119e+199h-5.069 5.069-6.357 14.129-6.691 5.419-5.419.111-1.303.111zm159.373 0h-.095 10.521-.096.08-10.489.079zm1.065 0h8.201-8.201zm0 0h8.201-8.201z"/><path d="M60.3 188.8c-2.4-2.7-4.3-5.7-5.7-9-1.4-3.3-2.1-6.5-2.1-9.7 0-3.2.7-6.4 2.1-9.7 1.4-3.3 3.3-6.3 5.7-9l2.2 3.1c-1.8 2.4-3.3 4.9-4.3 7.6-1 2.7-1.6 5.4-1.6 7.9s.5 5.2 1.6 7.9c1 2.7 2.5 5.2 4.3 7.6l-2.2 3.3zM90.2 168v15.9h15v3.5H70.4v-3.5h15V168H72.3v-3.5h13.1v-12.2h4.8v12.2h13.1v3.5H90.2zm22.9 17.7c1.8-2.4 3.3-4.9 4.3-7.6 1-2.7 1.6-5.4 1.6-7.9s-.5-5.2-1.6-7.9c-1-2.7-2.5-5.2-4.3-7.6l2.2-3.1c2.4 2.7 4.3 5.7 5.7 9 1.4 3.3 2.1 6.5 2.1 9.7 0 3.2-.7 6.4-2.1 9.7-1.4 3.3-3.3 6.3-5.7 9l-2.2-3.3zm205.7 3.1c-2.4-2.7-4.3-5.7-5.7-9-1.4-3.3-2.1-6.5-2.1-9.7 0-3.2.7-6.4 2.1-9.7 1.4-3.3 3.3-6.3 5.7-9l2.2 3.1c-1.8 2.4-3.3 4.9-4.3 7.6-1 2.7-1.6 5.4-1.6 7.9s.5 5.2 1.6 7.9c1 2.7 2.5 5.2 4.3 7.6l-2.2 3.3zm41.2-36v34.7h-27.3v-34.7H360zm-4.9 14.1v-10.4h-17.5v10.4h17.5zm-17.5 3.6v13.3h17.5v-13.3h-17.5zm34 15.2c1.8-2.4 3.3-4.9 4.3-7.6 1-2.7 1.6-5.4 1.6-7.9s-.5-5.2-1.6-7.9c-1-2.7-2.5-5.2-4.3-7.6l2.2-3.1c2.4 2.7 4.3 5.7 5.7 9 1.4 3.3 2.1 6.5 2.1 9.7 0 3.2-.7 6.4-2.1 9.7-1.4 3.3-3.3 6.3-5.7 9l-2.2-3.3z" stroke="#d8be59" fill="#d8be59" stroke-linecap="butt" stroke-linejoin="miter"/><path d="M315.3 129.2c6.5-3.3 13.5-6.8 20.8-10.5 5.3 3.7 10.4 7.2 15.1 10.5 4.9-2.5 10-5.1 15.4-7.7 2.5 2.9 5 6.1 7.6 9.4-7.5 3.1-15.2 6.2-23 9.4-5.7-3.9-10.6-7.2-14.6-9.8-3.3 2.3-7.3 4.9-12 7.9-3.3-3.3-6.4-6.3-9.3-9.2z" fill="#d8be59"/><path d="M40.8 47.5V69h-4.4V34.6h16v12.9H40.8zm7.3-8v-1.9h-7.3v1.9h7.3zm-7.3 3v1.9h7.3v-1.9h-7.3zm24 14.1v3.2h-5.3v8.5h-4.3v-8.5h-3.3v8.5h-4.7l-2.1-3.1h2.5v-5.4h-5.3v-3.2h5.3V53H44v-3.2h19V53h-3.6v3.6h5.4zM51.9 53v3.6h3.3V53h-3.3zm18.8-18.5v34.4H64l-2.3-3.2h4.5V47.5H54.6V34.6h16.1v-.1zm-4.4 5v-1.9H59v1.9h7.3zm-7.3 3v1.9h7.3v-1.9H59zM89.5 34h4.9l-5.2 7.4v27.5h-4.3V47.5l-1.3 1.8h-1.5l-2.2-3.2h1L89.5 34zm26.3 13.7v3.2h-7.9v2.3h7.1v3.2h-7.1v2.3h7.1v3.2h-7.1v3.6h7.9v3.3H94.2V54.2l-.7 1h-2L89.3 52h1.4l6.2-8.8h5l-3.1 4.3h4.6l3.1-4.3h5l-3 4.3h7.3v.2zm-22.6-5v-6.8h4.3v3.6h4.7V34h4.4v5.5h4.7v-3.6h4.3v6.8H93.2zm5.3 10.5h5v-2.3h-5v2.3zm0 5.5h5v-2.3h-5v2.3zm0 6.9h5V62h-5v3.6zM157 34.5v34.4h-27V34.5h27zm-4.9 14V38.2h-17.3v10.3h17.3zm-17.3 3.6v13.2h17.3V52.1h-17.3z" fill="#c74380"/><g fill="#d8be59"><path d="M60.6 85.2v54.4h-7.7V91.5h-2.8l-4-6.3h14.5zm35.3 41.9c0 3.9-1.3 7.1-3.8 9.6s-5.8 3.7-9.9 3.7c-4.1 0-7.5-1.3-10-3.8s-3.8-5.7-3.8-9.5V97.7c0-3.8 1.3-7 3.8-9.5s5.8-3.8 9.9-3.8c4.1 0 7.4 1.3 9.9 3.8s3.7 5.7 3.7 9.5v29.4h.2zm-7.5-29.4c0-2.2-.5-3.9-1.6-5.1-1.1-1.2-2.6-1.9-4.5-1.9s-3.5.6-4.6 1.9c-1.1 1.2-1.6 2.9-1.6 5.1v29.4c0 2.2.5 3.9 1.6 5.1 1.1 1.2 2.6 1.9 4.6 1.9 1.9 0 3.4-.6 4.5-1.9 1.1-1.2 1.6-2.9 1.6-5.1V97.7z"/><path stroke="#d8be59" stroke-width="2" d="M110.8 138.5h-4.3l16.8-52.1h4.3l-16.8 52.1z" stroke-linecap="butt" stroke-linejoin="miter"/></g><path d="M525.447-3.56119e+199h3.527-3.527zm5.671 0h.799-1.745.946zm.021 0h1.111-2.638 1.527zm2.154 0h.544-.544zm2.647 0h.798-1.745.947zm.021 0h1.11-2.638 1.528zm2.683 0h2.05-.514.006-2.099.557zm3.992 0h.602-.602zm-1.019 0h2.563-1.532.915-1.946zm3.13 0h1.921-1.779 2.511-1.909 1.966-2.71zm4.688 0h1.428-2.374 2.329-2.913 1.53zm.868 0h-1.799 1.799zm.92 0h2.864-1.092 1.141-2.971 1.141-1.083zm3.542 0h1.083-.539.539-1.534.451zm2.934 0h1.427-2.374 2.329-2.913 1.531zm.868 0h-1.8 1.8zm1.551 0h1.428-1.86 2.474-1.921 1.702-2.346.523zm2.904 0h.632-.632zm2.683 0h.602-.602zm-1.02 0h2.564-1.532.915-1.947zm4.465 0h.602-.602zm-1.02 0h2.564-1.532.915-1.947zm4.465 0h.602-.602zm-1.02 0h2.564-1.532.915-1.947z"/></g></svg>