<svg xmlns="http://www.w3.org/2000/svg" xmlns:xlink="http://www.w3.org/1999/xlink" viewBox="0 0 1031.81 1459.84"><defs><style>.cls-1{fill:none;}.cls-2{fill:#fff;}.cls-3{fill:#da87b6;}.cls-4{fill:#e271a8;}.cls-5{fill:#c84381;}.cls-6{fill:#f7da84;}.cls-7{fill:#73c9de;}.cls-8{fill:#f8d089;}.cls-9{fill:#92d3eb;}.cls-10{fill:#471030;}.cls-11{clip-path:url(#clip-path);}.cls-12{fill:#154e5e;}.cls-13{fill:#372a5d;}.cls-14{clip-path:url(#clip-path-2);}.cls-15{fill:#001b38;}.cls-16{fill:#837340;}</style><clipPath id="clip-path"><path class="cls-1" d="M870,1458.62h437.08c-7.06-21.64-23.95-73.41-31-95q-85.63-262.11-172-524l-170.21-6.16L817.11,894,714.59,1081.72l-136.45,85Z"/></clipPath><clipPath id="clip-path-2"><path class="cls-1" d="M135.76,1539.4-295.43,1415c7.05-21.64,23.95-73.41,31-95q85.62-262.11,172-524l184.59-.3,136.86,80.46q26.35,44.53,52.72,89.08L346.28,1047,508.64,1118Q322.21,1328.69,135.76,1539.4Z"/></clipPath></defs><g id="レイヤー_3" data-name="レイヤー 3"><rect class="cls-2" width="1031.81" height="1459.84"/></g><g id="レイヤー_28" data-name="レイヤー 28"><path class="cls-3" d="M883.08,555c-9.51-4.76-14.26-7.11-19.55-5.9-3.11.71-6.25,2.44-8.2,1a4.61,4.61,0,0,1-1.34-4.53c.47-1.95,1.68-2.07,2.45-4.39.32-.93.29-2.28.22-4.93s-.32-4.63-.33-4.72c-.26-2.29-.73-5.65-1.6-9.9h0c-2.82,3.66-4.84,6.62-6.17,8.65,0,.08-1.22,1.82-2.55,4.27s-2,3.66-2.14,4.62c-.38,2.38.68,2.87.19,4.81a5.6,5.6,0,0,1-3.39,3.77c-2.49.76-4.57-1.8-7.12-3.42-4.31-2.75-9.81-2-20.86-.57a109.59,109.59,0,0,0-20.9,4.92l22.92,10.29c1.86-.79,9-3.62,15.14-1.31,1.57.59,3.63,1.36,4.65,3.31a27.41,27.41,0,0,1,1.25,5.17,26.44,26.44,0,0,0,.62,2.78,16.58,16.58,0,0,0,1.48,3.42L826.2,582.8l7,3.82,4.52,3.87h0l6-2.18,8.3-1.36q-2.89-6.66-5.78-13.31a21.77,21.77,0,0,0,3-2.7c.69-.77,1-1.22,1.89-2.38a33.17,33.17,0,0,1,3.61-4.39c1.86-1.49,4.13-1.57,5.87-1.63,6.79-.23,12,4.58,13.36,5.88L900.06,566A92.24,92.24,0,0,0,883.08,555Z"/><path class="cls-3" d="M768,610.64c-6.08-7.54-9.13-11.28-13.95-12.26-2.85-.58-6.1-.31-7.15-2.27a4.26,4.26,0,0,1,.59-4.29c1.12-1.44,2.17-1.09,3.68-2.74a15.23,15.23,0,0,0,2-4c1-2.26,1.48-4,1.5-4.07.65-2,1.53-5,2.4-8.86h0c-3.71,2-6.49,3.7-8.36,4.9-.07.05-1.69,1.06-3.71,2.61a16.78,16.78,0,0,0-3.51,3c-1.21,1.85-.52,2.65-1.65,4.09a5.13,5.13,0,0,1-4.23,1.88c-2.35-.3-3.11-3.23-4.6-5.53-2.54-3.91-7.35-5.39-17.05-8.31a98.56,98.56,0,0,0-19.15-3.73L710,588.27c1.84,0,8.79.35,13,4.59,1.08,1.08,2.5,2.49,2.6,4.51a24.32,24.32,0,0,1-.9,4.78,24,24,0,0,0-.54,2.56,15.87,15.87,0,0,0-.06,3.4l-13.6,4.41,4.37,5.82c.76,1.65,1.53,3.29,2.29,4.94h0l5.8.43,7.38,2q.1-6.63.23-13.27a19.26,19.26,0,0,0,3.48-1.14,27.06,27.06,0,0,0,2.47-1.27,29.3,29.3,0,0,1,4.63-2.31,8.46,8.46,0,0,1,5.47.84c5.71,2.36,8.23,8.33,8.85,9.92L778,626.19A83.61,83.61,0,0,0,768,610.64Z"/><path class="cls-3" d="M812.52,516.5c-7.34-7.69-11-11.51-16.4-12.16-3.17-.38-6.71.18-8-1.86a4.6,4.6,0,0,1,.27-4.72c1.1-1.67,2.28-1.38,3.79-3.3.61-.77,1-2,1.87-4.56s1.26-4.48,1.28-4.56c.53-2.25,1.23-5.56,1.84-9.85h0c-3.89,2.48-6.79,4.58-8.73,6.05-.07.06-1.75,1.3-3.84,3.15s-3.1,2.78-3.57,3.63c-1.17,2.11-.33,2.93-1.45,4.59a5.6,5.6,0,0,1-4.46,2.4c-2.61-.12-3.7-3.24-5.55-5.62-3.13-4-8.54-5.24-19.44-7.59a109.36,109.36,0,0,0-21.33-2.43l18.09,17.43c2-.12,9.66-.38,14.69,3.88,1.28,1.09,3,2.51,3.25,4.69a26.34,26.34,0,0,1-.56,5.29,26.81,26.81,0,0,0-.36,2.82,17.07,17.07,0,0,0,.24,3.72l-14.52,6,5.31,6,3,5.18h0l6.41,0,8.26,1.52-.93-14.48a21.28,21.28,0,0,0,3.72-1.53c.91-.49,1.36-.81,2.58-1.6a33.12,33.12,0,0,1,4.88-2.91c2.27-.78,4.42-.08,6.07.45,6.48,2.08,9.77,8.37,10.6,10.05l25.34,6.51A91.72,91.72,0,0,0,812.52,516.5Z"/><path class="cls-3" d="M938.5,468.35c-11.32-6.28-17-9.37-23.46-8.18-3.83.7-7.73,2.63-10,.74a5.61,5.61,0,0,1-1.4-5.57c.67-2.33,2.15-2.42,3.21-5.19.42-1.12.46-2.75.51-6s-.15-5.65-.16-5.76c-.2-2.79-.6-6.89-1.44-12.09h0c-3.61,4.29-6.22,7.77-7.94,10.18-.07.09-1.57,2.14-3.31,5s-2.6,4.34-2.84,5.5c-.59,2.87.68,3.51,0,5.84a6.8,6.8,0,0,1-4.31,4.41c-3.07.8-5.47-2.43-8.48-4.53-5.1-3.55-11.82-3-25.33-1.78a133.49,133.49,0,0,0-25.66,4.9l27.33,13.68c2.3-.87,11.09-3.93,18.47-.8,1.89.79,4.35,1.83,5.48,4.26.41.87.69,2.69,1.27,6.34a28.26,28.26,0,0,0,.61,3.4,20.28,20.28,0,0,0,1.61,4.23l-14.69,12.16,8.33,5,5.31,4.94h0l7.43-2.34,10.14-1.22-6.33-16.45a25.79,25.79,0,0,0,3.76-3.13c.89-.89,1.29-1.43,2.43-2.79,2.51-3,3.77-4.52,4.61-5.13,2.34-1.72,5.1-1.69,7.21-1.67,8.28.07,14.39,6.17,15.95,7.83l31.8-1.61A111.59,111.59,0,0,0,938.5,468.35Z"/><path class="cls-4" d="M892.56,327.23c-14.9-.58-22.33-.83-28.38,3.77-3.57,2.7-6.59,6.73-9.92,6-2.08-.47-3.9-2.71-4.34-5-.52-2.75,1-3.61.61-7-.15-1.37-1-3.07-2.58-6.41s-3.08-5.73-3.15-5.84c-1.66-2.77-4.19-6.78-7.75-11.69h0c-1.49,6.29-2.36,11.23-2.88,14.59,0,.13-.51,3-.79,6.91s-.42,5.82-.07,7.13c.88,3.26,2.52,3.27,3,6a7.9,7.9,0,0,1-2.15,6.77c-2.75,2.41-6.89.34-11.07-.25-7.1-1-13.72,3.06-27,11.32a153.66,153.66,0,0,0-23.86,18.35l35.22-.11c1.92-2.08,9.37-9.8,18.59-10.42,2.35-.16,5.42-.36,7.85,1.54.87.69,2.11,2.41,4.59,5.87a37.31,37.31,0,0,0,2.4,3.19,22.87,22.87,0,0,0,3.86,3.5q-4.41,10.08-8.81,20.14l11.17.82,8,2.33h0l6.43-6.27,9.81-6.53-15.06-13.64a30.07,30.07,0,0,0,2.25-5.17c.45-1.37.58-2.14,1-4.12,1-4.41,1.54-6.61,2.08-7.68,1.52-3,4.38-4.39,6.56-5.47,8.55-4.22,18-1.11,20.47-.22l31.89-18.17A129.29,129.29,0,0,0,892.56,327.23Z"/><path class="cls-4" d="M1008.25,377.4c-12.89-6.07-19.33-9-26.37-7.27-4.15,1.05-8.3,3.46-11,1.55a6.2,6.2,0,0,1-1.94-6c.56-2.61,2.19-2.81,3.14-5.93.39-1.27.31-3.06.13-6.6s-.58-6.19-.6-6.31c-.42-3.06-1.15-7.53-2.46-13.18h0c-3.65,5-6.27,9-8,11.76-.06.11-1.57,2.47-3.27,5.78s-2.54,5-2.72,6.25c-.44,3.19,1,3.81.41,6.42a7.47,7.47,0,0,1-4.41,5.15c-3.32,1.11-6.19-2.26-9.65-4.34-5.86-3.54-13.2-2.42-28-.11a147.1,147.1,0,0,0-27.83,7.25l31,13c2.47-1.12,11.89-5.12,20.23-2.23,2.13.74,4.91,1.7,6.34,4.28.51.93,1,2.91,1.84,6.87a37.48,37.48,0,0,0,.92,3.7,22,22,0,0,0,2.09,4.52L933,416.4q4.75,2.44,9.52,4.88l6.18,5h0l8-3.11,11.06-2.09-8.16-17.61a27.58,27.58,0,0,0,3.91-3.71,40.53,40.53,0,0,0,2.45-3.24c2.55-3.49,3.82-5.24,4.7-6,2.45-2.05,5.48-2.22,7.8-2.36,9.09-.52,16.25,5.74,18.09,7.44l34.81-4.09A122.67,122.67,0,0,0,1008.25,377.4Z"/><path class="cls-5" d="M987.6,199c-12.7,10.62-19,15.95-20.57,24.24-.92,4.89-.4,10.45-3.72,12.31-2.06,1.15-5.23.67-7.29-.89-2.48-1.88-1.9-3.69-4.73-6.22-1.14-1-3.07-1.82-6.89-3.37s-6.81-2.41-6.95-2.45c-3.43-1-8.5-2.46-15.1-3.85h0c3.46,6.29,6.42,11,8.5,14.16.08.13,1.83,2.87,4.5,6.29s4,5.09,5.26,5.91c3.15,2,4.51.81,7,2.71a8.73,8.73,0,0,1,3.27,7.18c-.46,4-5.41,5.42-9.3,8-6.59,4.46-9,12.75-13.78,29.43a170.77,170.77,0,0,0-6,32.89l28.92-26.34c0-3.14.41-15,7.54-22.42,1.82-1.89,4.19-4.35,7.61-4.59,1.23-.08,3.53.42,8.15,1.41a39.7,39.7,0,0,0,4.35.84,25.56,25.56,0,0,0,5.78,0q3.89,11.58,7.76,23.15l9.8-7.65,8.34-4.06h0l.63-9.95,3.21-12.68H991.32a32.1,32.1,0,0,0-2-5.93c-.66-1.47-1.12-2.2-2.22-4.18-2.44-4.39-3.66-6.58-4-7.87-1-3.59.33-6.87,1.33-9.39,3.89-9.84,14-14.33,16.69-15.43l12.71-38.71A143,143,0,0,0,987.6,199Z"/><path class="cls-5" d="M737.17,137c10.2,23.91,15.34,35.79,27.09,41.91,6.92,3.6,15.51,5.35,16.8,11.17.8,3.62-1.37,8.16-4.65,10.56-3.95,2.87-6.4,1.18-11.5,4.27-2,1.25-4.12,3.79-8.18,8.83s-6.72,9.14-6.84,9.32c-3.13,4.68-7.56,11.66-12.65,20.93h0c11-2.35,19.45-4.65,25.14-6.34.22-.06,5.13-1.45,11.48-3.9s9.47-3.67,11.28-5.22c4.47-3.81,3.26-6.4,7.23-9.24,3.31-2.37,8.63-3.22,12.27-1.66,5.86,2.53,5.68,10.6,7.86,17.63,3.69,11.93,15,19.32,38,34.07a267.92,267.92,0,0,0,46.7,23.9q-13.21-27.71-26.44-55.4c-4.71-1.47-22.41-7.45-30.26-21.51-2-3.59-4.62-8.27-3.43-13.52.43-1.88,2.23-5.12,5.82-11.6a62.92,62.92,0,0,0,3.23-6.15,41,41,0,0,0,2.65-8.69L887,175.23q-3.53-9.1-7-18.2-1.15-7.18-2.32-14.37h0L863,137.2l-17.59-10.58-10.26,33.9a51.49,51.49,0,0,0-9.82.3c-2.5.32-3.8.68-7.28,1.44-7.7,1.67-11.55,2.51-13.64,2.44-5.84-.17-10.18-3.61-13.5-6.25-13-10.32-15.17-27.53-15.61-32.08L722.91,89.69A225.25,225.25,0,0,0,737.17,137Z"/></g><g id="レイヤー_35" data-name="レイヤー 35"><path class="cls-6" d="M795.49,770.28c-2.18-9.71,42.42-17.86,87-61.21a233.06,233.06,0,0,0,29.52-35c1.13,1.87,24.5,41.82,5.92,71.37-11.12,17.66-31.3,22.19-54.14,27.32C834.44,779.34,797.43,778.94,795.49,770.28Z"/><path class="cls-6" d="M516.82,721.2c-21.24-24.93,21.34-83.31,24.34-87.34,23-31,52.86-45.45,69.36-51.91-4.12,3.52-42.89,37.64-37.71,87.64,2.59,25,15,42.55,21.57,50.66C561.84,735.09,529.55,736.14,516.82,721.2Z"/><path class="cls-7" d="M467.84,660.63c1.13,29.44,56.31,50.44,69,55A117.78,117.78,0,0,1,540,656.29c16.41-50.4,62.53-70.94,70.49-74.34C522.13,595.2,466.67,630.53,467.84,660.63Z"/><path class="cls-6" d="M742.7,835.89c55.92-52.56,126.29-48.62,138.52-47.73q-64.74,47-128.73,95.09-31.11,23.36-62,47C694,913.29,705.15,871.18,742.7,835.89Z"/><path class="cls-7" d="M881.22,788.16c-40.37-24.82-85.87-29.69-116.34-10.64-16.06,10-26.94,26.08-27.89,27.51a99.66,99.66,0,0,0-16.37,55,238,238,0,0,1,160.6-71.91Z"/><path class="cls-7" d="M856.42,673c-9.84,39.92-48,57.26-71,47.22-17.43-7.62-28.86-32.17-24.83-59,3.34,4.27,17.14,20.91,41.69,25.33C831.45,691.76,853,675.64,856.42,673Z"/><path class="cls-6" d="M856.42,673c-8.38,32.81-24.38,52.43-34.1,62.34C811,746.87,796.88,761.23,782.24,758c-20.39-4.56-33.19-37.81-24.36-49.56,8-10.6,28.73,2.84,58.08-6.58C834.92,695.73,848.07,683.11,856.42,673Z"/><path class="cls-3" d="M755.48,759.42A135.71,135.71,0,0,0,760,731.19c7.6,2,27,6,48.57-2.41,36.31-14.25,46.72-51.48,47.85-55.8.06,15.79-2,56.95-31.46,90.86-31.7,36.48-82.05,49.53-88,41.19C733.42,800,747.43,789.05,755.48,759.42Z"/><path class="cls-7" d="M473,619.14c-3.79,3.23-16.47,13.23-30.4,10.22-9.09-2-15.64-8.82-24.93-24.8a249.73,249.73,0,0,1-27-68.72q23.82,25.71,50.16,52Q457.05,604,473,619.14Z"/><path class="cls-3" d="M443.9,684.71c-9.75-4.33-35.56-17.38-51.7-46.81-26.11-47.63-4.08-96.54-1.48-102.06C405.65,596,425.46,616.07,441.26,623c4,1.76,12.09,4.57,16.22,12.34C465,649.46,454.05,669.9,443.9,684.71Z"/><path class="cls-7" d="M426.49,720.25c-14.65,13.52-62.67-5.43-80.83-35.75-22.13-37-5.19-97.62,45.06-148.66-3.62,13.39-19.63,77.6,16.85,120.31a90.14,90.14,0,0,0,16.13,14.76C429.17,685.27,437,710.56,426.49,720.25Z"/><path class="cls-6" d="M473.41,703.74a187.8,187.8,0,0,1,22.33-126.09,167.16,167.16,0,0,0,.95,69.09,158.75,158.75,0,0,0,5.53,18.69Z"/><path class="cls-3" d="M791.7,703c-1.08-3.92-22.52-77.59-87.69-93.29-5.1-1.23-34.81-7.94-66.74,6-73.1,31.92-78.49,137.5-78.93,149.55a204.58,204.58,0,0,0,4.4,50.14c5.63-21.8,18.38-57,49-88.42,15.63-16,58.52-59.92,116.31-53.3C758.59,677.2,780.58,693.34,791.7,703Z"/><path class="cls-6" d="M791.7,703c-2.24-3.2-43.57-60.44-102.63-54.28-7.79.82-46.7,4.89-64.49,36.48-8.05,14.3-8.61,28.68-8.22,36.84l75.91,30.44c-1.7-6.16-7.2-28.78,4.83-45.65C712.87,684.73,754.32,678.74,791.7,703Z"/><path class="cls-7" d="M791.7,703c-24-24.46-56.08-35.4-83.13-26.83-5.25,1.66-25.26,8-36.48,28.06-2.5,4.46-8.63,16.86-7,32.18,2.38,21.85,19.71,41,43.86,49.58,22.58,11.35,49.47,8.53,68-7C798.38,761,804.81,729.45,791.7,703Z"/><path class="cls-6" d="M495.74,577.65c-12,15.77-27.43,40.77-33.14,73.83-5.47,31.66,1.66,49.58,1.84,79.74.15,26.1-4.89,64.09-30.36,111.13-6.65-8-50.46-62.52-37.79-137.52C411.06,617.45,489.26,580.56,495.74,577.65Z"/><path class="cls-3" d="M486,817.21q12.85-44.9,25.73-89.79a114.2,114.2,0,0,1-22.2-31.91c-24.5-52.82,1-107.26,6.25-117.86-7.51,8-66.53,72.85-50.59,158C452.64,775.52,473.49,803.2,486,817.21Z"/><path class="cls-6" d="M490.41,798.29a142.71,142.71,0,0,1-6.09-77.08c10.52-51.84,47.26-80.37,56.84-87.35-4,5.21-24.43,32.57-19,69.76a91.36,91.36,0,0,0,23.09,48.06Q517.83,775,490.41,798.29Z"/><path class="cls-3" d="M520,731.48c-12.43-32.19-4.11-70.08,21.12-97.62-1.84,7.16-10,42.22,10.68,74.57a89.37,89.37,0,0,0,30.39,28.89l-15.59,42.89C559.48,776.83,532.19,762.92,520,731.48Z"/><path class="cls-3" d="M541.16,633.86c-14.62,7-65.13,33.57-92.81,94.31C425.24,778.87,431,825,434.08,842.35l60.38-29.21c-4.93-11.26-20.46-50.39-7.56-98.66C499.49,667.33,531.21,641.38,541.16,633.86Z"/><path class="cls-6" d="M428.51,662.09c-11.89-3.54-60-16.42-101.13,10.24-30.82,20-52.7,59-43.6,70.94,8.5,11.17,45.89,1.12,70.21-15.86,9.82-6.85,13.8-10.23,27.31-25.6A212.07,212.07,0,0,1,428.51,662.09Z"/><path class="cls-3" d="M356.3,732.26a196.44,196.44,0,0,1,72.21-70.17,127.45,127.45,0,0,0-20.43,79.45,38.19,38.19,0,0,1-51.78-9.28Z"/><path class="cls-6" d="M481.31,800.13a137.93,137.93,0,0,1-7.85-26.9,135.16,135.16,0,0,1-1.71-37.66A129.62,129.62,0,0,1,488,685c-14,11.45-33.83,31.87-42.48,62.23-6.81,23.88-4.35,45.63-2,66.11a253.06,253.06,0,0,0,8.85,43.11Q466.85,828.31,481.31,800.13Z"/><path class="cls-7" d="M356.76,674.29A117,117,0,0,1,359.62,704c-.32,10-.76,23.73-8.38,38.83a77.56,77.56,0,0,1-23.37,27.33c6.54,28.64,13.57,34.12,18.33,34.6,15.44,1.57,42.35-44.35,34.1-86.63C376.05,696.38,363.67,681.47,356.76,674.29Z"/><path class="cls-6" d="M294.14,850.53l111.34,22.36a228.91,228.91,0,0,1,11.06-83.07c18.39-55.89,53.9-90,71.45-104.79a258.87,258.87,0,0,0-45.71,11.87c-6.64,2.38-30,11.18-57.54,29.53-12.34,8.24-30.1,20.08-47.05,39.12C325.77,778.94,304.87,806.41,294.14,850.53Z"/><path class="cls-6" d="M286.25,742.58c9.05-20.05,26.83-33.53,46.33-34.5,13.82-.69,24.47,5.1,29.38,8.25a99.92,99.92,0,0,1-3.48,16.5c-6.45,21.32-18.82,36-27.49,44.43q-58.42-11.22-58.54-23Q272.39,748.46,286.25,742.58Z"/><path class="cls-7" d="M464.37,884.71a151.22,151.22,0,0,1-19-62.08c-2.12-28,4.13-49.1,10-68.46A261.5,261.5,0,0,1,488,685a270.65,270.65,0,0,0-52.2,51.57c-7.46,9.7-16.82,22.21-24.12,38.11-6.75,14.69-18.17,47.44-6.19,98.18Z"/><path class="cls-7" d="M242.11,760.62Q216.43,720,190.73,679.35c20-39.73,65.06-59.61,106-48,37.07,10.53,63.79,44.95,65.26,85L314.27,685.8a61.64,61.64,0,0,0-24.17,3.89C250.81,704.63,242.73,756.28,242.11,760.62Z"/><path class="cls-6" d="M294.9,755.28c.11-2.77,1.26-22.61,18-35.21,13.81-10.37,32.84-11.79,49-3.74-.25-2.91-2.81-28.15-25.37-42.37-17.24-10.86-36.64-9.29-49.43-4.3-25.21,9.85-41.63,39.59-38.54,73.23Z"/><path class="cls-3" d="M228.65,743.19c.9,3.81,9.71,39.5,29.27,42.68,21.09,3.43,47.91-32.07,46.39-65.21-1-22.5-14.88-38.19-20.3-43.75.69,6,1.61,21.14-7.2,36.48C261.81,739.49,231.91,742.88,228.65,743.19Z"/><path class="cls-7" d="M395.06,870.8a203.28,203.28,0,0,1-66.39-129,190.13,190.13,0,0,0-13.24,30.22,197.23,197.23,0,0,0-9.34,80.87Z"/><path class="cls-3" d="M183.82,687.51l9.2,34.31c1-49.35,42.32-87.63,88.08-85.78,41.47,1.68,77.33,35.94,80.86,80.29,2.09-55.28-29.69-101.12-71.42-111.5-23.28-5.79-54.54-1.75-78.08,19.36C185.4,648.47,184,681.52,183.82,687.51Z"/><path class="cls-7" d="M220.55,835.76a127.71,127.71,0,0,1,9.69-25.32,129.25,129.25,0,0,1,41.09-47,127.52,127.52,0,0,1,57.34-21.6c-14.45,8.11-40.5,25.48-59.73,57.41a158.32,158.32,0,0,0-17.75,42.66Z"/><path class="cls-3" d="M248.62,841.39A159.62,159.62,0,0,1,288,771.86a156.54,156.54,0,0,1,40.7-30L274.34,846.56Z"/><path class="cls-8" d="M380.7,867.91a77.58,77.58,0,0,0,11.36-19.85c4-10.23,4.61-18.45,5.62-33,.92-13.24,1.49-21.49-.25-32.71A106.85,106.85,0,0,0,388,752.26c-1.22,17.15-6,48.59-27.43,79.19a150,150,0,0,1-24.79,27.44Z"/><path class="cls-3" d="M389.25,891a39.48,39.48,0,0,1-23.1-11.92c7.92-9.22,33.76-41.62,31.47-86.64A114.52,114.52,0,0,0,388,752.26a151.07,151.07,0,0,1,28.75,46.6,153.14,153.14,0,0,1,8.5,77.07C424.2,877.19,410.08,893.68,389.25,891Z"/><path class="cls-6" d="M314.15,854.55l-39.81-8a287,287,0,0,1,14.55-44c4-9.53,8.16-19.19,15.61-30.87a169.07,169.07,0,0,1,24.17-29.8,154.95,154.95,0,0,0-14.52,112.71Z"/><path class="cls-3" d="M276.85,847.06c15.74-3.73,51.55-14.58,81.35-47.13A156,156,0,0,0,388,752.26a152.62,152.62,0,0,1-52.22,106.63Z"/><path class="cls-3" d="M727,742.75a104.43,104.43,0,0,1-107.08-43.49c-2.08,4.3-5.38,12.82-3.58,22.8,3.46,19.17,22.92,28.15,29.77,31.31,16.88,7.78,32.66,5.1,43.32,3.42A101.6,101.6,0,0,0,727,742.75Z"/><path class="cls-6" d="M619.5,724.07c3.56,4.59,21,26,52.21,30.61,28.62,4.2,49.9-8.48,55.31-11.93-13.1,42-55.87,58.66-81.69,45.76C626.19,779,614.67,752.33,619.5,724.07Z"/><path class="cls-7" d="M600.05,808.09c-24.73-14.51-15.58-77.49,2.9-118.16a174.52,174.52,0,0,1,31-46.41,182.44,182.44,0,0,0-10.14,51.41c-.92,18.78-2.35,47.87,14.93,75.65A99.71,99.71,0,0,0,658,793.07C619.83,818.22,603.69,810.23,600.05,808.09Z"/><path class="cls-7" d="M556.47,800.84l-47.78-21.13A400.08,400.08,0,0,1,634,643.52Q595.22,722.18,556.47,800.84Z"/><path class="cls-6" d="M612.22,813.39l-59.72-8.07A282.45,282.45,0,0,1,634,643.52a162.37,162.37,0,0,0-21.75,169.87Z"/><path class="cls-3" d="M579.62,797.91l-3.09,56.59a169.08,169.08,0,0,0,64-8.68c69.4-23.77,100-86.52,106.87-101.73a223.49,223.49,0,0,1-167.78,53.82Z"/><path class="cls-7" d="M579.29,840.85a187.83,187.83,0,0,0,73.18-13.26c56.66-22.69,85.37-67,94.93-83.5-8.35,26.75-36.55,105.52-102.34,126.48-24.38,7.76-67.77,12-74.81-3.23C566.69,859.65,573,849,579.29,840.85Z"/><path class="cls-3" d="M747.4,744.09c-13.09,32.56-44.61,95.78-111.38,128a191.93,191.93,0,0,1-28.34,11q10.23,20.94,20.47,41.87c34.19,12.84,56.14,6.28,64.85,2.82C740.53,908.86,769,833.51,747.4,744.09Z"/><path class="cls-6" d="M660,883.26C656.34,881.17,589,843.17,549.82,873c-11.69,8.88-26.75,28.26-20.62,42.64,6,14.17,30.69,18.91,47.23,12.44,13.06-5.1,14.64-14.68,27.32-25.6C613.55,894,630.28,884.52,660,883.26Z"/><path class="cls-3" d="M742.32,1071.39l14.43-57.32,24.34,45.83Z"/><path class="cls-3" d="M787.91,1105.68c-.71-.48-16-11.12-14.68-28.18a30,30,0,0,1,7.86-17.6l26.41,49.71Z"/><path class="cls-3" d="M755,1099a125,125,0,0,1,28.37-50.25,230.58,230.58,0,0,1,24.09,60.84Z"/><path class="cls-3" d="M586.57,877.89c-6.94-11.08-17.47-24.62-28.28-23.37-24.93,2.89-43.93,81.79-29.11,90.42,10,5.84,40.26-17.88,52.16-47.1A80.05,80.05,0,0,0,586.57,877.89Z"/><path class="cls-7" d="M724.14,1092.88a93,93,0,0,1,32-33.08,91.12,91.12,0,0,1,27.23-11A156.75,156.75,0,0,0,755,1099Z"/><path class="cls-7" d="M721.53,1053.18a54.45,54.45,0,0,1-30.43,21.35c1.67-6.72,4-16.08,6.89-27.29,3.73-14.57,5.71-21.93,7.49-27.1,3.23-9.4,7.49-21.53,16.46-34.94a124,124,0,0,1,19.38-22.55,162.74,162.74,0,0,0-12.93,32.63,176.45,176.45,0,0,0-4.57,22.54A219.93,219.93,0,0,0,721.53,1053.18Z"/><path class="cls-7" d="M578.74,932.93c3.77-7.48,15.26-27.8,39.87-40.2A89.59,89.59,0,0,1,660,883.26c-2.85.93-18.74,6.42-27.17,23.53a47.25,47.25,0,0,0-2.25,35.42,38.2,38.2,0,0,1-51.79-9.28Z"/><path class="cls-6" d="M703.75,1000.8a137.93,137.93,0,0,1-7.85-26.9,135.16,135.16,0,0,1-1.71-37.66,129.44,129.44,0,0,1,16.25-50.54c-14,11.45-33.84,31.87-42.49,62.23-6.81,23.88-4.35,45.63-2,66.11a254.18,254.18,0,0,0,8.84,43.11Q689.3,1029,703.75,1000.8Z"/><path class="cls-3" d="M721.06,1054.91a166.31,166.31,0,0,1,5.61-57.6,164.08,164.08,0,0,1,8.65-23.6l21.43,40.36Z"/><path class="cls-3" d="M660.21,1080c.48-12.31,3.64-53.46,35.78-87.07a127.79,127.79,0,0,1,45.33-30.32c-14.41,16.64-35.73,46.39-44.26,88.23a185,185,0,0,0-3.7,35.78Z"/><path class="cls-3" d="M586.57,877.89a130.84,130.84,0,0,1-1.12,28c-1.42,9.52-3.48,22.87-11.77,37.54a94.45,94.45,0,0,1-23.36,27.33c6.54,28.64,13.56,34.12,18.32,34.6,15.12,1.53,40.12-43.88,34.1-86.63A96.82,96.82,0,0,0,586.57,877.89Z"/><path class="cls-6" d="M516.58,1051.2l111.34,22.36A228.91,228.91,0,0,1,639,990.49c18.4-55.89,53.9-90,71.46-104.79a258.94,258.94,0,0,0-45.72,11.87c-13.3,4.78-34.81,12.69-57.54,29.53-18.08,13.4-28.88,26.49-39.52,39.56A361,361,0,0,0,516.58,1051.2Z"/><path class="cls-7" d="M686.81,1085.38a151.22,151.22,0,0,1-19-62.08c-2.12-28,4.13-49.1,10-68.46a261.59,261.59,0,0,1,32.62-69.14,270.36,270.36,0,0,0-52.21,51.57c-7.46,9.7-16.81,22.21-24.12,38.11-6.75,14.69-18.17,47.44-6.19,98.18Z"/><path class="cls-6" d="M508,933.41a102.28,102.28,0,0,0,78.55-55.52,112.54,112.54,0,0,1-34.45,93.83c-7.94-.32-57.38-2.61-60.09-18C491.49,950.63,492.3,944,508,933.41Z"/><path class="cls-7" d="M464.56,961.29,413.17,880a223.22,223.22,0,0,1,218.12-66,204.7,204.7,0,0,0-53.36,17.11C504.47,866.47,474,936.49,464.56,961.29Z"/><path class="cls-6" d="M507.09,994.62c4.58-28.4,19.15-92.13,72.89-143.52A234.76,234.76,0,0,1,631.29,814a203.52,203.52,0,0,0-62.54,21.83c-25.59,14-41.46,29.83-51.13,39.65-32.5,33-51.06,69.55-61.76,98.32Z"/><path class="cls-7" d="M617.5,1071.47a203.28,203.28,0,0,1-66.39-129,191,191,0,0,0-13.24,30.22,197.21,197.21,0,0,0-9.34,80.87Z"/><path class="cls-3" d="M406.26,888.18a230.85,230.85,0,0,1,71.22-55.35c66.86-33.25,130.74-23.54,153.81-18.86a164.43,164.43,0,0,0-72-35.5c-9.26-1.94-36.29-7.61-63.19-.25C429.37,796.47,407.53,882.83,406.26,888.18Z"/><path class="cls-6" d="M473.15,866.54a45,45,0,0,0-15.77-7.76c-27.13-7.07-52.31,13.63-60,20-23.75,19.69-30.93,45.83-33.18,56.33,22.9,14.37,36,13.37,43.67,10,13-5.62,14.55-20.09,28.24-40.12A163.84,163.84,0,0,1,473.15,866.54Z"/><path class="cls-6" d="M314.9,966.76c-14.25,7.69-32,24.69-28.89,36,7.81,28,145.38,27.13,151,2.56,3.42-14.92-40.92-42.5-82-45.47C331.46,958.15,317.84,965.18,314.9,966.76Z"/><path class="cls-7" d="M441.74,1000.28a143.07,143.07,0,0,1,31.41-133.74A71.82,71.82,0,0,0,449,869.38c-41.15,12.27-56.49,58.54-58.68,65.49Z"/><path class="cls-3" d="M437,1009.17l4.72-8.89C428.6,963.59,408,944,396.64,935c-11.61-9.24-23.88-19-37.75-16.13-15.54,3.2-27.84,21.15-31.49,45.23a105.26,105.26,0,0,1,109.62,45Z"/><path class="cls-7" d="M447.47,1037.32l-140.74-28.25c52.38-29.8,104.77-29.36,127.64-3.84C439.05,1010.45,445.58,1020.17,447.47,1037.32Z"/><path class="cls-6" d="M449.9,892.94a114.29,114.29,0,0,1,23.25-26.4,150.8,150.8,0,0,0-5.55,55.7c3.28,35.56,16.21,48.21,12.56,77.19-3.26,25.86-18.42,51.44-27.88,50.22-3.92-.5-6.43-5.56-9.29-13.22-13.73-36.85-11.71-70.24-11.43-74.31C433.16,939.47,434.73,916.77,449.9,892.94Z"/><path class="cls-6" d="M749,1052.94c2.58-8.63,3.33-14.93,4.73-23.35,2.29-13.71,5.91-33.57,11.56-58.52A253.56,253.56,0,0,1,741,1023.41c-11.34,18.47-21.26,29.18-28.94,36.29-10.27,9.51-17,13-20.93,14.83a67.69,67.69,0,0,1-28.49,6l68.31,13.66A201.18,201.18,0,0,0,749,1052.94Z"/><path class="cls-7" d="M443,1036.43a127.71,127.71,0,0,1,9.69-25.32,129.25,129.25,0,0,1,41.09-47,127.44,127.44,0,0,1,57.34-21.6c-14.45,8.11-40.5,25.48-59.72,57.41a157.67,157.67,0,0,0-17.75,42.66Z"/><path class="cls-3" d="M471.06,1042.06a159.62,159.62,0,0,1,39.35-69.53,156.54,156.54,0,0,1,40.7-30l-54.33,104.72Z"/><path class="cls-7" d="M603.14,1068.58a77.58,77.58,0,0,0,11.36-19.85c4-10.23,4.61-18.45,5.62-33,.92-13.24,1.5-21.49-.25-32.71a106.85,106.85,0,0,0-9.43-30.08c-1.21,17.15-6,48.59-27.42,79.19a150.42,150.42,0,0,1-24.8,27.44Z"/><path class="cls-3" d="M627.92,1073.56l-24.78-5c6.84-12.42,19.61-39.88,16.93-75.44a131.48,131.48,0,0,0-9.63-40.21,151.07,151.07,0,0,1,28.75,46.6,153,153,0,0,1,8.5,77.07Z"/><path class="cls-6" d="M536.59,1055.22l-39.81-8a287,287,0,0,1,14.55-44.05c4-9.54,8.17-19.19,15.61-30.87a169.07,169.07,0,0,1,24.17-29.8,155.08,155.08,0,0,0-14.52,112.71Z"/><path class="cls-3" d="M499.29,1047.73c15.74-3.73,51.55-14.58,81.36-47.13a156.16,156.16,0,0,0,29.79-47.67,152.62,152.62,0,0,1-52.22,106.63Z"/></g><g id="レイヤー_31" data-name="レイヤー 31"><path class="cls-6" d="M970.41,638.83c-32.68-2.05-45.06-73.24-45.88-78.2-6.26-38,4.07-69.6,10.9-85.95-.34,5.41-2.75,57,36.8,88,19.74,15.49,41,18.83,51.41,19.7C1011.7,616.11,990,640.06,970.41,638.83Z"/><path class="cls-7" d="M892.82,632c22,19.65,75.41-5.43,87.55-11.36A117.88,117.88,0,0,1,939.88,577c-24.83-46.82-7.55-94.26-4.45-102.34C883.52,547.43,870.37,611.86,892.82,632Z"/><path class="cls-7" d="M866.6,599.39c-.32,5-1.94,21-13.79,29-7.74,5.17-17.22,5.12-35.16.69a249.59,249.59,0,0,1-68.14-28.38q35,.75,72.27.11Q844.61,600.35,866.6,599.39Z"/><path class="cls-5" d="M893.51,665.9c-9.9,4-37.22,13.49-69.6,4.63-52.39-14.33-72.24-64.16-74.4-69.87,53.59,31.05,81.82,30.79,97.78,24.24,4.06-1.66,11.69-5.52,20.15-3.08C882.8,626.24,889.91,648.3,893.51,665.9Z"/><path class="cls-7" d="M907,703.12c-.47,19.93-47.47,41.28-81.89,33.26-42-9.77-73.79-64.11-75.56-135.72,7.1,11.91,42.15,68.05,98.21,71.51a90.31,90.31,0,0,0,21.82-1.34C883.67,676.87,907.29,688.83,907,703.12Z"/><path class="cls-6" d="M927.69,657.9a187.8,187.8,0,0,1-75.14-103.69,167.3,167.3,0,0,0,50.34,47.34,161.19,161.19,0,0,0,17.29,9Q923.93,634.24,927.69,657.9Z"/><path class="cls-5" d="M1148.39,428.56c-3.56-1.95-71.43-37.74-128-1.8-4.43,2.82-29.9,19.52-42.07,52.17-27.85,74.75,44.31,152,52.67,160.69a204.39,204.39,0,0,0,39.11,31.68c-11.76-19.19-28.24-52.86-29.5-96.69-.65-22.35-2.42-83.72,42.51-120.67C1106.82,434.42,1133.71,429.83,1148.39,428.56Z"/><path class="cls-6" d="M1148.39,428.56c-3.85-.61-73.73-10.68-110.35,36.07-4.83,6.16-28.95,37-18.59,71.72,4.68,15.72,14.63,26.11,20.77,31.51l74.65-33.43c-5.62-3-25.7-14.82-29.47-35.19C1080.46,472.53,1105,438.56,1148.39,428.56Z"/><path class="cls-6" d="M852.55,554.21c3,19.56,10.26,48.06,30.06,75.14,19,25.94,36.8,33.27,58.6,54.1,18.88,18,42.69,48.06,58.81,99.07-10.38-.78-80-7.17-125.14-68.41C822.32,642.76,850.15,560.9,852.55,554.21Z"/><path class="cls-5" d="M1018,727.75l-46.67-80.9A114.59,114.59,0,0,1,933,640.62c-55-19.1-76.41-75.28-80.4-86.41.53,11,6.14,98.47,78.41,146.15C964.86,722.73,999.26,727,1018,727.75Z"/><path class="cls-6" d="M1007.49,711.4a142.78,142.78,0,0,1-59.65-49.2c-30-43.59-24.94-89.83-23.31-101.57.94,6.53,6.45,40.2,37,62.13a91.29,91.29,0,0,0,50.6,16.8Q1009.79,675.49,1007.49,711.4Z"/><path class="cls-5" d="M980.05,643.66c-31.79-13.43-53.25-45.75-55.52-83,3.88,6.29,23.38,36.56,61.05,44.15a89.36,89.36,0,0,0,41.89-1.78l20,41C1040.06,646.82,1011.1,656.77,980.05,643.66Z"/><path class="cls-5" d="M924.53,560.63c-5.09,15.39-21.12,70.15,3.31,132.27,20.4,51.86,57.55,79.76,72.18,89.62l21-63.72c-11.53-4.27-50.46-20.31-76.2-63.13C919.65,613.84,923,573,924.53,560.63Z"/><path class="cls-6" d="M866.54,661.24c-10.8,6.09-53.53,31.76-62.93,79.83-7,36,5.79,78.88,20.7,80.65,14,1.65,32.71-32.21,37.41-61.5,1.89-11.83,2.23-17,.57-37.44A212.16,212.16,0,0,1,866.54,661.24Z"/><path class="cls-5" d="M866.81,761.93a196.56,196.56,0,0,1-.27-100.69,127.4,127.4,0,0,0,42.93,69.91,38.22,38.22,0,0,1-42.66,30.78Z"/><path class="cls-6" d="M1002.49,719.22a138,138,0,0,1-24.8-13.05,134.79,134.79,0,0,1-28.26-24.95,129.17,129.17,0,0,1-25-46.81c-1.48,18-.6,46.48,15.21,73.8,12.44,21.5,29.79,34.85,46.16,47.37a253.58,253.58,0,0,0,37.15,23.6Q1012.7,749.21,1002.49,719.22Z"/><path class="cls-7" d="M825.44,721.31a116.73,116.73,0,0,1,23.33,18.56c6.94,7.16,16.53,17,22.09,33a77.59,77.59,0,0,1,3.41,35.8c25.14,15.2,34,14,37.61,10.87,11.86-10-2.44-61.27-38.58-84.72C854.74,722.79,835.41,721.33,825.44,721.31Z"/><path class="cls-6" d="M908.64,888.82l93.46-64.51a228.7,228.7,0,0,1-52-65.69c-27.4-52.07-27.26-101.31-25.68-124.21a259,259,0,0,0-23.24,41.12,272.61,272.61,0,0,0-18.76,61.9c-2.66,14.6-6.48,35.59-4.57,61C879.15,816.32,884.37,850.44,908.64,888.82Z"/><path class="cls-6" d="M825.54,819.46c-8.12-20.44-5.46-42.59,7.39-57.29,9.11-10.41,20.68-14,26.35-15.38a98.64,98.64,0,0,1,9.45,14c10.84,19.45,12.79,38.54,12.84,50.64q-48.68,34.2-57.24,26.09Q820.15,833.53,825.54,819.46Z"/><path class="cls-7" d="M1051.53,790.18a151.13,151.13,0,0,1-57.82-29.51c-21.61-17.95-32.43-37.09-42.29-54.75a261.41,261.41,0,0,1-27-71.51,270.83,270.83,0,0,0,.79,73.39c1.8,12.1,4.28,27.52,10.64,43.83,5.87,15,21.48,46,66.29,72.68Z"/><path class="cls-7" d="M807.83,863.74,713.69,844.2c-14.67-42,2.36-88.21,39.14-109.55,33.33-19.34,76.65-14.63,106.45,12.14l-55.09,13.07a61.71,61.71,0,0,0-14,20.08C773.62,818.57,805.14,860.28,807.83,863.74Z"/><path class="cls-6" d="M840.68,822.08c-1.91-2-15.38-16.63-12.77-37.45,2.14-17.13,14.35-31.81,31.37-37.84-2.26-1.85-22.18-17.55-48.09-11.21-19.79,4.85-32.14,19.88-37.44,32.55-10.45,25-.48,57.44,25.86,78.61Z"/><path class="cls-5" d="M786,861.3c3.36,2,35.15,20.47,51,8.63,17.13-12.78,10.25-56.75-14.64-78.68-16.9-14.89-37.8-15.85-45.56-15.82C781.53,779.07,793.09,789,798,806,806.33,834.89,788,858.75,786,861.3Z"/><path class="cls-7" d="M993.35,830.35a203.27,203.27,0,0,1-138.86-41.9A190.47,190.47,0,0,0,867,819a197.35,197.35,0,0,0,51.66,62.92Z"/><path class="cls-5" d="M714.75,854.84l31.07,17.22c-34.8-35-33.59-91.32-.46-122.94,30-28.65,79.58-30.62,113.92-2.33C821,706.86,766,697.86,729.49,720.64c-20.35,12.72-39.18,38-40.35,69.59C687.79,826.57,710.55,850.56,714.75,854.84Z"/><path class="cls-7" d="M846.87,931.46a126.65,126.65,0,0,1-11.46-24.56,129.12,129.12,0,0,1-5.24-62.21,127.44,127.44,0,0,1,24.32-56.24c-4.21,16-9.83,46.83-.23,82.85a158.13,158.13,0,0,0,18.33,42.41Z"/><path class="cls-5" d="M870.43,915.2a159.67,159.67,0,0,1-22.64-76.62,156.59,156.59,0,0,1,6.7-50.13L892,900.29Z"/><path class="cls-8" d="M981.3,838.66a78,78,0,0,0-6.39-22c-4.59-10-10.06-16.14-19.82-27-8.88-9.86-14.42-16-23.69-22.55A106.51,106.51,0,0,0,903.22,753c11.48,12.79,30.75,38.09,37.87,74.75a150.54,150.54,0,0,1,2.5,36.91Z"/><path class="cls-5" d="M1003.86,848.58a39.47,39.47,0,0,1-24.63,8.33c-1.12-12.1-6.45-53.2-40.41-82.85a114.71,114.71,0,0,0-35.6-21,151.38,151.38,0,0,1,53.49,11.71A153.17,153.17,0,0,1,1018,812.21C1018.21,813.84,1020.24,835.45,1003.86,848.58Z"/><path class="cls-6" d="M925.43,877.23,892,900.29a287.09,287.09,0,0,1-21.56-41.07c-4.05-9.52-8.12-19.21-11.34-32.68a169.35,169.35,0,0,1-4.63-38.09,155.12,155.12,0,0,0,21.06,43.12A156.8,156.8,0,0,0,925.43,877.23Z"/><path class="cls-5" d="M894.13,898.84c8.25-13.91,25.34-47.2,22.65-91.25A156,156,0,0,0,903.22,753,152.62,152.62,0,0,1,943.59,864.7Z"/><path class="cls-5" d="M1132,502.68a104.44,104.44,0,0,1-105.7,46.76c1.65,4.48,5.48,12.78,13.91,18.42,16.19,10.84,36.16,3.08,43.2.35,17.32-6.72,26.37-19.93,32.57-28.77A101.61,101.61,0,0,0,1132,502.68Z"/><path class="cls-7" d="M1090.74,639.38c-27.62,7.7-66.54-42.65-82.94-84.21A174.61,174.61,0,0,1,996,500.61a182.38,182.38,0,0,0,29.92,43c12.85,13.71,32.78,35,64.77,41.84a99.48,99.48,0,0,0,29.53,1.81C1111.77,632.19,1094.81,638.25,1090.74,639.38Z"/><path class="cls-7" d="M1055.24,665.67l-48.4,19.67A400,400,0,0,1,996,500.61Z"/><path class="cls-6" d="M1103,634.31l-47.31,37.33a282.34,282.34,0,0,1-59.71-171,162.35,162.35,0,0,0,107,133.7Z"/><path class="cls-7" d="M1106.71,843.27l-94.14-19.53A223.19,223.19,0,0,1,1116.68,621a204.72,204.72,0,0,0-24.79,50.26C1066.29,748.68,1095.44,819.26,1106.71,843.27Z"/><path class="cls-5" d="M1013.63,834.38a230.81,230.81,0,0,1,9.71-89.68c22.56-71.18,73.93-110.36,93.34-123.7a164.5,164.5,0,0,0-75.57,27.1c-7.83,5.31-30.69,20.8-44.1,45.26C963.76,754,1010.67,829.74,1013.63,834.38Z"/><path class="cls-6" d="M1044.56,771.24a45.07,45.07,0,0,0-16.54,5.94c-23.93,14.59-26.55,47.09-27.31,57-2.35,30.76,11.45,54.08,17.43,63,26.25-6.47,34.64-16.6,37.58-24.41,5-13.22-4.33-24.42-9.22-48.19A163.85,163.85,0,0,1,1044.56,771.24Z"/><path class="cls-6" d="M1006.64,954.68c-4.38,15.59-4.53,40.2,5.8,45.79,25.53,13.82,120.55-85.68,106.8-106.8-8.35-12.82-59-.11-89.69,27.36C1012,936.78,1007.54,951.47,1006.64,954.68Z"/><path class="cls-7" d="M1118.9,886.78a143.11,143.11,0,0,1-74.34-115.54,72.14,72.14,0,0,0-14.72,19.32c-19.78,38.11,2.83,81.3,6.31,87.71Z"/><path class="cls-5" d="M1122,896.35q-1.55-4.79-3.1-9.57c-35.52-16-63.93-14.81-78.26-12.93-14.72,1.93-30.26,4-37.85,15.93-8.49,13.4-4.14,34.72,10.64,54.08A105.3,105.3,0,0,1,1122,896.35Z"/><path class="cls-7" d="M1149.51,908.4,1031.37,990c15-58.37,51.71-95.73,86-94.44C1124.34,895.78,1135.86,897.84,1149.51,908.4Z"/></g><g id="レイヤー_34" data-name="レイヤー 34"><path class="cls-6" d="M41.79,709.13c8.49-5.19-16.64-42.92-16.45-105.08A233.35,233.35,0,0,1,30,558.49c-2.13.49-47.1,11.45-55.43,45.35-5,20.26,5.8,37.93,18,57.92C8.21,687.42,34.21,713.75,41.79,709.13Z"/><path class="cls-6" d="M270.76,875.38c32.68-2.06,45.06-73.25,45.88-78.21,6.27-38-4.06-69.59-10.89-85.95.34,5.41,2.75,57-36.81,88-19.74,15.49-41,18.83-51.41,19.7C229.47,852.66,251.17,876.61,270.76,875.38Z"/><path class="cls-7" d="M348.35,868.5c-22,19.64-75.4-5.43-87.54-11.37a117.74,117.74,0,0,0,40.48-43.56c24.83-46.82,7.55-94.26,4.46-102.35C357.66,784,370.8,848.41,348.35,868.5Z"/><path class="cls-6" d="M31.3,792.68c-1.08-76.74-52.81-124.59-62-132.77q11.18,79.25,21.11,158.65,4.83,38.61,9.36,77.25C9.53,881.52,32,844.21,31.3,792.68Z"/><path class="cls-7" d="M-30.66,659.91c45.91,11.78,81,41.11,88.52,76.26,3.94,18.52,0,37.49-.4,39.17a99.73,99.73,0,0,1-28.2,50,238.59,238.59,0,0,0-10.89-79A239.53,239.53,0,0,0-30.66,659.91Z"/><path class="cls-7" d="M69.39,597.69C47.53,632.52,61.61,672,84.81,681.57c17.59,7.24,43.19-1.6,59.69-23.16-5.4.57-26.95,2.21-47.19-12.37C73.25,628.71,69.87,602,69.39,597.69Z"/><path class="cls-6" d="M69.39,597.69c-17.76,28.83-20.75,54-21.11,67.85-.43,16.18-1,36.3,11.58,44.54,17.45,11.49,50.26-2.41,52.57-16.92,2.08-13.1-22-18.68-35.64-46.33C68,629,67.92,610.73,69.39,597.69Z"/><path class="cls-5" d="M77.4,730.35a135.5,135.5,0,0,1,17.15-22.87c-6.72-4.07-23.13-15.25-32-36.6-15-36,4.54-69.37,6.86-73.19-11.39,10.94-39.55,41-43.45,85.77-4.2,48.15,21.41,93.42,31.52,91.88C63.57,774.41,61.69,756.73,77.4,730.35Z"/><path class="cls-7" d="M374.58,835.94c.32,5,1.93,21,13.79,29,7.73,5.17,17.21,5.12,35.16.69a250,250,0,0,0,68.14-28.38q-35,.75-72.28.11Q396.56,836.9,374.58,835.94Z"/><path class="cls-5" d="M347.67,902.44c9.89,4,37.21,13.49,69.59,4.64,52.4-14.33,72.25-64.16,74.41-69.87-53.6,31-81.83,30.79-97.79,24.24-4.05-1.66-11.69-5.52-20.14-3.09C358.38,862.79,351.27,884.85,347.67,902.44Z"/><path class="cls-7" d="M334.22,939.67c.46,19.93,47.47,41.28,81.88,33.26,42-9.78,73.79-64.12,75.57-135.72-7.11,11.91-42.15,68-98.21,71.51a89.82,89.82,0,0,1-21.82-1.35C357.51,913.42,333.89,925.38,334.22,939.67Z"/><path class="cls-6" d="M313.48,894.45a187.77,187.77,0,0,0,75.14-103.69,167.17,167.17,0,0,1-50.34,47.34,160,160,0,0,1-17.28,9Q317.24,870.78,313.48,894.45Z"/><path class="cls-5" d="M92.78,665.11c3.56-2,71.43-37.74,128-1.8,4.43,2.82,29.9,19.51,42.07,52.17,27.85,74.74-44.31,152-52.67,160.69a205.15,205.15,0,0,1-39.1,31.68c11.75-19.19,28.23-52.87,29.5-96.69.64-22.36,2.41-83.72-42.52-120.68C134.35,671,107.47,666.37,92.78,665.11Z"/><path class="cls-6" d="M92.78,665.11c3.85-.62,73.73-10.69,110.35,36.06,4.84,6.17,29,37,18.6,71.72C217,788.62,207.09,799,201,804.41L126.31,771c5.61-3.05,25.7-14.82,29.47-35.19C160.72,709.07,136.22,675.11,92.78,665.11Z"/><path class="cls-7" d="M92.78,665.11c34.28.26,64.42,15.71,77.07,41.12C172.3,711.15,181.65,730,175,752c-1.47,4.9-6.13,17.92-18.3,27.36-17.37,13.48-43.18,14.34-66.13,2.94-23.86-8.35-40.52-29.65-42.22-53.81C46.42,700.63,64.66,674.05,92.78,665.11Z"/><path class="cls-6" d="M388.62,790.76c-3,19.56-10.26,48.06-30.05,75.14-19,25.94-36.8,33.27-58.61,54.1-18.87,18-42.69,48.06-58.8,99.07,10.37-.78,80-7.17,125.13-68.42C418.86,879.3,391,797.45,388.62,790.76Z"/><path class="cls-5" d="M223.17,964.3l46.68-80.91a114.6,114.6,0,0,0,38.38-6.22c55-19.1,76.4-75.29,80.39-86.41-.52,11-6.14,98.47-78.41,146.15C276.31,959.28,241.92,963.52,223.17,964.3Z"/><path class="cls-6" d="M233.69,948a142.78,142.78,0,0,0,59.65-49.2c30-43.59,24.93-89.84,23.3-101.58-.94,6.54-6.44,40.2-37,62.14a91.34,91.34,0,0,1-50.6,16.8Q231.38,912,233.69,948Z"/><path class="cls-5" d="M261.12,880.2c31.79-13.42,53.25-45.75,55.52-83-3.87,6.3-23.38,36.56-61,44.16a89.54,89.54,0,0,1-41.9-1.78l-20,41C201.11,883.37,230.08,893.32,261.12,880.2Z"/><path class="cls-5" d="M316.64,797.17c5.1,15.4,21.13,70.16-3.31,132.28-20.39,51.85-57.55,79.76-72.17,89.62l-21-63.72c11.53-4.27,50.45-20.31,76.2-63.13C321.53,850.39,318.14,809.55,316.64,797.17Z"/><path class="cls-6" d="M374.63,897.79c10.81,6.09,53.53,31.75,62.93,79.83,7.05,36-5.78,78.88-20.7,80.65-13.94,1.65-32.71-32.22-37.4-61.5-1.9-11.83-2.23-17-.57-37.44A212.23,212.23,0,0,0,374.63,897.79Z"/><path class="cls-5" d="M374.37,998.48a196.39,196.39,0,0,0,.26-100.69A127.4,127.4,0,0,1,331.7,967.7a38.22,38.22,0,0,0,42.67,30.78Z"/><path class="cls-6" d="M238.68,955.77a138.31,138.31,0,0,0,24.81-13,135.65,135.65,0,0,0,28.26-25A129.56,129.56,0,0,0,316.8,871c1.48,18,.6,46.48-15.22,73.8-12.44,21.5-29.78,34.85-46.16,47.37a253,253,0,0,1-37.15,23.6Q228.49,985.75,238.68,955.77Z"/><path class="cls-7" d="M415.73,957.85a117.2,117.2,0,0,0-23.32,18.57c-7,7.15-16.54,17-22.09,33a77.48,77.48,0,0,0-3.42,35.8c-25.13,15.2-33.95,14-37.61,10.87-11.85-10,2.45-61.28,38.59-84.72C386.44,959.33,405.76,957.88,415.73,957.85Z"/><path class="cls-6" d="M332.54,1125.37q-46.74-32.25-93.46-64.52a228.77,228.77,0,0,0,52-65.68C318.51,943.1,318.37,893.86,316.8,871A259.75,259.75,0,0,1,340,912.08c2.9,6.43,12.83,29.35,18.75,61.9,2.66,14.59,6.49,35.59,4.58,61C362,1052.87,356.8,1087,332.54,1125.37Z"/><path class="cls-6" d="M415.64,1056c8.12-20.44,5.45-42.59-7.4-57.29-9.11-10.41-20.67-14.05-26.35-15.39a99.21,99.21,0,0,0-9.44,14c-10.85,19.45-12.8,38.55-12.85,50.65q48.69,34.2,57.25,26.09Q421,1070.07,415.64,1056Z"/><path class="cls-7" d="M189.65,1026.73a151.25,151.25,0,0,0,57.82-29.52c21.61-18,32.42-37.09,42.28-54.74A261.63,261.63,0,0,0,316.8,871a270.83,270.83,0,0,1-.8,73.38c-1.79,12.11-4.28,27.53-10.63,43.83-5.87,15.06-21.48,46-66.29,72.68Q214.36,1043.8,189.65,1026.73Z"/><path class="cls-7" d="M433.34,1100.28l94.14-19.53c14.67-42-2.35-88.22-39.14-109.55-33.33-19.34-76.65-14.63-106.45,12.13L437,996.41a61.73,61.73,0,0,1,14,20.07C467.56,1055.12,436,1096.83,433.34,1100.28Z"/><path class="cls-6" d="M400.49,1058.62c1.92-2,15.38-16.63,12.78-37.44-2.15-17.14-14.35-31.81-31.38-37.85,2.26-1.84,22.19-17.54,48.09-11.2,19.79,4.84,32.15,19.88,37.45,32.55,10.44,25,.47,57.44-25.86,78.6Z"/><path class="cls-5" d="M455.23,1097.85c-3.37,2-35.15,20.47-51,8.62-17.12-12.78-10.24-56.74,14.65-78.68,16.89-14.89,37.79-15.85,45.55-15.81-4.75,3.64-16.31,13.53-21.22,30.53C434.84,1071.43,453.19,1095.29,455.23,1097.85Z"/><path class="cls-7" d="M247.82,1066.89A203.26,203.26,0,0,0,386.69,1025a191.89,191.89,0,0,1-12.53,30.53,197.21,197.21,0,0,1-51.65,62.92Z"/><path class="cls-5" d="M526.42,1091.39l-31.06,17.22c34.79-35,33.58-91.33.45-122.94-30-28.66-79.57-30.62-113.92-2.34,38.29-39.92,93.34-48.92,129.8-26.14,20.35,12.71,39.17,38,40.35,69.59C553.39,1063.12,530.63,1087.11,526.42,1091.39Z"/><path class="cls-7" d="M394.3,1168a126.59,126.59,0,0,0,11.47-24.56,129.25,129.25,0,0,0,5.24-62.21A127.5,127.5,0,0,0,386.69,1025c4.21,16,9.82,46.83.23,82.84a158,158,0,0,1-18.34,42.42Q381.45,1159.13,394.3,1168Z"/><path class="cls-5" d="M370.75,1151.75a159.69,159.69,0,0,0,22.63-76.62,156.63,156.63,0,0,0-6.69-50.13l-37.54,111.84Z"/><path class="cls-8" d="M259.88,1075.21a77.54,77.54,0,0,1,6.38-22c4.6-10,10.06-16.14,19.82-27,8.88-9.86,14.42-16,23.7-22.55A106.44,106.44,0,0,1,338,989.59c-11.49,12.79-30.76,38.09-37.88,74.75a150.43,150.43,0,0,0-2.5,36.9Z"/><path class="cls-5" d="M237.31,1085.13a39.4,39.4,0,0,0,24.63,8.32c1.12-12.09,6.46-53.19,40.42-82.84a114.29,114.29,0,0,1,35.6-21,151.07,151.07,0,0,0-53.49,11.71,153,153,0,0,0-61.32,47.46C223,1050.38,220.93,1072,237.31,1085.13Z"/><path class="cls-6" d="M315.74,1113.78l33.41,23.06a288.35,288.35,0,0,0,21.57-41.07c4-9.53,8.12-19.21,11.34-32.68a169.35,169.35,0,0,0,4.63-38.09,155.13,155.13,0,0,1-70.95,88.78Z"/><path class="cls-5" d="M347.05,1135.39c-8.26-13.91-25.35-47.2-22.66-91.25A155.7,155.7,0,0,1,338,989.59a152.69,152.69,0,0,0-40.38,111.65Z"/><path class="cls-5" d="M109.17,739.23A104.42,104.42,0,0,0,214.86,786c-1.65,4.48-5.47,12.77-13.91,18.42-16.18,10.83-36.16,3.08-43.19.35C140.43,798,131.38,784.83,125.19,776A101.69,101.69,0,0,1,109.17,739.23Z"/><path class="cls-6" d="M197.33,803.55c-5.78.63-33.27,3-58.29-16.27-22.92-17.65-28.59-41.77-29.87-48-21.11,38.61-3.35,80.93,23.88,90.53C153.22,836.88,180.36,826.66,197.33,803.55Z"/><path class="cls-7" d="M150.44,875.93c27.62,7.69,66.54-42.66,82.94-84.21a175,175,0,0,0,11.81-54.57,182.56,182.56,0,0,1-29.92,43c-12.86,13.71-32.78,35-64.77,41.84A99.9,99.9,0,0,1,121,823.83C129.41,868.74,146.37,874.79,150.44,875.93Z"/><path class="cls-7" d="M185.94,902.22l48.4,19.67a400.36,400.36,0,0,0,14.27-69.11,402.65,402.65,0,0,0-3.42-115.63Z"/><path class="cls-6" d="M138.16,870.86l47.31,37.32a282.42,282.42,0,0,0,41.12-72.87,283.68,283.68,0,0,0,18.6-98.16,162.37,162.37,0,0,1-107,133.71Z"/><path class="cls-5" d="M172,883.54l-38.54,41.55a169.21,169.21,0,0,1-38.25-52C64,806.63,87.91,741,94,725.5a223.52,223.52,0,0,0,77.92,158Z"/><path class="cls-7" d="M141.31,913.62A187.66,187.66,0,0,1,100,851.79c-23.06-56.5-11.14-108-5.94-126.29C80.61,750.1,43.57,825.12,74.23,887c11.37,22.93,38.47,57.09,54.32,51.55C136.55,935.74,139.83,923.77,141.31,913.62Z"/><path class="cls-5" d="M94,725.5c-14.31,32-37.86,98.65-14.59,169a192.19,192.19,0,0,0,11.8,28L46.91,936.92c-33-15.66-43.53-36-47.1-44.67C-19.66,845,14.75,772.14,94,725.5Z"/><path class="cls-6" d="M54.76,885.11c4,1.13,78.11,23.12,83.92,72,1.73,14.57-1.72,38.87-16.33,44.46-14.38,5.51-34.92-8.92-41.77-25.32-5.41-12.94.38-20.72-.58-37.43C79.26,926,74.47,907.31,54.76,885.11Z"/><path class="cls-5" d="M109.61,934.13c12.8-2.71,29.86-4.55,36.47,4.09,15.25,19.94-28.28,88.43-44.78,83.77-11.18-3.15-15.13-41.37-2.39-70.23A80.5,80.5,0,0,1,109.61,934.13Z"/><path class="cls-7" d="M75.49,978c2.76-7.91,9.38-30.29,1.19-56.61a89.49,89.49,0,0,0-21.92-36.29c1.31,2.69,8.41,17.93,2,35.88a47.24,47.24,0,0,1-23.9,26.24A38.2,38.2,0,0,0,75.49,978Z"/><path class="cls-6" d="M-60.2,935.3a138,138,0,0,0,24.8-13A135.59,135.59,0,0,0-7.13,897.31,129.64,129.64,0,0,0,17.92,850.5c1.47,18,.59,46.48-15.22,73.8-12.44,21.49-29.78,34.84-46.16,47.37a253,253,0,0,1-37.15,23.6Q-70.39,965.29-60.2,935.3Z"/><path class="cls-5" d="M109.61,934.13a131.29,131.29,0,0,0-19.36,20.29c-5.86,7.63-14,18.39-18.81,34.55a94.4,94.4,0,0,0-3.42,35.8c-25.14,15.2-34,14-37.61,10.87C18.8,1025.83,34.08,976.3,69,950.91A96.77,96.77,0,0,1,109.61,934.13Z"/><path class="cls-6" d="M33.65,1104.91l-93.46-64.52A228.53,228.53,0,0,0-7.76,974.7c27.39-52.06,27.25-101.3,25.68-124.2a259.75,259.75,0,0,1,23.24,41.12c5.8,12.88,15.06,33.85,18.75,61.89,2.94,22.32,1,39.18-1,55.91A360.84,360.84,0,0,1,33.65,1104.91Z"/><path class="cls-7" d="M-109.24,1006.27a151.35,151.35,0,0,0,57.83-29.52C-29.8,958.8-19,939.66-9.13,922a261.41,261.41,0,0,0,27.05-71.5,271.24,271.24,0,0,1-.8,73.38C15.33,936,12.84,951.4,6.48,967.71c-5.86,15.06-21.48,46-66.29,72.68Z"/><path class="cls-6" d="M124.3,1029.2a102.32,102.32,0,0,1-14.69-95.07,112.57,112.57,0,0,0-43.51,90c5.75,5.49,41.75,39.45,54.71,30.69C123.4,1053.05,127.58,1047.88,124.3,1029.2Z"/><path class="cls-7" d="M134.46,1079.82l94.14-19.54a224.5,224.5,0,0,0-21.31-109.76,225.36,225.36,0,0,0-82.8-93,204,204,0,0,1,24.79,50.26C174.89,985.22,145.74,1055.81,134.46,1079.82Z"/><path class="cls-6" d="M80.93,1072.4c17.24-23,52.93-77.79,52.53-152.15a234,234,0,0,0-9-62.7,203.43,203.43,0,0,1,27.78,60.14c7.74,28.11,7.37,50.54,7,64.32-1.12,46.28-14.52,85-27.77,112.74Z"/><path class="cls-7" d="M-51.06,1046.43a204.42,204.42,0,0,0,81.47-10.79,203.54,203.54,0,0,0,57.4-31.11,191.13,191.13,0,0,1-12.53,30.53A197.1,197.1,0,0,1,23.62,1098Z"/><path class="cls-5" d="M227.54,1070.93a230.66,230.66,0,0,0-9.71-89.69c-22.56-71.17-73.93-110.36-93.34-123.69a164.35,164.35,0,0,1,75.57,27.1c7.83,5.3,30.7,20.79,44.1,45.25C277.41,990.57,230.5,1066.29,227.54,1070.93Z"/><path class="cls-6" d="M196.61,1007.78a45.12,45.12,0,0,1,16.54,6c23.94,14.59,26.56,47.09,27.32,57,2.35,30.76-11.45,54.08-17.44,63-26.25-6.47-34.64-16.6-37.57-24.41-5-13.22,4.33-24.43,9.21-48.19A163.63,163.63,0,0,0,196.61,1007.78Z"/><path class="cls-6" d="M234.54,1191.23c4.37,15.58,4.52,40.2-5.8,45.79-25.53,13.81-120.56-85.68-106.8-106.8,8.35-12.83,59-.11,89.68,27.35C229.22,1173.33,233.64,1188,234.54,1191.23Z"/><path class="cls-7" d="M122.28,1123.33a144.11,144.11,0,0,0,47.28-41.46,145.19,145.19,0,0,0,27.05-74.09,71.9,71.9,0,0,1,14.72,19.33c19.78,38.11-2.83,81.3-6.3,87.7Z"/><path class="cls-5" d="M119.18,1132.89q1.54-4.77,3.1-9.56c35.51-16.06,63.92-14.81,78.26-12.93,14.72,1.93,30.26,4,37.84,15.93,8.5,13.4,4.14,34.71-10.63,54.08a105.3,105.3,0,0,0-108.57-47.52Z"/><path class="cls-7" d="M91.67,1144.94l118.13,81.57c-15-58.38-51.71-95.73-86-94.45C116.84,1132.33,105.31,1134.38,91.67,1144.94Z"/><path class="cls-6" d="M193.79,1042.85a114.69,114.69,0,0,0,2.82-35.07,150.9,150.9,0,0,1-36.19,42.71c-27.84,22.36-45.93,21.85-64.22,44.62-16.34,20.32-24.19,49-16.74,55,3.09,2.47,8.47.76,16-2.51,36-15.73,58.65-40.4,61.37-43.43C172,1087.23,187.2,1070.32,193.79,1042.85Z"/><path class="cls-7" d="M95.42,1147.55A127.61,127.61,0,0,0,106.89,1123a129.25,129.25,0,0,0,5.24-62.21,127.62,127.62,0,0,0-24.32-56.24c4.21,16,9.82,46.83.22,82.85a157.82,157.82,0,0,1-18.33,42.41Z"/><path class="cls-5" d="M71.86,1131.29a159.61,159.61,0,0,0,22.64-76.63,156.67,156.67,0,0,0-6.69-50.13Q69,1060.46,50.27,1116.38Z"/><path class="cls-7" d="M-39,1054.75a78,78,0,0,1,6.39-22c4.59-10,10.06-16.13,19.82-27,8.88-9.86,14.42-16,23.69-22.55a106.31,106.31,0,0,1,28.19-14.12c-11.49,12.78-30.76,38.08-37.88,74.75a150.43,150.43,0,0,0-2.5,36.9Z"/><path class="cls-5" d="M-59.81,1040.39l20.8,14.36c4.18-13.55,15-41.82,42.49-64.6a130.73,130.73,0,0,1,35.6-21,150.85,150.85,0,0,0-53.49,11.71,153,153,0,0,0-61.32,47.45Z"/><path class="cls-6" d="M16.86,1093.31l33.41,23.07a287.84,287.84,0,0,0,21.57-41.08c4-9.52,8.12-19.21,11.34-32.67a169.42,169.42,0,0,0,4.63-38.1,155.38,155.38,0,0,1-21.07,43.13A156.63,156.63,0,0,1,16.86,1093.31Z"/><path class="cls-5" d="M48.17,1114.93c-8.26-13.91-25.35-47.2-22.66-91.25a155.64,155.64,0,0,1,13.57-54.55A152.69,152.69,0,0,0-1.3,1080.78Z"/></g><g id="レイヤー_36" data-name="レイヤー 36"><path class="cls-5" d="M205.34-65c-16.5,28.2,35.78,77.81,39.45,81.23,28.14,26.22,60.12,35.1,77.53,38.49C317.63,52,273.4,25.49,269.64-24.42c-1.87-24.91,7.19-44.34,12.27-53.47C247.23-86.63,215.24-81.91,205.34-65Z"/><path class="cls-7" d="M167.83,3.06c-4.1-29,46.53-59.45,58.23-66.22A116.6,116.6,0,0,0,239.71-5.55c25.09,46.45,74.16,58.37,82.61,60.27C232.9,57.49,172,32.76,167.83,3.06Z"/><path class="cls-7" d="M180.28,42.78c-4.31-2.48-18.57-10-31.76-4.59-8.61,3.55-13.84,11.43-20.16,28.74A247.69,247.69,0,0,0,114,139.05q18.9-29.43,40.18-59.92Q167.23,60.46,180.28,42.78Z"/><path class="cls-6" d="M140-16.27c-8.84,6-31.95,23.36-42.63,55.07C80.07,90.12,110.44,134.1,114,139.05c4-61.55,20-84.79,34.34-94.38,3.64-2.44,11.1-6.63,13.79-15C167,14.52,152.61-3.57,140-16.27Z"/><path class="cls-7" d="M116.54-48C99.71-58.62,55.77-31.5,43.26,1.44,28,41.59,55.44,98,114,139.05,108,126.58,80.9,66.52,109.26,18.18A89.78,89.78,0,0,1,122.53.85C125.38-14.19,128.6-40.36,116.54-48Z"/><path class="cls-6" d="M165.68-40.16a186.05,186.05,0,0,0,10.28,60,186.81,186.81,0,0,0,34,59.58,165.7,165.7,0,0,1-11.3-67.86,158.11,158.11,0,0,1,2.14-19.3Z"/><path class="cls-6" d="M210,79.39C195.44,66.06,175.78,44.33,164.29,13c-11-30-7.15-48.87-12.31-78.45-4.48-25.59-16.17-61.91-49.6-103.46-5.13,9-38.63,70.23-12.85,141.45C119.56,55.48,203.11,77.68,210,79.39Z"/><path class="cls-9" d="M157.94-153.57l41.25,83.38A114,114,0,0,0,183-35C168.2,21.15,203,69.93,210,79.39,201.2,72.9,131.57,19.86,132.2-66.34,132.5-106.79,148.14-137.61,157.94-153.57Z"/><path class="cls-6" d="M165.67-135.82a141.46,141.46,0,0,0,7.66,76.6c19.55,48.91,60.79,70.31,71.46,75.45-4.91-4.39-29.83-27.56-31.06-65A90.8,90.8,0,0,1,228-99.93Z"/><path class="cls-3" d="M206.7-75.65c-6.55,33.75,8.36,69.39,38.09,91.88-3.08-6.69-17.36-39.57-2.69-75a89.4,89.4,0,0,1,24.82-33.72l-23-39.23C237.51-127.1,213.1-108.61,206.7-75.65Z"/><path class="cls-3" d="M244.79,16.23c-15.64-4.29-70.1-21.29-108.12-75.87-31.74-45.55-34.24-91.75-34.29-109.31L167-151.09c-2.87,11.91-11.23,53,10,98C197.83-9.14,233.66,10.63,244.79,16.23Z"/><path class="cls-6" d="M128.83,8.64c-11.08,5.58-56.23,26.77-101.43,8C-6.5,2.53-34.95-31.78-28.11-45.11c6.39-12.46,45-9.28,72,3,10.89,5,15.4,7.57,31.44,20.22A212.24,212.24,0,0,0,128.83,8.64Z"/><path class="cls-3" d="M45.27-47.25A196.57,196.57,0,0,0,88.88-10.33a197.65,197.65,0,0,0,40,19,127.41,127.41,0,0,1-25.7-39.91,126,126,0,0,1-8.49-34.29,39.14,39.14,0,0,0-27.88-.8A39.13,39.13,0,0,0,45.27-47.25Z"/><path class="cls-7" d="M56,9.47a115.83,115.83,0,0,0-2.44-29.59c-2.08-9.7-5-23.11-15.14-36.54A77.33,77.33,0,0,0,10.57-79.28c1.36-29.22,7.31-35.83,11.91-37.15,14.94-4.29,49.58,35.9,48.94,78.79C71.09-15.61,61.53,1.2,56,9.47Z"/><path class="cls-7" d="M-72.22-54.69q-18.12,44.38-36.22,88.77C-81.7,69.44-33.79,80.89,4.44,62.23,39.09,45.31,59.31,6.83,53.67-32.64L12.1,5.76a62.19,62.19,0,0,1-24.49.5C-53.74-1.38-70.85-50.55-72.22-54.69Z"/><path class="cls-6" d="M-19.29-58.86c.61,2.7,5.26,21.93,24,31.28,15.44,7.7,34.44,5.7,49-5.06.27,2.89,2.22,28.07-17.48,46C21.13,27.09,1.75,29-11.74,26.39-38.31,21.24-59.76-5-62.67-38.48Z"/><path class="cls-5" d="M-116.7,27.32l3-35.25c9.71,48.17,57.2,78.3,102,68.34,40.55-9,69.8-49,65.42-93C65.53,21.14,42.34,71.7,3.08,89.3c-21.91,9.83-53.42,11.44-80.34-5C-108.22,65.28-115.48,33.17-116.7,27.32Z"/></g><g id="レイヤー_32" data-name="レイヤー 32"><path class="cls-10" d="M1315,1738.74l-140.7-571.94L936.46,951.37,740.76,803.91l-143.41-8L423.13,948l-368,135.87q-97.86,243.77-195.71,487.53Z"/><path class="cls-5" d="M282.54,1436.51,123.85,1132.06q-28.27-79.74-56.56-159.47L263,825.13l143.41-8,174.22,152,368,135.86,195.72,487.53Z"/><g class="cls-11"><path class="cls-10" d="M966.82,1426.87c10.57,3.46,13.73,37.49,2.34,43.52-7.55,4-23.8-3.12-26.89-15.68C938.32,1438.66,958.37,1424.09,966.82,1426.87Z"/><path class="cls-10" d="M882.21,1460.27c-12.66,12,67.58,130.37,83.28,123,8.67-4,1.88-48.4-22-80.66C923.32,1475.28,888.88,1454,882.21,1460.27Z"/><path class="cls-12" d="M940.15,1400.29a71.52,71.52,0,0,1,6.65,55.31,113.05,113.05,0,0,0,10.48-12.67,114.61,114.61,0,0,0,14-26.43Z"/><path class="cls-10" d="M943.41,1464.08l-39.51-7,40.15-54.17c4.07,10.54,9.62,30.09,3.17,51.41A69.36,69.36,0,0,1,943.41,1464.08Z"/><path class="cls-12" d="M970.63,1572.59c-3.69-15.39-18.19-67.43-66.07-94.6a122.45,122.45,0,0,0-31.89-12.52c31-24.18,75.69-19.64,100.62,9.32C997.19,1502.55,996.36,1545.12,970.63,1572.59Z"/><path class="cls-10" d="M859.54,1371.48c22.79,4,30.88,35.22,32.49,41.45,5.64,21.82-.69,40.49-4,48.54-5-3.43-71.41-49.63-61.08-75.64C831.08,1375.39,847.14,1369.33,859.54,1371.48Z"/><path class="cls-13" d="M945.12,1392.83c-.82,7.37-5.38,41.48-34.71,63.57A86,86,0,0,1,875.06,1472a91.83,91.83,0,0,0,33.66-93.82Z"/><path class="cls-12" d="M855.23,1372.71c4.45,3.3,23.93,18.48,29.24,46.57,5.12,27.11-6.45,47.73-9.41,52.68a87,87,0,0,0,28.57-33.9c12.76-27.14,7.06-52.45,5.09-59.92Z"/><path class="cls-13" d="M970.49,1424.5c.23-44.08-32.14-79.34-69.85-82.38-29.28-2.35-58.65,15-73.71,43.71a115.49,115.49,0,0,1,35.53-8.31C919.75,1373.57,961.41,1415,970.49,1424.5Z"/><path class="cls-12" d="M855.76,1351.26c10.27-.6,43.14-1.2,74.54,21.07a116.7,116.7,0,0,1,39,47.93c18.6-32.08,7.38-73.45-24-91.5C915,1311.29,875,1321,855.76,1351.26Z"/><path class="cls-10" d="M826.93,1385.83a113.24,113.24,0,0,1,117.49-43.66c-1.48-5-5.08-14.19-13.84-20.86-16.81-12.79-38.94-5.71-46.74-3.22-19.19,6.14-29.86,19.84-37.15,29A110.25,110.25,0,0,0,826.93,1385.83Z"/><path class="cls-12" d="M926.6,1322c-6.21-1.07-35.81-5.45-64.17,13.77-26,17.6-33.7,43.33-35.5,50-20.31-43.2,1.71-87.83,31.81-96.44C881.05,1283,909.76,1295.87,926.6,1322Z"/><path class="cls-13" d="M880.61,1240.57c30.41-6.51,69.22,50.55,84.23,96.61A189.2,189.2,0,0,1,974,1397a197.19,197.19,0,0,0-29.55-48.54c-13-15.7-33.18-40-67.36-49.57a108.3,108.3,0,0,0-31.85-3.9C857.37,1247,876.13,1241.53,880.61,1240.57Z"/><path class="cls-13" d="M932.66,1209.08c9.44-11.68,29-19.48,41.8-12.74,30.28,16,10.22,107.65,1.67,142.63C926.56,1287,913.15,1233.22,932.66,1209.08Z"/><path class="cls-12" d="M867,1245.25,920.66,1208a287.67,287.67,0,0,1,52,173.79A176.79,176.79,0,0,0,867,1245.25Z"/><path class="cls-10" d="M904.4,1233.74l-39-47.52a217.44,217.44,0,0,0-36.31,54.94c-31,67.41-18,132-11.55,156.85a199.62,199.62,0,0,1,86.83-164.27Z"/><path class="cls-13" d="M873.21,1199.16a173.69,173.69,0,0,0-48.81,64.21c-30.78,70.73-1.45,138.05,4.38,150.76-13.4-22.29-69.11-119.63-29.93-190.55,13.29-24.06,45.34-59.28,62.19-52.23C869.51,1174.9,872.28,1188.08,873.21,1199.16Z"/><path class="cls-10" d="M809.66,1399.69c-13.39-35.63-34.5-109.28-4.67-183.93a208.87,208.87,0,0,1,14.62-29.54l-47.05-18.49c-32.84,19.12-44.25,42.1-48.41,52.65C702.91,1274.35,735.11,1350.31,809.66,1399.69Z"/><path class="cls-12" d="M777.64,1224.33c4.42-1,86.08-19.88,95.59-72.47,2.84-15.66.7-42.19-14.74-49.2-15.21-6.91-38.4,7.35-46.89,24.65-6.7,13.65-1,22.46-3.09,40.49C806.86,1181.72,800.44,1201.59,777.64,1224.33Z"/><path class="cls-10" d="M574,1134.22l30.45,56.41-53-18.82Z"/><path class="cls-10" d="M512.38,1140.19c.92-.13,20.94-2.82,32.39,11.79a32.52,32.52,0,0,1,6.6,19.83l-57.53-20.41Z"/><path class="cls-10" d="M543.55,1121.44a135.6,135.6,0,0,1,14.12,61,249.74,249.74,0,0,1-63.83-31Z"/><path class="cls-10" d="M840.25,1174.88c13.68,3.77,32,6.89,39.75-2,17.82-20.58-24.79-97.59-43-93.63-12.31,2.68-19.1,43.78-7.21,75.87A87.3,87.3,0,0,0,840.25,1174.88Z"/><path class="cls-13" d="M572.76,1103.72a100.88,100.88,0,0,1-1.39,49.92,99.42,99.42,0,0,1-13.7,28.77,170.33,170.33,0,0,0-14.12-61Z"/><path class="cls-13" d="M651.11,1207.21q1.14-9.49,2.29-19,1.54-12.9,3.11-25.8a172.24,172.24,0,0,1,28.44,15.9,179.12,179.12,0,0,1,54.23,60.15Z"/><path class="cls-13" d="M603.93,1133.56a59,59,0,0,1,8.69-39.37c3.58,6.59,8.57,15.81,14.48,26.87,7.69,14.38,11.5,21.72,13.86,27.16,4.31,9.89,9.78,22.7,12.44,40a134.85,134.85,0,0,1,1,32.23,176.23,176.23,0,0,0-13.56-35.57A189.5,189.5,0,0,0,628,1163.51,236.58,236.58,0,0,0,603.93,1133.56Z"/><path class="cls-13" d="M806.2,1125.12c2.47,8.75,8.17,33.42-2.43,61.36a97.19,97.19,0,0,1-26.13,37.85c1.6-2.83,10.29-18.86,4.49-38.72-5.7-19.54-21.21-28.38-24.14-30a41.43,41.43,0,0,1,48.21-30.51Z"/><path class="cls-12" d="M656.51,1162.42a149.75,149.75,0,0,1,76,82.7c4.67-33.28-3.9-56.38-8.59-66.65-10.53-23-27-37.12-46.85-54.31a275.74,275.74,0,0,0-38.65-28Q647.43,1129.3,656.51,1162.42Z"/><path class="cls-10" d="M603,1131.83a180.37,180.37,0,0,1,37.7,50.17,176.81,176.81,0,0,1,10.37,25.21l-46.7-16.58Q603.72,1161.23,603,1131.83Z"/><path class="cls-10" d="M633.29,1067.16c8.63,10.19,36.25,45.42,35.17,95.83a138.67,138.67,0,0,1-14.05,57.46c-.66-23.86-5.4-63.27-29.23-103a201.09,201.09,0,0,0-23.25-31.33Z"/><path class="cls-10" d="M840.25,1174.88a142.5,142.5,0,0,1-19.63-23.25c-5.84-8.64-14-20.82-18.08-38.63a102.18,102.18,0,0,1-1.34-39c-26.21-18.11-35.84-17.34-40-14.24-13.22,9.85.06,64.47,36.19,94.25A104.94,104.94,0,0,0,840.25,1174.88Z"/><path class="cls-12" d="M769.28,985l-105.42,63.69a248.22,248.22,0,0,1,52,74.53c26.23,58.17,22.83,111.46,19.62,136.15a280.85,280.85,0,0,0,27.87-43c7.13-13.56,18.54-35.65,24.38-65.76,4.64-24,3.69-42.35,2.63-60.59A392,392,0,0,0,769.28,985Z"/><path class="cls-13" d="M608.1,1082.37a164.16,164.16,0,0,1,60.65,35.76c22.21,20.86,32.65,42.29,42.17,62a283.82,283.82,0,0,1,24.56,79.19,293.42,293.42,0,0,0,4-79.49c-1.14-13.22-2.82-30.08-8.62-48.15-5.36-16.68-20.22-51.24-67-83Z"/><path class="cls-12" d="M888.12,1098.56c-21.08-2-41.11,8.76-50.36,26.85-12.44,24.35,1.7,48.19,2.49,49.47a122.06,122.06,0,0,1-41.17-100.27c9.47-26.11,38.16-38.69,61.24-29.63C880.21,1052.8,892.59,1075.39,888.12,1098.56Z"/><path class="cls-13" d="M876.74,1018.8l100.63,27.35a242,242,0,0,1-126,212.6A221.8,221.8,0,0,0,881.46,1206C914.28,1123.86,887.37,1045.54,876.74,1018.8Z"/><path class="cls-12" d="M838.44,1061.73c11.86,24,30.48,70.48,26.71,129.74a248.9,248.9,0,0,1-13.83,67.28,220.86,220.86,0,0,0,34-63.27c10.46-30.58,11.43-55.52,11.85-69.16a262.05,262.05,0,0,0-12.66-88.57Z"/><path class="cls-10" d="M900.28,1022.88c-3.51-2.39-36.71-24.48-54.67-12.7-19.38,12.71-14.83,60.75,10.67,86.14,17.31,17.23,39.87,19.64,48.27,20.12-4.91-4.26-16.77-15.73-21-34.45C876.47,1050.13,897.9,1025.51,900.28,1022.88Z"/><path class="cls-13" d="M673.72,1042.73a220.39,220.39,0,0,1,147.56,54.5,207.08,207.08,0,0,0-11.55-33.88A213.82,213.82,0,0,0,758,991.84Z"/><path class="cls-10" d="M976.92,1034.56A250.12,250.12,0,0,1,960.5,1131c-29.11,75.56-87.3,114.6-109.18,127.75a178.1,178.1,0,0,0,83.58-24.36c8.83-5.22,34.6-20.48,50.72-46.08C1025.61,1124.84,979.82,1039.78,976.92,1034.56Z"/><path class="cls-12" d="M939.28,1100.87a48.81,48.81,0,0,0,18.29-5.34c20.77-11,27.1-34.94,33.33-59.92,6.39-25.65,9.58-38.47,2.51-47.46-12.8-16.26-49.41-13.53-59.52,2.06-7.16,11,2.55,23,6.81,52.77A177.59,177.59,0,0,1,939.28,1100.87Z"/><path class="cls-12" d="M992.42,904.8c5.76-16.59,7.54-43.22-3.27-49.95C962.43,838.21,853,939.65,866.51,963.42c8.19,14.43,63.86,4,98.88-23.7C985.49,923.82,991.23,908.21,992.42,904.8Z"/><path class="cls-13" d="M866.42,970.9a155.21,155.21,0,0,1,72.86,130,77.94,77.94,0,0,0,17.21-19.95c23.92-40,2.29-88.19-1-95.35Z"/><path class="cls-10" d="M863.69,960.34l2.73,10.56c37.39,19.72,68.22,20.25,83.87,19.15,16.06-1.12,33-2.3,42-14.75,10.08-13.94,6.77-37.3-7.95-59.24a114.17,114.17,0,0,1-120.66,44.28Z"/><path class="cls-13" d="M834.71,945.49,968,865c-20.06,62.2-62.28,100.22-99.26,96.57C861.13,960.8,848.79,957.82,834.71,945.49Z"/><path class="cls-12" d="M938.54,1062.73a124.53,124.53,0,0,1,.74,38.14,163.69,163.69,0,0,0-36.37-48.61c-28.66-26-48.28-26.68-66.58-52.53-16.34-23.08-23-54.63-14.5-60.58,3.51-2.47,9.22-.27,17.12,3.77,38,19.4,60.82,47.59,63.57,51.05C917.83,1013.25,933.21,1032.56,938.54,1062.73Z"/><path class="cls-12" d="M582.11,1153.89c4.26,8.79,8.27,14.38,13.31,22.14,8.22,12.64,19.88,31.18,33.63,55.26a275.45,275.45,0,0,1-18.87-59.69c-4.46-23.08-4.36-38.91-3.43-50.22,1.24-15.13,4.06-22.87,5.87-27.19A73.52,73.52,0,0,1,631,1068.48l-64.63,39.12A217.36,217.36,0,0,0,582.11,1153.89Z"/><path class="cls-13" d="M839,942.92a138.05,138.05,0,0,1,10.79,27.34,140,140,0,0,1,1.57,67.69,138.24,138.24,0,0,1-30,59.28c5.62-17.08,13.72-50,5.71-89.67a171.21,171.21,0,0,0-17.06-47.12Z"/><path class="cls-10" d="M812.38,959a173.19,173.19,0,0,1,19.45,84.43,169.65,169.65,0,0,1-10.55,53.83Q804.66,1035.45,788,973.68Z"/><path class="cls-13" d="M687.32,1034.52a84.27,84.27,0,0,0,5.46,24.19c4.32,11.09,9.83,18.13,19.68,30.52,9,11.26,14.55,18.28,24.16,26a116,116,0,0,0,29.58,17.15c-11.59-14.6-30.78-43.26-36.07-83.42a163.1,163.1,0,0,1-.28-40.11Z"/><path class="cls-10" d="M663.86,1048.69l23.46-14.17c3.63,14.94,13.53,46.25,41.73,72.72a142.17,142.17,0,0,0,37.15,25.11,163.89,163.89,0,0,1-57.13-16.21,166,166,0,0,1-63.25-55.4Q654.84,1054.71,663.86,1048.69Z"/><path class="cls-12" d="M750.33,996.45,788,973.68a313.51,313.51,0,0,1,20.64,45.89c3.75,10.57,7.52,21.32,10.12,36.12a183,183,0,0,1,2.5,41.54,168.19,168.19,0,0,0-20-48.07A170,170,0,0,0,750.33,996.45Z"/><path class="cls-10" d="M785.64,975.12c-9.85,14.51-30.54,49.42-30.53,97.28a169.21,169.21,0,0,0,11.09,59.95,165.58,165.58,0,0,1-36.35-123.53Z"/><path class="cls-10" d="M1027.78,1326.91c10.57,3.46,13.73,37.49,2.34,43.52-7.56,4-23.8-3.12-26.89-15.68C999.27,1338.7,1019.32,1324.13,1027.78,1326.91Z"/><path class="cls-10" d="M936,1372c2,1.49,13.8,10.8,14.91,26.85a36.41,36.41,0,0,1-4.94,20.69c54.74,61,73.47,68.11,80.46,63.8,11.61-7.15,4.27-52.29-22-80.66C979.81,1376,946.26,1372.63,936,1372Z"/><path class="cls-12" d="M1001.1,1300.33a71.46,71.46,0,0,1,6.66,55.31,113.05,113.05,0,0,0,10.48-12.67,114.61,114.61,0,0,0,14-26.43Z"/><path class="cls-10" d="M1004.37,1364.12l-39.51-7L1005,1302.9c4.07,10.54,9.61,30.09,3.17,51.41A69.36,69.36,0,0,1,1004.37,1364.12Z"/><path class="cls-12" d="M1031.59,1472.63c-1.48-8.35-14.07-73.93-66.07-94.6a87.06,87.06,0,0,0-29.5-6c27.79-26.2,72.17-24.85,98.23,2.83C1060.15,1402.35,1059,1446.39,1031.59,1472.63Z"/><path class="cls-10" d="M920.5,1271.52c22.79,4,30.88,35.22,32.49,41.45,5.64,21.82-.7,40.49-4,48.54-5-3.43-71.42-49.63-61.08-75.64C892,1275.43,908.1,1269.37,920.5,1271.52Z"/><path class="cls-13" d="M1006.08,1292.87c-.82,7.37-5.38,41.48-34.71,63.57A86,86,0,0,1,936,1372a91.8,91.8,0,0,0,33.65-93.82Z"/><path class="cls-12" d="M916.19,1272.75c4.45,3.3,23.93,18.48,29.24,46.57,5.12,27.11-6.45,47.73-9.41,52.68a87,87,0,0,0,28.57-33.9c12.76-27.14,7.06-52.45,5.08-59.92Z"/><path class="cls-13" d="M1031.45,1324.54c.23-44.08-32.14-79.34-69.85-82.38-29.28-2.35-58.65,15-73.71,43.71a115.49,115.49,0,0,1,35.52-8.31C980.71,1273.61,1022.37,1315.07,1031.45,1324.54Z"/><path class="cls-12" d="M916.72,1251.3c10.26-.6,43.13-1.2,74.54,21.07a116.57,116.57,0,0,1,39,47.93c18.61-32.08,7.39-73.45-24-91.5C975.91,1211.33,936,1221,916.72,1251.3Z"/><path class="cls-10" d="M887.89,1285.87a113.24,113.24,0,0,1,117.49-43.66c-1.49-5-5.08-14.19-13.84-20.86-16.81-12.79-38.94-5.71-46.74-3.22-19.19,6.14-29.86,19.84-37.15,29A110.25,110.25,0,0,0,887.89,1285.87Z"/><path class="cls-12" d="M987.56,1222.05c-6.21-1.07-35.81-5.45-64.17,13.77-26,17.6-33.7,43.33-35.5,50-20.31-43.2,1.71-87.83,31.81-96.44C942,1183.06,970.72,1195.91,987.56,1222.05Z"/><path class="cls-13" d="M941.57,1140.61c30.41-6.51,69.22,50.55,84.23,96.61a189.2,189.2,0,0,1,9.19,59.85,197.8,197.8,0,0,0-29.55-48.54c-13-15.7-33.18-40-67.36-49.57a108.33,108.33,0,0,0-31.85-3.9C918.33,1147,937.09,1141.57,941.57,1140.61Z"/><path class="cls-13" d="M993.62,1109.12c9.44-11.68,29-19.48,41.8-12.74,30.28,16,10.22,107.65,1.67,142.63C987.52,1187,974.11,1133.26,993.62,1109.12Z"/><path class="cls-12" d="M928,1145.29,981.62,1108a287.67,287.67,0,0,1,52,173.79A176.79,176.79,0,0,0,928,1145.29Z"/><path class="cls-10" d="M965.36,1133.78l-39-47.52a217.71,217.71,0,0,0-36.3,54.94c-31,67.41-18,132-11.55,156.85a199.62,199.62,0,0,1,86.83-164.27Z"/><path class="cls-13" d="M934.17,1099.2a183.26,183.26,0,0,0-48.81,64.21c-27.54,60.91-12,118.12-6.83,134.64-12.21-22.69-55.21-108.32-18.72-174.43,13.73-24.88,45.46-59.23,62.19-52.23C930.47,1074.94,933.24,1088.12,934.17,1099.2Z"/><path class="cls-10" d="M878.53,1298.05c-14.08-31.43-42-106.56-12.58-182.25a187.64,187.64,0,0,1,14.61-29.54l-47-18.49C800,1087,789,1110.18,785.11,1120.42,764.91,1174.11,800,1250.28,878.53,1298.05Z"/><path class="cls-12" d="M838.6,1124.37c4.42-1,86.07-19.88,95.59-72.47,2.84-15.66.7-42.19-14.74-49.2-15.21-6.91-38.4,7.35-46.89,24.65-6.71,13.65-.95,22.46-3.09,40.49C867.82,1081.76,861.4,1101.63,838.6,1124.37Z"/><path class="cls-10" d="M634.91,1034.26q15.23,28.2,30.46,56.41l-53-18.82Q623.63,1053.05,634.91,1034.26Z"/><path class="cls-10" d="M573.34,1040.23c.92-.13,20.94-2.82,32.39,11.79a32.52,32.52,0,0,1,6.6,19.83l-57.54-20.41Z"/><path class="cls-10" d="M604.51,1021.48a135.6,135.6,0,0,1,14.12,61,250.92,250.92,0,0,1-63.84-31Z"/><path class="cls-10" d="M901.21,1074.92c13.68,3.77,32,6.89,39.75-2,17.82-20.58-24.8-97.59-43-93.63-12.3,2.68-19.09,43.78-7.2,75.87A87.12,87.12,0,0,0,901.21,1074.92Z"/><path class="cls-13" d="M633.72,1003.76a100.79,100.79,0,0,1-1.4,49.92,99.18,99.18,0,0,1-13.69,28.77,170.33,170.33,0,0,0-14.12-61Z"/><path class="cls-13" d="M712.07,1107.25q1.14-9.49,2.29-19,1.54-12.9,3.11-25.8a172.87,172.87,0,0,1,28.44,15.89,179.34,179.34,0,0,1,54.23,60.16Z"/><path class="cls-13" d="M664.89,1033.6a59,59,0,0,1,8.69-39.38c3.58,6.6,8.56,15.82,14.48,26.88,7.69,14.38,11.5,21.72,13.86,27.16,4.31,9.89,9.78,22.7,12.44,40a134.85,134.85,0,0,1,1,32.23,176.23,176.23,0,0,0-13.56-35.57A191,191,0,0,0,689,1063.55,236.58,236.58,0,0,0,664.89,1033.6Z"/><path class="cls-13" d="M867.16,1025.16c2.46,8.75,8.17,33.42-2.44,61.36a97.09,97.09,0,0,1-26.12,37.85c1.6-2.83,10.29-18.86,4.49-38.72-5.7-19.54-21.21-28.38-24.14-30a41.43,41.43,0,0,1,48.21-30.51Z"/><path class="cls-12" d="M717.47,1062.46a149.75,149.75,0,0,1,75.95,82.7c4.67-33.28-3.9-56.38-8.59-66.65-10.53-23-27-37.12-46.85-54.31a275.15,275.15,0,0,0-38.66-28Z"/><path class="cls-10" d="M664,1031.87A180.17,180.17,0,0,1,701.69,1082a175.78,175.78,0,0,1,10.38,25.21l-46.7-16.58Q664.68,1061.27,664,1031.87Z"/><path class="cls-10" d="M694.24,967.19c8.64,10.2,36.26,45.42,35.18,95.84a138.67,138.67,0,0,1-14,57.46c-.66-23.86-5.4-63.27-29.24-103a200.44,200.44,0,0,0-23.24-31.33Z"/><path class="cls-10" d="M901.21,1074.92a142.5,142.5,0,0,1-19.63-23.25c-5.84-8.64-14-20.82-18.08-38.63a102.18,102.18,0,0,1-1.34-39c-26.21-18.11-35.84-17.34-40-14.24-13.22,9.85.06,64.47,36.19,94.25A104.94,104.94,0,0,0,901.21,1074.92Z"/><path class="cls-12" d="M830.23,885,724.81,948.73a248,248,0,0,1,52,74.53c26.23,58.17,22.83,111.46,19.62,136.14a280.18,280.18,0,0,0,27.87-43c7.13-13.56,18.54-35.65,24.38-65.76,4.64-24,3.69-42.35,2.63-60.59A391.72,391.72,0,0,0,830.23,885Z"/><path class="cls-13" d="M669.06,982.41a164.16,164.16,0,0,1,60.65,35.76c22.21,20.86,32.65,42.29,42.17,62.05a283.74,283.74,0,0,1,24.56,79.18,293.31,293.31,0,0,0,4-79.48c-1.14-13.22-2.82-30.08-8.62-48.15-5.36-16.68-20.22-51.24-67-83Z"/><path class="cls-12" d="M949.08,998.6c-21.09-2-41.11,8.76-50.36,26.85-12.44,24.35,1.7,48.19,2.49,49.47A122.12,122.12,0,0,1,860,974.65c9.48-26.11,38.17-38.7,61.25-29.63C941.17,952.84,953.55,975.43,949.08,998.6Z"/><path class="cls-13" d="M937.7,918.84l100.62,27.35a242,242,0,0,1-126,212.6A221.8,221.8,0,0,0,942.42,1106C975.24,1023.9,948.33,945.58,937.7,918.84Z"/><path class="cls-12" d="M899.4,961.77c11.86,24,30.48,70.48,26.71,129.74a248.9,248.9,0,0,1-13.83,67.28,220.86,220.86,0,0,0,34-63.27c10.46-30.58,11.43-55.52,11.85-69.16a262.05,262.05,0,0,0-12.66-88.57Z"/><path class="cls-10" d="M961.23,922.92c-3.5-2.39-36.7-24.48-54.66-12.7-19.38,12.71-14.83,60.75,10.67,86.14,17.3,17.23,39.87,19.64,48.27,20.12-4.91-4.26-16.77-15.73-21-34.45C937.43,950.17,958.86,925.55,961.23,922.92Z"/><path class="cls-13" d="M734.68,942.77a220.39,220.39,0,0,1,147.56,54.5,207.08,207.08,0,0,0-11.55-33.88,214,214,0,0,0-51.77-71.51Z"/><path class="cls-10" d="M1037.88,934.6a250.12,250.12,0,0,1-16.42,96.44c-29.11,75.56-87.3,114.6-109.18,127.75a178.1,178.1,0,0,0,83.58-24.36c8.83-5.22,34.6-20.48,50.72-46.08C1086.57,1024.88,1040.78,939.81,1037.88,934.6Z"/><path class="cls-12" d="M1000.24,1000.91a48.81,48.81,0,0,0,18.29-5.34c20.77-11,27.1-34.94,33.33-59.92,6.39-25.65,9.58-38.47,2.51-47.46-12.8-16.26-49.41-13.53-59.52,2.06-7.17,11,2.55,23,6.8,52.77A177.36,177.36,0,0,1,1000.24,1000.91Z"/><path class="cls-12" d="M1053.37,804.84c5.77-16.59,7.55-43.22-3.26-50-26.72-16.64-136.14,84.8-122.64,108.57,8.19,14.43,63.86,4,98.88-23.7C1046.44,823.86,1052.19,808.25,1053.37,804.84Z"/><path class="cls-13" d="M927.38,870.94a155.21,155.21,0,0,1,72.86,130A77.94,77.94,0,0,0,1017.45,981c23.91-40,2.28-88.19-1.06-95.35Z"/><path class="cls-10" d="M924.65,860.38l2.73,10.56c37.39,19.72,68.22,20.25,83.87,19.15,16.06-1.12,33-2.3,42-14.75,10.08-13.94,6.77-37.3-8-59.24a114.19,114.19,0,0,1-120.66,44.28Z"/><path class="cls-13" d="M895.67,845.53,1028.92,765c-20.06,62.2-62.28,100.22-99.26,96.57C922.08,860.84,909.75,857.86,895.67,845.53Z"/><path class="cls-12" d="M999.5,962.77a124.53,124.53,0,0,1,.74,38.14,163.69,163.69,0,0,0-36.37-48.61c-28.66-26-48.28-26.68-66.58-52.53-16.34-23.08-23-54.63-14.5-60.58,3.51-2.47,9.22-.27,17.12,3.77,38,19.4,60.82,47.59,63.57,51C978.79,913.29,994.16,932.6,999.5,962.77Z"/><path class="cls-12" d="M643.07,1053.93c4.26,8.79,8.27,14.38,13.31,22.14,8.22,12.64,19.88,31.18,33.63,55.26a275.45,275.45,0,0,1-18.87-59.69c-4.46-23.08-4.36-38.91-3.43-50.22,1.24-15.13,4.06-22.87,5.87-27.2a73.56,73.56,0,0,1,18.35-25.7l-64.63,39.12A217.36,217.36,0,0,0,643.07,1053.93Z"/><path class="cls-13" d="M899.91,843a137.89,137.89,0,0,1-17.67,154.31c5.61-17.08,13.72-50,5.71-89.67a171.54,171.54,0,0,0-17.06-47.12Z"/><path class="cls-10" d="M873.33,859a173.06,173.06,0,0,1,19.46,84.43,169.65,169.65,0,0,1-10.55,53.83Q865.61,935.49,849,873.72Z"/><path class="cls-13" d="M748.28,934.56a84.27,84.27,0,0,0,5.46,24.19c4.32,11.09,9.83,18.13,19.68,30.52,9,11.26,14.55,18.28,24.16,26a116,116,0,0,0,29.58,17.15c-11.59-14.6-30.79-43.26-36.08-83.42a163.05,163.05,0,0,1-.27-40.11Z"/><path class="cls-10" d="M724.81,948.73l23.47-14.17c3.63,14.94,13.53,46.25,41.73,72.72a142.17,142.17,0,0,0,37.15,25.11A164.11,164.11,0,0,1,770,1016.18a165.92,165.92,0,0,1-63.25-55.4Z"/><path class="cls-12" d="M811.29,896.49,849,873.72a313.51,313.51,0,0,1,20.64,45.89c3.75,10.57,7.52,21.32,10.12,36.12a183.58,183.58,0,0,1,2.5,41.54,168.14,168.14,0,0,0-71-100.78Z"/><path class="cls-10" d="M846.6,875.16c-9.85,14.51-30.54,49.42-30.53,97.28a169,169,0,0,0,11.09,60,165.58,165.58,0,0,1-36.35-123.53Z"/></g><g class="cls-14"><path class="cls-10" d="M44.82,1383.23c-10.56,3.47-13.72,37.5-2.34,43.53,7.56,4,23.81-3.12,26.9-15.68C73.33,1395,53.28,1380.46,44.82,1383.23Z"/><path class="cls-10" d="M129.44,1416.63c12.66,12-67.58,130.37-83.29,123-8.67-4.05-1.88-48.4,22-80.67C88.33,1431.65,122.77,1410.31,129.44,1416.63Z"/><path class="cls-12" d="M71.5,1356.66A71.46,71.46,0,0,0,64.84,1412a113.95,113.95,0,0,1-24.46-39.1Z"/><path class="cls-10" d="M68.24,1420.45l39.5-7L67.6,1359.23c-4.08,10.54-9.62,30.09-3.17,51.41A68.17,68.17,0,0,0,68.24,1420.45Z"/><path class="cls-12" d="M41,1529c3.69-15.39,18.19-67.43,66.08-94.6A122,122,0,0,1,139,1421.84c-31-24.18-75.68-19.64-100.61,9.32C14.46,1458.92,15.28,1501.49,41,1529Z"/><path class="cls-10" d="M152.1,1327.85c-22.79,4-30.87,35.22-32.48,41.45-5.64,21.82.69,40.49,4,48.54,5-3.43,71.41-49.63,61.08-75.64C180.57,1331.76,164.5,1325.7,152.1,1327.85Z"/><path class="cls-13" d="M66.53,1349.2c.81,7.37,5.38,41.48,34.71,63.57a85.89,85.89,0,0,0,35.34,15.56,91.8,91.8,0,0,1-33.65-93.82Z"/><path class="cls-12" d="M156.42,1329.08c-4.46,3.3-23.94,18.48-29.25,46.57-5.12,27.1,6.45,47.73,9.41,52.68a87.16,87.16,0,0,1-28.57-33.9c-12.75-27.14-7.05-52.45-5.08-59.92Z"/><path class="cls-13" d="M41.15,1380.87c-.22-44.08,32.15-79.34,69.85-82.38,29.29-2.35,58.65,15,73.72,43.71a115.56,115.56,0,0,0-35.53-8.31C91.9,1329.94,50.24,1371.4,41.15,1380.87Z"/><path class="cls-12" d="M155.89,1307.62c-10.27-.59-43.14-1.19-74.55,21.08a116.65,116.65,0,0,0-38.95,47.93c-18.6-32.08-7.39-73.45,24-91.5C96.69,1267.66,136.63,1277.36,155.89,1307.62Z"/><path class="cls-10" d="M184.72,1342.2a113.24,113.24,0,0,0-117.5-43.66c1.49-5,5.09-14.19,13.84-20.86,16.81-12.79,39-5.71,46.74-3.22,19.2,6.14,29.86,19.84,37.15,29A110.31,110.31,0,0,1,184.72,1342.2Z"/><path class="cls-12" d="M85,1278.38c6.22-1.07,35.82-5.45,64.18,13.77,26,17.59,33.7,43.33,35.5,50,20.3-43.2-1.71-87.83-31.82-96.44C130.6,1239.39,101.89,1252.24,85,1278.38Z"/><path class="cls-13" d="M131,1196.94c-30.41-6.51-69.22,50.55-84.24,96.61a189.78,189.78,0,0,0-9.19,59.85,197.48,197.48,0,0,1,29.56-48.54c13-15.7,33.18-40,67.35-49.57a108.4,108.4,0,0,1,31.86-3.9C154.28,1203.33,135.52,1197.9,131,1196.94Z"/><path class="cls-13" d="M79,1165.45c-9.44-11.68-29-19.48-41.8-12.74-30.29,16-10.22,107.65-1.67,142.63C85.08,1243.34,98.5,1189.59,79,1165.45Z"/><path class="cls-12" d="M144.66,1201.61,91,1164.33a287.67,287.67,0,0,0-52,173.79,176.73,176.73,0,0,1,105.64-136.51Z"/><path class="cls-10" d="M107.24,1190.11l39-47.52a217.71,217.71,0,0,1,36.31,54.94c30.95,67.41,18,132,11.54,156.85a200.54,200.54,0,0,0-20.16-87A201.31,201.31,0,0,0,107.24,1190.11Z"/><path class="cls-13" d="M138.43,1155.53c14,11.6,34.95,32.35,48.82,64.21,30.78,70.73,1.44,138-4.38,150.76,13.39-22.29,69.1-119.64,29.93-190.55-13.29-24.07-45.34-59.28-62.19-52.23C142.13,1131.27,139.37,1144.45,138.43,1155.53Z"/><path class="cls-10" d="M202,1356.06c13.38-35.63,34.49-109.28,4.67-183.93A208.87,208.87,0,0,0,192,1142.59l47.05-18.49c32.83,19.12,44.25,42.09,48.4,52.65C308.74,1230.72,276.54,1306.67,202,1356.06Z"/><path class="cls-12" d="M234,1180.7c-4.41-1-86.07-19.88-95.59-72.47-2.83-15.66-.69-42.19,14.75-49.2,15.21-6.91,38.4,7.35,46.89,24.65,6.7,13.65.95,22.46,3.08,40.48C204.79,1138.09,211.2,1158,234,1180.7Z"/><path class="cls-10" d="M437.69,1090.59,407.24,1147l53-18.82Z"/><path class="cls-10" d="M499.27,1096.56c-.92-.14-20.94-2.82-32.39,11.79a32.46,32.46,0,0,0-6.6,19.83l57.53-20.41Z"/><path class="cls-10" d="M468.09,1077.81a135.6,135.6,0,0,0-14.12,61,250.92,250.92,0,0,0,63.84-31Q493,1092.78,468.09,1077.81Z"/><path class="cls-10" d="M171.39,1131.24c-13.67,3.78-32,6.9-39.74-2-17.82-20.58,24.79-97.59,43-93.63,12.3,2.68,19.1,43.78,7.21,75.87A86.8,86.8,0,0,1,171.39,1131.24Z"/><path class="cls-13" d="M438.88,1060.09a100.91,100.91,0,0,0,1.4,49.92A99.18,99.18,0,0,0,454,1138.78a170.18,170.18,0,0,1,14.12-61Z"/><path class="cls-13" d="M360.54,1163.58q-1.16-9.49-2.29-19-1.56-12.9-3.11-25.8a172.53,172.53,0,0,0-28.45,15.89,179.45,179.45,0,0,0-54.23,60.16Z"/><path class="cls-13" d="M407.72,1089.93a59,59,0,0,0-8.7-39.38c-3.58,6.6-8.56,15.82-14.47,26.88-7.69,14.38-11.5,21.72-13.87,27.16-4.3,9.89-9.78,22.7-12.43,40a134.85,134.85,0,0,0-1,32.23,176.51,176.51,0,0,1,13.56-35.58,190.11,190.11,0,0,1,12.86-21.36A236.58,236.58,0,0,1,407.72,1089.93Z"/><path class="cls-13" d="M205.45,1081.49c-2.47,8.75-8.17,33.41,2.43,61.36A97.19,97.19,0,0,0,234,1180.7c-1.59-2.83-10.28-18.86-4.48-38.72,5.7-19.54,21.21-28.38,24.14-30a41.44,41.44,0,0,0-48.21-30.51Z"/><path class="cls-12" d="M407,1070.26c-31.49,26.47-56.49,47.19-77.86,64.29a156,156,0,0,0-28.95,28.87,149.67,149.67,0,0,0-21,38.07c-4.68-33.28,3.9-56.38,8.59-66.65,9.39-20.56,23.77-33.4,46.84-54.31a383.07,383.07,0,0,1,38.12-30.38Z"/><path class="cls-10" d="M408.61,1088.2a180.37,180.37,0,0,0-37.7,50.17,175.65,175.65,0,0,0-10.37,25.21l46.7-16.58Q407.93,1117.6,408.61,1088.2Z"/><path class="cls-10" d="M171.39,1131.24A141.37,141.37,0,0,0,191,1108c5.84-8.64,14-20.83,18.09-38.63a102.39,102.39,0,0,0,1.34-39c26.21-18.11,35.84-17.34,40-14.25,13.22,9.86-.05,64.48-36.18,94.26A104.8,104.8,0,0,1,171.39,1131.24Z"/><path class="cls-12" d="M242.37,941.37l105.42,63.69a248.22,248.22,0,0,0-52,74.53c-26.22,58.17-22.83,111.46-19.61,136.14a280.18,280.18,0,0,1-27.87-43c-7.13-13.56-18.54-35.65-24.38-65.76-4.65-24-3.7-42.35-2.63-60.59A391.16,391.16,0,0,1,242.37,941.37Z"/><path class="cls-13" d="M403.55,1038.74a160.64,160.64,0,0,0-54.24,30.06c-.75.64-3.36,2.84-6.41,5.7-5.26,4.93-23.61,23.49-42.17,62a283.74,283.74,0,0,0-24.56,79.18,293.31,293.31,0,0,1-4-79.48c1.14-13.22,2.82-30.08,8.62-48.15,5.36-16.69,20.22-51.24,67-83Z"/><path class="cls-12" d="M123.53,1054.93c21.08-2,41.11,8.76,50.35,26.85,12.44,24.35-1.7,48.19-2.49,49.46A122,122,0,0,0,212.57,1031c-9.47-26.11-38.16-38.7-61.24-29.63C131.44,1009.17,119.06,1031.76,123.53,1054.93Z"/><path class="cls-13" d="M134.9,975.17,34.28,1002.52a242,242,0,0,0,126.05,212.6,221.8,221.8,0,0,1-30.14-52.77C97.37,1080.23,124.28,1001.91,134.9,975.17Z"/><path class="cls-12" d="M173.2,1018.1c-11.85,24-30.47,70.48-26.7,129.74a248.51,248.51,0,0,0,13.83,67.28,220.37,220.37,0,0,1-34-63.27c-10.46-30.59-11.43-55.52-11.86-69.16a262.39,262.39,0,0,1,12.67-88.58Z"/><path class="cls-10" d="M111.37,979.24c3.51-2.38,36.7-24.47,54.67-12.69,19.38,12.71,14.82,60.75-10.67,86.14-17.31,17.23-39.87,19.64-48.28,20.12,4.91-4.26,16.78-15.73,21-34.45C135.18,1006.5,113.74,981.88,111.37,979.24Z"/><path class="cls-13" d="M337.92,999.1a220.33,220.33,0,0,0-147.56,54.49,208.27,208.27,0,0,1,11.55-33.87,213.83,213.83,0,0,1,51.78-71.51Z"/><path class="cls-10" d="M34.73,990.93a250.12,250.12,0,0,0,16.42,96.44c29.1,75.56,87.3,114.59,109.18,127.75a178.28,178.28,0,0,1-83.59-24.36c-8.82-5.22-34.59-20.48-50.72-46.08C-14,1081.2,31.83,996.14,34.73,990.93Z"/><path class="cls-12" d="M72.37,1057.24a48.76,48.76,0,0,1-18.3-5.35C33.31,1040.91,27,1017,20.75,992c-6.39-25.64-9.59-38.46-2.52-47.45C31,928.26,67.64,931,77.76,946.58c7.16,11-2.56,23-6.81,52.77A177.59,177.59,0,0,0,72.37,1057.24Z"/><path class="cls-12" d="M19.23,861.17c-5.76-16.59-7.54-43.22,3.26-49.95C49.22,794.58,158.64,896,145.14,919.79c-8.2,14.43-63.86,4-98.89-23.71C26.16,880.19,20.42,864.58,19.23,861.17Z"/><path class="cls-13" d="M145.22,927.27a155.18,155.18,0,0,0-72.85,130,77.9,77.9,0,0,1-17.21-20c-23.92-39.95-2.29-88.19,1.05-95.35Z"/><path class="cls-10" d="M148,916.71l-2.73,10.56C107.84,947,77,947.52,61.36,946.42c-16.06-1.12-33-2.3-42-14.75-10.07-13.94-6.76-37.3,8-59.24A114.19,114.19,0,0,0,148,916.71Z"/><path class="cls-13" d="M176.93,901.86,43.68,821.35C63.74,883.55,106,921.57,143,917.92,150.52,917.17,162.86,914.19,176.93,901.86Z"/><path class="cls-12" d="M73.11,1019.09a124.6,124.6,0,0,0-.74,38.15,163.52,163.52,0,0,1,36.37-48.61c28.66-26,48.27-26.68,66.58-52.53,16.34-23.08,23-54.63,14.5-60.59-3.51-2.46-9.22-.26-17.12,3.77-38,19.41-60.82,47.6-63.57,51.06C93.82,969.62,78.44,988.93,73.11,1019.09Z"/><path class="cls-12" d="M429.54,1110.25c-4.26,8.8-8.28,14.39-13.32,22.15-8.21,12.64-19.87,31.18-33.62,55.26A274.77,274.77,0,0,0,401.46,1128c4.46-23.08,4.37-38.91,3.44-50.22-1.24-15.13-4.06-22.87-5.88-27.2a73.56,73.56,0,0,0-18.34-25.7L445.31,1064A218.25,218.25,0,0,1,429.54,1110.25Z"/><path class="cls-13" d="M172.7,899.28a137.57,137.57,0,0,0-10.79,27.35,140.2,140.2,0,0,0-1.58,67.69,138.35,138.35,0,0,0,30,59.27c-5.61-17.07-13.72-50-5.7-89.66a171.56,171.56,0,0,1,17.05-47.12Z"/><path class="cls-10" d="M199.27,915.34a173.17,173.17,0,0,0-19.46,84.43,170.14,170.14,0,0,0,10.55,53.82l33.27-123.54Z"/><path class="cls-13" d="M324.33,990.88a84.32,84.32,0,0,1-5.47,24.2c-4.31,11.09-9.82,18.13-19.68,30.52-9,11.25-14.55,18.28-24.16,26a115.54,115.54,0,0,1-29.57,17.14c11.59-14.6,30.78-43.25,36.07-83.41a163.1,163.1,0,0,0,.28-40.11Z"/><path class="cls-10" d="M347.79,1005.06l-23.46-14.18c-3.63,15-13.53,46.26-41.73,72.73a141.85,141.85,0,0,1-37.15,25.1,163.84,163.84,0,0,0,57.13-16.2,165.92,165.92,0,0,0,63.25-55.41Z"/><path class="cls-12" d="M261.32,952.82l-37.69-22.77A312.4,312.4,0,0,0,203,975.93c-3.76,10.58-7.52,21.33-10.12,36.13a183.6,183.6,0,0,0-2.51,41.53,168.25,168.25,0,0,1,71-100.77Z"/><path class="cls-10" d="M226,931.49c9.85,14.51,30.55,49.42,30.54,97.28a169.11,169.11,0,0,1-11.09,59.94A165.55,165.55,0,0,0,281.8,965.19Z"/><path class="cls-10" d="M-16.14,1283.27c-10.56,3.47-13.72,37.5-2.34,43.53,7.56,4,23.81-3.12,26.9-15.68C12.37,1295.07-7.68,1280.5-16.14,1283.27Z"/><path class="cls-10" d="M75.62,1328.37c-2,1.49-13.8,10.8-14.91,26.85a36.5,36.5,0,0,0,4.94,20.69c-54.73,61-73.47,68.1-80.45,63.8-11.61-7.15-4.27-52.29,22-80.67C31.83,1332.36,65.38,1329,75.62,1328.37Z"/><path class="cls-12" d="M10.54,1256.7A71.58,71.58,0,0,0,3.88,1312a113.95,113.95,0,0,1-24.46-39.1Z"/><path class="cls-10" d="M7.28,1320.48l39.5-7L6.64,1259.27c-4.07,10.54-9.62,30.09-3.17,51.41A67.58,67.58,0,0,0,7.28,1320.48Z"/><path class="cls-12" d="M-19.94,1429c1.47-8.35,14.06-73.93,66.07-94.6a87.05,87.05,0,0,1,29.49-6c-27.79-26.2-72.16-24.85-98.22,2.83C-48.51,1358.72-47.38,1402.76-19.94,1429Z"/><path class="cls-10" d="M91.14,1227.89c-22.78,3.95-30.87,35.22-32.48,41.45-5.64,21.82.69,40.49,4,48.54,5-3.43,71.41-49.63,61.08-75.64C119.61,1231.8,103.54,1225.74,91.14,1227.89Z"/><path class="cls-13" d="M5.57,1249.24c.82,7.37,5.38,41.48,34.71,63.57a86,86,0,0,0,35.34,15.56A91.8,91.8,0,0,1,42,1234.55Z"/><path class="cls-12" d="M95.46,1229.12c-4.45,3.3-23.94,18.48-29.24,46.57-5.13,27.1,6.44,47.73,9.4,52.68a87.16,87.16,0,0,1-28.57-33.9C34.3,1267.33,40,1242,42,1234.55Z"/><path class="cls-13" d="M-19.8,1280.91c-.23-44.08,32.14-79.34,69.85-82.38,29.28-2.35,58.65,15,73.71,43.71a115.56,115.56,0,0,0-35.53-8.31C30.94,1230-10.72,1271.44-19.8,1280.91Z"/><path class="cls-12" d="M94.93,1207.66c-10.27-.59-43.14-1.19-74.54,21.08a116.7,116.7,0,0,0-39,47.93c-18.6-32.08-7.39-73.45,24-91.5C35.73,1167.7,75.67,1177.4,94.93,1207.66Z"/><path class="cls-10" d="M123.76,1242.24a114.32,114.32,0,0,0-48.36-38.08,114.83,114.83,0,0,0-69.14-5.58c1.49-5,5.09-14.19,13.85-20.86,16.8-12.79,38.94-5.72,46.73-3.22,19.2,6.14,29.86,19.84,37.15,29A110.14,110.14,0,0,1,123.76,1242.24Z"/><path class="cls-12" d="M24.08,1178.42c6.22-1.07,35.82-5.45,64.18,13.77,26,17.59,33.7,43.33,35.5,50,20.3-43.2-1.71-87.83-31.81-96.44C69.64,1139.43,40.93,1152.28,24.08,1178.42Z"/><path class="cls-13" d="M70.08,1097c-30.41-6.52-69.22,50.55-84.23,96.61a189.55,189.55,0,0,0-9.2,59.85A197.48,197.48,0,0,1,6.21,1204.9c13-15.7,33.18-40,67.35-49.57a108.4,108.4,0,0,1,31.86-3.9C93.32,1103.37,74.56,1097.94,70.08,1097Z"/><path class="cls-13" d="M18,1065.49c-9.44-11.68-29-19.48-41.8-12.74-30.28,16-10.22,107.65-1.67,142.63C24.13,1143.38,37.54,1089.63,18,1065.49Z"/><path class="cls-12" d="M83.7,1101.65,30,1064.37a287.67,287.67,0,0,0-52,173.79A176.73,176.73,0,0,1,83.7,1101.65Z"/><path class="cls-10" d="M46.28,1090.15l39-47.52a217.71,217.71,0,0,1,36.31,54.94c31,67.41,18,132,11.55,156.85a200.73,200.73,0,0,0-20.17-87A201.31,201.31,0,0,0,46.28,1090.15Z"/><path class="cls-13" d="M77.47,1055.57a183.14,183.14,0,0,1,48.82,64.21c27.54,60.91,12,118.12,6.83,134.64,12.21-22.69,55.21-108.32,18.72-174.43-13.73-24.88-45.46-59.23-62.19-52.23C81.17,1031.31,78.41,1044.49,77.47,1055.57Z"/><path class="cls-10" d="M133.12,1254.42c14.08-31.43,42-106.57,12.58-182.25a187.66,187.66,0,0,0-14.62-29.54l47-18.49c33.53,19.27,44.55,42.41,48.41,52.65C246.74,1130.48,211.7,1206.65,133.12,1254.42Z"/><path class="cls-12" d="M173,1080.74c-4.41-1-86.07-19.88-95.58-72.47-2.84-15.66-.7-42.19,14.74-49.2,15.21-6.91,38.4,7.35,46.89,24.65,6.7,13.65.95,22.46,3.09,40.48C143.83,1038.13,150.25,1058,173,1080.74Z"/><path class="cls-10" d="M376.73,990.63,346.28,1047l53-18.82Z"/><path class="cls-10" d="M438.31,996.6c-.92-.14-20.94-2.82-32.39,11.79a32.46,32.46,0,0,0-6.6,19.83l57.53-20.41Z"/><path class="cls-10" d="M407.14,977.85a135.6,135.6,0,0,0-14.12,61,250.62,250.62,0,0,0,63.83-31Z"/><path class="cls-10" d="M110.44,1031.28c-13.68,3.78-32,6.89-39.75-2-17.82-20.58,24.79-97.59,43-93.63,12.31,2.67,19.1,43.78,7.21,75.87A87.21,87.21,0,0,1,110.44,1031.28Z"/><path class="cls-13" d="M377.92,960.13a101,101,0,0,0,1.4,49.92,99.42,99.42,0,0,0,13.7,28.77,169.61,169.61,0,0,1,14.12-61Z"/><path class="cls-13" d="M299.58,1063.62q-1.15-9.49-2.29-19-1.56-12.9-3.11-25.8a172.46,172.46,0,0,0-28.44,15.89,179.23,179.23,0,0,0-54.23,60.16Z"/><path class="cls-13" d="M346.76,990a59,59,0,0,0-8.69-39.38c-3.59,6.6-8.57,15.82-14.48,26.88-7.69,14.38-11.5,21.72-13.87,27.16-4.3,9.89-9.78,22.7-12.43,40a134.85,134.85,0,0,0-1,32.23,176.29,176.29,0,0,1,13.56-35.58,190.11,190.11,0,0,1,12.86-21.36A236.58,236.58,0,0,1,346.76,990Z"/><path class="cls-13" d="M144.49,981.53c-2.47,8.75-8.17,33.41,2.43,61.36A97.3,97.3,0,0,0,173,1080.74c-1.59-2.83-10.28-18.86-4.48-38.72,5.7-19.54,21.21-28.38,24.14-30a41.44,41.44,0,0,0-48.21-30.51Z"/><path class="cls-12" d="M294.18,1018.83a149.75,149.75,0,0,0-76,82.7c-4.68-33.28,3.9-56.38,8.59-66.65,10.53-23.05,27-37.13,46.84-54.31a275.49,275.49,0,0,1,38.66-28Q303.26,985.71,294.18,1018.83Z"/><path class="cls-10" d="M347.65,988.24a180.37,180.37,0,0,0-37.7,50.17,176.81,176.81,0,0,0-10.37,25.21l46.7-16.58Q347,1017.64,347.65,988.24Z"/><path class="cls-10" d="M317.4,923.56c-8.63,10.2-36.25,45.42-35.17,95.84a138.67,138.67,0,0,0,14,57.46c.66-23.86,5.4-63.27,29.23-103a200.34,200.34,0,0,1,23.25-31.32Z"/><path class="cls-10" d="M110.44,1031.28A142.36,142.36,0,0,0,130.07,1008c5.83-8.64,14-20.83,18.08-38.63a102.18,102.18,0,0,0,1.34-39c26.21-18.11,35.84-17.34,40-14.25,13.22,9.86-.06,64.48-36.19,94.26A105,105,0,0,1,110.44,1031.28Z"/><path class="cls-12" d="M181.41,841.41,286.83,905.1a248.22,248.22,0,0,0-52,74.53c-26.22,58.17-22.83,111.46-19.61,136.14a280.18,280.18,0,0,1-27.87-43c-7.13-13.56-18.54-35.65-24.38-65.76-4.64-24-3.7-42.35-2.63-60.59A391.56,391.56,0,0,1,181.41,841.41Z"/><path class="cls-13" d="M342.59,938.78a163.94,163.94,0,0,0-60.65,35.76c-22.21,20.86-32.65,42.28-42.17,62a283.74,283.74,0,0,0-24.56,79.18,293.31,293.31,0,0,1-4-79.48c1.14-13.22,2.82-30.08,8.62-48.15,5.36-16.69,20.22-51.25,67-83Z"/><path class="cls-12" d="M62.57,955c21.08-2,41.11,8.76,50.35,26.85,12.45,24.35-1.7,48.19-2.48,49.46a123.1,123.1,0,0,0,34.05-49.75A122.61,122.61,0,0,0,151.61,931c-9.47-26.11-38.16-38.7-61.24-29.63C70.48,909.21,58.1,931.8,62.57,955Z"/><path class="cls-13" d="M73.94,875.21-26.68,902.56a242.07,242.07,0,0,0,126.05,212.6,221.8,221.8,0,0,1-30.14-52.77C36.41,980.27,63.32,902,73.94,875.21Z"/><path class="cls-12" d="M112.25,918.14c-11.86,24-30.48,70.48-26.71,129.74a248.9,248.9,0,0,0,13.83,67.28,220.62,220.62,0,0,1-34-63.27c-10.46-30.59-11.43-55.52-11.85-69.16a262.16,262.16,0,0,1,12.66-88.58Q89.2,906.15,112.25,918.14Z"/><path class="cls-10" d="M50.41,879.28c3.51-2.38,36.7-24.47,54.67-12.69,19.38,12.71,14.83,60.75-10.67,86.14C77.1,970,54.54,972.37,46.14,972.85c4.9-4.26,16.77-15.73,21-34.45C74.22,906.54,52.78,881.92,50.41,879.28Z"/><path class="cls-13" d="M277,899.14A220.38,220.38,0,0,0,129.4,953.63,209.23,209.23,0,0,1,141,919.76a214,214,0,0,1,51.78-71.51Z"/><path class="cls-10" d="M-26.23,891A250.12,250.12,0,0,0-9.81,987.41C19.29,1063,77.49,1102,99.37,1115.16a178.28,178.28,0,0,1-83.59-24.36c-8.82-5.22-34.59-20.48-50.71-46.08C-74.92,981.24-29.13,896.18-26.23,891Z"/><path class="cls-12" d="M11.41,957.28a48.76,48.76,0,0,1-18.3-5.35C-27.65,941-34,917-40.21,892c-6.39-25.64-9.59-38.46-2.52-47.45C-29.92,828.3,6.68,831,16.8,846.62c7.16,11-2.55,23-6.81,52.77A177.59,177.59,0,0,0,11.41,957.28Z"/><path class="cls-12" d="M-41.73,761.21c-5.76-16.59-7.54-43.22,3.27-50,26.72-16.64,136.14,84.8,122.64,108.57-8.2,14.43-63.86,4-98.89-23.71C-34.8,780.23-40.54,764.62-41.73,761.21Z"/><path class="cls-13" d="M84.26,827.31a155.24,155.24,0,0,0-72.85,130A78.1,78.1,0,0,1-5.8,937.33c-23.92-40-2.29-88.19,1-95.35Z"/><path class="cls-10" d="M87,816.75l-2.73,10.56C46.88,847,16.05,847.56.4,846.46c-16.06-1.12-33-2.3-42-14.75-10.07-13.94-6.76-37.31,7.95-59.24a116.09,116.09,0,0,0,58.09,42.3A115.25,115.25,0,0,0,87,816.75Z"/><path class="cls-13" d="M116,801.9-17.27,721.39C2.79,783.59,45,821.61,82,818,89.56,817.21,101.9,814.23,116,801.9Z"/><path class="cls-12" d="M12.15,919.13a124.6,124.6,0,0,0-.74,38.15,163.52,163.52,0,0,1,36.37-48.61c28.66-26,48.27-26.68,66.58-52.53,16.34-23.08,23-54.63,14.5-60.59-3.51-2.46-9.22-.26-17.12,3.77-38,19.41-60.82,47.59-63.57,51.06C32.86,869.66,17.48,889,12.15,919.13Z"/><path class="cls-12" d="M368.58,1010.29c-4.26,8.8-8.27,14.39-13.32,22.15-8.21,12.64-19.87,31.18-33.62,55.26A275.45,275.45,0,0,0,340.51,1028c4.46-23.08,4.36-38.91,3.43-50.22-1.24-15.13-4.06-22.87-5.87-27.2a73.69,73.69,0,0,0-18.35-25.7L384.35,964A218.25,218.25,0,0,1,368.58,1010.29Z"/><path class="cls-13" d="M111.74,799.32A138.18,138.18,0,0,0,101,826.67a140,140,0,0,0-1.57,67.69,138.24,138.24,0,0,0,30,59.27c-5.61-17.07-13.72-50-5.7-89.66a171.56,171.56,0,0,1,17-47.12Z"/><path class="cls-10" d="M138.31,815.38a173.28,173.28,0,0,0-19.46,84.43,170.14,170.14,0,0,0,10.55,53.82l33.27-123.54Z"/><path class="cls-13" d="M263.37,890.92a84.25,84.25,0,0,1-5.46,24.2c-4.32,11.09-9.83,18.13-19.69,30.52-8.95,11.25-14.55,18.28-24.16,26a115.37,115.37,0,0,1-29.57,17.14c11.59-14.6,30.78-43.25,36.07-83.41a163.1,163.1,0,0,0,.28-40.11Z"/><path class="cls-10" d="M286.83,905.1l-23.46-14.18c-3.63,15-13.53,46.26-41.73,72.73a141.85,141.85,0,0,1-37.15,25.1,163.84,163.84,0,0,0,57.13-16.2,165.92,165.92,0,0,0,63.25-55.41Z"/><path class="cls-12" d="M200.36,852.86l-37.69-22.77A312.4,312.4,0,0,0,142,876c-3.76,10.58-7.52,21.33-10.12,36.13a183.57,183.57,0,0,0-2.51,41.53,168.25,168.25,0,0,1,71-100.77Z"/><path class="cls-10" d="M165,831.52C174.9,846,195.59,881,195.58,928.81a169.11,169.11,0,0,1-11.09,59.94,167.11,167.11,0,0,0,32.95-66.65,165.91,165.91,0,0,0,3.4-56.87Z"/></g><path class="cls-15" d="M-102.6,1926,38.1,1354,275.91,1138.6l195.7-147.46,143.41-8,174.22,152,368,135.87,195.71,487.52Z"/></g><g id="帯"><polygon class="cls-10" points="677.86 -189.83 686.48 -329.89 1292.5 547.36 1323.63 740.8 677.86 -189.83"/><polygon class="cls-16" points="676.95 -217.69 675.81 -319.9 1280.49 555.4 1309.25 693.54 676.95 -217.69"/><polygon class="cls-10" points="-223.68 947.86 -241.48 808.67 585.27 1622.58 513.99 1671.05 -223.68 947.86"/><polygon class="cls-16" points="-229.79 920.67 -250.08 820.48 552.15 1610.26 530.3 1665.85 -229.79 920.67"/><polygon class="cls-10" points="-450.73 1527.62 -586.34 1478.22 1559.68 775.01 1754 800.09 -450.73 1527.62"/><polygon class="cls-16" points="-449.08 1511.13 -551.56 1482.03 1563.98 788.81 1704.61 800.45 -449.08 1511.13"/></g></svg>