<svg xmlns="http://www.w3.org/2000/svg" xmlns:xlink="http://www.w3.org/1999/xlink" viewBox="0 0 621.24 440.51"><defs><symbol id="prefix__prefix__新規シンボル" data-name="新規シンボル" viewBox="0 0 599.69 254.21"><path class="prefix__prefix__cls-1" d="M106.63 132.08L90.77 152.9h-.88v-42.89h39.21V88.26H89.89V58.11h46.26V35.74H99.14L126.02 0H91.21L64.33 35.74H53.76l15.42-19.89L57.28 0H22.03l27.32 35.74H10.57v22.37H56.4v30.15H17.18v21.75H56.4v42.89H11.02l16.74 22.37h25.55l-41.85 55.32H0l17.63 23.62h11.89l59.93-78.94h15.42l32.61-43.19h-30.85z"/><path class="prefix__prefix__cls-1" d="M203.57 132.08V3.73h-72.26v23.62h39.21v100.69l-43.62 58.11h-17.18l16.74 22.37h20.27l23.79-31.38v52.2h-28.2l18.95 24.87h42.3V133.63l.88-1.24-.88-.31z"/><path class="prefix__prefix__cls-1" d="M130.87 109.05h22.03l17.18-33.53h-39.21v33.53zm77.55 0h26.43l17.19-33.53h-43.62v33.53z"/><path class="prefix__prefix__cls-1" d="M207.1 27.35h44.94v106.28l-.44-.31-39.66 52.83h-7.49l16.75 22.37h10.13l20.71-27.65v48.47h-26.88l18.95 24.87h40.98V3.73H207.1v23.62zm214.58 4.35h16.74V9.32H322.09V31.7h61.69l-64.33 85.46h-8.37l17.62 23h11L345 133v83.6h82.4V92.3h-51.55zm-44.95 83h18.95v79.56h-18.95z"/><path class="prefix__prefix__cls-1" d="M531 119V51.59h12.34L534 64l19 25.17 46.7-61.84H531V.93h-33.53v26.42H439.3v172.16h-11.45l17.62 23.62h27.32v-62.77l24.68 32.94-.47-.3-28.65 37.6h-11.42L475 254.21h14.54l27.32-36.36 27.76 36.36h49.78v-23.62h-29.52L538 194.85 595.29 119zm-58.21-67.41h24.68V119h-24.68zM517.73 170L497 142.64h41.41z"/></symbol><style>.prefix__prefix__cls-1{fill:#004152}</style></defs><use width="599.69" height="254.21" transform="translate(10.75 111.2)" xlink:href="#prefix__prefix__新規シンボル" id="prefix__prefix__文字"/></svg>