<svg id="レイヤー_1" data-name="レイヤー 1" xmlns="http://www.w3.org/2000/svg" xmlns:xlink="http://www.w3.org/1999/xlink" viewBox="0 0 644.11 315"><defs><style>.cls-1,.cls-10,.cls-12,.cls-13,.cls-25,.cls-27,.cls-28{fill:none;}.cls-2{fill:#bb417a;}.cls-3{fill:#9b3f7b;}.cls-4{fill:#b1981c;}.cls-20,.cls-23,.cls-24,.cls-26,.cls-5{fill:#fff;}.cls-29,.cls-6{fill:#231815;}.cls-7{fill:#3e3a39;}.cls-8{fill:#00a7cd;}.cls-9{fill:#ea66a1;}.cls-10{stroke:#b1981c;stroke-width:1.5px;}.cls-10,.cls-12,.cls-13,.cls-23,.cls-27,.cls-28{stroke-miterlimit:10;}.cls-11{fill:#eb8c76;}.cls-12,.cls-13{stroke:#eb8c76;}.cls-12,.cls-23,.cls-24{stroke-width:0.5px;}.cls-13{stroke-linecap:round;}.cls-13,.cls-27{stroke-width:3px;}.cls-14{fill:url(#新規パターンスウォッチ_11);}.cls-15,.cls-30{fill:#0a1a34;}.cls-16,.cls-21{fill:#ffdb4f;}.cls-17{fill:url(#新規パターンスウォッチ_11-3);}.cls-18{fill:url(#新規パターンスウォッチ_11-5);}.cls-19{fill:#e94c55;}.cls-20,.cls-23,.cls-24,.cls-25,.cls-26,.cls-29,.cls-30{stroke:#fff;}.cls-20,.cls-21,.cls-24,.cls-25,.cls-26,.cls-29,.cls-30{stroke-linejoin:bevel;}.cls-20,.cls-21{stroke-width:1.01px;}.cls-21{stroke:#ffdb4f;}.cls-22{fill:#140107;}.cls-25,.cls-29,.cls-30{stroke-width:0.75px;}.cls-26{stroke-width:0.26px;}.cls-27,.cls-28{stroke:#ecb092;}.cls-28{stroke-width:2.8px;}</style><pattern id="新規パターンスウォッチ_11" data-name="新規パターンスウォッチ 11" width="8.56" height="83.1" patternTransform="matrix(0.57, -0.82, -0.82, -0.57, -59.96, 694.56)" patternUnits="userSpaceOnUse" viewBox="0 0 8.56 83.1"><rect class="cls-1" width="8.56" height="83.1"/><rect class="cls-1" width="8.56" height="83.1"/><rect class="cls-2" width="4.28" height="83.1"/><rect class="cls-3" x="4.28" width="4.28" height="83.1"/></pattern><pattern id="新規パターンスウォッチ_11-3" data-name="新規パターンスウォッチ 11-3" width="8.56" height="83.1" patternTransform="matrix(0.57, -0.82, -0.82, -0.57, -21.66, 669.99)" patternUnits="userSpaceOnUse" viewBox="0 0 8.56 83.1"><rect class="cls-1" width="8.56" height="83.1"/><rect class="cls-1" width="8.56" height="83.1"/><rect class="cls-2" width="4.28" height="83.1"/><rect class="cls-3" x="4.28" width="4.28" height="83.1"/></pattern><pattern id="新規パターンスウォッチ_11-5" data-name="新規パターンスウォッチ 11-5" width="8.56" height="83.1" patternTransform="matrix(0.57, -0.82, -0.82, -0.57, -10.34, 661.57)" patternUnits="userSpaceOnUse" viewBox="0 0 8.56 83.1"><rect class="cls-1" width="8.56" height="83.1"/><rect class="cls-1" width="8.56" height="83.1"/><rect class="cls-2" width="4.28" height="83.1"/><rect class="cls-3" x="4.28" width="4.28" height="83.1"/></pattern></defs><g id="レイヤー_1-2" data-name="レイヤー 1"><path class="cls-4" d="M60.1,24.2q-.8,12.79-1,27c-1.81,0-3.64-.06-5.51-.06q.69-12.31,1.31-21.52a18.52,18.52,0,0,0-3.57.07c-.18-1.81-.29-3.63-.31-5.48Q55.94,24.06,60.1,24.2Z"/><path class="cls-4" d="M75.28,30.44,68,29.74c-.13,3.41-.2,6.49-.2,9.26q3-.27,6.51-.66L74.45,43c-2.4,0-4.63.1-6.69.17v7.75H63.29Q62.6,37.24,62,24.31q2.35-.14,5.84-.23c2.32-.07,4.25-.11,5.8-.14H76C75.86,26,75.6,28.13,75.28,30.44Z"/><rect class="cls-5" x="40.26" y="204.86" width="581.94" height="92.37"/><path class="cls-4" d="M31.8,191.63h75.72a11.91,11.91,0,0,1,11.91,11.91h0a11.91,11.91,0,0,1-11.91,11.91H31.8V191.63Z"/><path class="cls-5" d="M55.07,195.54v16H42.3v-16Zm-11,1.64v12.7h9.32v-12.7Zm7,2.94h2v1.6H51v7.16H47.67l-.84-1.52h2.48v-5.64h-5v-1.6h5v-2.28H51Zm-3.71,2.42,1.3,2.32-.95,1.66-2.2-4Z"/><path class="cls-5" d="M62,195.24h1.8l-2.22,4V211.6H60v-9.5l-.55,1h-.54l-.82-1.48h.38Zm5.65,6,3.71,6.66h.28v1.48H70.4l-2.8-5v3.28h1.6v1.48H67.67v2.42H65.92v-2.42H64.35V207.7H66v-3.3l-2.8,5h-.7l-.84-1.48h.55l3.71-6.66v-.74H62.18v-1.6h3.74v-3.44h1.75v3.44H71.4v1.6H67.67Z"/><path class="cls-5" d="M84.42,201.5h1.91l1.6,2.84h-13v-1.58H85.12Z"/><path class="cls-5" d="M100,210.12h2.54v-1.36H104v2.84H98.35v-3.2h-2l.4.72-1.39,2.48H92.11l-.84-1.48h3.07l1-1.72h-2v-6.5h8.84v6.5H100Zm-2.54-8.56h-6v-6.08h6v1.24h-2v.6h1.45v2.4H95.49v.6h2ZM94,197.32v-.6H93v.6Zm1.45,1.44v-.48H93v.48Zm-2.5,1v.6h1v-.6Zm7.54,4v-.56H94.86v.56Zm-5.65,1.74h5.65v-.58H94.86Zm5.65,1.16H94.86v.56h5.65Zm.44-11.36-.82,1.46h4v1.4H99.33l-.92,1.66h-.59l-.78-1.4h.51l1.72-3.12ZM98.58,200h5.33v1.4H98.6Z"/><path class="cls-6" d="M372.94,255.59v-.51h2.56v.51Zm.27,4.29V257.7h2.13v2.06h-.69v-.26h-.78v.38Zm.1-5.08v-.53h1.95v.53Zm0,1.65V256h1.95v.5Zm0,.84v-.51h1.95v.51Zm1.34,1.73v-.79h-.78V259Zm3.84-4.75-.48.81h1v.56h-1.39v.81h1.12V257h-1.12v.89h1.52v.53h-1.52v1.5H377v-1.5h-1.41v-.53H377V257h-1.12v-.54H377v-.81H375.7v-.56h.69l-.26-.53a1.56,1.56,0,0,0-.16-.28l.48-.23.53.87-.4.17h.83l.53-1.06Z"/><path class="cls-6" d="M384.33,257.17a2.5,2.5,0,0,0,.56.35,9.94,9.94,0,0,1-.88,1.17,3.35,3.35,0,0,1-1,.66,3,3,0,0,1-1.25.28,1.57,1.57,0,0,1-1.25-.48,2.16,2.16,0,0,1-.32-1.38l.08-3.32H381c-.14,1.44-.21,2.53-.21,3.25a1.81,1.81,0,0,0,.16,1,.89.89,0,0,0,.82.35A2.93,2.93,0,0,0,384.33,257.17Z"/><path class="cls-6" d="M387.24,257.7a2,2,0,0,0,.51.35,3.88,3.88,0,0,1-.67,1.27.42.42,0,0,1-.32.13.5.5,0,0,1-.34-.18,2.1,2.1,0,0,1-.51-.89,5.05,5.05,0,0,1-.24-1.54,11.16,11.16,0,0,1,.24-2.16l.72.15a8.68,8.68,0,0,0-.27,1,8.44,8.44,0,0,0-.08,1.12,3.08,3.08,0,0,0,.16,1,1.28,1.28,0,0,0,.24.59h.05a.27.27,0,0,0,.14-.07A5.45,5.45,0,0,0,387.24,257.7Zm1.84-2.49.56-.28a7.3,7.3,0,0,1,.85,1.52,10.25,10.25,0,0,1,.51,1.88l-.69.21a10.59,10.59,0,0,0-.48-2A6.69,6.69,0,0,0,389.08,255.21Z"/><path class="cls-6" d="M392.07,255.24l.51.07a4,4,0,0,1-.08.79,8.56,8.56,0,0,1-.24,1l-.51-.15A9,9,0,0,0,392.07,255.24Zm.59,4.74v-6h.61v6Zm.69-4.82.48-.15a1.47,1.47,0,0,1,.19.4q.08.26.18.54l-.5.12S393.58,255.73,393.35,255.16Zm2.21-.53v-.56h.67v.56h1.71v.43h-1.71v.33h1.33v.43h-1.33v.36h1.92v.43H393.8v-.43h1.76v-.36h-1.28v-.43h1.28v-.33H394v-.43ZM394.31,260v-3.07h3.15v2.49a.6.6,0,0,1-.14.43,1.82,1.82,0,0,1-1,.23,3.83,3.83,0,0,0-.16-.58h.61a.11.11,0,0,0,0-.08V259h-1.9v1Zm2.51-2.26v-.4h-1.9v.4Zm0,.79v-.41h-1.9v.41Z"/><path class="cls-6" d="M400.18,254.7V254h.67v.71h1v.51h-1v.56H402v.51h-.37l-.35.89H402v.5h-1.17v.61h1v.49h-1V260h-.64v-1.19h-1.12v-.49h1.12v-.61H398.9v-.5h.78c-.1-.25-.21-.5-.33-.74l.33-.15h-.78v-.51h1.28v-.56h-1.06v-.51Zm.05,2.26-.42.21h.93l.27-.89h-1.12a4.74,4.74,0,0,1,.34.72Zm3.95-2.18h-1.47v1.8h1.87l.35.3c-.16.61-.28,1-.35,1.19a5.19,5.19,0,0,1-.35.66c.16.16.31.28.43.39a2,2,0,0,0,.53.27,1.73,1.73,0,0,0-.26.28.87.87,0,0,0-.14.31,6.57,6.57,0,0,1-.93-.74,4.65,4.65,0,0,1-.8.74,4.39,4.39,0,0,0-.29-.59,2.51,2.51,0,0,0,.74-.6,5.81,5.81,0,0,1-.4-.92,3.66,3.66,0,0,1-.18-.81h-.22V260h-.56v-5.71h2.67v1.62a.5.5,0,0,1-.16.28,1.93,1.93,0,0,1-.88.18.42.42,0,0,0,0-.31l-.16-.28h.56v-.13A6.31,6.31,0,0,0,404.18,254.78Zm-.32,3.45a3.17,3.17,0,0,0,.4-1.19h-.75A2.93,2.93,0,0,0,403.86,258.23Z"/><path class="cls-6" d="M406.26,255.44l.22-1,.69.23a10.83,10.83,0,0,0-.45,2.77,12.71,12.71,0,0,0,.21,2.13l-.67.16a14.89,14.89,0,0,1-.18-2.11A13.27,13.27,0,0,1,406.26,255.44Zm4.14.13a5.57,5.57,0,0,0,1-.28v.61l-1,.2v2a6.88,6.88,0,0,1,1.36.74l-.42.51c-.31-.24-.61-.45-.91-.64a1.06,1.06,0,0,1-.27.72,1.45,1.45,0,0,1-.93.22,1.62,1.62,0,0,1-1-.3.85.85,0,0,1-.4-.69.7.7,0,0,1,.32-.56,1.84,1.84,0,0,1,1-.22,4.37,4.37,0,0,1,.64.05l-.05-1.75c-.43,0-.81.05-1.15.05a4.2,4.2,0,0,1-.8-.05v-.59c.62,0,1,.08,1.17.08h.78V254.4h.69q0,.32,0,1.17Zm-.56,2.87a4.41,4.41,0,0,0-.72-.08,1.18,1.18,0,0,0-.61.13.23.23,0,0,0-.17.22.32.32,0,0,0,.19.28.94.94,0,0,0,.59.16.8.8,0,0,0,.56-.16.68.68,0,0,0,.16-.55Z"/><path class="cls-6" d="M412.72,258.61l.46-.38a9.52,9.52,0,0,1,1.09,1.2l-.56.43c-.13-.21-.25-.38-.37-.54Z"/><path class="cls-6" d="M419.45,256.53V254.3h2.77v2.23h-1.49v.32a1.93,1.93,0,0,1,0,.34h1.58a13.36,13.36,0,0,1-.14,2,.59.59,0,0,1-.27.43,3,3,0,0,1-.93.28,2.89,2.89,0,0,0-.16-.66h.56a.24.24,0,0,0,.14-.05.69.69,0,0,0,.08-.28c0-.44.05-.84.05-1.2h-1a4.65,4.65,0,0,1-.43,1.2,4.18,4.18,0,0,1-.82.91,3.89,3.89,0,0,0-.43-.48,3.25,3.25,0,0,0,.72-.76,2.55,2.55,0,0,0,.35-.79c0-.22.07-.64.1-1.27Zm2.15-.48v-1.22H420v1.22Zm1.34,2.33v-3.63h.58v3.63Zm1.25.74v-5h.61v5a.52.52,0,0,1-.13.38.76.76,0,0,1-.32.17c-.11,0-.34.05-.69.08a2.31,2.31,0,0,0-.19-.56h.67s.05-.05.05-.07Z"/><path class="cls-6" d="M426.12,254.91v-.54h6v.54h-2.67a2,2,0,0,0-.09.35l-.09.36h2.45v4.21h-.64v-.3h-3.89v.35h-.64v-4.26h2.1a5.62,5.62,0,0,0,.16-.71Zm1.81,4.08V256.1h-.77V259Zm1.71-2.26v-.63h-1.12v.63Zm0,1.12v-.66h-1.12v.66Zm0,1.14v-.71h-1.12V259Zm1.41,0V256.1h-.77V259Z"/><path class="cls-6" d="M435.56,254.14l.69.28-.45.69h.91a6.2,6.2,0,0,1,.72-.16v.59l-1.2.15h-.8l-.4.59.46,0a2,2,0,0,1,.42,0,.59.59,0,0,1,.27.17,1.19,1.19,0,0,1,.16.23,1.67,1.67,0,0,1,.05.31l1.87-.66.21.63-1,.23-1.1.33v1h-.61v-.74a3.43,3.43,0,0,0-1,.53.44.44,0,0,0-.21.36c0,.15.09.27.29.35a3,3,0,0,0,1.33.21A16.34,16.34,0,0,0,438,259v.61c-.82.05-1.36.07-1.63.07a3.62,3.62,0,0,1-1.86-.35.81.81,0,0,1-.43-.74,1,1,0,0,1,.35-.68,6.73,6.73,0,0,1,1.44-.79.55.55,0,0,0-.11-.41.46.46,0,0,0-.32-.1,1.13,1.13,0,0,0-.67.18,10.29,10.29,0,0,0-1.25,1.22l-.48-.43c.35-.32.68-.65,1-1a6.72,6.72,0,0,0,.75-.94,6.32,6.32,0,0,1-1.23,0v-.56h1.59C435.3,254.77,435.44,254.46,435.56,254.14Z"/><path class="cls-6" d="M439.7,257.32l.53.25a1.75,1.75,0,0,0-.29.69c0,.15.09.27.29.35a5.9,5.9,0,0,0,2,.23,12,12,0,0,0,1.7-.13l.05.61-1.22.08a8.42,8.42,0,0,1-1.23,0,7.45,7.45,0,0,1-1.33-.17,1.68,1.68,0,0,1-.75-.41.61.61,0,0,1-.18-.46,1,1,0,0,1,.08-.38C439.47,257.77,439.57,257.56,439.7,257.32Zm3.6-2.41v.63c-.89.09-1.58.13-2.08.13a6.06,6.06,0,0,1-1.46-.21l.16-.55a5.15,5.15,0,0,0,1.3.17,13.16,13.16,0,0,0,2.08-.17Zm-.11-.28.35-.26a3.62,3.62,0,0,1,.72.69l-.35.25a5.13,5.13,0,0,0-.72-.68Zm.64-.49.35-.25c.28.24.53.46.74.66l-.37.3Z"/><path class="cls-6" d="M446.63,258.87v-2.09h4.08v2.09h-1.12v.38a.14.14,0,0,0,.06.12h.05a.71.71,0,0,0,.29,0h.67c.23,0,.36,0,.4-.06a3.57,3.57,0,0,0,.19-.45,1.93,1.93,0,0,0,.56.18,3,3,0,0,1-.24.58.86.86,0,0,1-.22.15,3.11,3.11,0,0,1-.61,0h-1a1,1,0,0,1-.56-.1.33.33,0,0,1-.16-.28v-.61h-.85a1.17,1.17,0,0,1-.4.58,1.53,1.53,0,0,1-.67.31,5.3,5.3,0,0,1-1.25.17,3,3,0,0,0-.21-.5,4.46,4.46,0,0,0,1.41-.16.92.92,0,0,0,.45-.4Zm-.8-2.19v-2.46h3v.36H447.7V255h1v.94h-1v.3h1.09v.33h-2.34v.15Zm1.34-1.72v-.38h-.72V255Zm1.06.63v-.35h-1.78v.35Zm-1.06.61v-.3h-.72v.3Zm3,1.22v-.28h-2.94v.28Zm0,.56v-.28h-2.94v.3Zm0,.56v-.28h-2.94v.28Zm-.16-3.76h1.65v.46h-2l-.34.4-.23-.18-.23-.15a5,5,0,0,0,.48-.66,1.71,1.71,0,0,0,.32-.68l.56.22a.29.29,0,0,1,0,.13c-.08.15-.15.3-.22.46Zm-.67,1.6v-.46h2.16v.46Z"/><path class="cls-6" d="M456.1,254.3l.48.55c-.58.43-1.19.83-1.81,1.2a12.72,12.72,0,0,1-1.31.71.09.09,0,0,0-.1.1c0,.05,0,.09.13.13q.61.38,1.2.81a24.88,24.88,0,0,1,1.87,1.68l-.59.43c-.71-.76-1.24-1.29-1.57-1.58a17.13,17.13,0,0,0-1.47-1.06,1,1,0,0,1-.21-.21.27.27,0,0,1-.06-.17.34.34,0,0,1,.11-.28,1.78,1.78,0,0,1,.48-.33A20.71,20.71,0,0,0,456.1,254.3Z"/><path class="cls-6" d="M459.39,254.22l.66.2-.32,1a3.17,3.17,0,0,0,.8-.15l.67-.18v.61a15.91,15.91,0,0,1-1.68.28c-.09.28-.21.6-.35.94l-.4,1c-.07.13-.34.75-.8,1.85l-.59-.28c.31-.59.57-1.16.8-1.7.13-.31.35-.89.67-1.75H457.7v-.58H459a3.5,3.5,0,0,1,.15-.52C459.22,254.71,459.32,254.46,459.39,254.22Zm.21,3.81h.61a1.28,1.28,0,0,0,.08.58.87.87,0,0,0,.35.28,4.26,4.26,0,0,0,1.23.13,12.44,12.44,0,0,0,1.36-.1v.58c-.49.05-.88.08-1.14.08a7.61,7.61,0,0,1-1.58-.13,1.51,1.51,0,0,1-.56-.33.93.93,0,0,1-.26-.41c0-.23-.07-.47-.09-.71Zm2.21-1.93H463v.59h-1.88a7.46,7.46,0,0,0-.81.1l-.06-.51A13.71,13.71,0,0,1,461.81,256.1Zm1.07-1-.37.33a5.42,5.42,0,0,0-.72-.63l.32-.33.41.32Zm-.48-.86.32-.33c.2.15.45.37.77.64l-.37.33a3.82,3.82,0,0,0-.72-.61Z"/><path class="cls-6" d="M467,255.36q.56-.12,1.65-.48l.19.56a11.11,11.11,0,0,1-1.6.43,6.4,6.4,0,0,0,1.39,1.63l-.35.45a7,7,0,0,0-.88-.3,5,5,0,0,0-.77,0,2.76,2.76,0,0,0-1.44.28.58.58,0,0,0-.3.48.57.57,0,0,0,.3.46,3.27,3.27,0,0,0,1.57.3,13.1,13.1,0,0,0,1.65-.13v.59a12.1,12.1,0,0,1-1.47.1,4.23,4.23,0,0,1-2.18-.43,1,1,0,0,1-.51-.89,1.09,1.09,0,0,1,.53-.89,3.18,3.18,0,0,1,1.74-.36l1,.06a6.85,6.85,0,0,1-.88-1.2,11.88,11.88,0,0,1-1.58.13l-.9,0v-.59a7.59,7.59,0,0,0,1.07.08,7,7,0,0,0,1.12-.08,5.21,5.21,0,0,1-.45-1.09l.66-.15A8.56,8.56,0,0,0,467,255.36Z"/><path class="cls-6" d="M471.24,257.7a2.15,2.15,0,0,0,.5.35,4.27,4.27,0,0,1-.66,1.27.42.42,0,0,1-.32.13.52.52,0,0,1-.35-.18,2.4,2.4,0,0,1-.51-.89,5.05,5.05,0,0,1-.24-1.54,11.16,11.16,0,0,1,.24-2.16l.72.15a8.64,8.64,0,0,0-.26,1,7,7,0,0,0-.08,1.12,2.83,2.83,0,0,0,.16,1,1.28,1.28,0,0,0,.24.59h.05a.21.21,0,0,0,.13-.07A4.59,4.59,0,0,0,471.24,257.7Zm1.83-2.49.56-.28a7.34,7.34,0,0,1,.86,1.52,11.09,11.09,0,0,1,.5,1.88l-.69.21a10.59,10.59,0,0,0-.48-2,6.23,6.23,0,0,0-.75-1.33Z"/><path class="cls-7" d="M373.5,249.14v-7h6.73V249h-.82v-.38h-5.15v.47Zm5.91-1.12v-5.19h-5.15V248Zm-1.94-2a18.16,18.16,0,0,1,1.67,1l-.46.59a6.23,6.23,0,0,0-.88-.56,9.42,9.42,0,0,0-.89-.47,8.31,8.31,0,0,1-.92.63,5.74,5.74,0,0,1-1.05.53,1.7,1.7,0,0,0-.39-.66,5.33,5.33,0,0,0,1.67-.87,13.77,13.77,0,0,0-1.47-.66L375,245a9.23,9.23,0,0,1,1.22.47l.52.28a8.68,8.68,0,0,0,1.54-2.38l.73.38a8.91,8.91,0,0,1-1.54,2.3Zm-1.41-1.72-.56.41-.72-.88.52-.4a7.24,7.24,0,0,1,.76.9Zm.66,0-.46-1,.62-.25.49,1Z"/><path class="cls-7" d="M385.06,242.3v-.53h.78v.53h2.3v.81h1.18v.5h-1.18v.85h-2.3v.34h2.7v.53h-2.7v.38h3.45v.53h-7.58v-.53h3.35v-.38h-2.59v-.53h2.59v-.34h-2.14V244h2.14v-.35h-3.35v-.5h3.35v-.31h-2.14v-.5Zm-2.1,6.91v-2.63h5.18v2.59h-.85v-.28h-3.55v.32Zm4.33-1.72v-.41h-3.55v.41Zm0,.87V248h-3.55v.4Zm.1-5.25v-.31h-1.55v.31Zm0,.85v-.35h-1.55V244Z"/><path class="cls-7" d="M393.76,246.86v-.59h.79v.59h2.52v.63h-2.52v.65h3.24v.66h-7.31v-.66h3.28v-.65h-2.4v-.63Zm0-4.22v-.72h.76v.72h3v1.57h-.65v.34h-3.05l-.66,1c1,0,1.83-.08,2.33-.12l-.43-.35.56-.47c.53.4,1,.84,1.58,1.32l-.59.5-.5-.47-4.92.34-.13-.69h1.28c.17-.29.37-.64.59-1.06h-1.61v-.31h-.59v-1.6Zm2.95,1.28v-.62h-5.18v.62Z"/><path class="cls-7" d="M405,242.14l-.62.91h2.2v.59h-7.29v-.59h2.14a6.57,6.57,0,0,0-.63-.84l.63-.38a4.09,4.09,0,0,1,.39.44,3,3,0,0,1,.3.56l-.4.22h1.87l.69-1.25ZM399.67,249v-4.81h3v4.12a.6.6,0,0,1-.16.44,2.21,2.21,0,0,1-1,.31,1.52,1.52,0,0,0-.1-.47.35.35,0,0,0-.1-.19l-.13-.15h.72a.17.17,0,0,0,.07-.13v-.87h-1.61V249Zm2.33-3.6v-.62h-1.61v.62Zm0,1.25V246h-1.61v.65Zm1.64,1v-3.28h.69v3.28Zm1.71.5v-4.09h.72v4.16a.59.59,0,0,1-.2.53,2.29,2.29,0,0,1-1.11.31c-.13-.37-.23-.64-.3-.78h.85a.12.12,0,0,0,0-.11Z"/><path class="cls-7" d="M411.36,242.49v-.66h.75v.66h3v.65h-6v2a10.55,10.55,0,0,1-.19,2.31,5.58,5.58,0,0,1-.72,1.75,2.61,2.61,0,0,0-.27-.31.38.38,0,0,0-.13-.09l-.23-.13a4.91,4.91,0,0,0,.63-1.47,14.82,14.82,0,0,0,.16-2.4v-2.28Zm-.85,1.43v-.59h.72v.59h.95v2.72h-1.94v1.25c.53-.1.88-.17,1.05-.22,0,0-.11-.22-.26-.56l.62-.19c.16.32.39.83.69,1.54l-.69.28a.61.61,0,0,0,0-.19,1,1,0,0,0-.13-.28l-2.33.53-.3-.72.63-.09v-4.07Zm1,1.07v-.5h-1.25v.5Zm0,1.09v-.56h-1.25v.56Zm1.11-2.5h2l.06-.06.56.5a14,14,0,0,0-.75,1.56,10.13,10.13,0,0,1,.62,1.06,2,2,0,0,1,.13.72,1,1,0,0,1-.26.72,2.65,2.65,0,0,1-1.15.44,1.91,1.91,0,0,0-.1-.53l-.2-.35h.66a.23.23,0,0,0,.16-.06.55.55,0,0,0,.07-.28,2.13,2.13,0,0,0-.07-.44l-.09-.28a1.23,1.23,0,0,0-.14-.25l-.18-.3c-.07-.13-.16-.26-.24-.39l.62-1.43h-1V249h-.69Z"/><path class="cls-7" d="M416.55,243v-.66h7.28V243h-3.34v1.06c1.11.69,1.91,1.21,2.39,1.56l-.52.66-.92-.72-.95-.69V249h-.82v-6Z"/><path class="cls-6" d="M74.7,255l.56.2-.16.28h1.42V256h-.75l.21.4-.58.15a2.81,2.81,0,0,0-.27-.55h-.35c-.23.27-.45.5-.66.71-.14-.14-.28-.28-.43-.41a6.38,6.38,0,0,0,.51-.53Zm2.46,0,.61.15-.16.35h2.13v.5H78.57a.42.42,0,0,1,.09.15l.12.28-.61.15q-.06-.15-.15-.33L77.9,256h-.56l-.37.53h.13v.33h2.53V258H79v-.73H74.6V258H74v-1.19h2.46v-.33h.34l-.37-.2A5.24,5.24,0,0,0,77.16,255Zm-2.32,5.94v-3.23h3.75v1.22H75.45v.41h3.47v1.57h-.65v-.3H75.45v.33ZM78,258.48v-.38H75.45v.38Zm.26,1.68v-.44H75.45v.44Z"/><path class="cls-6" d="M81.88,256.47v-1.32h.59v1.32h.72V257h-.72v.94l.37-.1.35-.1v.56l-.72.23v1.92a.35.35,0,0,1-.14.33,2.46,2.46,0,0,1-.85.16,1.28,1.28,0,0,0-.27-.59h.64a.11.11,0,0,0,0-.08V258.7l-.91.25-.13-.61c.41-.08.75-.16,1-.23V257h-1v-.51Zm1.33-.28v-.53h3.63v.53h-1v4.17c0,.19,0,.3-.1.35a1.92,1.92,0,0,1-1,.18,1.55,1.55,0,0,0-.24-.58h.66a.09.09,0,0,0,0-.07v-4Z"/><path class="cls-6" d="M88,258.68h2.6v-.43h.62v.43h2.61v.49H91.62a4.84,4.84,0,0,0,1.12.6,10.32,10.32,0,0,0,1.35.36l-.37.58a6.1,6.1,0,0,1-1.38-.48,4.52,4.52,0,0,1-1.12-.71V261H90.6v-1.5a6.65,6.65,0,0,1-1,.66,7.78,7.78,0,0,1-1.41.55s-.14-.2-.37-.5l.68-.22.44-.14.58-.25.67-.43H88ZM89.43,257v.59c-.41.17-.84.34-1.31.5l-.24-.55A10.2,10.2,0,0,0,89.43,257ZM88,255.89l.38-.46a10.67,10.67,0,0,1,1,.51l-.35.53C88.7,256.26,88.35,256.07,88,255.89Zm2.62-.86.64.07-.19.59h1.15v2.36H89.64v-2.36h.86Zm-.38,1.57h1.39v-.48H90.2Zm0,1h1.39v-.53H90.2Zm3.23-2.21.32.48-1.12.72-.35-.46q.57-.34,1.11-.75Zm.43,2.26-.38.51a12.29,12.29,0,0,0-1.17-.76l.29-.46,1.22.7Z"/><path class="cls-6" d="M97.73,256.73l.58.23-.29.38h2.88v.48H99.19a3.9,3.9,0,0,0,.83.56,6.43,6.43,0,0,0,1.12.46,3.45,3.45,0,0,0-.35.5l-.34-.15v1.68h-.62v-.31h-.9v.31h-.59v-2h1.41a6,6,0,0,1-.66-.46c-.18-.14-.42-.34-.72-.61h-.78a7.92,7.92,0,0,1-.69.61l-.72.46h1.36v2h-.61v-.3h-.86v.3h-.58v-1.65l-.35.15c-.21-.3-.33-.46-.35-.48a6.76,6.76,0,0,0,1.07-.46,4.55,4.55,0,0,0,.88-.63H95v-.48h2.3C97.39,257.15,97.55,257,97.73,256.73Zm-2.27.12v-1.62h2v1.62Zm1.44-.43v-.68h-.85v.68Zm0,3.71v-.79H96v.79Zm1.46-3.28v-1.62h2.06v1.62Zm1.47-.45v-.69h-1v.69Zm0,3.73v-.79h-.9v.79Z"/><path class="cls-6" d="M102.37,255.51l.69.18c-.17.89-.28,1.44-.32,1.65,0,.52-.08,1-.08,1.37a9.35,9.35,0,0,0,.19,1.9l-.67.15a2.58,2.58,0,0,0-.06-.73,2.58,2.58,0,0,1-.07-.51,5.21,5.21,0,0,1,0-.79A16.59,16.59,0,0,1,102.37,255.51Zm1.2,3.25h.61a.87.87,0,0,0,.3.77,3.15,3.15,0,0,0,1.6.28,6.22,6.22,0,0,0,1.14-.13v.66l-1.2.05a3.33,3.33,0,0,1-2-.41A1.43,1.43,0,0,1,103.57,258.76Zm3.33-2.62v.59H106a12.12,12.12,0,0,0-2.08.21v-.59a11.51,11.51,0,0,1,2.11-.2Z"/><path class="cls-6" d="M111,256.68v.05a6,6,0,0,0,1.12-.05,5.1,5.1,0,0,0,.94-.21v.64a10.19,10.19,0,0,1-1.65.2H111V259l1.28.48,1.18.56-.38.58a3,3,0,0,1-.4-.21,2.2,2.2,0,0,0-.32-.21l-.21-.11-.39-.18a5.1,5.1,0,0,0-.73-.3,1.17,1.17,0,0,1-.32.81,1.88,1.88,0,0,1-1.2.3,1.69,1.69,0,0,1-1.09-.3.87.87,0,0,1-.38-.69.89.89,0,0,1,.4-.66,2.09,2.09,0,0,1,1.2-.28,3.53,3.53,0,0,1,.72.08c0-.57,0-1.12,0-1.62v-1.93h.77A10.94,10.94,0,0,0,111,256.68Zm-.61,2.69a3.47,3.47,0,0,0-.85-.1,1.38,1.38,0,0,0-.72.15.36.36,0,0,0-.22.3.37.37,0,0,0,.22.33,1.1,1.1,0,0,0,.66.16,1,1,0,0,0,.72-.18,1.22,1.22,0,0,0,.2-.66Z"/><path class="cls-6" d="M116.32,257.64c.38-.12.62-.18.72-.2h.56a2.09,2.09,0,0,1,1.36.43,1.46,1.46,0,0,1,.51,1.12,1.55,1.55,0,0,1-.59,1.25,2.34,2.34,0,0,1-1.65.53,2.44,2.44,0,0,1-1.39-.36.7.7,0,0,1-.34-.63.67.67,0,0,1,.26-.51,1.17,1.17,0,0,1,.7-.23,1.62,1.62,0,0,1,.9.28,1.8,1.8,0,0,1,.56.87,1.3,1.3,0,0,0,.62-.46,1.13,1.13,0,0,0,.24-.71,1.09,1.09,0,0,0-.38-.79,1.61,1.61,0,0,0-1.06-.3,2.92,2.92,0,0,0-.83.12,8.46,8.46,0,0,0-.85.43c-.22.16-.54.43-1,.82l-.48-.51c1.39-1.12,2.46-2,3.23-2.77a14.23,14.23,0,0,1-2.16.31l-.06-.61a17.4,17.4,0,0,0,2.88-.33l.4.53a4.83,4.83,0,0,0-.58.43l-.8.67Zm.67,2.62h.37a1.61,1.61,0,0,0-.37-.56.85.85,0,0,0-.51-.2.46.46,0,0,0-.32.1.36.36,0,0,0-.13.23c0,.1.06.18.19.25a1.75,1.75,0,0,0,.78.18Z"/><path class="cls-6" d="M120.25,257.29l.32-.49.88.44-.32.5A4.87,4.87,0,0,0,120.25,257.29Zm.93,1.32c.3.17.48.26.53.28-.14.39-.43,1.05-.87,2l-.59-.3q.34-.66.93-2Zm.67-2.85-.38.49a3.32,3.32,0,0,0-.42-.32,3.26,3.26,0,0,0-.4-.24l.34-.43a4.11,4.11,0,0,1,.86.5Zm.9,1.3v-.46h2.7v.46h-1.12v.4h1.6v2.39h-.88a10.64,10.64,0,0,0,1.52.64,1.14,1.14,0,0,0-.24.25l-.14.25a5.47,5.47,0,0,1-1.62-.81l.26-.33h-1.62l.37.28a6.08,6.08,0,0,1-1.76.89,1.85,1.85,0,0,0-.35-.48l.88-.36.31-.16a3.07,3.07,0,0,1,.31-.17h-.7v-2.39h1.47v-.4Zm1-1.37V255h.67v.66h2V257h-.62v-.86h-3.22V257H122v-1.37Zm0,2.74V258h-.85v.48Zm0,.94v-.51h-.85v.51Zm1.57-.94V258h-1v.48Zm0,.94v-.51h-1v.51Z"/><path class="cls-6" d="M130.41,255.66h2.85v.43h-3a3.17,3.17,0,0,1-.21.41h3v.41H131.5l.24.45h1.79v.43h-1.47a5.32,5.32,0,0,0,.7.64,5.65,5.65,0,0,0,.85.43,2.08,2.08,0,0,0-.37.51,3.92,3.92,0,0,1-1.07-.69,6.77,6.77,0,0,1-.8-.89h-2.08a6.56,6.56,0,0,1-.77.89,7.56,7.56,0,0,1-.85.64,1.88,1.88,0,0,0-.43-.46,5.17,5.17,0,0,0,.69-.46,3.58,3.58,0,0,0,.62-.61h-1.1v-.43h1.44l.16-.24a2.39,2.39,0,0,0,.13-.21H128v-.41h1.36l.18-.41h-1.83v-.43h2a2.13,2.13,0,0,0,.11-.33.85.85,0,0,1,.08-.3l.64.15a2.44,2.44,0,0,0-.1.24A1,1,0,0,1,130.41,255.66ZM129,258.73v-.43h2.69v.43h-1c0,.15,0,.31-.05.46h1.89v.43h-1.44a4,4,0,0,0,2.16.79,4.71,4.71,0,0,0-.32.58,5.51,5.51,0,0,1-1.47-.48,3.56,3.56,0,0,1-1-.81,2,2,0,0,1-.43.56,2.69,2.69,0,0,1-.77.4,5.48,5.48,0,0,1-1.12.31,1.09,1.09,0,0,0-.08-.15l-.24-.36a5.52,5.52,0,0,0,1.39-.33,1.57,1.57,0,0,0,.66-.51h-1.6v-.43H130a2.33,2.33,0,0,0,.08-.46Zm1.92-1.82h-1.07l-.27.45h1.55A1.85,1.85,0,0,1,130.92,256.91Z"/><path class="cls-6" d="M136.87,255.18l.69.28-.45.68h.9l.72-.15v.58l-1.2.16-.8,0-.4.58.45-.05a3.15,3.15,0,0,1,.43.05.56.56,0,0,1,.27.18,1.19,1.19,0,0,1,.16.23,2,2,0,0,0,.05.3l1.87-.66.21.64-1,.23-1.09.33v1h-.62v-.74a3.24,3.24,0,0,0-1,.54.42.42,0,0,0-.22.35q0,.23.3.36a3.17,3.17,0,0,0,1.33.2,14.06,14.06,0,0,0,1.71-.13v.61c-.82,0-1.36.08-1.63.08a3.74,3.74,0,0,1-1.86-.36.79.79,0,0,1-.43-.73.93.93,0,0,1,.35-.69,6.39,6.39,0,0,1,1.43-.78.6.6,0,0,0-.1-.41.46.46,0,0,0-.32-.1,1.22,1.22,0,0,0-.67.17,10.29,10.29,0,0,0-1.25,1.22l-.48-.43a11.8,11.8,0,0,0,1-1,8.59,8.59,0,0,0,.75-.94,8.42,8.42,0,0,1-1.23,0v-.56h1.59A11,11,0,0,0,136.87,255.18Z"/><path class="cls-6" d="M142.68,256.42a5.68,5.68,0,0,0,1.15-.28v.59c-.27.07-.65.15-1.15.25v1.09l1.09-.3h.75a1.64,1.64,0,0,1,1.17.43,1.41,1.41,0,0,1,.45,1.07,1.34,1.34,0,0,1-.42,1,1.54,1.54,0,0,1-1.1.41,1.88,1.88,0,0,1-.74-.15,2,2,0,0,1-.72-.56,3.47,3.47,0,0,0,.45-.41,1.68,1.68,0,0,0,.53.46.93.93,0,0,0,.46.12.85.85,0,0,0,.64-.25.78.78,0,0,0,.26-.61,1,1,0,0,0-.29-.76,1.19,1.19,0,0,0-.85-.25,6.22,6.22,0,0,0-1.66.35v1.12a1.51,1.51,0,0,1,0,.76.47.47,0,0,1-.51.3,1.81,1.81,0,0,1-1.12-.5c-.3-.24-.45-.45-.45-.64a.8.8,0,0,1,.24-.56,5.24,5.24,0,0,1,1.25-.78v-1.25h-1.28v-.56h1.28V255.2h.72v.94C142.78,256.24,142.68,256.34,142.68,256.42Zm-.61,3.56v-1.14a6.16,6.16,0,0,0-.8.53.26.26,0,0,0-.1.2c0,.07.07.17.21.31a1.18,1.18,0,0,0,.53.28.2.2,0,0,0,.14-.06.36.36,0,0,0,0-.1Zm4.13-3.13-.4.49a3.51,3.51,0,0,0-.56-.46l-.9-.43.26-.46a4.57,4.57,0,0,1,.8.31A8.72,8.72,0,0,1,146.2,256.85Z"/><path class="cls-6" d="M147.65,255.33h5v1.55H148.3c0,.88-.06,1.46-.08,1.73a10.83,10.83,0,0,1-.21,1.11,3.8,3.8,0,0,1-.51,1.1,4,4,0,0,0-.48-.44,3.39,3.39,0,0,0,.48-1.06,7.05,7.05,0,0,0,.16-1.2C147.65,257.94,147.65,257,147.65,255.33ZM152,256.4v-.59h-3.71v.59Zm-1.6,1.44v-.76h.6v.76h1.76v3h-.64v-.25h-2.88V261h-.59v-3.08Zm0,1.07v-.58h-1.12v.58Zm0,1.14v-.66h-1.12v.66Zm1.76-1.14v-.58H151v.58Zm0,1.14v-.66H151v.66Z"/><path class="cls-6" d="M154.53,255.53l.67.18a10.18,10.18,0,0,0-.43,2.74,6.17,6.17,0,0,0,.27,1.91l-.64.15a10,10,0,0,1-.24-2.18A14,14,0,0,1,154.53,255.53Zm3.23,1.2-.06-1.4h.73v1.32a8.54,8.54,0,0,0,1.22-.2V257l-.43.07-.48.07h-.34a11.13,11.13,0,0,1-.11,2,2,2,0,0,1-.48.88,3.69,3.69,0,0,1-1.23.84,2.8,2.8,0,0,0-.37-.53,3.24,3.24,0,0,0,.93-.51,1.42,1.42,0,0,0,.4-.51,1.88,1.88,0,0,0,.19-.61v-1.52a14.43,14.43,0,0,1-1.86,0v-.56H157Z"/><path class="cls-6" d="M164.72,258.2a3,3,0,0,0,.56.36,11.05,11.05,0,0,1-.88,1.16,3.35,3.35,0,0,1-1,.66,3.08,3.08,0,0,1-1.26.28,1.57,1.57,0,0,1-1.25-.48,2.2,2.2,0,0,1-.32-1.37l.08-3.33h.77c-.14,1.44-.21,2.52-.21,3.25a1.73,1.73,0,0,0,.16,1,.92.92,0,0,0,.83.36A2.92,2.92,0,0,0,164.72,258.2Z"/><path class="cls-6" d="M169.05,256.22a6.74,6.74,0,0,0,1-.08,4.86,4.86,0,0,0,.55-.1l.49-.1v.64c-.5.06-1.19.14-2.08.22v.84a9.49,9.49,0,0,0,1.76-.2V258l-.93.1H169v.94a9.84,9.84,0,0,1,1.2.38,8.93,8.93,0,0,1,1.09.61l-.43.51-.77-.51a8.68,8.68,0,0,0-1.09-.46,2.8,2.8,0,0,1-.06.71.54.54,0,0,1-.32.31,2,2,0,0,1-.93.2,1.75,1.75,0,0,1-1.09-.28.8.8,0,0,1-.38-.66.79.79,0,0,1,.32-.63,2.08,2.08,0,0,1,1.26-.33,5.29,5.29,0,0,1,.56,0v-.81a6,6,0,0,1-1.52-.11.9.9,0,0,1-.46-.86H167a1.26,1.26,0,0,0,.1.33c0,.06.09.1.22.13a5.57,5.57,0,0,0,1,0v-.87h-1.55a4.27,4.27,0,0,1-.8-.1l.08-.59a6.67,6.67,0,0,0,1,.13h1.31v-1h.77v.25a1.71,1.71,0,0,0,0,.32A2.36,2.36,0,0,0,169.05,256.22Zm-.62,3.53v-.28q-.33,0-.66,0a1.31,1.31,0,0,0-.7.16.44.44,0,0,0-.18.33.3.3,0,0,0,.18.25,1.13,1.13,0,0,0,.67.18.72.72,0,0,0,.53-.15.56.56,0,0,0,.16-.49Z"/><path class="cls-6" d="M175.69,256.22l1.32-.06h1v.61h-2.27v1.88a3,3,0,0,1,0,.73,1.57,1.57,0,0,1-.19.51,1.68,1.68,0,0,1-.66.61,4.38,4.38,0,0,1-1.26.53,2.52,2.52,0,0,0-.32-.58,3.29,3.29,0,0,0,1.42-.51,1.36,1.36,0,0,0,.48-.89,1.72,1.72,0,0,1-.4.31.61.61,0,0,1-.35.07.9.9,0,0,1-.64-.3,1.08,1.08,0,0,1-.29-.76,1.14,1.14,0,0,1,.32-.84.88.88,0,0,1,.64-.31.92.92,0,0,1,.66.36v-.79l-2.94.21v-.61l3-.1v-1.15h.69A2.74,2.74,0,0,0,175.69,256.22Zm-.64,2.08a1.08,1.08,0,0,0-.27-.53.39.39,0,0,0-.54,0l-.07.09a.58.58,0,0,0-.16.43.79.79,0,0,0,.16.51.33.33,0,0,0,.32.18.48.48,0,0,0,.35-.16A.73.73,0,0,0,175.05,258.3Z"/><path class="cls-6" d="M179.69,259.22a.85.85,0,0,1,.64.25.82.82,0,0,1,.06,1.16l-.06.06a.88.88,0,0,1-1.3-1.2l0,0A.85.85,0,0,1,179.69,259.22Zm0,.4a.42.42,0,0,0-.32.13.46.46,0,0,0-.16.33.42.42,0,0,0,.16.33.48.48,0,0,0,.32.13.51.51,0,0,0,.35-.13.42.42,0,0,0,.13-.33.57.57,0,0,0-.13-.33A.45.45,0,0,0,179.69,259.62Z"/><path class="cls-7" d="M77.26,244.61V243H78v1.63h2.85v.59H78v1.5h2.39v.63H78v1.78h3.3v.65H74v-.65h3.28v-1.78h-2.1v-.63h2.1v-1.5H75.49a8,8,0,0,1-1,2c-.13-.1-.25-.21-.36-.31a1,1,0,0,0-.3-.13,7.81,7.81,0,0,0,.53-.75,5.51,5.51,0,0,0,.44-1,14.06,14.06,0,0,0,.46-1.69l.76.22a7.54,7.54,0,0,1-.3,1.13Z"/><path class="cls-7" d="M84.09,246.14v3.94h-.75v-3.16l-.49.44c0-.06-.12-.16-.23-.28l-.3-.32a12.17,12.17,0,0,0,1-.87,11.43,11.43,0,0,0,1-1.09l.59.46A6.84,6.84,0,0,1,84.09,246.14Zm-1.21-1.31-.46-.57.38-.25c.14-.08.33-.2.57-.37s.47-.38.89-.75l.52.53A10.88,10.88,0,0,1,82.88,244.83Zm4-.72V243h.76v1.1h1.77v.65H87.64v.91H90v.66H87.64v.93h1.77v.63H87.64v1.28a4.81,4.81,0,0,0,1,.13h.46a8.34,8.34,0,0,0,1,0q-.22.48-.3.69a17.34,17.34,0,0,1-2.06-.06,2.71,2.71,0,0,1-1-.31,4.42,4.42,0,0,1-1-.78,4.44,4.44,0,0,1-1,1.28,4.42,4.42,0,0,0-.53-.53,6.18,6.18,0,0,0,.92-1.29,6.92,6.92,0,0,0,.43-1.62l.79.16a12.62,12.62,0,0,1-.36,1.34,3.09,3.09,0,0,0,.88.81v-2.62H84.72v-.66h2.16v-.91H85.11v-.65Z"/><path class="cls-7" d="M94.5,244v-1.09h.85V244H98.5v.66H95l-1.15,2.09.92.69.88-1.09A2.89,2.89,0,0,0,96,246l.45-.64.69.5-1.31,1.56-1.41,1.66c1.16-.08,2-.16,2.66-.22a4.23,4.23,0,0,0-.33-.41c-.14-.15-.28-.29-.43-.43l.56-.44c.39.42.62.65.69.72s.42.48,1.12,1.31l-.63.47-.52-.66-2,.22c-.57.06-1.13.12-1.69.16l-2.18.18-.16-.78h2l.89-1.09a14.7,14.7,0,0,0-2.56-1.72l.42-.63a2.18,2.18,0,0,1,.43.22c.15.11.36.24.62.41a14.9,14.9,0,0,0,.86-1.69H91.35V244Z"/><path class="cls-7" d="M100.25,250.05v-6.94h3v2.53h-.69a2.49,2.49,0,0,1,.59.62l-.26.22h.91c.11-.22.24-.51.4-.84H104v-2.53h3v6.12a.73.73,0,0,1-.23.57,3.71,3.71,0,0,1-1.08.31,3.36,3.36,0,0,0-.27-.75h.76a.17.17,0,0,0,0-.1v-3.59h-1.67l.46.22-.49.62h1v.57H103.7v.46h2.13v.6H104a3.61,3.61,0,0,0,1.41,1,4.51,4.51,0,0,0-.49.66,4,4,0,0,1-1.51-1.44,3.21,3.21,0,0,1-.72.84,4,4,0,0,1-1.12.6,2.37,2.37,0,0,0-.46-.63,2.51,2.51,0,0,0,1.64-1.06h-1.47v-.6H103l.07-.46h-1.45v-.57h.79a2.61,2.61,0,0,0-.52-.53l.42-.31H101v4.41Zm2.23-5.94v-.41H101v.41Zm0,.94v-.44H101v.44Zm3.74-.94v-.41h-1.51v.41Zm0,.94v-.44h-1.51v.44Z"/><path class="cls-7" d="M114.4,243.17l-.63.91H116v.59h-7.28v-.59h2.13a8.81,8.81,0,0,0-.62-.85l.62-.37a4.18,4.18,0,0,1,.4.44,4.25,4.25,0,0,1,.29.56l-.39.22H113l.69-1.25Zm-5.28,6.88v-4.82h3v4.13a.6.6,0,0,1-.16.44,2.21,2.21,0,0,1-1,.31,2.46,2.46,0,0,0-.1-.47.5.5,0,0,0-.1-.19l-.13-.15h.72a.16.16,0,0,0,.06-.13v-.87h-1.6v1.75Zm2.32-3.6v-.62h-1.6v.62Zm0,1.25v-.65h-1.6v.65Zm1.65,1v-3.28h.68v3.28Zm1.7.5v-4.09h.72v4.15c0,.28-.06.45-.19.54a2.44,2.44,0,0,1-1.12.31c-.13-.38-.23-.64-.29-.78h.85A.15.15,0,0,0,114.79,249.2Z"/><path class="cls-6" d="M230.2,254.83v.45h2.59v.51h-2a2.5,2.5,0,0,0,.83.53,11.6,11.6,0,0,0,1.38.54,3.27,3.27,0,0,0-.32.5,5,5,0,0,1-1.38-.55,6.4,6.4,0,0,1-1.1-.84v.94h-.45l.24.12a5,5,0,0,1-.35.54h3.26v.51h-1.15a3.59,3.59,0,0,1-.69.91l1.54.58-.26.54c-1-.39-1.57-.63-1.82-.71a4.48,4.48,0,0,1-.85.35c-.43.1-.76.17-1,.2a11.3,11.3,0,0,1-1.3.05l-.24-.55h.69a5.78,5.78,0,0,0,1.17-.1,3,3,0,0,0,.78-.2c-.57-.16-.94-.25-1.1-.28l-.18.2-.54-.33.54-.68H227v-.51h1.86l.54-.82.24.11V256a8.83,8.83,0,0,1-.8.56,6.59,6.59,0,0,1-.75.38l-.93.33a1.38,1.38,0,0,0-.35-.48,5.81,5.81,0,0,0,2.24-1h-1.92v-.51h2.51v-.4l-1.92.07-.24-.48a23.85,23.85,0,0,0,2.69-.15,9.7,9.7,0,0,0,1.6-.26l.35.51C231.81,254.64,231.18,254.72,230.2,254.83Zm.83,3.25h-1.76l-.27.38c.36.06.67.14.95.21l.47.14a3.16,3.16,0,0,0,.58-.73Z"/><path class="cls-6" d="M234.69,259v-3h4.64v3h-1.12l.8.3,1.09.26a6.53,6.53,0,0,0-.35.56c-.3-.07-.74-.19-1.3-.36a3.38,3.38,0,0,1-.44-.18l-.44-.17.37-.41h-1.87l.35.38-.59.27-.32.14c-.53.17-.93.28-1.2.35a2.59,2.59,0,0,0-.34-.58c.28-.05.64-.14,1.06-.26a5.24,5.24,0,0,0,.78-.3Zm.37-3.3v-1.45h3.87v1.45Zm3.57,1.17v-.36h-3.28v.36Zm0,.83v-.38h-3.28v.38Zm0,.82v-.38h-3.28v.38Zm-.4-3.3v-.49h-2.5v.49Z"/><path class="cls-6" d="M243.06,254.29l.72.18-.34,1h.42a1,1,0,0,1,.83.3,1.29,1.29,0,0,1,.27.91,5.94,5.94,0,0,1-.24,1.45,4.77,4.77,0,0,1-.59,1.3.7.7,0,0,1-.53.28.84.84,0,0,1-.43-.16,3.52,3.52,0,0,1-.61-.61,1.64,1.64,0,0,0,.4-.43c.21.34.38.51.5.51s.33-.21.51-.63a4.92,4.92,0,0,0,.37-1.73,1,1,0,0,0-.1-.56.66.66,0,0,0-.43-.13h-.59a22,22,0,0,1-1.65,3.63l-.61-.31c.32-.49.61-1,.88-1.52s.43-.95.72-1.67a8.62,8.62,0,0,0-1.12.25l-.08-.66c.1,0,.57-.06,1.38-.18l.22-.73a.49.49,0,0,1,.06-.28A1.55,1.55,0,0,0,243.06,254.29Zm2.67,3.89a2.62,2.62,0,0,0,0-.56l.35.05a.16.16,0,0,0,.11-.05.29.29,0,0,0,0-.13,3.52,3.52,0,0,0-1.14-1.93l.37-.35a7.59,7.59,0,0,1,1.12,1.34,2.46,2.46,0,0,1,.35,1.09.56.56,0,0,1-.16.44,1.22,1.22,0,0,1-.7.15Zm-.16-3.13.32-.33c.14.11.29.22.44.35l.36.31-.35.33a6.09,6.09,0,0,0-.77-.66Zm.59-.61.32-.33c.3.22.57.44.8.64l-.35.35c-.25-.23-.51-.45-.77-.66Z"/><path class="cls-6" d="M249.76,257v-.83h.64v.76l.08.05a1.55,1.55,0,0,0,.43,0h.45a1.77,1.77,0,0,0,.46,0,.65.65,0,0,0,.1-.36,3.88,3.88,0,0,0,.56.23.65.65,0,0,1-.26.48,1.09,1.09,0,0,1-.64.11H251a5,5,0,0,1-.37.43h2.08l.46.38c-.56.45-.84.69-.86.71l-.18.1-.24.15a9.4,9.4,0,0,0,2.42.26,3.2,3.2,0,0,0-.34.63c-.61-.05-1.15-.12-1.63-.2a7.2,7.2,0,0,1-1.2-.36,12,12,0,0,1-1.31.33c-.48.09-1,.15-1.52.21a2.85,2.85,0,0,0-.26-.56,12.19,12.19,0,0,0,1.33,0,5.67,5.67,0,0,0,1.07-.23,6,6,0,0,1-.8-.51,4.32,4.32,0,0,1-1.1.48l-.4-.4a6.36,6.36,0,0,0,1.2-.51,4.46,4.46,0,0,0,1-.84.63.63,0,0,1-.4-.1A.44.44,0,0,1,249.76,257Zm3.68-2.15-.37.63h1v1.22h-.64V256H251a4.74,4.74,0,0,1,.67.51l-.4.38a1.37,1.37,0,0,0-.29-.24,3.51,3.51,0,0,1-.4-.27L251,256h-2.19v.71h-.61v-1.22h1.17L249,255l.22-.13h-.51l-.27-.51,1.34-.07c1.29-.09,2.41-.2,3.33-.36l.32.51-.59.1Zm-4.29,1.6.48.33a8.24,8.24,0,0,1-.86,1l-.42-.38a7,7,0,0,0,.8-.92Zm.48-1.6.32.48-.32.15H251l-.29-.58.26-.13h-.85a1.66,1.66,0,0,1-.49.11Zm2.53,3.47h-2v.06a8.3,8.3,0,0,0,1.07.55,3.45,3.45,0,0,0,.61-.3,2.79,2.79,0,0,0,.32-.28Zm-.61-3-.4.18h1.25c.14-.3.24-.52.31-.63l.12-.26-1.58.15Zm.93,1.4.43-.33a.69.69,0,0,1,.13.11l.11.11.08.08c.16.16.35.37.58.64l-.45.33a11.1,11.1,0,0,0-.88-.93Z"/><path class="cls-6" d="M259.36,257.21a3,3,0,0,0,.56.36,9.94,9.94,0,0,1-.88,1.17,3.35,3.35,0,0,1-1,.66,3.43,3.43,0,0,1-1.26.27,1.58,1.58,0,0,1-1.25-.48,2.2,2.2,0,0,1-.32-1.37l.08-3.32h.77c-.14,1.44-.21,2.52-.21,3.25a1.81,1.81,0,0,0,.16,1,1,1,0,0,0,.83.35A2.92,2.92,0,0,0,259.36,257.21Z"/><path class="cls-6" d="M266.49,254.7v.61l-1.6.1a6,6,0,0,0-1,.74,3.09,3.09,0,0,0-.45.68,1.52,1.52,0,0,0-.19.69,1.26,1.26,0,0,0,.27.81,1.67,1.67,0,0,0,.72.51,4.06,4.06,0,0,0,1.25.23v.66a6.21,6.21,0,0,1-1.47-.31,2.35,2.35,0,0,1-1-.76,1.58,1.58,0,0,1-.35-1,2.17,2.17,0,0,1,.24-1,3.86,3.86,0,0,1,.85-1.12l-1.2.13-1.86.23-.05-.66Q262.89,255.11,266.49,254.7Z"/><path class="cls-6" d="M271.32,255.79l.08.25-.56.23-.14-.33-1.3.46c.37,1.08.81,2.17,1.3,3.27l-.64.23c-.39-1-.81-2-1.28-3.27l-1.25.51-.24-.61.69-.21.59-.23-.43-1.16.67-.18.21.56a3.93,3.93,0,0,1,.19.58l1.28-.43c-.21-.44-.38-.77-.51-1l.56-.2a7.16,7.16,0,0,1,.56,1.06h.59a1.55,1.55,0,0,1,1.09.38,1.23,1.23,0,0,1,.4.94,1.19,1.19,0,0,1-.37.89,1.42,1.42,0,0,1-1,.38,3.14,3.14,0,0,1-1.82-.64l.4-.43a3,3,0,0,0,.75.41,1.7,1.7,0,0,0,.59.1,1,1,0,0,0,.58-.2.7.7,0,0,0,.22-.51.86.86,0,0,0-.38-.69A1.69,1.69,0,0,0,271.32,255.79Z"/><path class="cls-6" d="M277,255.23a3.73,3.73,0,0,0,1-.07l.55-.11.49-.1v.64l-2.08.23v.83a9.49,9.49,0,0,0,1.76-.2V257l-.94.11h-.85v.94a9.84,9.84,0,0,1,1.2.38,8.93,8.93,0,0,1,1.09.61l-.43.51-.77-.51a8.68,8.68,0,0,0-1.09-.46,2.8,2.8,0,0,1-.06.71.54.54,0,0,1-.32.31,1.78,1.78,0,0,1-.93.2,1.75,1.75,0,0,1-1.09-.28.78.78,0,0,1-.06-1.29,2.08,2.08,0,0,1,1.26-.33,3.53,3.53,0,0,1,.56.05v-.81a6,6,0,0,1-1.52-.11.87.87,0,0,1-.45-.86h.61a1.26,1.26,0,0,0,.1.33c0,.05.09.09.22.12a4.18,4.18,0,0,0,1,0v-.86H274.7a3.58,3.58,0,0,1-.8-.1l.08-.59a4.81,4.81,0,0,0,1,.13c.39,0,.83.05,1.31.05v-1h.77a1,1,0,0,1,0,.25,1.71,1.71,0,0,0,0,.32A1,1,0,0,1,277,255.23Zm-.62,3.53v-.28h-.66a1.43,1.43,0,0,0-.7.15.44.44,0,0,0-.18.33.28.28,0,0,0,.18.25,1.13,1.13,0,0,0,.67.18.72.72,0,0,0,.53-.15.55.55,0,0,0,.19-.48Z"/><path class="cls-6" d="M282.42,255.31a2.83,2.83,0,0,1,.4-.08l.53-.1v.58a11.58,11.58,0,0,1-1.18.18,19.49,19.49,0,0,1-.74,1.88,13.44,13.44,0,0,1-.8,1.5L280,259a17.6,17.6,0,0,0,1.44-3,8.34,8.34,0,0,1-1,0v-.58h1.23a8.38,8.38,0,0,0,.34-1.11l.7.17A7.3,7.3,0,0,0,282.42,255.31Zm2.21,3a4.34,4.34,0,0,1,.48.14l.19.09a1,1,0,0,1,.28.13l.54.28-.37.61a8.43,8.43,0,0,0-1.12-.66,1,1,0,0,1-.27.68,1.56,1.56,0,0,1-1,.26,1.69,1.69,0,0,1-1.06-.33A.67.67,0,0,1,282,259a.75.75,0,0,1,.35-.64,1.48,1.48,0,0,1,1-.25,2.91,2.91,0,0,1,.72.1c-.06-.69-.08-1.07-.08-1.14a3.79,3.79,0,0,1,.05-.64l.67.05a4.15,4.15,0,0,0-.08.79c0,.18,0,.54.05,1.08Zm-.61.36a2.46,2.46,0,0,0-.8-.15.93.93,0,0,0-.46.12c-.12.11-.18.2-.18.28a.39.39,0,0,0,.08.21.55.55,0,0,0,.24.15,1.2,1.2,0,0,0,.42.07.84.84,0,0,0,.59-.17.68.68,0,0,0,.09-.52Zm2-2.79-.27.58a7.09,7.09,0,0,0-1-.38l-1-.25.13-.54a8.56,8.56,0,0,1,1.12.23Z"/><path class="cls-6" d="M288.53,257.75a2,2,0,0,0,.51.35,4.29,4.29,0,0,1-.67,1.27.42.42,0,0,1-.32.13.52.52,0,0,1-.35-.18,2.38,2.38,0,0,1-.5-.89,5.07,5.07,0,0,1-.24-1.55,11.16,11.16,0,0,1,.24-2.16l.72.16a5.92,5.92,0,0,0-.27,1,8.29,8.29,0,0,0-.08,1.11,3.08,3.08,0,0,0,.16,1,1.24,1.24,0,0,0,.24.58h0a.19.19,0,0,0,.14-.08A5.41,5.41,0,0,0,288.53,257.75Zm1.84-2.49.56-.28a7.3,7.3,0,0,1,.85,1.52,12.14,12.14,0,0,1,.51,1.88l-.7.2a9.88,9.88,0,0,0-.48-2A6.12,6.12,0,0,0,290.37,255.26Z"/><path class="cls-6" d="M295.89,255.26V254h.67v1.22h2.72v.56h-2.43a12.71,12.71,0,0,0,1,1.32,8.73,8.73,0,0,0,1.57,1.27,1.54,1.54,0,0,0-.26.25c-.08.11-.15.22-.22.33a10,10,0,0,1-.85-.74l-.17-.17-.19-.17-.17-.16c-.22-.24-.38-.44-.51-.59s-.19-.26-.32-.42a1.71,1.71,0,0,0-.21-.26v1.67h1.28v.59h-1.28V260h-.67v-1.26h-1.28v-.59h1.28v-1.73a14.1,14.1,0,0,1-1.12,1.43A10.53,10.53,0,0,1,293.4,259a2.74,2.74,0,0,0-.4-.5,9.38,9.38,0,0,0,.8-.61c.35-.34.65-.65.88-.92a9.3,9.3,0,0,0,.91-1.16h-2.4v-.56Z"/><path class="cls-6" d="M302.64,254.19l.7.28-.46.69h.91l.72-.15v.59l-1.19.15-.8.05-.41.58H303a.56.56,0,0,1,.27.18.73.73,0,0,1,.16.23,1.59,1.59,0,0,1,.06.3l1.86-.66.21.64-1,.23-1.09.33v1h-.61v-.73a3,3,0,0,0-1,.53.45.45,0,0,0-.21.35c0,.16.1.27.29.36a2.92,2.92,0,0,0,1.34.2,16,16,0,0,0,1.7-.12v.6c-.82.06-1.36.08-1.62.08a3.88,3.88,0,0,1-1.87-.35.81.81,0,0,1-.43-.74,1,1,0,0,1,.35-.69,7.16,7.16,0,0,1,1.44-.78.55.55,0,0,0-.11-.41.46.46,0,0,0-.32-.1,1.12,1.12,0,0,0-.66.18,8.08,8.08,0,0,0-1.26,1.22l-.48-.44a11.8,11.8,0,0,0,1-1,7.46,7.46,0,0,0,.74-.94,8.28,8.28,0,0,1-1.22,0v-.56h1.58A11.12,11.12,0,0,0,302.64,254.19Z"/><path class="cls-6" d="M307,254.24h5v1.5h-1.09v.53h1.2v.48h-1.2v.67h1.57v.48H310.4a2.1,2.1,0,0,0,.35.66l.91-.54.42.44-.93.45a5,5,0,0,0,.64.36,6.11,6.11,0,0,0,.85.18,4.6,4.6,0,0,0-.4.58,5.57,5.57,0,0,1-1.12-.41,2.1,2.1,0,0,1-.77-.68,2.83,2.83,0,0,1-.53-1H309v1.27l1.19-.23v.51l-.44.1-.46.1-1.6.33-.19-.64.51-.06h.4V257.9h-.88a8,8,0,0,1-.69,1.9,1.76,1.76,0,0,0-.3-.24l-.24-.14a4.21,4.21,0,0,0,.51-1.07A5.12,5.12,0,0,0,307,257Zm.56,3.18h1.12v-.67h-.88v-.48h.88v-.53h-1.07v1.14a4.89,4.89,0,0,1,0,.54Zm3.81-2.16v-.54h-3.76v.54Zm-1,2.16v-.67h-1.06v.67Zm0-1.15v-.53h-1v.53Z"/><path class="cls-6" d="M313.93,259.34a3.12,3.12,0,0,0-.53-.43,7.72,7.72,0,0,0,.72-.68c.19-.24.47-.61.82-1.12l.59.36c-.29.4-.55.76-.8,1.06A6.8,6.8,0,0,1,313.93,259.34Zm-.43-2.74V256h6v.58h-2.64v2.8a.39.39,0,0,1-.16.35,3.12,3.12,0,0,1-1,.2,2.55,2.55,0,0,0-.27-.66h.75V256.6Zm.72-1.57v-.59h4.59V255Zm5.39,3.86-.54.43a11.5,11.5,0,0,1-.85-.86,7.7,7.7,0,0,1-.77-.94l.59-.41a8,8,0,0,0,.74.91c.22.22.47.51.83.87Z"/><path class="cls-6" d="M324.79,257.21a2.9,2.9,0,0,0,.55.36,9.85,9.85,0,0,1-.87,1.17,3.7,3.7,0,0,1-1,.66,3.34,3.34,0,0,1-1.25.27,1.61,1.61,0,0,1-1.26-.48,2.2,2.2,0,0,1-.32-1.37l.08-3.32h.78c-.15,1.44-.22,2.52-.22,3.25a1.91,1.91,0,0,0,.16,1,1,1,0,0,0,.83.35A3,3,0,0,0,324.79,257.21Z"/><path class="cls-6" d="M329.11,255.23a3.73,3.73,0,0,0,1-.07l.54-.11.49-.1v.64l-2.08.23v.83a9.49,9.49,0,0,0,1.76-.2V257l-.93.11H329v.94a9.84,9.84,0,0,1,1.2.38,8.93,8.93,0,0,1,1.09.61l-.43.51-.77-.51a8.68,8.68,0,0,0-1.09-.46,3.35,3.35,0,0,1,0,.71.61.61,0,0,1-.32.31,1.9,1.9,0,0,1-.94.2,1.75,1.75,0,0,1-1.09-.28.78.78,0,0,1-.05-1.29,2,2,0,0,1,1.25-.33,3.53,3.53,0,0,1,.56.05v-.81a6,6,0,0,1-1.52-.11.87.87,0,0,1-.45-.86H327a.76.76,0,0,0,.11.33q0,.08.21.12a4.18,4.18,0,0,0,1,0v-.86H326.8a3.58,3.58,0,0,1-.8-.1l.08-.59a5.59,5.59,0,0,0,1,.13c.39,0,.83.05,1.31.05v-1h.78a1,1,0,0,1,0,.25,1.71,1.71,0,0,0,0,.32C329.14,255,329.13,255.08,329.11,255.23Zm-.61,3.53v-.28h-.67a1.37,1.37,0,0,0-.69.15.44.44,0,0,0-.19.33.29.29,0,0,0,.19.25,1.12,1.12,0,0,0,.66.18.81.81,0,0,0,.54-.15A.6.6,0,0,0,328.5,258.76Z"/><path class="cls-6" d="M335.75,255.23l1.32-.06H338v.61h-2.27v1.88a2.24,2.24,0,0,1,0,.73,1.51,1.51,0,0,1-.85,1.12,3.83,3.83,0,0,1-1.25.53,3.28,3.28,0,0,0-.32-.58,3.25,3.25,0,0,0,1.41-.51,1.3,1.3,0,0,0,.48-.89,1.35,1.35,0,0,1-.4.31.62.62,0,0,1-.35.08.88.88,0,0,1-.64-.31,1.13,1.13,0,0,1-.29-.76,1.19,1.19,0,0,1,.32-.84.87.87,0,0,1,.64-.3.89.89,0,0,1,.67.35v-.79l-2.93.21v-.61l3-.1v-1.15h.7A3,3,0,0,0,335.75,255.23Zm-.64,2.08a1.15,1.15,0,0,0-.26-.53.46.46,0,0,0-.27-.13.38.38,0,0,0-.35.18.67.67,0,0,0-.16.43.86.86,0,0,0,.16.51.33.33,0,0,0,.32.18.51.51,0,0,0,.35-.15A.75.75,0,0,0,335.11,257.31Z"/><path class="cls-6" d="M339.76,258.23a.86.86,0,0,1,.66,1.45l0,0a.94.94,0,0,1-1.28,0,.82.82,0,0,1-.06-1.16l.06-.06A.85.85,0,0,1,339.76,258.23Zm0,.4a.48.48,0,0,0-.32.13.42.42,0,0,0-.16.33.37.37,0,0,0,.16.33.42.42,0,0,0,.32.13.43.43,0,0,0,.34-.13.44.44,0,0,0,.14-.33.58.58,0,0,0-.14-.33A.47.47,0,0,0,339.76,258.63Z"/><path class="cls-7" d="M227.4,249.22v-7h6.73v6.87h-.82v-.37h-5.15v.47Zm5.91-1.13V242.9h-5.15v5.19Zm-1.94-2a18,18,0,0,1,1.68,1l-.46.6a7.48,7.48,0,0,0-.89-.57,9.25,9.25,0,0,0-.88-.47,8.31,8.31,0,0,1-.92.63,5.74,5.74,0,0,1-1.05.53,1.86,1.86,0,0,0-.4-.66,4.9,4.9,0,0,0,1.68-.87,13.07,13.07,0,0,0-1.48-.66l.3-.56a9.37,9.37,0,0,1,1.21.47l.52.28a8.66,8.66,0,0,0,1.55-2.37l.72.37a8.32,8.32,0,0,1-1.58,2.31ZM230,244.4l-.56.41-.72-.87.53-.41A7.81,7.81,0,0,1,230,244.4Zm.66,0-.46-1,.62-.25.5,1Z"/><path class="cls-7" d="M239,242.37v-.53h.79v.53H242v.82h1.19v.5H242v.84h-2.29v.34h2.69v.53h-2.69v.38h3.44v.53h-7.58v-.53H239v-.38h-2.59v-.53H239v-.34h-2.13V244H239v-.34h-3.35v-.5H239v-.32h-2.13v-.5Zm-2.1,6.91v-2.63H242v2.6h-.85V249h-3.54v.31Zm4.33-1.72v-.41h-3.54v.41Zm0,.88V248h-3.54v.41Zm.1-5.25v-.32h-1.54v.32Zm0,.84v-.34h-1.54V244Z"/><path class="cls-7" d="M247.66,246.94v-.6h.79v.6H251v.62h-2.52v.66h3.25v.65h-7.32v-.65h3.28v-.66H245.3v-.62Zm0-4.22V242h.76v.72h3v1.56h-.66v.34h-3l-.66,1c1,0,1.83-.08,2.33-.12l-.42-.34.55-.47a20,20,0,0,1,1.58,1.31l-.59.5L250,246l-4.93.34-.13-.68h1.28c.18-.3.37-.65.59-1.07h-1.6v-.31h-.59v-1.59Zm3,1.28v-.63h-5.19V244Z"/><path class="cls-6" d="M374.77,228.34v-2.07h1.08v2.07h1v.94h-1v.95a11.05,11.05,0,0,0,1.44,1.29c-.12.11-.36.37-.72.77-.12-.11-.36-.37-.72-.77v4.64h-1.08V232q-.22.34-.36.6l-.32.6a6.61,6.61,0,0,1-.63.77l-.09-.23a.46.46,0,0,1-.05-.2.15.15,0,0,0,0-.13,3.36,3.36,0,0,0-.32-.51c.42-.57.76-1.06,1-1.46.33-.78.6-1.48.81-2.11h-1.58v-.94Zm6.27,5.45a8.65,8.65,0,0,0,1.22.86,8.47,8.47,0,0,0,1.44.65,3.24,3.24,0,0,0-.36.38.85.85,0,0,1-.09.22,2,2,0,0,0-.14.3,8.74,8.74,0,0,1-2.79-1.68,7.64,7.64,0,0,1-1.4.91,10.09,10.09,0,0,1-1.9.77,10,10,0,0,0-.58-.86c.57-.17,1.23-.4,2-.69a5,5,0,0,0,1.22-.81,6.62,6.62,0,0,1-.81-1.08,11.1,11.1,0,0,1-.68-1.33l1-.43a6.6,6.6,0,0,0,.5,1.12,3.89,3.89,0,0,0,.76,1,5.62,5.62,0,0,0,1-2.11l1,.47c-.36.78-.58,1.25-.67,1.42a9.75,9.75,0,0,1-.76.89Zm-3.57-2.49-.67-.73a13,13,0,0,0,1.17-.9,10.49,10.49,0,0,0,.77-.86l.81.56A7.1,7.1,0,0,1,377.47,231.3Zm2.31-3.56v-1.47h1v1.47h2.62v.9h-6.27v-.9Zm3.92,2.7a5,5,0,0,0-.63.82,19.51,19.51,0,0,1-2.21-1.85l.72-.64a17.11,17.11,0,0,0,2.12,1.67Z"/><path class="cls-6" d="M390.75,226.36v1.85h4v6.44a2.28,2.28,0,0,1-.09.82q0,.17-.36.3a4,4,0,0,1-1.49.26,3.64,3.64,0,0,0-.14-.47,2.25,2.25,0,0,0-.4-.52h1.17a.17.17,0,0,0,.14,0,.25.25,0,0,0,0-.17v-5.76h-2.93l-.14.86,1.49,1.29c.36.34.81.8,1.35,1.37l-.81.82a13.18,13.18,0,0,0-1.08-1.29,11,11,0,0,0-1.26-1.2,8.3,8.3,0,0,1-1,1.67,8.39,8.39,0,0,1-1.49,1.16,3.32,3.32,0,0,0-.63-.9,6.26,6.26,0,0,0,1.85-1.59,5.83,5.83,0,0,0,.72-2.19H387V236h-1v-7.78h3.79v-1.85Z"/><path class="cls-6" d="M397,228.38l.94-.52.91,1.29a13.15,13.15,0,0,1,.67,1.29l-1.08.48-.67-1.29-.23-.39A4,4,0,0,0,397,228.38Zm2.12,7.73-.27-.6a3.1,3.1,0,0,0-.45-.51,9.84,9.84,0,0,0,3.29-1.38,7,7,0,0,0,2.12-2.28,14.34,14.34,0,0,0,1.31-3.65l1.26.35a19,19,0,0,1-1.26,3.35,8.83,8.83,0,0,1-3.58,3.65,13.84,13.84,0,0,1-2.39,1.07Zm.81-8.5,1-.39c.42.72.86,1.56,1.31,2.53l-1.09.39-.45-1c-.19-.48-.43-1-.7-1.53Z"/><path class="cls-6" d="M407.73,227.39h8.07l.14-.08.77.86a5,5,0,0,0-.5.42c-.18.18-.54.49-1.08.95a19.12,19.12,0,0,1-2.12,1.72l-.41-.52a15.13,15.13,0,0,1-.36,2.32,2.69,2.69,0,0,1-.68,1.29,5.39,5.39,0,0,1-1.08,1,6.51,6.51,0,0,1-1.62.77l-.36-.64a2.72,2.72,0,0,0-.37-.39,6.45,6.45,0,0,0,1.54-.56,2.64,2.64,0,0,0,.86-.73,3.24,3.24,0,0,0,.54-1,6.22,6.22,0,0,0,.22-1.29v-1.72h1.26v.56a25.32,25.32,0,0,0,2.12-1.89h-7Z"/><path class="cls-6" d="M427.32,231.77h-9.16V230.7h9.16Z"/><path class="cls-6" d="M78.57,229.28v-1.89h1.08v1.89h3.92V234H82.49v-.56H79.65v3.78H78.57v-3.78H75.86v.68H74.78v-4.85Zm0,3.26v-2.32H75.86v2.32Zm3.92,0v-2.32H79.65v2.32Z"/><path class="cls-6" d="M88.77,232.85v-1.21l.36-.34H90.4l.36.34v1.21l-.36.34H89.13Z"/><path class="cls-6" d="M99.52,228.12v-1h1.22v1h4.33v.82H95.19v-.82Zm-4.06,9.11v-4.94h9.34v4c0,.38-.11.62-.32.73a6.87,6.87,0,0,1-1.49.35,3.52,3.52,0,0,0-.31-1h.76a.24.24,0,0,0,.18-.05.15.15,0,0,0,0-.13v-3H96.54v4.08Zm1.49-5.5v-2.28h6.13v2.28Zm.72,4.6V233.7h4.73V236H98.66v.35ZM102,231v-.82H98V231Zm-.68,4.25v-.77H98.66v.77Z"/><path class="cls-6" d="M109.54,227.56l-.36.6h2.39V229H110.4l.32.64-1,.35a3.23,3.23,0,0,0-.25-.65,2.33,2.33,0,0,0-.2-.34h-.68l-.68.77-.58.6a4.83,4.83,0,0,0-.77-.73,11.87,11.87,0,0,0,1-1.11,11.45,11.45,0,0,0,.9-1.29Zm3.88.6H117V229h-2l.31.73-1,.3a9.88,9.88,0,0,0-.45-1H113l-.68.9h.23v.65h3.61v.81h-3.61v.82h4.65V233H115v.82h1.85v.86H115v1.46a1,1,0,0,1-.23.73,4.45,4.45,0,0,1-1.71.43,2.15,2.15,0,0,0-.41-1h1.08a.26.26,0,0,0,.18-.09.13.13,0,0,0,0-.12v-1.38h-6.5v-.86h6.5V233h-7.08v-.81h4.6v-.82H108.1v-.81h3.34v-.65h.45a2.92,2.92,0,0,0-.5-.43c.42-.57.66-.92.72-1a11.31,11.31,0,0,0,.64-1.25l1,.35C113.59,227.83,113.48,228.05,113.42,228.16ZM109,235.47l.59-.69a17.33,17.33,0,0,1,1.49.9l-.59.82A9.63,9.63,0,0,0,109,235.47Z"/><path class="cls-6" d="M123,228.25l-1.4.38v1.64h1.31v.9H121.6v.73c.6.4,1.07.7,1.4.9l-.5,1a4.09,4.09,0,0,1-.9-.64v4.08h-1v-3.7c-.06.12-.12.25-.2.39s-.13.26-.18.34a.54.54,0,0,1-.11.18l-.18.23-.54.71a2.31,2.31,0,0,0-.37-.6,2.13,2.13,0,0,0-.45-.34A8,8,0,0,0,119.7,233a6.22,6.22,0,0,0,.81-1.8h-1.62v-.9h1.62v-1.38a4.67,4.67,0,0,0-.65.13l-.7.17c-.09-.23-.23-.54-.41-.94a19.79,19.79,0,0,0,2-.43c.18-.06.38-.14.61-.24a5.82,5.82,0,0,1,1-.32Zm3.74,4.85v-5.67h1.09v5.42l1.26-.31.23,1-1.49.35v3.31h-1.09v-3.1L123,235l-.27-.94Zm-3.42-1.72.58-.77c.54.34,1,.69,1.49,1l-.58.82a12.3,12.3,0,0,0-1.54-1.05Zm2.7-1.8-.76.73a15.66,15.66,0,0,0-1.45-1.25l.68-.68a8,8,0,0,1,1.51,1.2Z"/><path class="cls-6" d="M136.36,229.41h3.56l.18-.13.82.56c-.09.08-.59.91-1.49,2.49a8.92,8.92,0,0,0-.86-.47c.36-.58.66-1.09.9-1.55h-1.71v1.89a2.78,2.78,0,0,0,.41,1.08,7.77,7.77,0,0,0,.81,1.24,11.54,11.54,0,0,0,1,1.08c.21.14.63.38,1.27.73a7.67,7.67,0,0,0-.64.86,6.6,6.6,0,0,1-2-1.47,7.62,7.62,0,0,1-1.26-2.1,9.57,9.57,0,0,1-.9,1.59,6.75,6.75,0,0,1-1,1.07c-.42.29-.93.6-1.53.95a5.38,5.38,0,0,0-.72-.86,7.37,7.37,0,0,0,2.48-1.72,4.35,4.35,0,0,0,.81-1.55,10.06,10.06,0,0,0,.27-2.79H136a14.51,14.51,0,0,1-1,1.76l-.77-.51V234h-2.12v1.12h-1v-6.49h3.11v2.79a20.8,20.8,0,0,0,1.08-2.1,12.74,12.74,0,0,0,.59-2l1.08.3C136.66,228.56,136.45,229.18,136.36,229.41Zm-3.07,3.65v-3.52h-1.17v3.52Z"/><path class="cls-6" d="M147.74,228.29h4.82V229h-5.09a3.83,3.83,0,0,1-.37.69h5.1v.69h-2.61l.4.77h3v.73h-2.48a8,8,0,0,0,1.18,1.07,8.46,8.46,0,0,0,1.44.73,3.6,3.6,0,0,0-.63.86,6.9,6.9,0,0,1-1.81-1.16,11.3,11.3,0,0,1-1.35-1.5h-3.52a9.15,9.15,0,0,1-2.75,2.58,2.82,2.82,0,0,0-.72-.78,7.26,7.26,0,0,0,2.21-1.8h-1.85v-.73h2.44c.09-.14.17-.28.27-.41s.15-.24.22-.36H143.7v-.69H146l.32-.69H143.2v-.73h3.43a5.22,5.22,0,0,0,.18-.56c.06-.23.11-.4.14-.51l1.08.25-.16.41C147.83,228,147.79,228.15,147.74,228.29Zm-2.4,5.2v-.73h4.56v.73h-1.76c-.06.57-.09.83-.09.77h3.21V235h-2.44a6.81,6.81,0,0,0,3.65,1.34,6.43,6.43,0,0,0-.54,1,10.75,10.75,0,0,1-2.48-.81,6.33,6.33,0,0,1-1.71-1.38,2.81,2.81,0,0,1-.73.95,4.51,4.51,0,0,1-1.3.69,10.45,10.45,0,0,1-1.9.51,1.26,1.26,0,0,0-.13-.26c-.06-.08-.12-.18-.18-.28l-.23-.32a8.23,8.23,0,0,0,2.35-.56,2.64,2.64,0,0,0,1.12-.86H144v-.73h3a5,5,0,0,0,.14-.77Zm3.25-3.09h-1.8l-.45.77H149a3.36,3.36,0,0,1-.41-.77Z"/><path class="cls-6" d="M154.83,233.4h4.37v-.73h1v.73h4.42v.82h-3.74a9,9,0,0,0,1.89,1,18.67,18.67,0,0,0,2.31.6c-.31.46-.52.79-.64,1a12,12,0,0,1-2.34-.81,7.86,7.86,0,0,1-1.9-1.21v2.49h-1v-2.53a10,10,0,0,1-1.75,1.12,13,13,0,0,1-2.4.94,7.28,7.28,0,0,0-.63-.86l1.15-.36.75-.24,1-.43a12.1,12.1,0,0,0,1.13-.73h-3.61Zm2.39-2.79v1c-.69.29-1.43.57-2.21.86l-.41-1C155.75,231.14,156.62,230.84,157.22,230.61Zm-2.48-1.93.63-.78c.36.15.95.43,1.76.86l-.59.91a15.76,15.76,0,0,0-1.8-1Zm4.42-1.46,1.08.13-.31,1h1.94v4h-4.29v-4H159Zm-.63,2.66h2.34v-.82h-2.34Zm0,1.68h2.34v-.91h-2.34Zm5.46-3.74.54.81-1.9,1.21-.58-.78a22.12,22.12,0,0,0,1.95-1.24Zm.72,3.82-.63.86a22.61,22.61,0,0,0-2-1.29l.5-.77C163.28,230.81,164,231.21,164.71,231.64Z"/><path class="cls-6" d="M167,237.23v-9.41h9.11v9.32H175v-.6h-6.94v.69Zm8-1.59v-6.92h-6.94v6.92Zm-6.63-5.33h4V229h1v1.29h1.35v.86h-1.35v3.14a.73.73,0,0,1-.28.6,3.1,3.1,0,0,1-1.48.43,2.75,2.75,0,0,0-.41-1h1a.26.26,0,0,0,.18-.09V231.1h-4Zm1.85,3.22-1.17-1.29.81-.6,1.13,1.29Z"/><path class="cls-6" d="M227.72,236.36v-9.58H237v9.45h-1.13v-.52h-7.08v.65Zm8.12-1.55v-7.13h-7.08v7.13Zm-2.66-2.7c.51.25,1.28.7,2.3,1.33l-.63.81a11.91,11.91,0,0,0-1.22-.77,10.74,10.74,0,0,0-1.21-.64,13.48,13.48,0,0,1-1.27.86,8.85,8.85,0,0,1-1.44.73,2.47,2.47,0,0,0-.54-.91,6.84,6.84,0,0,0,2.3-1.2,18.82,18.82,0,0,0-2-.9l.4-.78c.18.06.74.28,1.67.65l.72.39a12.2,12.2,0,0,0,2.13-3.27l1,.52A11.7,11.7,0,0,1,233.18,232.11Zm-1.94-2.37-.76.56-1-1.2.72-.56a10,10,0,0,1,1,1.2Zm.9,0-.63-1.37.86-.35.68,1.38Z"/><path class="cls-6" d="M243.61,227v-.73h1.09V227h3.15v1.12h1.63v.68h-1.63V230H244.7v.48h3.7v.73h-3.7v.51h4.73v.73H239v-.73h4.6v-.51H240v-.73h3.56V230h-2.93v-.68h2.93v-.48H239v-.68h4.6v-.43h-2.93V227Zm-2.88,9.5v-3.61h7.12v3.56h-1.17V236h-4.87v.43Zm6-2.37v-.56h-4.87v.56Zm0,1.21v-.56h-4.87v.56Zm.14-7.22v-.43H244.7v.43Zm0,1.16v-.48H244.7v.48Z"/><path class="cls-6" d="M256.57,227.59v.78H261v.86h-3.39a4.6,4.6,0,0,0,1.4.9,16.73,16.73,0,0,0,2.35.9,4.78,4.78,0,0,0-.54.86,9,9,0,0,1-2.35-.94,12.12,12.12,0,0,1-1.85-1.42v1.59h-.77l.41.21c-.24.4-.44.7-.59.9h5.51v.86h-1.94a6.18,6.18,0,0,1-1.18,1.55l2.62,1-.45.9c-1.63-.66-2.65-1.06-3.07-1.2a7.55,7.55,0,0,1-1.44.6c-.72.17-1.28.29-1.67.34-.6.06-1.34.09-2.21.09-.09-.23-.23-.55-.41-1,.48,0,.87,0,1.17,0a10.32,10.32,0,0,0,2-.17,5.4,5.4,0,0,0,1.31-.35l-1.85-.47-.32.34-.9-.56c.51-.63.81-1,.9-1.16h-2.57v-.86h3.16l.9-1.37.41.17v-1.42a12.74,12.74,0,0,1-1.36,1,8.28,8.28,0,0,1-1.26.64l-1.58.56a2.61,2.61,0,0,0-.58-.81,10,10,0,0,0,3.79-1.72H251.4v-.86h4.24v-.69l-3.25.13c-.06-.14-.2-.42-.41-.82,1.52,0,3.05-.1,4.56-.26a15.6,15.6,0,0,0,2.71-.43l.58.86A30.11,30.11,0,0,1,256.57,227.59Zm1.4,5.5h-3l-.45.65c.6.11,1.14.23,1.6.36s.73.21.79.24a4.84,4.84,0,0,0,1.09-1.25Z"/><path class="cls-6" d="M264.16,234.64v-5.07H272v5.07h-1.9c.55.2,1,.37,1.36.52.81.2,1.43.34,1.85.43a8.25,8.25,0,0,0-.59.94c-.51-.11-1.25-.31-2.21-.6l-.74-.3q-.36-.16-.75-.3l.63-.69H266.5l.59.65-1,.45-.54.23c-.91.29-1.58.49-2,.6a5.59,5.59,0,0,0-.59-1c.48-.09,1.08-.23,1.81-.43a12.14,12.14,0,0,0,1.3-.52Zm.63-5.59v-2.44h6.54v2.44Zm6,2v-.6h-5.55v.6Zm0,1.42v-.65h-5.55v.65Zm0,1.37v-.64h-5.55v.64Zm-.68-5.58v-.82h-4.24v.82Z"/><path class="cls-6" d="M279.55,226.22l1.17.39-.18.21a15,15,0,0,0,2.22,2,17.32,17.32,0,0,0,2.7,1.41l-.27.26-.22.22a2,2,0,0,0-.27.47,14.89,14.89,0,0,1-2.13-1.2v.86H277v-.73a12.81,12.81,0,0,1-1.8,1.11,10.06,10.06,0,0,0-.59-.86,10,10,0,0,0,1.62-.94c.57-.43,1.15-.89,1.72-1.38A17.22,17.22,0,0,0,279.55,226.22Zm-4.42,6.57v-.9h9.66v.9h-5.46L278.15,235a36.59,36.59,0,0,0,3.88-.39l-.94-1,.81-.52a15.2,15.2,0,0,1,1.4,1.38,11.54,11.54,0,0,1,1,1.33l-1,.65c-.3-.46-.53-.81-.67-1-.79.12-1.37.2-1.76.24s-.83.11-1.31.19l-2.67.35-1.08.13-.36-1.12,1.49-.09,1-2.32Zm4.74-5.33a20.94,20.94,0,0,1-2.62,2.45h5.23c-.78-.63-1.29-1.06-1.53-1.28a13.06,13.06,0,0,1-1.08-1.17Z"/><path class="cls-4" d="M355.31,229.26h5.26l-.05-.63h3.77v.63h5.21l-.49,2.22h-2.36v-1h-8.44v1H355.8Zm1.29,2.39h4.62l-.09-1h2.72l-.09,1h4.46l-.24.83h-4.3l-.05.37h4l-.16.75h-3.88V234h4.32l-.12.65h-3.3l2.91,1h-1.88l-3-1-2.92,1h-1.9l2.71-1h-3.16L357,234h4.44v-.35h-3.92l-.15-.75h4v-.37H356.9Z"/><path class="cls-8" d="M209.43,229.08h5.19l-.05-.46H218v.46h5.21l-.36,1.12h-13ZM220,233.46h-7.41v2.14h-1.35l-.81-3h11.79l-.79,3H220Zm.7-1.06H212l-.46-2h9.73Zm-7.27,3-.25-1.71h6.19l-.25,1.71Zm5.54-4.13h-5.21v.45H219Zm-4.45,3.1V235H218v-.57Z"/><path class="cls-9" d="M53.55,234.79H49l-.29,1.89H47.26l-.36-1.89H42.13L41,231h5.11l-.24-1.29h3.81L49.53,231h5Zm-7.16-2.6H43.76l.09,1.63h2.86Zm3,0-.24,1.63h2.69l.08-1.63Z"/><path class="cls-8" d="M56.34,230h5.2v-.46h3.4V230h5.21l-.37,1.12h-13Zm10.6,4.38H59.53v2.13H58.15l-.81-3H69.12l-.79,3H67Zm.69-1.06H58.91l-.46-2h9.72Zm-7.27,3-.25-1.71H66.3l-.25,1.71Zm5.55-4.14H60.7v.46h5.16Zm-4.45,3.11v.56h3.47v-.56Z"/><line class="cls-10" x1="125.77" y1="205.2" x2="599.53" y2="205.2"/><path class="cls-5" d="M589.54,184.66,433.84,162.8a.83.83,0,0,1-.71-.82v-8.73a3.85,3.85,0,0,0-3.83-3.83h-9.6a3.85,3.85,0,0,0-3.83,3.83.83.83,0,0,1-.83.83H226.57a.83.83,0,0,1-.83-.83h0v-14.4a3.85,3.85,0,0,0-3.83-3.83H214.2a3.85,3.85,0,0,0-3.83,3.83V156.1a.84.84,0,0,1-.83.84h-24.1a.83.83,0,0,1-.59-.25.83.83,0,0,1-.24-.58v-6.93a3.85,3.85,0,0,0-3.83-3.83h-108a.83.83,0,0,1-.83-.83h0V102.63a3.8,3.8,0,0,0-3.5-3.82L54.8,97.61a.82.82,0,0,1-.75-.9L56.86,65a.84.84,0,0,1,.82-.76l69.92,6.13a.82.82,0,0,1,.75.88v0L126.79,89.2a3.82,3.82,0,0,0,3.46,4.15h0l8,.69h.34a3.81,3.81,0,0,0,3.81-3.5L144,72.65a.83.83,0,0,1,.82-.76L214.73,78a.82.82,0,0,1,.75.9l-1.07,12.27a3.81,3.81,0,0,0,3.46,4.14,2.17,2.17,0,0,0,.36,0h20A3.84,3.84,0,0,0,242,91.5v-18a.83.83,0,0,1,.83-.83H402.1a.83.83,0,0,1,.83.83v18a3.84,3.84,0,0,0,3.84,3.83h11.74a3.82,3.82,0,0,0,3.83-3.83c0-.13,0-.27,0-.4l-1-9.3a.87.87,0,0,1,.19-.62.85.85,0,0,1,.57-.3l69.8-6.1a.86.86,0,0,1,.9.75l1.56,17.88a3.81,3.81,0,0,0,3.82,3.49h.33l18.67-1.63a3.84,3.84,0,0,0,3.48-4.15l-1.57-17.88a.84.84,0,0,1,.76-.9l70.36-6.15a.86.86,0,0,1,.9.75L594,99.66a.84.84,0,0,1-.19.61.81.81,0,0,1-.56.29l-3.71.32A3.84,3.84,0,0,0,586,105h0l3.67,44a3.8,3.8,0,0,0,3.28,3.48l1.07.15a.83.83,0,0,1,.71.93L590.47,184a.84.84,0,0,1-.82.72Z"/><path class="cls-11" d="M58.3,65.82l68.5,6-1.51,17.25a5.33,5.33,0,0,0,4.85,5.77l8,.7h.47a5.29,5.29,0,0,0,5.3-4.87l1.51-17.25,68.51,6-1,11.6a5.33,5.33,0,0,0,4.85,5.77l.46,0h20a5.33,5.33,0,0,0,5.33-5.33h0V74.21H401.43V91.5a5.33,5.33,0,0,0,5.33,5.33H418.5a5.33,5.33,0,0,0,5.33-5.33,5.25,5.25,0,0,0,0-.56l-.91-8.62,68.45-6,1.51,17.21a5.3,5.3,0,0,0,5.31,4.87h.46l18.67-1.63A5.3,5.3,0,0,0,522.14,91v0l-1.5-17.21,69-6,2.75,31.39-3,.27a5.34,5.34,0,0,0-4.85,5.75l3.67,44a5.31,5.31,0,0,0,4.57,4.83l.41.06-4.09,29.06L434.63,161.4v-8.15a5.33,5.33,0,0,0-5.33-5.33h-9.6a5.33,5.33,0,0,0-5.28,4.66H227.24V138.85a5.33,5.33,0,0,0-5.33-5.33H214.2a5.33,5.33,0,0,0-5.33,5.33h0v16.59H186.11v-6.26a5.35,5.35,0,0,0-5.33-5.33H73.49V102.62a5.31,5.31,0,0,0-4.87-5.31l-13-1.13L58.3,65.82m-.61-3.06a2.33,2.33,0,0,0-2.32,2.13L52.59,96.58a2.33,2.33,0,0,0,2.11,2.53h0l13.65,1.19a2.34,2.34,0,0,1,2.13,2.32v41.9a2.33,2.33,0,0,0,2.33,2.33h108a2.33,2.33,0,0,1,2.33,2.33h0v6.93a2.33,2.33,0,0,0,2.33,2.33h24.1a2.34,2.34,0,0,0,2.33-2.34V138.85a2.33,2.33,0,0,1,2.33-2.33H222a2.33,2.33,0,0,1,2.33,2.33h0v14.4a2.33,2.33,0,0,0,2.33,2.33H415a2.33,2.33,0,0,0,2.33-2.33,2.33,2.33,0,0,1,2.33-2.33h9.6a2.33,2.33,0,0,1,2.33,2.33V162a2.33,2.33,0,0,0,2,2.31l155.7,21.85h.32a2.34,2.34,0,0,0,2.31-2l4.27-30.39a2.33,2.33,0,0,0-2-2.63h0l-1.07-.15a2.33,2.33,0,0,1-2-2.11l-3.67-44a2.33,2.33,0,0,1,2.12-2.51l3.71-.33a2.33,2.33,0,0,0,2.12-2.52L592.59,66.8a2.33,2.33,0,0,0-2.32-2.13h-.2l-70.36,6.16a2.33,2.33,0,0,0-2.12,2.52l1.56,17.88a2.32,2.32,0,0,1-2.09,2.53H517L498.37,95.4h-.2a2.33,2.33,0,0,1-2.32-2.13L494.28,75.4A2.33,2.33,0,0,0,492,73.27h-.2L422,79.39a2.34,2.34,0,0,0-2.17,2.5s0,.07,0,.11l1,9.3a2.34,2.34,0,0,1-2.1,2.56h-12a2.33,2.33,0,0,1-2.33-2.33v-18a2.33,2.33,0,0,0-2.33-2.33H242.84a2.33,2.33,0,0,0-2.33,2.33h0v18a2.33,2.33,0,0,1-2.33,2.33h-20a2.33,2.33,0,0,1-2.34-2.32,1.48,1.48,0,0,1,0-.21L217,79a2.33,2.33,0,0,0-2.12-2.52L145,70.4h-.21a2.33,2.33,0,0,0-2.32,2.12l-1.56,17.92a2.34,2.34,0,0,1-2.32,2.13h-.21l-8-.7a2.33,2.33,0,0,1-2.12-2.52l1.57-17.91a2.35,2.35,0,0,0-2.12-2.53L57.89,62.77Z"/><line class="cls-12" x1="196.42" y1="141.49" x2="210.65" y2="141.49"/><line class="cls-12" x1="196.42" y1="143.85" x2="210.65" y2="143.85"/><line class="cls-12" x1="196.42" y1="139.12" x2="210.65" y2="139.12"/><line class="cls-12" x1="196.42" y1="146.22" x2="210.65" y2="146.22"/><line class="cls-12" x1="196.42" y1="148.59" x2="210.65" y2="148.59"/><line class="cls-12" x1="196.42" y1="150.96" x2="210.65" y2="150.96"/><line class="cls-12" x1="196.42" y1="153.33" x2="210.65" y2="153.33"/><line class="cls-12" x1="196.42" y1="155.7" x2="210.65" y2="155.7"/><line class="cls-13" x1="433.07" y1="140.73" x2="433.07" y2="162.12"/><path class="cls-14" d="M73.27,145.85A1.83,1.83,0,0,1,71.43,144V121.25a1.84,1.84,0,0,1,1.84-1.84H110a1.85,1.85,0,0,1,1.83,1.84v24.6Z"/><path class="cls-15" d="M110,120.41a.84.84,0,0,1,.83.84v23.6H73.27a.84.84,0,0,1-.84-.83V121.25a.86.86,0,0,1,.84-.84H110m0-2H73.27a2.84,2.84,0,0,0-2.84,2.84V144a2.85,2.85,0,0,0,2.84,2.83h39.59v-25.6a2.85,2.85,0,0,0-2.83-2.84Z"/><path class="cls-5" d="M128.42,144.86v-23.6a.83.83,0,0,1,.83-.83h43.9a.83.83,0,0,1,.83.83h0v23.6Z"/><path class="cls-16" d="M172,122.43v20.43H130.42V122.43H172m1.17-4h-43.9a2.83,2.83,0,0,0-2.83,2.83h0v25.6H176v-25.6a2.83,2.83,0,0,0-2.83-2.83Z"/><path class="cls-15" d="M173.15,120.43a.83.83,0,0,1,.83.83h0v23.6H128.42v-23.6a.83.83,0,0,1,.83-.83h43.9m0-2h-43.9a2.83,2.83,0,0,0-2.83,2.83h0v25.6H176v-25.6a2.83,2.83,0,0,0-2.83-2.83h0Z"/><path class="cls-5" d="M185.49,157.45a1.46,1.46,0,0,1-1.44-1.44V149.3a3.45,3.45,0,0,0-3.44-3.44h-3.94a1.43,1.43,0,0,1-1.44-1.44h0V127.51a1.46,1.46,0,0,1,1.44-1.44H195.4a1.46,1.46,0,0,1,1.44,1.44V156a1.46,1.46,0,0,1-1.44,1.44Z"/><path class="cls-15" d="M195.4,127.07a.44.44,0,0,1,.44.44h0V156a.44.44,0,0,1-.44.44h-9.91a.44.44,0,0,1-.44-.44h0v-6.7a4.46,4.46,0,0,0-4.44-4.44h-3.94a.44.44,0,0,1-.44-.44h0V127.51a.44.44,0,0,1,.44-.44H195.4m0-2H176.67a2.45,2.45,0,0,0-2.44,2.44v16.91a2.44,2.44,0,0,0,2.44,2.44h3.94a2.44,2.44,0,0,1,2.44,2.44h0V156a2.44,2.44,0,0,0,2.44,2.44h9.91a2.44,2.44,0,0,0,2.44-2.44h0V127.5a2.44,2.44,0,0,0-2.44-2.44h0Z"/><line class="cls-12" x1="434.22" y1="145.24" x2="450.26" y2="147.09"/><line class="cls-12" x1="433.94" y1="147.59" x2="449.98" y2="149.44"/><line class="cls-12" x1="434.49" y1="142.88" x2="450.53" y2="144.74"/><line class="cls-12" x1="433.67" y1="149.94" x2="449.71" y2="151.8"/><line class="cls-12" x1="433.4" y1="152.3" x2="449.44" y2="154.15"/><line class="cls-12" x1="433.13" y1="154.65" x2="449.17" y2="156.5"/><line class="cls-12" x1="432.86" y1="157" x2="448.9" y2="158.86"/><line class="cls-12" x1="432.58" y1="159.36" x2="448.62" y2="161.21"/><path class="cls-5" d="M108.44,102.81l-53.2-4.65A1.87,1.87,0,0,1,54,97.51a1.76,1.76,0,0,1-.42-1.34l2.68-30.69a1.84,1.84,0,0,1,1.82-1.67h.17l55,4.82-2.85,32.51a1.84,1.84,0,0,1-1.82,1.68Z"/><path class="cls-15" d="M58.08,64.81h.08l54,4.73-2.76,31.52a.83.83,0,0,1-.82.76h-.08L55.3,97.17a.9.9,0,0,1-.57-.29.84.84,0,0,1-.19-.61l2.69-30.69a.83.83,0,0,1,.82-.76m0-2a2.84,2.84,0,0,0-2.82,2.58L52.58,96.08a2.83,2.83,0,0,0,2.57,3.07h0l53.2,4.66h.25a2.84,2.84,0,0,0,2.82-2.59l2.93-33.51-56-4.9Z"/><path class="cls-5" d="M161.55,107.46l-50.39-4.41a1.79,1.79,0,0,1-1.25-.65,1.86,1.86,0,0,1-.42-1.34l2.84-32.51,54.05,4.72-2.84,32.52a1.84,1.84,0,0,1-1.83,1.67Z"/><path class="cls-15" d="M113.24,69.63l52.06,4.55-2.76,31.52a.84.84,0,0,1-.83.76h-.07l-50.4-4.41a.77.77,0,0,1-.56-.29.76.76,0,0,1-.19-.61l2.75-31.52m-1.81-2.17L108.49,101a2.84,2.84,0,0,0,2.58,3.07l50.39,4.41h.25a2.81,2.81,0,0,0,2.82-2.58l2.94-33.52-56-4.9Z"/><rect class="cls-5" x="241.45" y="72.21" width="161.92" height="50.24" rx="1.83"/><path class="cls-15" d="M401.54,71.21v2a.84.84,0,0,1,.84.83v46.57a.86.86,0,0,1-.84.84H243.29a.86.86,0,0,1-.84-.84V74a.84.84,0,0,1,.84-.83H401.54v-2m0,0H243.29A2.83,2.83,0,0,0,240.45,74h0v46.57a2.84,2.84,0,0,0,2.84,2.84H401.54a2.84,2.84,0,0,0,2.84-2.84V74a2.83,2.83,0,0,0-2.83-2.83Z"/><line class="cls-13" x1="447.92" y1="164.57" x2="451.06" y2="142.18"/><path class="cls-17" d="M589.58,185.16h-.17l-45.33-6.38a1.49,1.49,0,0,1-1.16-1.75l4.61-32.76a1.52,1.52,0,0,1,1.42-1.38h.17l45.33,6.38a1.49,1.49,0,0,1,1.16,1.75L591,183.77A1.53,1.53,0,0,1,589.58,185.16Z"/><path class="cls-15" d="M549,143.88h0l45.34,6.38c.18,0,.34.3.3.62L590,183.64a.54.54,0,0,1-.45.52h0l-45.34-6.38a.35.35,0,0,1-.2-.14.73.73,0,0,1-.1-.48l4.61-32.76a.54.54,0,0,1,.43-.52m0-2a2.51,2.51,0,0,0-2.41,2.24l-4.61,32.76a2.49,2.49,0,0,0,2,2.88l45.33,6.38h.31a2.52,2.52,0,0,0,2.41-2.25l4.61-32.75a2.48,2.48,0,0,0-2-2.88l-45.33-6.38Z"/><path class="cls-18" d="M450.31,165.6l3.18-22.6a1.86,1.86,0,0,1,1.82-1.58h.26l56.24,7.9a1.84,1.84,0,0,1,1.56,2.07L510.19,174Z"/><path class="cls-15" d="M455.31,142.41h.12l56.24,7.9a.84.84,0,0,1,.71.94l-3,21.63-57.9-8.14,3-21.62a.84.84,0,0,1,.83-.72m0-2a2.84,2.84,0,0,0-2.81,2.44l-3.32,23.61,61.82,8.7,3.32-23.61a2.83,2.83,0,0,0-2.4-3.2h0l-56.25-7.9h-.39Z"/><path class="cls-5" d="M425.63,122.88,421.19,81,591,66.1l3,34.39-6.11.53a2.24,2.24,0,0,0-2,2.41l3.61,42.49Z"/><path class="cls-8" d="M589.6,67.73l2.75,31.39-4.62.41a3.74,3.74,0,0,0-3.4,4l3.45,40.61L427,121.56l-4.16-39.24L589.6,67.73m2.07-3.19h-.07l-171.32,15a.74.74,0,0,0-.67.8h0l4.59,43.3a.71.71,0,0,0,.62.64l165.36,23.26h.11a.72.72,0,0,0,.72-.72v-.07l-3.69-43.45a.73.73,0,0,1,.66-.79h0l6.88-.61a.74.74,0,0,0,.67-.79l-3.15-35.91a.72.72,0,0,0-.72-.67Z"/><path class="cls-15" d="M591.67,64.54a.72.72,0,0,1,.72.67l3.15,35.91a.74.74,0,0,1-.67.79l-6.88.61a.73.73,0,0,0-.67.79h0L591,146.76a.72.72,0,0,1-.65.79h-.18L424.82,124.28a.71.71,0,0,1-.62-.64l-4.59-43.3a.74.74,0,0,1,.66-.81h0l171.32-15h.07m0-2h-.24l-171.33,15a2.71,2.71,0,0,0-1.87,1,2.74,2.74,0,0,0-.61,2l4.59,43.3a2.72,2.72,0,0,0,2.33,2.41L589.91,149.5h.38a2.72,2.72,0,0,0,2-.89,2.76,2.76,0,0,0,.71-2.07l-3.59-42.19,5.63-.49a2.76,2.76,0,0,0,1.85-1,2.71,2.71,0,0,0,.63-2L594.39,65a2.72,2.72,0,0,0-2.72-2.49Z"/><line class="cls-13" x1="256.3" y1="139.53" x2="382.33" y2="139.53"/><path class="cls-5" d="M398.88,186.81,234.81,170.3a1.72,1.72,0,0,1-1.53-1.87c0-.05,0-.09,0-.13l2.26-12.8a1.71,1.71,0,0,1,1.68-1.42H404.12a1.72,1.72,0,0,1,1.69,2l-5.17,29.29a1.71,1.71,0,0,1-1.68,1.42Z"/><path class="cls-11" d="M404.12,155.58a.21.21,0,0,1,.21.21v0l-5.16,29.3a.22.22,0,0,1-.21.18h0l-164-16.5a.21.21,0,0,1-.19-.21s0,0,0,0l2.25-12.8a.22.22,0,0,1,.21-.18H404.12m0-3H237.24a3.21,3.21,0,0,0-3.16,2.65L231.82,168a3.22,3.22,0,0,0,2.59,3.73l.25,0,164,16.49H399a3.21,3.21,0,0,0,3.16-2.66l5.17-29.3a3.22,3.22,0,0,0-2.64-3.72,3.17,3.17,0,0,0-.53,0Z"/><rect class="cls-5" x="273.19" y="146.86" width="32.28" height="13.42"/><rect class="cls-5" x="338.97" y="149.5" width="32.28" height="16.83"/><path class="cls-5" d="M241.45,74a1.85,1.85,0,0,1,1.84-1.83h25.59V106.7a1.84,1.84,0,0,1-1.84,1.84H241.45Z"/><path class="cls-15" d="M267.88,73.21v33.53a.86.86,0,0,1-.84.84H242.45V74a.84.84,0,0,1,.84-.83h24.59m2-2H243.29A2.83,2.83,0,0,0,240.45,74h0v35.54H267a2.84,2.84,0,0,0,2.84-2.84V71.21Z"/><path class="cls-19" d="M191.5,143H180.57L179,141.4V130.47l1.62-1.62H191.5l1.62,1.62V141.4Z"/><circle class="cls-20" cx="186.04" cy="132.29" r="1.04"/><polygon class="cls-20" points="183.74 140.63 188.34 140.63 186.04 134.89 183.74 140.63"/><path class="cls-8" d="M416.31,152.56H405.38l-1.62-1.62V140l1.62-1.62h10.93l1.62,1.62v10.93Z"/><circle class="cls-20" cx="410.85" cy="141.82" r="1.04"/><polygon class="cls-20" points="413.15 144.42 408.54 144.42 410.85 150.16 413.15 144.42"/><path class="cls-15" d="M366,144.46H355.05l-1.62-1.62V131.91l1.62-1.62H366l1.62,1.62v10.93Z"/><path class="cls-16" d="M361.51,134.21h-1.93c0-.65-.05-1.24-.07-1.77h2.07C361.56,133,361.53,133.55,361.51,134.21Zm-.28,7.87h-1.54v-7h1.8Z"/><path class="cls-15" d="M417.39,119.44H406.46l-1.62-1.62V106.88l1.62-1.62h10.93l1.62,1.62v10.94Z"/><polygon class="cls-21" points="409.76 108.33 409.76 112.74 415.26 110.54 409.76 108.33"/><rect class="cls-21" x="409.76" y="108.22" width="0.24" height="8.5"/><path class="cls-15" d="M146.92,114.82H136l-1.63-1.62V102.27l1.63-1.62h10.93l1.62,1.62V113.2Z"/><path class="cls-20" d="M141.45,111.55s3.37-2.53,3.93-4.55-1.41-4.55-3.93-2c-2.45-2.45-4.49,0-3.93,2S141.45,111.55,141.45,111.55Z"/><path class="cls-15" d="M142.18,104.67l-2.58,3.17.06.1h1.61l1-3.23Z"/><path class="cls-15" d="M140.44,110.57,143,107.4l-.05-.11h-1.61l-1,3.23Z"/><path class="cls-22" d="M430.48,152.56H419.55l-1.62-1.62V140l1.62-1.62h10.93l1.63,1.62v10.93Z"/><circle class="cls-23" cx="426.9" cy="144.79" r="0.79"/><polygon class="cls-24" points="425.15 150.8 428.64 150.8 426.9 146.45 425.15 150.8"/><circle class="cls-23" cx="423.41" cy="144.79" r="0.79"/><polygon class="cls-24" points="425.15 146.68 421.67 146.68 423.41 151.03 425.15 146.68"/><rect class="cls-25" x="420.48" y="142.23" width="9.07" height="8.57"/><polygon class="cls-26" points="423.67 139.7 422.85 141.12 424.49 141.12 423.67 139.7"/><polygon class="cls-26" points="426.37 141.12 427.19 139.7 425.55 139.7 426.37 141.12"/><path class="cls-15" d="M498.25,106.49h-6V98h6Zm-3.63-1.24-.59-.53.35-.86-.91-.53.33-1.09c.39.1.76.22,1.12.35l.32-.74L495,102l-.52-1.74.68-.49a2.85,2.85,0,0,1,.54.94l.6-1.41.74.54v-.61h-3.6v1l.59-.37a5.42,5.42,0,0,1,.71,1.68l-1,.56-.34-1.44v4.54Zm2.42,0v-4.42a21.6,21.6,0,0,1-1,2.17l.54.27.37.21.12.07-.46,1.5-1.3-.75-.57.92Z"/><path class="cls-15" d="M506.05,103.57H499.8v-.92h2.48v-.26h-2v-.78h2v-.26h-1.85v-.92h1.85v-.26h-2.46v-.88h2.46V99h-1.91v-.92h1.91v-.37h1.29v.37h1.84v1.18h.66v.88h-.66v1.18h-1.84v.26h2v.78h-2v.26h2.48Zm-.69,3.16H500.5v-2.88h4.86ZM504.15,105v-.27H501.7V105Zm0,.88v-.28H501.7v.28Zm.18-6.55V99h-.76v.26Zm0,1.14v-.26h-.76v.26Z"/><path class="cls-15" d="M513.74,106.48h-6.25v-1.24H510v-.46h-1.75v-1.15H510v-.47h1.29v.47H513v1.15h-1.74v.46h2.48Zm-.12-5.52h-1.1V99.74H508.7V101h-1.11V98.49H510v-.75h1.29v.75h2.36Zm-.42,1.36-.92,1.12-.38-.63a16.37,16.37,0,0,1-3.42.31h-.09l-.16-1.4H509l.22-.69H509v-1h3.31v1h-.19A13.18,13.18,0,0,1,513.2,102.32Zm-2-.7-.18-.3.29-.31h-.88a5.3,5.3,0,0,1-.28.65Z"/><path class="cls-15" d="M512.7,191.52l-1,.86c-.2-.45-.42-1-.65-1.61l-.45.86c-.15.28-.27.48-.35.61l-.12.19-.59-.41,1-2.77c-.07-.24-.13-.44-.17-.6l-.24.63-.66-.3.15-.79H509a4.11,4.11,0,0,1-.24.39h.65v.24a3.84,3.84,0,0,1-.11.54,3.36,3.36,0,0,1-.27.75l.79-.18.16.9a7.4,7.4,0,0,1-1,.44,8.18,8.18,0,0,1-.2,1.1H508v-.79a9.66,9.66,0,0,1-1,.22l-.14-1.22,1.08-.24v-.17l.18-.51H508l-.32.41c-.1.12-.17.22-.22.27l-.07.08-.47-.43.9-1.8H507v-1h.53v-.69h-.4v-1h.4v-.82h.95v.82h.47v.68l.59-1.29.66.55.15-.78,1,.32c-.08.5-.17.94-.25,1.3h1.49v1.08h-1l.69.36a14.81,14.81,0,0,1-.58,1.7Zm-4.3-4.37.31-.68h-.31Zm1.39,0,.22-1.22c-.17.43-.34.84-.53,1.22Zm1.19.78.24-.65h-.44c-.08.25-.14.46-.19.64l.29-.22Z"/><path class="cls-15" d="M519,192.18l-.65.22c-.08-.29-.16-.62-.23-1-.27.29-.56.59-.88.89l-.36-.44.19-.28h-1.48V189h1.83v2l.5-.75c-.07-.43-.14-1-.21-1.55h-2.22v-1.08h.21l-.09-.91.56-.14h-.64V186h-.14v6.34h-.76V191.2a3.86,3.86,0,0,1-1,.25l-.1-1.22h.17V186h-.15v-1h2v.59H516v-.71h.89v.71h.44l-.07-.82.88-.12.16,1.36.43-.24a5.47,5.47,0,0,1,.56,1.4l-.68.36-.3-1.37.16,1.56h.74v1.08h-.62v.42l.15-.22.55.74a5.87,5.87,0,0,1-.55.85Zm-4.37-5.51V186h-.18v.64Zm0,1.65v-.66h-.18v.66Zm0,1.71v-.72h-.18v.75Zm1.92-2.36.17-1h-.48a7.12,7.12,0,0,1,.18.92l-.6.13Zm.15,2.36v-.25h-.38V190Zm0,.78v-.25h-.38v.25Zm.51-3.14h.38c0-.06-.05-.41-.11-1h-.57l.54.21a4.3,4.3,0,0,1-.26.79Z"/><path class="cls-15" d="M525.38,192.56l-2-.9.16-.58h-1.09l.16.6a6.23,6.23,0,0,1-1,.42,5.65,5.65,0,0,1-.8.24h-.28l-.22-.84.83-.47h-.35v-3.9h4.4V191h-.54a4,4,0,0,1,1,.41Zm-.49-5.63h-3.74v-2.1h3.74Zm-.72,1.43v-.24h-2.3v.24Zm0,.9V189h-2.3v.26Zm0,.89v-.25h-2.3v.25Zm-.39-4.08v-.38h-1.53v.38Z"/><path class="cls-15" d="M532.19,191.73l-1.15.7-.2-.82a10.81,10.81,0,0,1-1.48.41c-.57.11-1,.2-1.4.24l-.54.07-.14-1.59,1.12-.14.33-.57-.92-1.43.87-1.86H527v-1.07h2.14v-1.06h1.11v1.06h2.15v1.07h-3l.51.41c-.1.19-.23.4-.37.64l-.38.56-.15.21a3.25,3.25,0,0,1,.41.42l1.08-1.86.86.87a19,19,0,0,1-1.6,2.47l.85-.11-.16-.66.89-.48q.24.57.48,1.2c.15.42.27.75.34,1Z"/><path class="cls-15" d="M538.82,192.37h-1v-4.52H537l.49.41a3.46,3.46,0,0,1-.32.52h.35v1h-.83V190h.95v1h-.47a2.19,2.19,0,0,1,.48.48l-.59.84-.63-.94.24-.38h-.18a6,6,0,0,1-.49.75c-.14.16-.28.32-.43.47l-.15.12-.43-.49.44-.85h-.49v-1h.94v-.26h-.82v-1h.3l-.23-.55.41-.38h-.78v4.52h-1v-7.54h2.43v3h-.39a7.83,7.83,0,0,1,.47.79l-.16.14h.44l-.21-.19.31-.74h-.23v-3h2.41Zm-3.6-6.36v-.32h-.46V186Zm0,1v-.35h-.46V187Zm2.59-1v-.32h-.45V186Zm0,1v-.35h-.45V187Z"/><path class="cls-15" d="M545.61,187h-5.39v-1.08h1.28l-.36-.68.64-.74a7.83,7.83,0,0,1,.86,1.13l-.25.29h1l-.18-.22.65-1.23.9.95a5.5,5.5,0,0,1-.34.5h1.23Zm-2.69,5.38h-1v-1.26h-.38v1.26h-1v-5.06H543Zm-1-3.54v-.48h-.38v.48Zm0,1.42v-.55h-.38v.55Zm2.22,1.3h-.91v-3.81h.91Zm1.3.82h-1v-5.09h1Z"/><path class="cls-15" d="M312.22,100H306.6V98.83h2.18V97.52h-1.34V96.39h1.34V95.14h-.94c-.1.24-.19.46-.29.68l-.22.47-.08.16-.78-.49.89-3.17,1.07.57c-.06.22-.12.44-.2.66h.55V92.31H310V94h1.84v1.12H310v1.25h1.37V97.5H310v1.31h2.18Z"/><path class="cls-15" d="M319.3,100h-.15a12.2,12.2,0,0,1-3.06-.42l-.14.66-.72-.13.25-3.91,1,.13c-.05.73-.12,1.44-.22,2.11h.38V96h-1.27v-.32a9.94,9.94,0,0,1-.81.91h.57v3.62H314V97l-.31.24-.47-.74,1.54-2.3.57.76v-.15h1.27v-.7h-1V93h1v-.94h1.17V93h1.09v1.12h-1.09v.7h1.35V96h-1.35v.73H319v1.12h-1.21v.59h1.47Zm-5.48-5-.49-.73,1.28-2.16.83,1.08a11.06,11.06,0,0,1-.81,1,6,6,0,0,1-.61.62Z"/><path class="cls-15" d="M321.65,99.33l-1.45-.12c.23-.88.5-2.1.79-3.68.16,0,.58.07,1.28.12C322.24,95.92,322,97.14,321.65,99.33Zm4.16-4.41h-1.92c0,.79,0,1.76.05,2.89s.06,1.83.08,2.09h-1.51c.07-2,.11-3.63.11-5l-1.84.07V93.66h1.82v-1.1H324v1.09h1.9C325.86,94.11,325.84,94.53,325.81,94.92Zm-.94,4.4c-.05-.33-.26-1.53-.65-3.6h.23l.5-.09.54-.1c.07.36.33,1.55.77,3.57H326l-.57.1Z"/><path class="cls-15" d="M331.06,95.75v1.4h-3.68l-.09-1.58Z"/><path class="cls-15" d="M334,97.86l-.17.3-.42.73-.5.83-.27-.13-.58-.27-.64-.32.21-.27.4-.54.42-.56c0-.1,0-1.19-.08-3.26l1.71-.05C334.05,95.76,334,96.94,334,97.86Zm1.88,2-.22-.16-.47-.34L334.7,99V93h1.64c-.11,1.67-.23,3.43-.34,5.27l1-.84a15.14,15.14,0,0,1,.92,1.34l-.36.18-.79.42Z"/><path class="cls-15" d="M254.29,90.57H253.2v-.68h-2.65l.95.68c-.16.4-.32.77-.5,1.12a7.25,7.25,0,0,1-.48.86c-.14.22-.28.41-.4.57a2.37,2.37,0,0,1-.29.34l-.1.11-.73-.63,1.3-3H250v.68h-1.08V88.76h5.4Zm-.73-2.09h-4V87.36H251v-.28h-2.07V86H251v-.67h1.17V86h2.06v1.12h-2.06v.28h1.39Zm.76,4.68h-2.58v-3h1.16v1.51a6.18,6.18,0,0,1,1.42-.16Z"/><path class="cls-15" d="M261.21,87.09h-4.1a6.39,6.39,0,0,1-.07,1.06c-.07.44-.11,1.22-.24,2.33a28.74,28.74,0,0,1-.48,2.9l-.8-.08L256,86h2v-.68h1.17V86h2ZM261,93.17h-4V89.79h1.43V87.42h1.1V88h1.59v1.13h-1.59v.68H261Zm-1.08-1.12V90.92H258.1v1.13Z"/><path class="cls-5" d="M211.21,111.8l-47-4.11a1.91,1.91,0,0,1-1.63-2l2.84-32.52,48.8,4.27a1.79,1.79,0,0,1,1.25.65,1.86,1.86,0,0,1,.42,1.34l-2.69,30.68a1.84,1.84,0,0,1-1.82,1.68Z"/><path class="cls-15" d="M166.32,74.27l47.8,4.18a.84.84,0,0,1,.76.91l-2.68,30.69a.84.84,0,0,1-.83.76h-.08l-47-4.11a.84.84,0,0,1-.75-.91l2.75-31.52m-1.81-2.16-2.94,33.51a2.84,2.84,0,0,0,2.58,3.07l47,4.11h.25a2.84,2.84,0,0,0,2.82-2.59l2.68-30.69a2.83,2.83,0,0,0-2.57-3.07h0L164.51,72.1Z"/><path class="cls-15" d="M178.28,89.14l-.83,1a14.62,14.62,0,0,1-1.54-.13l-1.29-.13L174,89.8a8.63,8.63,0,0,1,.1-1.26l1.49.18a10.36,10.36,0,0,1,1,.1H177c0-.48.07-1,.09-1.45s0-.86,0-1.11v-.37l-1.27-.08h-1.42v-1.3c1.27.07,2.41.15,3.4.23a3.62,3.62,0,0,0,.27.41,2.56,2.56,0,0,0,.2.26l.13.16a.57.57,0,0,1,.07.08c-.05.46-.09,1-.12,1.54s0,1,0,1.38A3.37,3.37,0,0,1,178.28,89.14Z"/><path class="cls-15" d="M183.52,89.66l-.61.41-.47.33-.19.12c-1-.07-1.83-.15-2.58-.25.06-.88.1-1.34.1-1.36a8.94,8.94,0,0,1,1.21.16l1,.16h.34c.53-2,.9-3.47,1.1-4.44l.56.13a1.58,1.58,0,0,1,.53.14l.25.07c-.15.62-.32,1.3-.51,2s-.36,1.31-.49,1.75S183.52,89.64,183.52,89.66ZM181.93,87c-1.15-.26-1.9-.44-2.24-.54.17-.61.3-1,.38-1.21l1,.3.87.26a2.64,2.64,0,0,0,.4.12,1.49,1.49,0,0,1-.16.46c-.06.16-.11.3-.16.42A.66.66,0,0,0,181.93,87Z"/><path class="cls-15" d="M186.41,91.2l-1-1c.05-1.46.15-3.25.29-5.36l1.72.1a2.17,2.17,0,0,1,0,.4c-.05.24-.07.52-.11.81s-.07.51-.1.67h2.54a8.61,8.61,0,0,1-.15,1.29c-.39,0-1.24-.11-2.56-.25l-.29,2L188,90l1.16.06h.53a8.59,8.59,0,0,1-.1,1.38Zm3.72-5.3-.21.2-.2.16-.15.11-.09.06h-.7a5,5,0,0,1-.6-.62v-.35a1.41,1.41,0,0,1,0-.29V85l.68-.51.75.05c.18.21.39.43.61.65l-.06.35v.28C190.16,85.89,190.13,85.89,190.13,85.9Zm-1.08-.67-.06.44a1.93,1.93,0,0,0,.34,0l.08-.43h-.36Z"/><path class="cls-15" d="M194.85,91.58,191,91.25l.07-1.17,1.74.23.36-1.86-1.68-.06.06-1.35,1.91.13,1.07,1.25c-.27.9-.45,1.57-.54,2l1,.11Z"/><path class="cls-15" d="M199.34,88.61a1.85,1.85,0,0,1-.07.61,2.12,2.12,0,0,0-.07.46v.16l-1.61-.14-1.24-.08h-.41v-1.4Z"/><path class="cls-15" d="M202.87,89.65q-.65-.33-1.32-.6c-.07.16-.17.37-.31.64-.51-.19-.94-.36-1.28-.51l1.5-3,1.18.24,1.08.21.47.09c.1.16.21.32.34.49s.22.3.31.4l.14.18L204.44,89l-.54,1.11-.43.91c-.13.28-.24.5-.33.68s-.09.2-.14.3l-.53.19-.52.16-.43.13-.23.07a7,7,0,0,1-.32-1.19l.65-.12.51-.13.16-.06c.1-.2.21-.47.35-.79Zm-.66-2.12-.28.65,1.39.47.32-.78Z"/><path class="cls-15" d="M185.9,99.08l-1,.71c-.15-.43-.31-.94-.47-1.54L184,99l-.37.53-.13.18-.52-.44,1.15-2.47a3.4,3.4,0,0,0-.11-.57l-.28.57-.58-.34.2-.71-.62-.05-.25.34h.6v.21a2.56,2.56,0,0,1-.15.5,4,4,0,0,1-.3.67l.74-.11.07.85a7.28,7.28,0,0,1-.93.32,8.68,8.68,0,0,1-.27,1l-.65-.06V98.7l-.91.13V97.68l1-.13v-.16l.21-.45h-.18l-.33.35-.22.24-.08.06-.4-.43,1-1.59-.78-.07.08-1h.49l0-.64h-.37l.09-1h.37l.06-.76.88.08-.06.75h.43l0,.62.64-1.14L184,93l.2-.72.93.38c-.12.46-.24.86-.34,1.18l1.38.13-.09,1-.91-.08.6.39a14.78,14.78,0,0,1-.67,1.53Zm-3.61-4.38.34-.6h-.29Zm1.28.12.3-1.11c-.19.39-.39.75-.59,1.08Zm1,.81.27-.57h-.41c-.09.22-.17.41-.23.57l.29-.17Z"/><path class="cls-15" d="M191.74,100.18l-5-.43.09-1,2,.17v-.36l-1.38-.12.08-.92,1.38.12v-.37l1,.09v.37l1.39.12-.08.92-1.39-.12V99l2,.18Zm.29-4.4-.88-.08.09-1-3.05-.27-.08,1-.88-.07.17-2,1.89.16.05-.59,1,.09-.05.59,1.88.17Zm-.43,1-.81.83-.26-.53a12.64,12.64,0,0,1-2.75,0h-.06V96h.59l.23-.53h-.2l.07-.8,2.64.24-.07.79h-.15a10.27,10.27,0,0,1,.77,1.17Zm-1.55-.7-.12-.25.26-.22-.71-.07a2.42,2.42,0,0,1-.27.5Z"/><path class="cls-15" d="M196.35,99.75c-.37.21-.74.44-1.13.7l-2.09-.21q0-3.43.16-6.42c.82,0,1.68,0,2.57.08.34.38.71.79,1.11,1.2-.21.85-.39,1.64-.55,2.36l-.36.2-.3.15h-.11c.23.13.53.28.89.45C196.45,98.85,196.39,99.33,196.35,99.75Zm-1-1.31-1-.12c0,.47-.06.83-.06,1.1l1,.06a3.65,3.65,0,0,1,0-1Zm0-1c.12-.8.23-1.58.34-2.35l-1.2-.11v2.39Z"/><line class="cls-27" x1="289.9" y1="150.96" x2="289.9" y2="161.79"/><polyline class="cls-28" points="284.89 155.59 289.9 150.96 294.91 155.59"/><line class="cls-27" x1="355.11" y1="150.96" x2="355.11" y2="161.79"/><polyline class="cls-28" points="350.1 155.59 355.11 150.96 360.12 155.59"/><path class="cls-6" d="M476,186.77H465.08l-1.62-1.62V174.22l1.62-1.62H476l1.62,1.62v10.93Z"/><path class="cls-29" d="M470.54,175.75a2.3,2.3,0,0,0-2.31,2.29v0h4.63a2.3,2.3,0,0,0-2.31-2.31Z"/><rect class="cls-20" x="466.77" y="177.91" width="7.54" height="5.24"/><path class="cls-15" d="M476,186.77H465.08l-1.62-1.62V174.22l1.62-1.62H476l1.62,1.62v10.93Z"/><path class="cls-30" d="M470.54,175.75a2.3,2.3,0,0,0-2.31,2.29v0h4.63a2.3,2.3,0,0,0-2.31-2.31Z"/><rect class="cls-20" x="466.77" y="177.91" width="7.54" height="5.24"/><path class="cls-15" d="M234.08,87.17H223.15l-1.62-1.62V74.62L223.15,73h10.93l1.62,1.62V85.55Z"/><path class="cls-20" d="M228.62,83.9s3.37-2.54,3.93-4.55-1.41-4.55-3.93-2c-2.45-2.44-4.5,0-3.94,2S228.62,83.9,228.62,83.9Z"/><path class="cls-15" d="M229.35,77l-2.58,3.17.06.1h1.61l1-3.23Z"/><path class="cls-15" d="M227.61,82.92l2.58-3.17-.06-.11h-1.61l-1,3.23Z"/><path class="cls-15" d="M396.08,173.59H385.15L383.53,172V161l1.62-1.62h10.93l1.63,1.62v11Z"/><path class="cls-20" d="M390.62,170.31s3.37-2.53,3.93-4.54-1.41-4.55-3.93-2c-2.45-2.45-4.49,0-3.93,2S390.62,170.31,390.62,170.31Z"/><path class="cls-15" d="M391.35,163.43l-2.58,3.17.06.11h1.61l1-3.23Z"/><path class="cls-15" d="M389.61,169.33l2.58-3.17-.05-.1h-1.61l-1,3.22Z"/><path class="cls-15" d="M126.48,83.31l-.83,1-1.54-.13L122.82,84l-.64-.07a8.53,8.53,0,0,1,.1-1.25l1.49.18,1,.1h.33c0-.48.07-1,.09-1.45s0-.86,0-1.11v-.3c-.43,0-.85-.07-1.28-.08h-1.42V79a.81.81,0,0,1,0-.22c1.27.06,2.4.14,3.39.23a3.62,3.62,0,0,0,.27.41,2.56,2.56,0,0,0,.2.26l.13.15.07.08c0,.46-.09,1-.12,1.54s0,1,0,1.39A1.78,1.78,0,0,0,126.48,83.31Z"/><path class="cls-15" d="M131.72,83.84l-.61.41-.47.32-.19.13c-1-.07-1.83-.15-2.58-.25.06-.89.1-1.34.1-1.37l1.21.16,1,.16h.34c.54-2,.9-3.46,1.1-4.44l.56.13.54.15.24.07c-.15.62-.32,1.29-.51,2s-.36,1.31-.49,1.76S131.72,83.81,131.72,83.84Zm-1.59-2.66c-1.15-.27-1.89-.45-2.24-.55.17-.6.3-1,.38-1.21l1,.3.87.27.4.12c0,.15-.1.3-.16.46s-.11.3-.16.42A.66.66,0,0,0,130.13,81.18Z"/><path class="cls-15" d="M134.61,85.37c-.31-.33-.63-.66-1-1,0-1.47.15-3.26.29-5.36.54,0,1.11.06,1.72.1v.4a6.36,6.36,0,0,1-.11.8c0,.29-.07.51-.1.67H138a8.74,8.74,0,0,1-.15,1.3L135.24,82,135,84l1.24.07,1.16.07h.53q0,.38-.09,1.38Zm3.73-5.29-.22.19-.19.16-.16.12-.09.06H137a5,5,0,0,1-.6-.62v-.35a1.5,1.5,0,0,1,0-.3v-.12l.68-.51h.75c.18.21.39.43.61.64a.76.76,0,0,1-.06.36c-.06.12,0,.21,0,.27A.34.34,0,0,0,138.34,80.08Zm-1.09-.68-.06.45h.34l.08-.43h-.36Z"/><path class="cls-15" d="M143.05,85.75l-3.81-.33.07-1.16,1.74.22.36-1.85-1.68-.07.07-1.34,1.9.12,1.07,1.25c-.27.9-.45,1.58-.54,2l1,.11Z"/><path class="cls-15" d="M147.54,82.79a1.79,1.79,0,0,1-.07.6,2,2,0,0,0-.07.47V84l-1.61-.14a11.74,11.74,0,0,1-1.24-.09h-.41v-1.4Z"/><path class="cls-15" d="M151.07,83.83a13.12,13.12,0,0,0-1.32-.61c-.07.16-.17.37-.31.64-.51-.18-.94-.35-1.28-.51l1.5-3,1.18.23,1.08.21.47.09a5.36,5.36,0,0,0,.34.49c.12.17.22.3.31.41l.14.18-.54,1.17c-.2.4-.37.78-.54,1.11l-.43.91c-.13.27-.24.5-.33.67s-.13.27-.14.29l-.53.18-.52.17-.43.13-.22.06a6,6,0,0,1-.33-1.19l.65-.12.51-.12.16-.06c.1-.21.22-.47.35-.8Zm-.66-2.12-.28.64,1.39.48.32-.78Z"/><path class="cls-15" d="M134.08,93.25l-1,.72c-.15-.43-.31-1-.47-1.54-.16.25-.32.51-.49.75l-.37.54-.12.17-.52-.43L132.24,91c-.05-.22-.08-.41-.11-.56l-.28.56-.57-.33.19-.72-.62,0s-.09.14-.24.34h.6v.22A2.52,2.52,0,0,1,131,91a2.72,2.72,0,0,1-.31.67l.75-.1.07.84a5.15,5.15,0,0,1-.93.33,7.08,7.08,0,0,1-.28,1l-.64-.06V93c-.23,0-.53.09-.92.13V91.93l1-.13v-.15l.2-.46h-.18l-.32.35-.23.23-.07.07-.4-.44,1-1.58-.79-.07.09-1h.48l.06-.63h-.37l.08-1h.37l.07-.76.88.08-.07.76H131l0,.8.65-1.14.57.56.19-.71.93.38c-.12.46-.23.85-.34,1.18l1.38.12-.08,1-.92-.08.6.39a13.68,13.68,0,0,1-.66,1.52Zm-3.62-4.38.34-.6h-.28Zm1.28.12.31-1.1c-.19.38-.39.74-.59,1.08Zm1,.82.27-.58h-.41c-.08.23-.16.42-.22.58l.29-.18Z"/><path class="cls-15" d="M139.92,94.36l-5-.44.08-1,2,.17v-.37l-1.39-.12.08-.92,1.39.12v-.37l1,.09v.37l1.39.13-.08.91L138,92.81v.37l2,.17Zm.29-4.41-.88-.08.09-1-3-.26-.09,1-.87-.08.17-2,1.89.17,0-.6,1,.09,0,.6,1.88.16Zm-.43,1-.82.82-.25-.52a14,14,0,0,1-2.75,0h-.07V90.17h.6l.22-.54h-.19l.07-.8,2.64.23-.07.8H139A11.45,11.45,0,0,1,139.78,91Zm-1.55-.7-.12-.25.25-.23-.7-.06a4.82,4.82,0,0,1-.27.5Z"/><path class="cls-15" d="M144.42,94.68l-1-.09c.06-.57.12-1.11.18-1.64h-1c0,.55-.06,1.08-.07,1.57l-1.17-.07V89a13.22,13.22,0,0,1,1.24-1c.45,0,.91.08,1.39.11l1.19,1.37C144.89,91.32,144.64,93.05,144.42,94.68Zm-.78-2.61q.13-1.41.21-2.67l-1.26-.2c-.05,1-.07,1.93-.07,2.79Z"/><path class="cls-15" d="M66.54,79.43a10.84,10.84,0,0,1,1,.79c-.29.27-.64.57-1.06.9a23.76,23.76,0,0,0-2.24-2l.17-.19c.09-.12.21-.24.34-.39a4.28,4.28,0,0,1,.37-.37l.63.59.75-1.07c.26-.37.47-.66.61-.87l.2-.31h-3V75.05l1.59.14,1.42.12h.58a14,14,0,0,1,1,1.23l-.37.47c-.24.29-.54.67-.9,1.13Z"/><path class="cls-15" d="M72,79.69l-.18.25-.43.61-.51.7-.23-.14-.48-.28-.54-.33.2-.23.39-.45.42-.46c0-.09.08-1,.18-2.89l1.52.09A21.75,21.75,0,0,0,72,79.69Zm1.51,1.89-.18-.15-.39-.34-.43-.38c.12-1.31.26-3.07.43-5.3.25,0,.73.09,1.45.15-.23,1.47-.47,3-.71,4.64.33-.23.65-.45,1-.67.21.33.45.75.71,1.26l-.33.14-.74.31Z"/><path class="cls-15" d="M77.11,81.08h0l.57-.3.4-.23.13-.08.1-1.54-.7-.08-.6-.06h-.27V77.72l1.61.17V77.1c-.63,0-1,.06-1,0a.94.94,0,0,0-.07-.39c-.07-.14,0-.28-.06-.4a.2.2,0,0,1,0-.2l3.17-.42c0,.25.1.68.17,1.32h-1a4.49,4.49,0,0,1-.06.89c.83.07,1.34.1,1.53.11a8.16,8.16,0,0,1-.17,1.21l-1.42-.17v1.73A14.08,14.08,0,0,1,78,82.23c-.25-.29-.48-.55-.67-.8l-.21-.28h0Z"/><path class="cls-15" d="M85.89,81.11,85,80.36l-.58,1.39-.7.44c-.25.16-.45.29-.6.37l-.22.14q-.23-.23-.45-.48l-.35-.41-.1-.16,1.37-.75c.11-.2.22-.42.33-.64a5.16,5.16,0,0,0,.24-.56c0-.14.08-.21.07-.22-.22-.17-.43-.34-.64-.49a4.14,4.14,0,0,0-.48-.34l-.16-.11c.46-.55.7-.84.73-.86.16.14.33.26.5.39a2.77,2.77,0,0,0,.41.27l.14.09.76-2.22,1.41.46c-.38.85-.76,1.72-1.15,2.61l1.1.9c-.09.15-.2.3-.31.45L86,81Z"/><path class="cls-15" d="M92.7,79.93l-1.19-.09c-.12,1.34-.2,2.06-.22,2.18a3.6,3.6,0,0,1-.41.37l-.41.32-.19.14-2,.27A9,9,0,0,1,88,81.87l2-.26.19-1.87H88V78.47c2.74.18,4.36.29,4.84.34C92.78,79.33,92.74,79.73,92.7,79.93Zm-.94-1.8-2.88-.25V77a.67.67,0,0,1,0-.2l1.3.09,1.17.09h.48v.91A.7.7,0,0,1,91.76,78.13Zm.07-1.43h-.94A10.56,10.56,0,0,0,91,75.21l1,.09C91.92,75.87,91.86,76.33,91.83,76.7Zm1.26.11-.93-.09c0-.1.07-.56.18-1.39l1,.08A10.42,10.42,0,0,0,93.09,76.81Z"/><path class="cls-15" d="M95.93,80.1l-.18,3.54-1.24-.09.35-2.64-.78.72c-.11-.13-.24-.26-.38-.4l-.33-.33-.12-.11c.48-.36,1-.73,1.48-1.12l1.14-.88.39-.31.8.7Z"/><path class="cls-15" d="M100.12,82.55l-.18.25-.44.56c-.17.23-.31.43-.44.59a4.17,4.17,0,0,1-.46-.26,3.39,3.39,0,0,1-.5-.34l.17-.25.37-.53c.15-.2.27-.36.38-.49A4.09,4.09,0,0,0,99.21,81c.1-.6.18-1,.24-1.28a7.21,7.21,0,0,1,1.3.22,1.3,1.3,0,0,1-.11.46,9,9,0,0,0-.23,1C100.31,81.78,100.22,82.21,100.12,82.55Zm1.9-1.2c-.29-.22-.62-.44-1-.68.15-.24.31-.48.46-.73s.27-.43.34-.56l.12-.19c-2.12,0-3.37-.09-3.74-.11v-1.4l2,.15L102,78l.71,0c.27.37.53.75.76,1.14-.61.81-1.08,1.52-1.47,2.16Z"/><path class="cls-15" d="M82.29,90.35l-1,.72c-.16-.43-.31-.95-.47-1.54-.16.26-.32.51-.49.75l-.37.54-.12.17-.52-.43,1.14-2.48a2.52,2.52,0,0,0-.11-.56l-.28.56-.57-.33.19-.72h-.62a2.62,2.62,0,0,1-.24.34l.6,0v.22A3.76,3.76,0,0,1,79,88.8l.75-.1.07.84a5.24,5.24,0,0,1-.94.33,5.68,5.68,0,0,1-.27,1H78L78,90a9.26,9.26,0,0,1-.92.13L77,89l1-.14v-.15l.2-.46H78l-.32.35-.23.23-.07.07-.4-.44,1-1.58-.79-.07.09-1h.48l.06-.64h-.37l.08-1h.37l.07-.75.88.07-.07.76h.44l-.06.62.65-1.14.56.56.2-.71.93.38c-.12.46-.23.85-.34,1.18l1.38.12-.09,1-.91-.08.6.39c-.16.43-.38.94-.66,1.52ZM78.67,86l.34-.61h-.28Zm1.28.11.31-1.1c-.19.38-.39.74-.59,1.08Zm1,.82.27-.58h-.41c-.08.23-.16.42-.22.58l.29-.18Z"/><path class="cls-15" d="M88.12,91.46l-5-.44.08-1,2,.17v-.37l-1.39-.12.08-.92,1.39.13v-.38l1,.09V89l1.39.12-.08.91-1.39-.12v.37l2,.17Zm.3-4.41-.88,0,.08-1-3-.26-.09,1-.88-.08.18-2,1.89.17v-.6l1,.09,0,.6,1.88.16ZM88,88.11l-.82.83-.25-.53a12.64,12.64,0,0,1-2.75,0H84.1V87.28h.6l.22-.54H84.7l.07-.8,2.63.23-.06.8h-.16A10.29,10.29,0,0,1,88,88.11Zm-1.55-.7-.12-.25.25-.23-.7-.06a4.82,4.82,0,0,1-.27.5Z"/><rect class="cls-5" x="306.97" y="139.53" width="30.51" height="14.07" rx="1.69"/><path class="cls-11" d="M335.78,141a.2.2,0,0,1,.19.19h0v10.69a.19.19,0,0,1-.18.2H308.66a.19.19,0,0,1-.19-.19h0V141.22a.2.2,0,0,1,.19-.19h27.12m0-3H308.66a3.19,3.19,0,0,0-3.19,3.19h0v10.69a3.21,3.21,0,0,0,3.19,3.2h27.12a3.21,3.21,0,0,0,3.19-3.2V141.22a3.19,3.19,0,0,0-3.19-3.19Z"/><path class="cls-15" d="M146.47,135.32l-.62,1.55a13.09,13.09,0,0,1-1.29-1.29v1.51h-1.22v-1.46c-.2.19-.42.38-.65.58l-.54.44-.19.14-.37-.66v1h-1.22v-4.52l-.38.64-.71-.52,1.45-4.72,1.3.91a24.68,24.68,0,0,1-1,2.45h.6v4.42l1.66-1.94h-1.44v-1.27h1.53V132H142.1v-3.77h3.76V132H144.6v.56h1.55v1.27H144.6v.07Zm-1.88-4.59V129.5h-1.31v1.23Z"/><path class="cls-15" d="M154,135.26v1.42h-.56a10,10,0,0,1-1.44-.13,11.06,11.06,0,0,1-1.17-.27l-.41-.13v-.9a11.93,11.93,0,0,1-.61,1.77l-.69-.22v.28H148v-4.33l-.15.33-.63-.38L148,128l1.16.36a15.64,15.64,0,0,1-.89,3.5H149v4.57l.59-4.08h-.25l.26-2.6h-.43V128.5h1.58a20,20,0,0,1-.31,2.79h.43a17.88,17.88,0,0,1-.22,2.31h.89v-.29H151v-.94h.64v-.32H151v-.91h.65v-.39h-.81v-.94h.81v-.35H151v-.92h.65V128h1v.54h1.06v1.27h.21v.94h-.21v1.3h-1.06v.32h.91v.94h-.91v.29H154v1.08h-1.32v.45h-1v-.45h-1V134c-.09.49-.18.9-.26,1.23Zm-1-5.45v-.35h-.3v.35Zm0,1.33v-.39h-.3v.39Z"/><path class="cls-15" d="M161.57,136.86h-6.34V135.6h2.51v-.46H156V134h1.76v-.48h1.31V134h1.77v1.17h-1.77v.46h2.52Zm-.12-5.6h-1.12V130h-3.87v1.24h-1.12v-2.5h2.4V128h1.31v.76h2.4Zm-.43,1.38-.93,1.14-.39-.64a16.84,16.84,0,0,1-3.47.31h-.08L156,132h.75l.23-.7h-.25v-1h3.36v1h-.2a12.94,12.94,0,0,1,1.11,1.34Zm-2-.71-.18-.3.3-.32h-.9a4.84,4.84,0,0,1-.28.66Z"/></g></svg>