<svg id="レイヤー_1" data-name="レイヤー 1" xmlns="http://www.w3.org/2000/svg" xmlns:xlink="http://www.w3.org/1999/xlink" viewBox="0 0 263.78 177.76"><defs><style>.cls-1,.cls-11,.cls-17,.cls-21{fill:none;}.cls-2{fill:#00a7cd;}.cls-12,.cls-15,.cls-16,.cls-18,.cls-3,.cls-7{fill:#fff;}.cls-15,.cls-16,.cls-17,.cls-18,.cls-19,.cls-21,.cls-3,.cls-9{stroke:#fff;}.cls-16,.cls-17,.cls-18,.cls-19,.cls-3,.cls-5,.cls-9{stroke-linejoin:bevel;}.cls-3,.cls-5{stroke-width:1.01px;}.cls-4{fill:#0a1a34;}.cls-13,.cls-5{fill:#ffdb4f;}.cls-5{stroke:#ffdb4f;}.cls-6,.cls-9{fill:#00856f;}.cls-19,.cls-8{fill:#231815;}.cls-17,.cls-19,.cls-9{stroke-width:0.75px;}.cls-10{clip-path:url(#clip-path);}.cls-11,.cls-12{stroke:#00856f;}.cls-11,.cls-15,.cls-21{stroke-miterlimit:10;}.cls-11{stroke-width:0.4px;}.cls-12{stroke-miterlimit:10;stroke-width:0.5px;}.cls-14{fill:#e94c55;}.cls-15,.cls-16{stroke-width:0.5px;}.cls-18{stroke-width:0.26px;}.cls-20{clip-path:url(#clip-path-2);}.cls-21{stroke-width:0.83px;}</style><clipPath id="clip-path"><circle class="cls-1" cx="150.66" cy="129.33" r="8.78"/></clipPath><clipPath id="clip-path-2"><circle class="cls-1" cx="17.63" cy="157.09" r="8.78"/></clipPath></defs><g id="レイヤー_1-2" data-name="レイヤー 1"><path class="cls-2" d="M24.58,21.3H10.69L9.07,19.68V5.79l1.62-1.62H24.58L26.2,5.79V19.68Z"/><circle class="cls-3" cx="17.63" cy="8.32" r="1.26"/><polygon class="cls-3" points="20.41 11.46 14.85 11.46 17.63 18.41 20.41 11.46"/><path class="cls-4" d="M24.58,103.59H10.69L9.07,102V88.08l1.62-1.62H24.58l1.62,1.62V102Z"/><polygon class="cls-5" points="15.01 90.17 15.01 95.5 21.66 92.83 15.01 90.17"/><rect class="cls-5" x="15.01" y="90.03" width="0.29" height="10.27"/><circle class="cls-6" cx="150.66" cy="156.2" r="8.78"/><path class="cls-7" d="M152.87,150.53c.38.32.78.68,1.22,1.08s.76.74,1,1l.36.36-.81,3.71c-.27.23-.57.45-.88.67s-.58.4-.76.51l-.28.17a2.62,2.62,0,0,0-.56,0,2.57,2.57,0,0,0-.4.05l-.16.06-.1,1.57h-1.94l-.08-2a7.93,7.93,0,0,0,.68-.62c.22-.23.39-.42.5-.56l.16-.22h.69l.72-.06h.29l.16-3.28h-3.79l.11,2.16-2.56.23-.3-2.25,2.37-2.56Zm-3.46,10.11h2.23v1.65h-2.16a12.78,12.78,0,0,0-.07-1.65Z"/><path class="cls-8" d="M165.78,155.64a.68.68,0,0,0-.22.48c0,.33.38.48,1.2.48a5.76,5.76,0,0,0,1.43-.16,1.82,1.82,0,0,0,0,.33v.1a8,8,0,0,1-1.38.12,2.64,2.64,0,0,1-1.33-.25.65.65,0,0,1-.37-.61,1,1,0,0,1,.31-.7Zm.11-1.74a.85.85,0,0,0,.73.24,4.56,4.56,0,0,0,1.16-.15l.1.38a5.35,5.35,0,0,1-1.26.14,1.1,1.1,0,0,1-1-.4Zm2.15-.39a4.08,4.08,0,0,1,.63.54l-.22.19a2.85,2.85,0,0,0-.61-.54Zm.38-.35a4.08,4.08,0,0,1,.63.54l-.21.19a3.53,3.53,0,0,0-.61-.55Z"/><path class="cls-8" d="M171.81,153.91c-.13.23-.25.46-.39.68h.32l-.09.09c0,.21,0,.43,0,.64v2h-.4v-2.56a5.9,5.9,0,0,1-.66.75,5.64,5.64,0,0,1-1.11.83l-.21-.31a5.13,5.13,0,0,0,1.22-1,4.36,4.36,0,0,0,.85-1.23H169.4v-.36h4.18v.36h-.94Zm.29.81a6.16,6.16,0,0,1,1.61,1.4l-.31.28a6.61,6.61,0,0,0-1.5-1.44Z"/><path class="cls-8" d="M174.8,156.44h-.32V153.6H176v2.62h-.37v-.17h-.8Zm.8-1.82v-.69h-.8v.69Zm-.8,1.1h.8v-.78h-.8Zm2,.1a3.45,3.45,0,0,1-.12.46,2.09,2.09,0,0,1-1,1.13,1.06,1.06,0,0,0-.22-.29c.82-.48,1-.91,1-2.06v-.85q0-.36,0-.72h1.88V157a.33.33,0,0,1-.25.36,3,3,0,0,1-.6,0,1,1,0,0,0-.08-.38h.37c.17,0,.2,0,.2-.18v-1Zm0-1.06v.75H178v-.77Zm1.14-.3v-.65H176.8v.65Z"/><path class="cls-8" d="M179.48,154.18h1a4.15,4.15,0,0,0,.25-.85l.42.12a.06.06,0,0,1,.06.06c0,.06,0,.05-.11.08l-.2.54a2.47,2.47,0,0,0,.6-.19l.16.32a3.52,3.52,0,0,1-.9.24,10.11,10.11,0,0,1-1.06,2.07,1,1,0,0,0-.36-.21,7.57,7.57,0,0,0,1-1.83h-.81Zm2.64,1c-.14.1-.18.15-.18.28a5,5,0,0,0,.09.77,5.54,5.54,0,0,1,1,.58.89.89,0,0,0-.28.3,4.07,4.07,0,0,0-.74-.51c0,.47-.31.67-.84.67s-.81-.23-.81-.59.33-.61.81-.61a1.61,1.61,0,0,1,.44.06c0-.31-.07-.54-.07-.67a.53.53,0,0,1,.31-.51Zm-1,1.2c-.24,0-.4.12-.4.29s.16.28.44.28a.55.55,0,0,0,.37-.1c.07-.07.09-.18.09-.38a1.44,1.44,0,0,0-.46-.08Zm1.73-1.24a2.59,2.59,0,0,0-1.09-.44l.1-.32a3.09,3.09,0,0,1,1.2.43Z"/><path class="cls-8" d="M184.68,156.43v0c0,.05,0,0-.08.06a1.68,1.68,0,0,1-.57.82,1.06,1.06,0,0,0-.27-.25,1.7,1.7,0,0,0,.56-.81Zm.24-.51v.22h-.38V155a2.54,2.54,0,0,0,0-.39h1.23v-1.42h.46s0,0-.09.09v.41h1.5v.35h-1.5v.47h1.34V156h-.37v-.17Zm2.14-1h-2.14v.63h2.14Zm-1.7,1.36a3.88,3.88,0,0,1,.46.85l-.35.16a4.45,4.45,0,0,0-.39-.86Zm1,0a3.58,3.58,0,0,1,.57.81l-.35.18a4.24,4.24,0,0,0-.49-.82Zm1.49,1a3.31,3.31,0,0,0-.75-.83l.24-.22a3.16,3.16,0,0,1,.82.81Z"/><path class="cls-8" d="M189.63,153.65c.06,0,.08,0,.08.06s0,.08-.12.1a7,7,0,0,0-.22,1.82,3.91,3.91,0,0,0,.22,1.4,1.33,1.33,0,0,0-.38.18,4.9,4.9,0,0,1-.23-1.61,10.42,10.42,0,0,1,.19-1.77v-.25Zm2.25-.05s.07,0,.07.06,0,0-.07.09,0,.32,0,.71a2.83,2.83,0,0,0,.86-.09v.37a8.33,8.33,0,0,1-.86.08,9.54,9.54,0,0,0,.05,1.34,3.61,3.61,0,0,1,.91.53,1,1,0,0,0-.24.31,3,3,0,0,0-.68-.48c0,.43-.32.62-.89.62s-.89-.26-.89-.62.32-.56.8-.56a2,2,0,0,1,.59.08v-1.2h-1.19v-.38h1.14c0-.3,0-.6-.07-.9Zm-.91,2.66c-.3,0-.45.09-.45.25s.18.3.53.3.51-.1.51-.44a1.35,1.35,0,0,0-.59-.11Z"/><path class="cls-8" d="M196.62,156.09h1.16v.34h-1.16V157c0,.34-.17.43-.82.43a.86.86,0,0,0-.09-.39,1.82,1.82,0,0,0,.33,0c.18,0,.2,0,.2-.19v-.44h-2.85v-.34h2.85v-.33h-1.86v.19H194a3.69,3.69,0,0,0,0-.47v-.81a2.54,2.54,0,0,0,0-.39h1.41v-.35h-1.94v-.35h1.94v-.41h.47s0,0-.09.09v.24h2v.35H195.8v.35h1.45v1.6h-.37v0h-.23Zm-1.21-1.49h-1v.29h1Zm0,.57h-1v.29h1Zm-.79,1.26a2.77,2.77,0,0,1,.73.54l-.26.26a3.32,3.32,0,0,0-.67-.57Zm2.23-1.54v-.29h-1.08v.29Zm0,.57v-.29h-1.08v.29Z"/><path class="cls-8" d="M200.63,156.32v.92h-.38v-1.33H199.1a3.78,3.78,0,0,1-.1.46,2.38,2.38,0,0,1-.65,1,.73.73,0,0,0-.23-.29,2.69,2.69,0,0,0,.39-.5,3,3,0,0,0,.26-1.36v-1.73h3.43V157c0,.35-.17.43-.85.43h0a1.37,1.37,0,0,0-.09-.4h.43c.15,0,.18,0,.18-.18v-.92h-1.2Zm-.36-1.47h-1.11v.73h1.12Zm0-1h-1.11v.68h1.11Zm1.56.68v-.68h-1.2v.68Zm0,1.06v-.73h-1.2v.73Z"/><path class="cls-8" d="M205.21,154.36s.06,0,.06,0,0,.05-.07.08a6.43,6.43,0,0,1-.4,1.29c-.28.64-.57.91-1,.91s-.72-.43-.72-1a1.91,1.91,0,0,1,2-1.76c1,0,1.83.51,1.83,1.5,0,.83-.58,1.31-1.66,1.62a.84.84,0,0,0-.22-.36c1-.23,1.46-.64,1.46-1.26a1.25,1.25,0,0,0-1.32-1.18H205Zm-1.73,1.38c0,.36.12.6.33.6s.37-.16.54-.56a5,5,0,0,0,.41-1.46A1.5,1.5,0,0,0,203.48,155.74Z"/><path class="cls-8" d="M209.48,154.74v0s0,.05-.1.07a4.14,4.14,0,0,1-1.59,1.57.9.9,0,0,0-.25-.35,3.41,3.41,0,0,0,1.25-1.07,5.05,5.05,0,0,0,.25-.45Zm1-.34a5.13,5.13,0,0,1,1.54,1.7l-.39.26a5,5,0,0,0-1.43-1.7Zm1.43-.42a.51.51,0,0,1-.51.49h0a.5.5,0,0,1,0-1,.51.51,0,0,1,.48.46Zm-.82,0a.31.31,0,0,0,.3.29.29.29,0,0,0,0-.58h0a.3.3,0,0,0-.34.24Z"/><path class="cls-8" d="M216.07,155.51h-3.61v-.41h3.61Z"/><path class="cls-8" d="M219.64,154.49l.06-.08.32.25v.07c0,.07,0,.05-.1.08s0,.25,0,.32a3.07,3.07,0,0,1-.48,1.69.94.94,0,0,1-.57.13h-.36a1,1,0,0,0-.11-.41,3.68,3.68,0,0,0,.47,0c.21,0,.28,0,.37-.18a4.29,4.29,0,0,0,.26-1.07v-.48h-1a2.92,2.92,0,0,1-.4,1.1,3.49,3.49,0,0,1-1.16,1.07,1.08,1.08,0,0,0-.24-.32,2.78,2.78,0,0,0,1.07-1,2,2,0,0,0,.32-.86l-1.28.06v-.39h1.28a5.52,5.52,0,0,0,.06-.81v-.13h.43s.09,0,.09.07,0,.05-.1.09v.74Z"/><path class="cls-8" d="M224.57,155.51H221v-.41h3.6Z"/><path class="cls-8" d="M227,153.45a0,0,0,0,1,.05.05c0,.05,0,.05-.09.07-.06.17-.14.36-.24.58a5.1,5.1,0,0,0,.94-.21l.11.31a7.22,7.22,0,0,1-1.21.25l-.17.33-.17.22.25-.15a.78.78,0,0,1,.37-.09.52.52,0,0,1,.56.47v.1a10.68,10.68,0,0,0,1.19-.67l.26.26a.11.11,0,0,1,0,.08h-.14l-.86.43-.48.24v.81H227v-.65c-.43.22-.62.42-.62.63s.15.32.8.32a7.11,7.11,0,0,0,1.3-.09,1.21,1.21,0,0,0,0,.38,9.67,9.67,0,0,1-1.2.08,1.82,1.82,0,0,1-1-.17.51.51,0,0,1-.23-.45.87.87,0,0,1,.44-.71,5.3,5.3,0,0,1,.57-.33v-.08c0-.25-.09-.34-.28-.34a1,1,0,0,0-.66.34,2.4,2.4,0,0,0-.37.47l-.33-.22a2.94,2.94,0,0,0,.35-.44c.12-.18.3-.47.45-.75h-.81v-.35h.52a3.23,3.23,0,0,0,.44,0c.08-.17.16-.38.22-.55a1.11,1.11,0,0,0,.07-.26Z"/><path class="cls-8" d="M231.14,155.2a2.56,2.56,0,0,1-.11.24h2.24v1.93h-.38v-.11h-1.71v.15h-.39v-1.58a3.15,3.15,0,0,1-.22.29,3.91,3.91,0,0,1-.9.77,1.81,1.81,0,0,0-.19-.29,3.36,3.36,0,0,0,1.27-1.4h-1.17v-.34h2v-.23H230v-.34h1.6v-.22h-1.9v-.33H231a2.29,2.29,0,0,0-.32-.43l.26-.18a2.09,2.09,0,0,1,.4.49l-.18.12h.91a3.41,3.41,0,0,0,.31-.6l.37.15h0s0,.05-.13.06l-.22.34h1.34V154H231.9v.22h1.59v.34H231.9v.23h2v.34h-2.82Zm1.75.55h-1.71V156h1.71Zm0,.5h-1.71v.2h1.71Zm0,.49h-1.71V157h1.71Z"/><path class="cls-8" d="M236.93,154.42a3.36,3.36,0,0,1-.88.23,10.46,10.46,0,0,1-1.06,2.51,1.2,1.2,0,0,0-.34-.21,9.32,9.32,0,0,0,1-2.26h-.84v-.36h.94a5.42,5.42,0,0,0,.19-.89l.42.1h.06s0,.05-.09.08c-.06.23-.11.4-.18.62a4,4,0,0,0,.66-.18Zm-.12,1.67c-.14.19-.17.27-.17.38s.21.28.91.28a4.4,4.4,0,0,0,.88-.1,1.34,1.34,0,0,0,0,.4,7.26,7.26,0,0,1-.93.06c-.91,0-1.2-.2-1.2-.58a.86.86,0,0,1,.27-.59Zm-.38-1a4.25,4.25,0,0,1,1.5-.24h.27v.36h-.32a4.38,4.38,0,0,0-1.35.21Z"/><path class="cls-8" d="M241.61,156.1a1.46,1.46,0,0,0,.36.34,3,3,0,0,0,1,.43,6,6,0,0,0,.61.13,1.52,1.52,0,0,0-.22.34,4.63,4.63,0,0,1-1.11-.35,2.18,2.18,0,0,1-.95-.8,1.65,1.65,0,0,1-.28.41,3,3,0,0,1-1.24.7l-.46.11a1.26,1.26,0,0,0-.16-.33,3.49,3.49,0,0,0,1.39-.51,1.61,1.61,0,0,0,.39-.47h-1.7v-.36h1.85a1.91,1.91,0,0,0,.06-.33h-1.3v-.35h1.33v-.29h-1.47v-.35h1.47V154l.38.05c.06,0,.1,0,.1.07s0,0-.1.07v.28H243v.35h-1.56V155h1.37v.35h-1.37c0,.11,0,.22,0,.33h2v.36h-.85Zm-.45-2.59a1.41,1.41,0,0,0,0-.29h.39s.08,0,.08.05,0,0-.09.09v.28h1.88v.76H243V154h-3.39v.43h-.39v-.76h1.89Z"/><path class="cls-8" d="M245.07,155.06c.05,0,.07,0,.07.05s0,0-.08.09a5,5,0,0,0,0,.77v1.44h-.39v-1.92a4.68,4.68,0,0,1-.53.56.9.9,0,0,0-.23-.32,4.32,4.32,0,0,0,1.18-1.53l.33.15a.08.08,0,0,1,.08.08s0,0-.13.07a.76.76,0,0,0-.12.19c-.13.22-.18.3-.25.4Zm.41-1.68c.06,0,.08,0,.08.07s0,.05-.13.07a4.36,4.36,0,0,1-1.18,1,.77.77,0,0,0-.19-.31,3.43,3.43,0,0,0,1.13-.94Zm.59,1.68h-.66v-.32h3v.35h-.93V157c0,.35-.16.44-.84.44h0a.9.9,0,0,0-.09-.4h.42c.15,0,.18,0,.18-.18v-1.77Zm2-1.17h-2.31v-.35h2.31Z"/><path class="cls-8" d="M167.55,160.4a2.81,2.81,0,0,0,.8.47,5.76,5.76,0,0,0,1,.3.63.63,0,0,0-.19.31,4.44,4.44,0,0,1-1.39-.57,2.15,2.15,0,0,1-.48-.36v.69h-.38v-.69a5.34,5.34,0,0,1-1.9,1,1.17,1.17,0,0,0-.17-.31,4.94,4.94,0,0,0,1.78-.84H165v-.34h1.88v-.32c-.44,0-.93.06-1.49.07a.64.64,0,0,0-.11-.3,12.21,12.21,0,0,0,3.07-.3l.24.21v.06c0,.06,0,.05-.07.05h-.09c-.4.08-.8.14-1.25.19v.37h1.94v.34h-.94ZM165.93,162H165v-.27h1.43l.16-.24c.06-.09.12-.18.17-.27l.36.16s0,0,0,.07,0,.06-.14.07l-.12.14-.06.07h2.39v.33h-1a2.71,2.71,0,0,1-.52.6,5.37,5.37,0,0,1,.56.21,4.66,4.66,0,0,1,.6.28l-.23.3c-.21-.12-.44-.22-.66-.32a6.44,6.44,0,0,0-.61-.24,5.1,5.1,0,0,1-2.05.56,1.21,1.21,0,0,0-.11-.32,5.89,5.89,0,0,0,1.61-.31l.14-.06h0a4.65,4.65,0,0,0-.72-.16l-.2.24-.3-.21a4.6,4.6,0,0,0,.52-.56Zm.68,0-.24.3a9.37,9.37,0,0,1,.92.19,2.48,2.48,0,0,0,.48-.49Z"/><path class="cls-8" d="M171.55,162.74a.06.06,0,0,1,.06.07c0,.07,0,.05-.14.07a4.77,4.77,0,0,1-1.6.52.71.71,0,0,0-.14-.32,4.09,4.09,0,0,0,1.53-.48Zm-.85-.2v.2h-.39v-1.4q0-.36,0-.72h3.17v2.09h-.39v-.15Zm.18-2.08h-.4v-.66a2.67,2.67,0,0,0,0-.4h2.81a2.67,2.67,0,0,0,0,.4v.64h-.38v-.13h-2Zm2.25.71v-.26H170.7v.26Zm-2.43.27v.3h2.43v-.27Zm0,.54v.28h2.43V162Zm2.23-1.95v-.29h-2.05v.34Zm-.54,2.59a5.57,5.57,0,0,0,1.69.45.59.59,0,0,0-.17.33,5.34,5.34,0,0,1-.9-.2,3.54,3.54,0,0,1-.83-.34Z"/><path class="cls-8" d="M175.53,159.79c.05,0,.08,0,.08.07s0,.08-.12.11a6.78,6.78,0,0,0-.21,1.68,3.57,3.57,0,0,0,.22,1.33l-.38.16a4.25,4.25,0,0,1-.23-1.46,9.29,9.29,0,0,1,.15-1.49c0-.2.06-.3.07-.47Zm1.1,1.9a.51.51,0,0,0-.15.33c0,.27.29.39,1,.39a4.85,4.85,0,0,0,1-.1,1.84,1.84,0,0,0-.05.41,7.57,7.57,0,0,1-.95.06c-1,0-1.36-.21-1.36-.7a.77.77,0,0,1,.25-.57Zm-.39-1.39a4.73,4.73,0,0,1,1.35-.18,4,4,0,0,1,.69,0l-.05.35c-.26,0-.52,0-.77,0a3.33,3.33,0,0,0-1.13.17Z"/><path class="cls-8" d="M180,161.64a.68.68,0,0,0-.22.48c0,.33.38.48,1.2.48a5.76,5.76,0,0,0,1.43-.16v.33a.17.17,0,0,0,0,.1A8.16,8.16,0,0,1,181,163a2.75,2.75,0,0,1-1.27-.22.68.68,0,0,1-.37-.61,1,1,0,0,1,.31-.7Zm.11-1.74a.85.85,0,0,0,.73.24A4.56,4.56,0,0,0,182,160l.1.38a5.35,5.35,0,0,1-1.26.14,1.1,1.1,0,0,1-1-.4Zm2.15-.39a4.08,4.08,0,0,1,.63.54l-.22.19a2.8,2.8,0,0,0-.6-.54Zm.38-.35a4.69,4.69,0,0,1,.64.54l-.22.19a3.53,3.53,0,0,0-.61-.55Z"/><path class="cls-8" d="M184.66,161a3.84,3.84,0,0,1,.68.54l-.23.31a4.89,4.89,0,0,0-.45-.46v2h-.4v-2a4.13,4.13,0,0,1-.17.45,3.94,3.94,0,0,1-.41.72,1.56,1.56,0,0,0-.23-.34,4.23,4.23,0,0,0,.56-1.1,6.36,6.36,0,0,0,.19-.62h-.67v-.34h.73a8.34,8.34,0,0,0,0-1h.48l-.09.08c-.09.08,0,.16,0,.8h.69v.34h-.69Zm1.28,2.05v.27h-.36v-3.82h2.14v3.76h-.37v-.21Zm1.41-3.22h-1.41v.71h1.41Zm0,1h-1.41v.75h1.41Zm0,1.08h-1.41v.82h1.41Z"/><path class="cls-8" d="M190.15,160.38h-1.67V160h1.7ZM189,162.93v.41h-.38v-1.06a2.54,2.54,0,0,0,0-.39H190a2.54,2.54,0,0,0,0,.39v.81h-.38v-.16Zm.69-3.18h-1v-.33H190v.32ZM190,161h-1.3v-.33H190Zm0,.62h-1.3v-.34H190Zm-.31.6H189v.45h.67Zm3-.39-.52.29-.28.14a1.79,1.79,0,0,0,.2.28,2,2,0,0,0,.8.56,1.28,1.28,0,0,0-.23.29,2.43,2.43,0,0,1-.8-.62,2,2,0,0,1-.32-.55l-.07.18a1.91,1.91,0,0,1-1.33,1,1.17,1.17,0,0,0-.17-.31,2.14,2.14,0,0,0,.72-.33,1.32,1.32,0,0,0,.54-.84,4.2,4.2,0,0,0,.11-1h.36c.06,0,.09,0,.09.06s0,.05-.09.07a1.55,1.55,0,0,1-.06.56,2.33,2.33,0,0,1,.11.28l.4-.25.32-.25.31.22h0s0,0-.08,0Zm0-1.85a4.27,4.27,0,0,1-.51.3l-.29.15a1.51,1.51,0,0,0,.21.23,2.13,2.13,0,0,0,.85.49,2.73,2.73,0,0,0-.21.3,2,2,0,0,1-.84-.53,1.54,1.54,0,0,1-.33-.44,1.44,1.44,0,0,1-.72.83,3.39,3.39,0,0,1-.61.21,1.14,1.14,0,0,0-.16-.31,1.57,1.57,0,0,0,1-.51,1.51,1.51,0,0,0,.26-.87v-.54l.38.07c.07,0,.1,0,.1,0s0,.05-.11.09V160a.89.89,0,0,0,.08.17l.41-.26.32-.26.32.22a0,0,0,0,1,0,0h-.08Zm-1.73,1.63h0l-.07.07a1.79,1.79,0,0,1-.43.87.92.92,0,0,0-.29-.23,1.43,1.43,0,0,0,.4-.87Zm0-1.83h0s0,.05-.08.07a1.72,1.72,0,0,1-.42.88.8.8,0,0,0-.29-.23,1.59,1.59,0,0,0,.4-.87Z"/><path class="cls-8" d="M195.38,163.33a10.69,10.69,0,0,0-1.45-1.76.44.44,0,0,1-.17-.31c0-.08.05-.17.18-.29a12.4,12.4,0,0,0,1.05-1,3.83,3.83,0,0,0,.33-.46l.39.23a.09.09,0,0,1,0,.07s0,.05-.12.07c-.44.46-.89.9-1.37,1.32-.05.05-.07.08-.07.11s0,.06.08.12a15.82,15.82,0,0,1,1.5,1.67Z"/><path class="cls-8" d="M199.27,160.42a3.8,3.8,0,0,1-.88.23,11.33,11.33,0,0,1-1.06,2.51A1.13,1.13,0,0,0,197,163a8.8,8.8,0,0,0,1-2.26h-.83v-.36h.94a8.82,8.82,0,0,0,.2-.89l.41.1h.06s0,.05-.09.08c-.06.23-.11.4-.18.62a3.9,3.9,0,0,0,.67-.18Zm-.13,1.67c-.13.19-.17.27-.17.38s.21.28.92.28a4.4,4.4,0,0,0,.88-.1,1.07,1.07,0,0,0-.05.4,7.26,7.26,0,0,1-.93.06c-.91,0-1.2-.2-1.2-.58a.86.86,0,0,1,.27-.59Zm-.38-1a4.25,4.25,0,0,1,1.5-.24h.27v.36h-.32a4.38,4.38,0,0,0-1.35.21Zm1-1.45a3.3,3.3,0,0,1,.67.51l-.21.21a2.66,2.66,0,0,0-.64-.52Zm.37-.37a4,4,0,0,1,.66.5l-.2.22a3.22,3.22,0,0,0-.64-.53Z"/><path class="cls-8" d="M203.32,159.38c.05,0,.07,0,.07.06s0,0,0,.08a4.16,4.16,0,0,0,.28.74,3.47,3.47,0,0,0,.88-.28l.18.33a7.76,7.76,0,0,1-.9.28,3.8,3.8,0,0,0,.76,1.1l-.28.27a2,2,0,0,0-1-.28c-.5,0-.77.17-.77.47s.3.58,1.21.58h.67a.79.79,0,0,0-.13.39h-.61c-1.11,0-1.54-.42-1.54-.92s.43-.81,1.15-.81a2.29,2.29,0,0,1,.52.05l.21.09-.14-.18a4.4,4.4,0,0,1-.39-.66c-.5.08-1,.15-1.52.19l-.07-.37a11.72,11.72,0,0,0,1.44-.15,5,5,0,0,1-.3-.72,1.43,1.43,0,0,0-.08-.22Z"/><path class="cls-8" d="M206.26,160.08c.06,0,.1,0,.1.08s0,.05-.11.08a4,4,0,0,0,0,.69,2.73,2.73,0,0,0,.15,1.06c.11.29.27.46.41.46s.16-.12.29-.67c.11.08.23.15.35.22-.18.68-.33.87-.62.87a.83.83,0,0,1-.69-.49,2.38,2.38,0,0,1-.3-1.28V160Zm2.2.23a3.58,3.58,0,0,1,1.06,1.61l-.42.18a3.12,3.12,0,0,0-.92-1.55Z"/><path class="cls-8" d="M211.54,162.74a.68.68,0,0,1-1.36.08.68.68,0,0,1,.64-.72h0a.66.66,0,0,1,.68.64Zm-1.06,0a.41.41,0,0,0,.38.44.43.43,0,0,0,.44-.38.42.42,0,0,0-.38-.44h0a.38.38,0,0,0-.4.38Z"/><path class="cls-8" d="M35.48,121.64a.09.09,0,0,1,.07.06s0,0-.13.07a4.46,4.46,0,0,1-.22.5h.69v.35h-1V123h.92v.35h-.92v.15a3,3,0,0,1,.79.42l-.21.32a3.43,3.43,0,0,0-.58-.42v1.09h-.43v-1.15a4.23,4.23,0,0,1-.85.84,1.06,1.06,0,0,0-.22-.29,3.4,3.4,0,0,0,1-1h-.85v-.35h.92v-.36h-1v-.35h.62a6.56,6.56,0,0,0-.23-.62l.3-.1a3.33,3.33,0,0,1,.27.61l-.33.11h.68a3.7,3.7,0,0,0,.25-.73H33.62v-.34h.86v-.53h.45s0,.05-.09.09v.36h.86v.34h-.54Zm.87-.5a5.77,5.77,0,0,0,1.22-.32l.28.24v.06c0,.06,0,0-.07,0h-.1a6.8,6.8,0,0,1-1.33.26v.71h1.56v.35h-.5v2.44H37v-2.44h-.7v.08a4.06,4.06,0,0,1-.21,1.47,2.57,2.57,0,0,1-.69.88,1.2,1.2,0,0,0-.24-.26,1.88,1.88,0,0,0,.73-1.25,5.6,5.6,0,0,0,.06-1V121Z"/><path class="cls-8" d="M39.48,122.23a1.45,1.45,0,0,1-.21.76,1.85,1.85,0,0,1-.74.56.81.81,0,0,0-.19-.29,1.38,1.38,0,0,0,.65-.52,1,1,0,0,0,.13-.51h-.71v-.33h.72v-.65h-.55v-.32h2.33v.32H40.3v.65h.75v.33H40.3v1.16h-.38v-1.16Zm.93,1.72H38.87v-.36h1.54v-.54h.38c.06,0,.09,0,.09,0s0,.05-.09.09v.37h1.54v.36H40.79v.48h1.94v.34H38.48v-.36h2Zm-.92-2H40v-.65h-.47Zm2.13-.89h.09s0,0-.09.09,0,.23,0,.51v1.11h-.38V121Zm.91,1.93c0,.32-.17.41-.82.41a1.24,1.24,0,0,0-.09-.39h.32c.19,0,.22,0,.22-.19v-1.33a3.64,3.64,0,0,0,0-.66h.42s.07,0,.07,0,0,0-.08.09a4,4,0,0,0,0,.49v1.43Z"/><path class="cls-8" d="M46.06,122.09H43.54v-.35h2.94v2.4h-.42v-.22H43.48v-.37H46Z"/><path class="cls-8" d="M48.31,124.11H47.9v-2.37h2.69v2.37h-.41v-.22H48.31Zm1.87-.57V122.1H48.31v1.44Z"/><path class="cls-8" d="M55.48,122.49h-1.6a2.81,2.81,0,0,1-.18,1,2.51,2.51,0,0,1-1.47,1.28.81.81,0,0,0-.25-.33,2.4,2.4,0,0,0,1.19-.84,2,2,0,0,0,.3-1.06H51.69v-.39h1.79V121h.44c.06,0,.08,0,.08,0s0,0-.08.08,0,.25,0,.51v.43h1.56Z"/><path class="cls-8" d="M59,121.74l.06-.06.34.24s.05,0,.05.07,0,.06-.1.08a3.38,3.38,0,0,1-.7,1.69,3.67,3.67,0,0,1-1.46,1,1.21,1.21,0,0,0-.24-.35,3.18,3.18,0,0,0,1.4-1,2.86,2.86,0,0,0,.56-1.37h-2v1.11h-.43v-1.41h1.2v-.85h.42c.06,0,.09,0,.09,0s0,0-.09.09v.71Z"/><path class="cls-8" d="M62.48,122.26c.05,0,.08,0,.08,0s0,0-.1.09v2.34H62V122.6a9.41,9.41,0,0,1-1.5,1.09,1.11,1.11,0,0,0-.25-.32,7.51,7.51,0,0,0,2.33-1.94,2.27,2.27,0,0,0,.3-.46l.38.16a.06.06,0,0,1,.05.06s0,0-.1.08a8,8,0,0,1-.83,1Z"/><path class="cls-8" d="M65.88,121.89s.06,0,.06,0,0,0-.09.08a2.4,2.4,0,0,1-1.35,2.24,1.07,1.07,0,0,0-.25-.34,2.22,2.22,0,0,0,1-.84,2.79,2.79,0,0,0,.26-1.24Zm.44,1.92a3,3,0,0,0,.06-.84v-1.42h.44c.05,0,.08,0,.08,0s0,.05-.09.09a4.34,4.34,0,0,0,0,.51v1.32a5,5,0,0,0,1.68-1.13,1.8,1.8,0,0,0,.16.38A6.72,6.72,0,0,1,66.81,124c0,.06,0,.09-.07.09h-.07Z"/><path class="cls-8" d="M71.11,122l-1.42.1v-.41h1.44l.83,0,.07-.08.31.25s0,0,0,.07,0,.05-.12.07a3.61,3.61,0,0,1-.68,1,5.29,5.29,0,0,1,1.28,1.22l-.34.28a5.35,5.35,0,0,0-1.19-1.23,5.68,5.68,0,0,1-1.87,1.23,1,1,0,0,0-.23-.34,5,5,0,0,0,1.9-1.23,3.88,3.88,0,0,0,.66-.85Z"/><path class="cls-8" d="M74.16,121.55V122a2.61,2.61,0,0,1-.5,1.91,1.44,1.44,0,0,0-.27-.28A2.29,2.29,0,0,0,73.8,122v-.75h2.09a1.22,1.22,0,0,1,0-.27v-.26l.4,0c.06,0,.08,0,.08,0s0,.06-.09.09,0,.23,0,.34h.55a3.28,3.28,0,0,0-.34-.31l.2-.2a2.5,2.5,0,0,1,.47.39l-.13.12h.83v.34H76.31a2.26,2.26,0,0,0,.29.91,3.72,3.72,0,0,0,.37-.78l.32.15a.09.09,0,0,1,.08.08s0,0-.13,0a3.69,3.69,0,0,1-.43.78,1.27,1.27,0,0,0,.64.42s.07,0,.1-.19a2.42,2.42,0,0,1,0-.42,1.87,1.87,0,0,0,.32.15,1.69,1.69,0,0,1-.15.7.28.28,0,0,1-.24.16,1.49,1.49,0,0,1-1-.56,4.26,4.26,0,0,1-.85.61.79.79,0,0,0-.21-.27,3.32,3.32,0,0,0,.85-.59,2.26,2.26,0,0,1-.42-1.2Zm.21,2.3a0,0,0,0,1,0,.05s0,0-.08.06a1.85,1.85,0,0,1-.5.84,1,1,0,0,0-.26-.25,1.45,1.45,0,0,0,.47-.83Zm1.39-1.76H74.3v-.3h1.46Zm-1,1v.15h-.33v-1h1.29v.91H75.4v-.09Zm.29.57a.08.08,0,0,1,.07,0s0,.06-.09.08a.67.67,0,0,0,0,.2v.28a.15.15,0,0,0,0,.13,1.67,1.67,0,0,0,.59,0h.48c.21,0,.37,0,.4-.09a1,1,0,0,0,.07-.41,2.29,2.29,0,0,0,.37.12.73.73,0,0,1-.19.6c-.11.1-.31.1-1.09.1s-1,0-1-.36V124a1.48,1.48,0,0,0,0-.42Zm.35-1.12h-.64v.29h.64Zm.13,1a2.39,2.39,0,0,1,.6.5l-.27.25a2.17,2.17,0,0,0-.55-.54Zm2,1.2a3,3,0,0,0-.63-.87l.26-.2a3.26,3.26,0,0,1,.51.54l.2.3Z"/><path class="cls-8" d="M81.75,123.27h.94v.34H80.92a2.93,2.93,0,0,0,.82.52,4.89,4.89,0,0,0,1,.33,1.11,1.11,0,0,0-.18.34,4.33,4.33,0,0,1-1.39-.61,2.38,2.38,0,0,1-.49-.4v1.14H80.3v-1.19a4.91,4.91,0,0,1-1.91,1.08,1.17,1.17,0,0,0-.17-.31,4.91,4.91,0,0,0,1.11-.46,3.65,3.65,0,0,0,.69-.47H78.31v-.34h2a4.51,4.51,0,0,0,0-.52h.47s0,0-.09.09v.36Zm-3.16-2a2.59,2.59,0,0,1,.5.44l-.26.24a4.09,4.09,0,0,0-.46-.47Zm1.12.51a5.1,5.1,0,0,1-.57.83,3,3,0,0,1-.31.39h0v.06h-.07l-.26-.25a5.13,5.13,0,0,0,1-1.22ZM79,120.71a2.38,2.38,0,0,1,.51.44l-.26.24a2.27,2.27,0,0,0-.47-.46Zm2.6.49.24.19s.06.06.06.09,0,0-.08.06h0v.8c0,.13,0,.15.21.15s.23,0,.26,0a1.51,1.51,0,0,0,0-.52l.34.1a4.69,4.69,0,0,1,0,.53c0,.21-.17.26-.6.26s-.57-.06-.57-.35v-.89h-.6a2.72,2.72,0,0,1-.18.55,1.76,1.76,0,0,1-1.23.89.92.92,0,0,0-.16-.31,1.46,1.46,0,0,0,1.09-.77,1.42,1.42,0,0,0,.11-.35h-.7v-.33h.76v-.64l.37,0c.07,0,.1,0,.1.07s0,0-.1.08,0,.3,0,.43h.65Z"/><path class="cls-8" d="M85.48,121v-.23h.46s0,.05-.1.08v.33h1.72v.36H84.25v1a3.67,3.67,0,0,1-.2,1.39,2.62,2.62,0,0,1-.6,1,1,1,0,0,0-.23-.28,2.48,2.48,0,0,0,.64-1.41l-.09.05-.34.21a.09.09,0,0,1-.08.09s0,0-.07-.06l-.15-.31a5.33,5.33,0,0,0,.76-.37V121.2h1.59Zm-2,1.62a2.69,2.69,0,0,0-.34-.65l.27-.18a2.12,2.12,0,0,1,.4.66Zm1.34.9c0-.27,0-.53,0-.8h.48s0,0-.09.09c0,.21,0,.43,0,.64v.9h.61v-2.11H84.45v-.35h3v.35H86.2V123h1.1v.35H86.2v1h1.43v.37H84v-.34h.85Z"/><path class="cls-8" d="M88.88,121.49a4.29,4.29,0,0,1-.66.62.75.75,0,0,0-.21-.26,3.52,3.52,0,0,0,.65-.63,3.46,3.46,0,0,0,.32-.52l.34.12s.07.05.07.07,0,0-.13.06l-.15.23h1.15v.31h-.78a2.55,2.55,0,0,1,.26.38l-.32.18a2.84,2.84,0,0,0-.33-.56Zm1.22.74V122a1,1,0,0,0-.21-.19,2.82,2.82,0,0,0,.93-1.12l.34.12s.07,0,.07.07,0,0-.13.07l-.15.23H92.4v.31h-1l.27.42-.32.17a2.7,2.7,0,0,0-.35-.59h-.3a3.18,3.18,0,0,1-.41.41h.19c.06,0,.09,0,.09,0s0,0-.1.09v.18H92v.35H90.48v.3h2v.35H88.14v-.35h1.94v-.3H88.54v-.35H90.1ZM91.32,124v.51c0,.34-.17.43-.82.43a1.24,1.24,0,0,0-.09-.39h.33c.18,0,.2,0,.2-.18v-.47h-2.7v-.35h2.7v-.34h.42s.07,0,.07,0,0,0-.08.08a.54.54,0,0,0,0,.18h1v.35h-1Zm-2,0a3.22,3.22,0,0,1,.68.48l-.25.27a3,3,0,0,0-.62-.51Z"/><path class="cls-8" d="M95.22,121.84a.06.06,0,0,1,.06.06c0,.06,0,0-.07.07a5.84,5.84,0,0,1-.4,1.29c-.28.65-.57.91-.94.91s-.73-.43-.73-1a1.91,1.91,0,0,1,2-1.76c1,0,1.83.5,1.83,1.49,0,.83-.59,1.32-1.67,1.62a.84.84,0,0,0-.21-.35c1-.23,1.46-.64,1.46-1.27a1.34,1.34,0,0,0-1.42-1.17H95Zm-1.69,1.38c0,.36.13.6.34.6s.36-.16.53-.56a5.38,5.38,0,0,0,.42-1.47A1.52,1.52,0,0,0,93.53,123.22Z"/><path class="cls-8" d="M98.39,121.55V122a2.56,2.56,0,0,1-.51,1.91,1.16,1.16,0,0,0-.26-.28A2.34,2.34,0,0,0,98,122v-.35a2.67,2.67,0,0,0,0-.4h2.09v-.53l.41,0s.08,0,.08,0,0,.06-.1.09,0,.23,0,.34h.55a2,2,0,0,0-.34-.31l.21-.2a2.5,2.5,0,0,1,.47.39l-.14.12h.84v.34h-1.62a2.26,2.26,0,0,0,.29.91,3.72,3.72,0,0,0,.37-.78l.32.15s.07.05.07.08,0,0-.12,0a3.69,3.69,0,0,1-.43.78,1.24,1.24,0,0,0,.63.42s.08,0,.11-.19a2.42,2.42,0,0,1,0-.42,1.87,1.87,0,0,0,.32.15,1.69,1.69,0,0,1-.15.7.31.31,0,0,1-.24.16,1.54,1.54,0,0,1-1-.56,5,5,0,0,1-.84.61.73.73,0,0,0-.22-.27,3.32,3.32,0,0,0,.85-.59,2.48,2.48,0,0,1-.42-1.2Zm.21,2.3a0,0,0,0,1,.05.05s0,0-.08.06a1.85,1.85,0,0,1-.5.84,1.23,1.23,0,0,0-.26-.25,1.51,1.51,0,0,0,.47-.83Zm1.38-1.76H98.53v-.3H100Zm-1,1v.15h-.33v-1h1.29v.91h-.33v-.09Zm.28.57s.08,0,.08,0,0,.06-.1.08,0,.12,0,.2v.28a.29.29,0,0,0,0,.13,1.67,1.67,0,0,0,.59,0h.48c.21,0,.37,0,.41-.09s0-.09.06-.41l.38.12c0,.35-.08.5-.2.6s-.31.1-1.09.1-1,0-1-.36V124a2.94,2.94,0,0,0,0-.42Zm.35-1.12H99v.29h.63Zm.13,1a2.43,2.43,0,0,1,.61.5l-.27.25a2.41,2.41,0,0,0-.6-.55Zm2.06,1.2a3,3,0,0,0-.63-.87l.25-.2a3.26,3.26,0,0,1,.51.54l.21.3Z"/><path class="cls-8" d="M106,123.27h1v.34h-1.77a2.88,2.88,0,0,0,.81.52,4.35,4.35,0,0,0,1,.33.88.88,0,0,0-.19.34,4.38,4.38,0,0,1-1.38-.61,2.74,2.74,0,0,1-.5-.4v1.14h-.37v-1.19a4.91,4.91,0,0,1-1.91,1.08,1.14,1.14,0,0,0-.16-.31,4.91,4.91,0,0,0,1.11-.46,5.25,5.25,0,0,0,.69-.47h-1.72v-.34h2v-.52H105s0,0-.09.09a2.16,2.16,0,0,0,0,.36Zm-3.16-2a2.69,2.69,0,0,1,.51.44l-.26.24a3.48,3.48,0,0,0-.47-.47Zm1.13.51a4.75,4.75,0,0,1-.58.83l-.3.39h0v.06H103l-.27-.25a5.34,5.34,0,0,0,1-1.22Zm-.71-1.07a2.38,2.38,0,0,1,.51.44l-.26.24a2.92,2.92,0,0,0-.47-.46Zm2.6.49.24.19s.06.06.06.09,0,0-.08.06h0v.8c0,.13,0,.15.2.15s.24,0,.26,0a1.32,1.32,0,0,0,0-.52,1.91,1.91,0,0,0,.34.1,2.38,2.38,0,0,1-.05.53c0,.21-.17.26-.59.26s-.57-.06-.57-.35v-.89h-.6a2.72,2.72,0,0,1-.18.55,1.78,1.78,0,0,1-1.23.89,1.05,1.05,0,0,0-.2-.27c.63-.18.9-.38,1.08-.77a2.06,2.06,0,0,0,.12-.35H104v-.33h.76v-.64l.36,0c.07,0,.11,0,.11.07s0,0-.11.08a3.09,3.09,0,0,1,0,.43h.65Z"/><path class="cls-8" d="M35.09,127.09v.06l-.11.09c-.13.36-.27.72-.43,1.07a1.49,1.49,0,0,1,.38.41,1.3,1.3,0,0,1,.14.58.57.57,0,0,1-.26.56,1.14,1.14,0,0,1-.6.1,1.35,1.35,0,0,0-.08-.4h.3c.18,0,.27-.09.27-.29a1.14,1.14,0,0,0-.46-.85l-.09-.07a10.73,10.73,0,0,0,.45-1.11h-.55v3.63h-.4v-4h1l.07-.08Zm2.54,1.53a.09.09,0,0,1,0,.07l-.1.07a3.87,3.87,0,0,1-.3,1.78c-.16.25-.42.33-1.1.33a1.77,1.77,0,0,0-.08-.4h.43c.36,0,.51-.09.59-.38a4.62,4.62,0,0,0,.15-1.28h-.89a2.49,2.49,0,0,1-.52,1.33,3.21,3.21,0,0,1-1,.75,1.21,1.21,0,0,0-.2-.3,2.32,2.32,0,0,0,1.38-2.5v-.28h-.91v-.34h1.1v-.73h.38c.06,0,.09,0,.09.05s0,0-.09.08v.59h1.37v.34H36.36v.69h1l.07-.07Z"/><path class="cls-8" d="M39.28,128.74v-.94h.4c.06,0,.08,0,.08,0s0,.05-.09.09v2.4h.88V126.8H41s.08,0,.08,0,0,.05-.09.08q0,.39,0,.78v.53h1.43v.35H41v1.72h1.88v.43H38.46v-.36h.87Z"/><path class="cls-8" d="M45.54,127.84a.06.06,0,0,1,.06.06c0,.06,0,0-.07.07a5.84,5.84,0,0,1-.4,1.29c-.28.65-.57.91-.94.91s-.73-.43-.73-1a1.91,1.91,0,0,1,2-1.76c1,0,1.83.5,1.83,1.49,0,.83-.59,1.32-1.67,1.62a.84.84,0,0,0-.21-.35c1-.23,1.46-.64,1.46-1.27a1.3,1.3,0,0,0-1.39-1.16h-.12Zm-1.69,1.38c0,.36.13.6.34.6s.36-.16.53-.56a5.38,5.38,0,0,0,.42-1.47A1.52,1.52,0,0,0,43.85,129.22Z"/><path class="cls-8" d="M50.48,127.91a3.91,3.91,0,0,1-.88.22,11,11,0,0,1-1.06,2.52,1,1,0,0,0-.35-.22,8.89,8.89,0,0,0,1-2.25h-.83v-.37h.94a5.45,5.45,0,0,0,.2-.89l.41.09s.07,0,.07,0,0,0-.1.08c-.06.24-.11.4-.17.62a4,4,0,0,0,.66-.18Zm-.13,1.67a.58.58,0,0,0-.17.37c0,.21.21.28.92.28a4.38,4.38,0,0,0,.88-.09,1,1,0,0,0,0,.39,7.26,7.26,0,0,1-.93.06c-.91,0-1.2-.19-1.2-.57a.82.82,0,0,1,.27-.59Zm-.38-1a4.54,4.54,0,0,1,1.51-.23h.26v.39h-.32a4,4,0,0,0-1.34.22Z"/><path class="cls-8" d="M53.66,127.35h0c.06,0,.09,0,.09.05s0,.06-.08.1a4.94,4.94,0,0,0,.14.75,3.08,3.08,0,0,1,1.1-.39,3.63,3.63,0,0,0,.29-.86l.41.12a.06.06,0,0,1,0,.06s0,0-.09.08c-.09.2-.15.36-.25.57h.07a1.24,1.24,0,0,1,1.36,1.1.66.66,0,0,1,0,.14c0,.78-.6,1.28-1.74,1.51a1,1,0,0,0-.17-.37c1-.18,1.49-.53,1.49-1.16s-.38-.89-1-.89h-.12a6.19,6.19,0,0,1-.79,1.3.29.29,0,0,1,.23.34.28.28,0,0,1-.23.23,1.79,1.79,0,0,1-.27-.28,1.14,1.14,0,0,1-.84.46.51.51,0,0,1-.51-.52s0,0,0-.06a1.6,1.6,0,0,1,.69-1.18,6.31,6.31,0,0,1-.2-.86.86.86,0,0,0-.06-.23Zm0,1.43a1.14,1.14,0,0,0-.43.85c0,.17.05.26.17.26a.89.89,0,0,0,.58-.41,2.64,2.64,0,0,1-.35-.74Zm1.18-.58a2.17,2.17,0,0,0-.88.38,2.15,2.15,0,0,0,.28.64,5.11,5.11,0,0,0,.57-1Z"/><path class="cls-8" d="M58.34,130.84a4.84,4.84,0,0,0-.86-1l.29-.26a5.87,5.87,0,0,1,.93,1Z"/><path class="cls-8" d="M62.08,128.61a3.81,3.81,0,0,1,.64.5l-.23.3a5.44,5.44,0,0,0-.41-.42v1.9h-.4v-1.95a4.17,4.17,0,0,1-.52,1.11,2.12,2.12,0,0,0-.21-.36,5,5,0,0,0,.66-1.66h-.55v-.29h.62v-1h.47s0,.05-.09.09v.8h.57V128h-.57Zm2.74.08s.07,0,.07.06,0,0-.11.08a4.84,4.84,0,0,1-.55.93l.16.13a4.47,4.47,0,0,0,1.18.63,1.07,1.07,0,0,0-.25.31A4.84,4.84,0,0,1,64,130l-.12.12a4,4,0,0,1-1.43.76.85.85,0,0,0-.19-.3,3.37,3.37,0,0,0,1.5-.83,4.27,4.27,0,0,1-.56-1l.29-.13a3.54,3.54,0,0,0,.49.92,3.69,3.69,0,0,0,.5-.94Zm-1-.79s.07,0,.07.07,0,.06-.12.06a3.34,3.34,0,0,1-1,.91,1.06,1.06,0,0,0-.22-.29,2.5,2.5,0,0,0,1-.88Zm.06-.53v-.66h.38c.06,0,.08,0,.08.05s0,0-.09.09v.49h1.21v.4H62.73v-.34h1.11Zm1.41,1.5a6.37,6.37,0,0,0-1-.87l.24-.26a5.6,5.6,0,0,1,1,.82Z"/><path class="cls-8" d="M66.87,128.14c-.23.13-.48.25-.77.38a1.27,1.27,0,0,0-.2-.31,6.37,6.37,0,0,0,1.23-.67,3.62,3.62,0,0,0,.89-.9l.37.11c.06,0,.08,0,.08.07s0,0-.1.07a3.82,3.82,0,0,0,1,.74,5.87,5.87,0,0,0,1,.42,1.52,1.52,0,0,0-.22.34,5.7,5.7,0,0,1-1.64-.9,3.88,3.88,0,0,1-.42-.39,3.68,3.68,0,0,1-.39.4,7,7,0,0,1-.82.61H68v-.55h.37c.06,0,.09,0,.09,0s0,0-.09.09v.38h1.12v.35H68.34v.42h1.87v.36H66.08v-.36H68v-.42H66.84Zm.27,2.54v.21h-.36v-1.4h2.8a2.54,2.54,0,0,0,0,.39v.94H69.2v-.14Zm2.06-.87H67.14v.54H69.2Z"/><path class="cls-8" d="M72.88,127.45a6.47,6.47,0,0,0,.05-.76h.37c.06,0,.11,0,.11.07s0,0-.12.08v.57H75v3c0,.23-.07.33-.26.39a2.35,2.35,0,0,1-.59.05,1.37,1.37,0,0,0-.09-.4h.37c.16,0,.19,0,.19-.18v-2.51H73.24a2.07,2.07,0,0,1-.1.43,5.65,5.65,0,0,1,1.36,1.12l-.29.27A5.31,5.31,0,0,0,73,128.47a2.73,2.73,0,0,1-1.21,1.28,1.94,1.94,0,0,0-.21-.29A2.41,2.41,0,0,0,72.79,128a1.67,1.67,0,0,1,.08-.3H71.48v3.12h-.39V127.4H72Z"/><path class="cls-8" d="M79.48,127.57v.07s0,0-.11.06a2,2,0,0,0-1.54.72,1.21,1.21,0,0,0-.3.79c0,.58.46.92,1.7.93a1.14,1.14,0,0,0-.15.4c-1.41-.06-2-.53-2-1.3a1.43,1.43,0,0,1,.61-1.17l.31-.2-.36.1-1.79.38-.1-.42a23.85,23.85,0,0,0,2.37-.38,6.88,6.88,0,0,0,1.09-.25Zm-.42.8a4.08,4.08,0,0,1,.63.54l-.22.19a3.11,3.11,0,0,0-.6-.55Zm.38-.35a4,4,0,0,1,.64.53l-.22.2a2.9,2.9,0,0,0-.61-.55Z"/><path class="cls-8" d="M81.37,127.14s.08,0,.08.06,0,.07-.12.1a6.58,6.58,0,0,0-.22,1.82,3.91,3.91,0,0,0,.22,1.4,1,1,0,0,0-.38.17,4.9,4.9,0,0,1-.22-1.61,10.4,10.4,0,0,1,.18-1.76v-.26Zm2.24-.06s.08,0,.08.06,0,0-.08.09,0,.33,0,.71c.28,0,.57,0,.85-.09v.36c-.32,0-.57.06-.86.08v1.33a3.61,3.61,0,0,1,.91.53,1,1,0,0,0-.24.31,3,3,0,0,0-.68-.48c0,.43-.32.62-.89.62s-.89-.25-.89-.61.32-.56.8-.56a2.32,2.32,0,0,1,.59.07v-1.2H82v-.37h1.2c0-.3,0-.6-.07-.9Zm-.9,2.66c-.3,0-.45.09-.45.25s.18.3.53.3.51-.09.51-.44A1.35,1.35,0,0,0,82.71,129.74Z"/><path class="cls-8" d="M87.6,127.39c-.13.23-.25.47-.39.69h.35s0,0-.09.09c0,.21,0,.43,0,.64v2h-.4v-2.56a5.21,5.21,0,0,1-.66.75,6,6,0,0,1-1.11.84,1.69,1.69,0,0,0-.21-.31,5.56,5.56,0,0,0,1.22-1,4.36,4.36,0,0,0,.85-1.23H85.22v-.36h4.2v.36h-.94Zm.29.82a6.31,6.31,0,0,1,1.61,1.39l-.31.28a6.61,6.61,0,0,0-1.5-1.44Z"/><path class="cls-8" d="M90.48,129.4a3.53,3.53,0,0,1-.24,1.16,1,1,0,0,0-.31-.15,2.78,2.78,0,0,0,.23-1.17h0l.33.07h.05a0,0,0,0,1,0,.05ZM91,130v.92h-.39V129l-.38.05a.07.07,0,0,1-.08.07c-.08,0,0,0-.06-.07l-.11-.33h.28c.11-.15.23-.31.33-.47a3.42,3.42,0,0,0-.61-.47l.17-.25.16.1a4.73,4.73,0,0,0,.37-.79l.33.14a0,0,0,0,1,0,0s0,0-.1.06-.15.28-.28.49a.74.74,0,0,1-.13.21l.22.17a4.37,4.37,0,0,0,.23-.49l.33.16h0s0,0-.09.06a7.2,7.2,0,0,1-.66,1h.46l-.12-.23.26-.13a4.3,4.3,0,0,1,.36.71l-.32.13a.78.78,0,0,0-.08-.23h-.23Zm.32-.79a2.29,2.29,0,0,1,.35.82l-.34.13a2.91,2.91,0,0,0-.26-.82Zm1.62.62v.43a3.57,3.57,0,0,0,.38-.3l.11-.11a4.21,4.21,0,0,1-.12-.71v-.49H91.48v-.34h.4a6.26,6.26,0,0,0-.21-.61l.29-.1a3.26,3.26,0,0,1,.25.61l-.27.1h.45a4.56,4.56,0,0,0,.21-.72l.36.11s.07,0,.07.06,0,.06-.12.08c-.09.21-.13.33-.2.47h.53v-1.34a1,1,0,0,0,0-.24h.4c.06,0,.08,0,.08,0s0,0-.1.09v1.39h.83v.34h-.81a5.9,5.9,0,0,0,.07.81v.07a4.47,4.47,0,0,0,.33-.7l.31.11a.06.06,0,0,1,.06.06c0,.06,0,0-.11.06a3.1,3.1,0,0,1-.48.85c.09.28.21.53.27.53s.08-.09.1-.24a1.27,1.27,0,0,1,0-.34l.28.14c-.09.64-.19.85-.38.85s-.42-.26-.58-.65a3.86,3.86,0,0,1-1.36.78.71.71,0,0,0-.18-.27,5.85,5.85,0,0,0,.88-.41h-.29v-.09h-.54v.26h-.35v-1.22a2.67,2.67,0,0,0,0-.4H93v.4ZM92.12,127v-.29h.35c.06,0,.09,0,.09,0s0,0-.09.09v.37h.62v.32H91.52v-.32h.61Zm.45,2.09H92v.24h.54Zm0,.5H92v.26h.54Zm1.3-2.38a2.68,2.68,0,0,1,.41.64L94,128a1.09,1.09,0,0,1-.08-.15,2.29,2.29,0,0,0-.3-.5Z"/><path class="cls-8" d="M95.78,128.88a5.66,5.66,0,0,1-.77.7,1.27,1.27,0,0,0-.21-.29,5.79,5.79,0,0,0,1.29-1.37l.12-.19H94.93v-.36h1.46a6.66,6.66,0,0,0,.31-.73l.36.11c.06,0,.09,0,.09.08s0,0-.14.07l-.22.47h2.43v.37h-2.6c-.16.26-.33.52-.51.76H97v-.57h.4s.08,0,.08,0,0,0-.09.09v.4h1.31v1.47c0,.36-.17.44-.83.44a1.24,1.24,0,0,0-.09-.38h.32c.19,0,.21,0,.21-.19v-1h-.93v2.09H97v-2.09h-.89V130a3.84,3.84,0,0,0,0,.48h-.4V130Z"/><path class="cls-8" d="M103.41,127.67l.34.26s.06.06.06.08,0,0-.13.08a9.27,9.27,0,0,1-1.47,1.4,3,3,0,0,1,.49.45l-.33.28a5.35,5.35,0,0,0-1.41-1.14l.23-.27a3.68,3.68,0,0,1,.73.45,8.17,8.17,0,0,0,1.21-1.14l-1.83.11-1.28.11,0-.43c.28,0,.73,0,1.3,0l2.06-.1Z"/><path class="cls-8" d="M35.63,134l-1.42.1v-.41h1.43l.83,0,.07-.08.31.25v.07s0,.05-.11.07a3.64,3.64,0,0,1-.69,1,5.16,5.16,0,0,1,1.29,1.22l-.35.28a5,5,0,0,0-1.19-1.23,5.68,5.68,0,0,1-1.87,1.23.89.89,0,0,0-.23-.34,5.1,5.1,0,0,0,1.91-1.23,3.88,3.88,0,0,0,.66-.85Z"/><path class="cls-8" d="M40.76,133.65l.07-.09.34.25c.07.05.07.05.07.08s0,.05-.12.09a4.12,4.12,0,0,1-1.28,1.9,6.6,6.6,0,0,1-1.14.75.82.82,0,0,0-.26-.32,5.74,5.74,0,0,0,1.25-.82,3.51,3.51,0,0,0,1-1.49H39.55a4.53,4.53,0,0,1-1.06,1.08.69.69,0,0,0-.29-.27A3.87,3.87,0,0,0,39.64,133l.38.14a.06.06,0,0,1,.06.06c0,.06,0,0-.1.07a4.11,4.11,0,0,1-.21.42Z"/><path class="cls-8" d="M44.24,133.84a.06.06,0,0,1,.06.06c0,.06,0,0-.07.07a5.84,5.84,0,0,1-.4,1.29c-.28.65-.56.91-.94.91s-.73-.43-.73-1a1.91,1.91,0,0,1,2-1.76c1,0,1.83.5,1.83,1.49,0,.83-.58,1.32-1.67,1.62a.84.84,0,0,0-.21-.35c1-.23,1.46-.64,1.46-1.27a1.34,1.34,0,0,0-1.42-1.17H44Zm-1.69,1.38c0,.36.13.6.34.6s.36-.16.53-.56a5.38,5.38,0,0,0,.42-1.47,1.52,1.52,0,0,0-1.29,1.43Z"/><path class="cls-8" d="M48.26,134.68l-.12.25h2.24v1.94H50v-.13H48.29v.15H47.9v-1.57a3.15,3.15,0,0,1-.22.29,4.13,4.13,0,0,1-.9.77,1.17,1.17,0,0,0-.19-.3,3.36,3.36,0,0,0,1.27-1.4H46.69v-.35h2v-.24H47.1v-.33h1.6v-.23H46.8v-.34h1.36a3.43,3.43,0,0,0-.32-.43l.26-.17a2.14,2.14,0,0,1,.41.49l-.19.11h.91a4.75,4.75,0,0,0,.31-.59l.37.14v0s0,.05-.13.06-.15.24-.22.34H50.9v.34H49v.23h1.59v.33H49v.24h2v.41h-.94Zm1.74.55H48.29v.21H50Zm0,.5H48.29v.2H50Zm0,.49H48.29v.21H50Z"/><path class="cls-8" d="M53.93,135.8v.93h-.39v-1.34H52.38a3.89,3.89,0,0,1-.09.47,2.38,2.38,0,0,1-.65,1,.86.86,0,0,0-.23-.3,2.69,2.69,0,0,0,.39-.5,3,3,0,0,0,.26-1.35V133h3.43v3.47c0,.35-.17.43-.86.43h0a1.24,1.24,0,0,0-.09-.39H55c.15,0,.18,0,.18-.19v-.92H54Zm-.36-1.47H52.48v.75h1.13Zm0-1H52.48V134h1.11Zm1.56.68v-.68h-1.2V134Zm0,1.06v-.73h-1.2v.73Z"/><path class="cls-8" d="M58.12,132.94a0,0,0,0,1,.05.05l-.09.07c-.09.07-.14.35-.24.58a5.1,5.1,0,0,0,.94-.21l.11.3a5.45,5.45,0,0,1-1.2.25c-.07.12-.12.23-.18.33l-.17.22.25-.14a.78.78,0,0,1,.37-.09.52.52,0,0,1,.56.48v.08a9.22,9.22,0,0,0,1.19-.66l.26.26a.09.09,0,0,1,0,.07h-.14L59,135l-.48.25V136h-.38v-.65c-.43.22-.62.41-.62.63s.15.32.8.32a6.85,6.85,0,0,0,1.28-.12,1.21,1.21,0,0,0,0,.38,9.67,9.67,0,0,1-1.2.08,1.82,1.82,0,0,1-1-.17.53.53,0,0,1-.23-.46.86.86,0,0,1,.44-.7,4.08,4.08,0,0,1,.57-.34v-.07c0-.26-.08-.35-.27-.35a1,1,0,0,0-.67.35,2.33,2.33,0,0,0-.37.46l-.33-.21c.12-.14.24-.29.35-.44a5.84,5.84,0,0,0,.45-.76H56.5v-.35h1c.08-.18.16-.38.22-.55a1.34,1.34,0,0,0,.07-.27Z"/><path class="cls-8" d="M62.27,133q.09,0,.09.06c0,.06,0,.06-.08.11v.64a3.64,3.64,0,0,0,.71-.22l.16.31a4.31,4.31,0,0,1-.87.24v.8a3.07,3.07,0,0,1,1.2-.21.87.87,0,0,1,1,.73s0,.07,0,.11c0,.52-.42.87-1.08.87a1.62,1.62,0,0,1-.54-.1c0-.12,0-.23.07-.35a1.45,1.45,0,0,0,.51.1c.39,0,.65-.2.65-.5a.59.59,0,0,0-.65-.53,2.74,2.74,0,0,0-1.06.24v.43a2.18,2.18,0,0,1-.06.72.33.33,0,0,1-.33.19,1.4,1.4,0,0,1-.68-.27c-.21-.15-.31-.27-.31-.4s.34-.53,1-.86v-.89h-.8v-.35H62V133Zm-1,2.93c0,.09.37.32.53.32s.1,0,.11-.16,0-.24,0-.66c-.35.21-.61.41-.61.5Zm3.32-1.21a.92.92,0,0,0-.88-.48h-.09v-.34a2.65,2.65,0,0,1,.56.05,1.26,1.26,0,0,1,.71.51Z"/><path class="cls-8" d="M66.56,133.65c0-.13.07-.26.1-.39h-.72V134c0,1.56-.09,2-.48,2.57a1.35,1.35,0,0,0-.19-.33,4.52,4.52,0,0,0,.3-2.27v-1.09h2v.35H67l-.14.39h.64a2.67,2.67,0,0,0,0,.4v1.21h-.32v-.08H67v1.2a.32.32,0,0,1-.14.31,1.15,1.15,0,0,1-.55.1,1.24,1.24,0,0,0-.09-.38h.28c.13,0,.16,0,.16-.18v-1.06h-.16v.14h-.33v-1.27a2.67,2.67,0,0,0,0-.4h.41Zm-.08,1.9a.06.06,0,0,1,.06.06c0,.06,0,0-.1.06a2.81,2.81,0,0,1-.47.91,1.44,1.44,0,0,0-.25-.18,2.87,2.87,0,0,0,.47-1Zm.74-1.29v-.32h-.74v.32Zm0,.64v-.36h-.74v.36Zm.08.53a2.24,2.24,0,0,1,.48.66l-.29.18a3.62,3.62,0,0,0-.41-.68Zm1.35.73a.05.05,0,0,1,0,.06c0,.06,0,0-.12,0a3.47,3.47,0,0,1-1.24.63,1.51,1.51,0,0,0-.15-.28A3.08,3.08,0,0,0,68.4,136Zm-.2-2.49a2.8,2.8,0,0,0,.13-.41h-.86v-.33h2.07v.33H69a3,3,0,0,1-.18.41h.78V136h-.36v-.13h-1V136h-.36v-2.37h.6Zm.76.65V134h-1v.34Zm-1,.28V135h1v-.35Zm0,.64v.37h1v-.37ZM69,136a5,5,0,0,0,.78.59,1.78,1.78,0,0,0-.22.26,3.85,3.85,0,0,1-.79-.66Z"/><path class="cls-8" d="M71,133.56c.06,0,.1,0,.1.08s0,.06-.11.08a4,4,0,0,0,0,.69,2.8,2.8,0,0,0,.14,1.07c.11.28.27.45.41.45s.17-.12.29-.67c.11.08.23.15.35.22-.18.68-.33.88-.62.88a.84.84,0,0,1-.69-.5,2.48,2.48,0,0,1-.29-1.28v-1.07Zm2.19.23a3.46,3.46,0,0,1,1.06,1.62l-.41.18a3.29,3.29,0,0,0-.93-1.56Z"/><path class="cls-8" d="M75.63,133.56c.06,0,.11,0,.11.08s0,.06-.12.08a4,4,0,0,0,0,.69,2.78,2.78,0,0,0,.15,1.07c.11.28.27.45.41.45s.16-.12.29-.67a2.56,2.56,0,0,0,.35.22c-.18.68-.33.88-.62.88a.83.83,0,0,1-.69-.5,2.38,2.38,0,0,1-.3-1.28v-1.07Zm2.2.23a3.61,3.61,0,0,1,1.06,1.62l-.42.18a3.19,3.19,0,0,0-.92-1.56Z"/><path class="cls-8" d="M82,133.91a3.91,3.91,0,0,1-.88.22A11.61,11.61,0,0,1,80,136.65a1,1,0,0,0-.35-.22,9.26,9.26,0,0,0,1-2.25h-.83v-.37h.94a8.82,8.82,0,0,0,.2-.89l.41.09s.06,0,.06.05,0,.05-.09.08c-.06.24-.11.4-.18.62a3.9,3.9,0,0,0,.67-.18Zm-.13,1.67a.58.58,0,0,0-.17.37c0,.21.21.28.91.28a4.38,4.38,0,0,0,.88-.09,1.27,1.27,0,0,0,0,.39,7.26,7.26,0,0,1-.93.06c-.91,0-1.2-.19-1.2-.57a.82.82,0,0,1,.27-.59Zm-.38-1a4.48,4.48,0,0,1,1.5-.23h.27v.39h-.32a3.86,3.86,0,0,0-1.35.22Z"/><path class="cls-8" d="M85.11,133.14s.09,0,.09.07,0,0-.08.09c-.05,1.49-.08,2-.08,2.34s.17.61.54.61a2.1,2.1,0,0,0,1.2-.42,3.42,3.42,0,0,0,.57-.57,1.31,1.31,0,0,0,.25.33,3.19,3.19,0,0,1-.75.67,2.57,2.57,0,0,1-1.3.36,1,1,0,0,1-.69-.21.92.92,0,0,1-.22-.71v-2.06a4.69,4.69,0,0,0,0-.53Z"/><path class="cls-8" d="M91.38,134.67a3.19,3.19,0,0,1-1,.29v.74a5.39,5.39,0,0,1,1.17.6.84.84,0,0,0-.25.31,5.14,5.14,0,0,0-.92-.56c0,.44-.35.66-.9.66s-.86-.23-.86-.59.33-.58.89-.58a2.61,2.61,0,0,1,.48.05V135h-.27c-.59,0-.78-.16-.78-.43a.49.49,0,0,1,.19-.39l.27.16c-.08.08-.1.12-.1.17s.12.17.43.17H90V134h-1.5v-.35H90a4.41,4.41,0,0,0,0-.81h.45s.07,0,.07.05,0,0-.09.09v.61a6.76,6.76,0,0,0,1.08-.18l0,.34a8.56,8.56,0,0,1-1.13.17v.69a2.59,2.59,0,0,0,.89-.29Zm-1.9,1.18c-.33,0-.49.08-.49.25s.17.29.48.29.52-.11.53-.46A1.53,1.53,0,0,0,89.48,135.85Z"/><path class="cls-8" d="M95,132.74c.07,0,.11,0,.11.07s0,.05-.09.1,0,.25,0,.38v.3c.51,0,1,0,1.53-.1v.4H95v.85a2.29,2.29,0,0,1,0,.37,1.83,1.83,0,0,1-.15.73,2,2,0,0,1-1.5.91.8.8,0,0,0-.19-.35c.77-.14,1.26-.4,1.39-.81a.61.61,0,0,1-.37.1.64.64,0,0,1-.66-.62V135a.69.69,0,0,1,.66-.72.64.64,0,0,1,.42.12v-.5c-1,0-1.66.06-2.15.1v-.41h2.19v-.29a5.81,5.81,0,0,0,0-.59Zm-.73,1.87a.41.41,0,0,0,0,.82c.22,0,.36-.16.36-.42a.37.37,0,0,0-.36-.38h0Z"/><path class="cls-8" d="M98.48,136.18a.68.68,0,1,1-1.36.06.67.67,0,0,1,.65-.71h0A.67.67,0,0,1,98.48,136.18Zm-1.09,0a.4.4,0,0,0,.41.39h0a.39.39,0,0,0,.39-.39.38.38,0,0,0-.39-.39h0a.41.41,0,0,0-.46.33v.06Z"/><circle class="cls-6" cx="17.63" cy="129.15" r="8.78"/><rect class="cls-3" x="13.33" y="126.15" width="8.61" height="5.99"/><path class="cls-9" d="M10.89,129a2.43,2.43,0,0,0,2.43,2.43h0v-4.86A2.43,2.43,0,0,0,10.89,129Z"/><path class="cls-9" d="M24.37,129a2.43,2.43,0,0,0-2.43-2.43v4.86A2.43,2.43,0,0,0,24.37,129Z"/><rect class="cls-6" x="14" y="127.33" width="7.27" height="0.44"/><rect class="cls-6" x="14" y="128.92" width="7.27" height="0.44"/><rect class="cls-6" x="14" y="130.52" width="7.27" height="0.44"/><path class="cls-8" d="M35.53,153.2A3.34,3.34,0,0,1,35,154a6.65,6.65,0,0,1-1.33,1.21.73.73,0,0,0-.23-.29,5.3,5.3,0,0,0,1.4-1.27,4,4,0,0,0,.5-.72H33.6v-.36h1.93v-.93h.41s.07,0,.07.05,0,0-.09.08v.77h2v.36H36.11A6.11,6.11,0,0,0,37,154a4.53,4.53,0,0,0,1,.79,1,1,0,0,0-.27.3,4.84,4.84,0,0,1-1-.86,5.77,5.77,0,0,1-.79-1.05v1.36h.9v.34H36v.91h-.48v-.91h-.89v-.34h.89Z"/><path class="cls-8" d="M39.36,153.53a3.13,3.13,0,0,1,.65.5l-.23.3a4.16,4.16,0,0,0-.42-.42v1.9H39v-2a3.76,3.76,0,0,1-.52,1.11,2,2,0,0,0-.21-.35,5.05,5.05,0,0,0,.67-1.67h-.55v-.34H39a8.34,8.34,0,0,0,0-1h.41s.07,0,.07.05,0,0-.09.08,0,.16,0,.8h.57v.34h-.57Zm2.74.08c.06,0,.08,0,.08,0s0,0-.11.08a4.67,4.67,0,0,1-.56.94l.16.13a4,4,0,0,0,1.18.62,1.08,1.08,0,0,0-.24.32,4.6,4.6,0,0,1-1.32-.81l-.13.11a3.93,3.93,0,0,1-1.42.77.79.79,0,0,0-.2-.31,3.35,3.35,0,0,0,1.51-.83,3.33,3.33,0,0,1-.56-1.05l.29-.13a3,3,0,0,0,.49.92,3.63,3.63,0,0,0,.5-.93Zm-1-.8s.07.05.07.07,0,.06-.13.07a3.18,3.18,0,0,1-1,.9.79.79,0,0,0-.23-.28,2.5,2.5,0,0,0,1-.88Zm0-.53v-.65h.46s0,.06-.09.09v.49h1.21v.33H40v-.33h1.1Zm1.42,1.5a6.31,6.31,0,0,0-1-.86l.23-.23a6.12,6.12,0,0,1,1,.83Z"/><path class="cls-8" d="M44.15,153.05a6.18,6.18,0,0,1-.77.39,1.29,1.29,0,0,0-.19-.32,5.38,5.38,0,0,0,1.22-.67,3.62,3.62,0,0,0,.9-.89l.37.11s.08,0,.08.07,0,0-.1.06a3.37,3.37,0,0,0,1,.75,6.77,6.77,0,0,0,1,.41,1.41,1.41,0,0,0-.23.35,5.42,5.42,0,0,1-1.63-.9,4,4,0,0,1-.42-.4,3.78,3.78,0,0,1-.4.4,5.45,5.45,0,0,1-.82.61h1.09v-.54h.46s0,.05-.09.09V153h1.13v.35H45.62v.44h1.86v.36H43.36v-.36h1.89v-.42H44.11Zm.28,2.54v.21h-.37a3.69,3.69,0,0,0,0-.47v-.53a2.67,2.67,0,0,0,0-.4h2.8v1.34h-.38v-.15Zm2-.85h-2v.54h2Z"/><path class="cls-8" d="M51.9,152.49v.07s0,.05-.11.05a2.08,2.08,0,0,0-1.54.72,1.17,1.17,0,0,0-.3.8c0,.57.46.92,1.7.93a1.09,1.09,0,0,0-.15.39c-1.41,0-2-.53-2-1.3a1.46,1.46,0,0,1,.61-1.17l.31-.19-.36.1-1.79.38-.1-.43a17.65,17.65,0,0,0,2.37-.37,8.19,8.19,0,0,0,1.09-.25Zm-.42.79a4.08,4.08,0,0,1,.63.54l-.22.2a2.41,2.41,0,0,0-.6-.55Zm.38-.34a3.61,3.61,0,0,1,.64.53l-.22.2a2.94,2.94,0,0,0-.61-.56Z"/><path class="cls-8" d="M53.78,152.05s.08,0,.08.06,0,.08-.12.1a6.58,6.58,0,0,0-.22,1.82,4.17,4.17,0,0,0,.21,1.4,1.27,1.27,0,0,0-.37.18,4.9,4.9,0,0,1-.23-1.61,10.42,10.42,0,0,1,.19-1.77V152ZM56,152s.08,0,.08.06,0,0-.08.09,0,.32,0,.71c.28,0,.57-.05.85-.09v.35a8.33,8.33,0,0,1-.86.08,9.54,9.54,0,0,0,.05,1.34,3.61,3.61,0,0,1,.91.53,1,1,0,0,0-.24.31,3,3,0,0,0-.68-.48c0,.43-.32.62-.89.62s-.89-.26-.89-.62.32-.56.8-.56a2,2,0,0,1,.59.08v-1.2H54.48v-.38h1.19a6.8,6.8,0,0,0-.06-.9Zm-.9,2.66c-.3,0-.45.09-.45.25s.18.3.53.3.51-.1.51-.45a1.5,1.5,0,0,0-.59-.1Z"/><path class="cls-8" d="M61.78,154.28h0s0,.05-.08.05h-.06c-.34.21-.7.4-1.06.58l.2.11a5,5,0,0,0,1,.37.9.9,0,0,0-.23.32,5,5,0,0,1-1.19-.51,2.47,2.47,0,0,1-.89-.87h-.66v.85c.45-.07.83-.14,1.18-.22v.3c-.38.09-1.28.27-2.06.39a.09.09,0,0,1-.09.09.07.07,0,0,1-.07-.06l-.15-.37a5,5,0,0,0,.8-.09V153a7.35,7.35,0,0,1-.85.51,1.34,1.34,0,0,0-.22-.31,6.61,6.61,0,0,0,1-.57,4.3,4.3,0,0,0,1.07-1.1l.39.11a.1.1,0,0,1,.11.09s0,0-.08.07a3.46,3.46,0,0,0,.94.72,5.83,5.83,0,0,0,1,.41,1.27,1.27,0,0,0-.24.33,5.41,5.41,0,0,1-.78-.34v1a3.38,3.38,0,0,0,0,.45c.19-.13.38-.26.56-.41Zm-1.39-1.36h.41a3.76,3.76,0,0,1-.47-.3,3.19,3.19,0,0,1-.66-.61,4.92,4.92,0,0,1-.8.78l-.16.13h.82v-.51h.38c.06,0,.09,0,.09.05s0,0-.1.08v.35Zm.14.57v-.25H58.89v.25Zm-1.64.56h1.64v-.26H58.89Zm1,.32a2.78,2.78,0,0,0,.43.41,5.54,5.54,0,0,0,.53-.3h-.34v-.11Z"/><path class="cls-8" d="M64.79,153.74H66.2a2.67,2.67,0,0,0,0,.4v.13h.62v.32H66.2v.77h-.37v-.22h-1v.28a.36.36,0,0,1-.28.41,2.44,2.44,0,0,1-.54,0,.85.85,0,0,0-.09-.38h.34c.17,0,.19,0,.19-.18v-.18h-1.7v-.35h1.73v-.26h-2v-.31h2v-.23h-1.7v-.32h1.7v-.24h-.9v.12h-.37a3.69,3.69,0,0,0,0-.47v-.51h1.27v-.21H62.54V152h1.94v-.46h.41s.06,0,.06.05,0,0-.08.08a1.5,1.5,0,0,0,0,.3h1.94v.35H64.87v.21h1.28v1h-.36v-.1h-.92Zm-.36-.82h-.9v.3h.9Zm1.28.3v-.3h-.92v.3Zm.12,1V154h-1v.23Zm0,.55v-.26h-1v.23Z"/><path class="cls-8" d="M68.27,152.05s.08,0,.08.06,0,.08-.12.1A6.54,6.54,0,0,0,68,154a4.18,4.18,0,0,0,.22,1.4,1.88,1.88,0,0,0-.38.18,4.9,4.9,0,0,1-.22-1.61,10.42,10.42,0,0,1,.19-1.77V152Zm2.24-.05s.08,0,.08.06,0,0-.08.09,0,.32,0,.71c.28,0,.57-.05.85-.09v.35a8.33,8.33,0,0,1-.86.08v1.34a3.67,3.67,0,0,1,.92.53,1.07,1.07,0,0,0-.25.31,3,3,0,0,0-.68-.48c0,.43-.31.62-.88.62s-.9-.26-.9-.62.33-.56.81-.56a2,2,0,0,1,.59.08v-1.2h-1.2v-.38h1.2a6.8,6.8,0,0,0-.06-.9Zm-.9,2.66c-.3,0-.45.09-.45.25s.18.3.53.3.5-.1.5-.45A1.45,1.45,0,0,0,69.61,154.66Z"/><path class="cls-8" d="M72.9,154a.68.68,0,0,0-.22.48c0,.33.38.48,1.19.48a5.84,5.84,0,0,0,1.44-.16,1.82,1.82,0,0,0,0,.33v.09a6.45,6.45,0,0,1-1.38.13,2.75,2.75,0,0,1-1.27-.22.65.65,0,0,1-.37-.61,1,1,0,0,1,.31-.7ZM73,152.3a.85.85,0,0,0,.73.24,4.56,4.56,0,0,0,1.16-.15l.1.38a5.35,5.35,0,0,1-1.26.14,1.1,1.1,0,0,1-1-.4Zm2.15-.39a4.08,4.08,0,0,1,.63.54l-.22.19a2.85,2.85,0,0,0-.61-.54Zm.38-.35a4.08,4.08,0,0,1,.63.54l-.21.19a3.53,3.53,0,0,0-.61-.55Z"/><path class="cls-8" d="M77.48,154.9a.85.85,0,0,0,.37.27,2.91,2.91,0,0,0,1.37.21h1.63a1.06,1.06,0,0,0-.09.36H79.17a3.08,3.08,0,0,1-1.44-.26,1.1,1.1,0,0,1-.42-.35c-.13.13-.22.21-.57.51,0,.08,0,.1-.07.1h-.06l-.22-.28a4,4,0,0,0,.73-.51v-1h-.64v-.35h1a2.67,2.67,0,0,0,0,.4Zm-.65-3.12a2.91,2.91,0,0,1,.64.67l-.31.23a3.84,3.84,0,0,0-.59-.68Zm2.11.52h-1V152h1v-.37h.47s0,.05-.09.09v.2h1.16v.33h-1.1v.29h1.39v.34H77.68v-.34H79Zm0,2.1a3.83,3.83,0,0,1-1.13.68,1,1,0,0,0-.2-.29,6.4,6.4,0,0,0,.8-.37,5.09,5.09,0,0,0,.47-.34h-.5v.14H78V153.1h2.2v1l.2-.21.26.2v.05s0,0-.12.07l-.56.41a6.27,6.27,0,0,1,.58.29l-.23.29a5.08,5.08,0,0,0-.59-.35l-.49-.22h0v.65h-.38v-.65Zm.91-1H78.38v.4h1.47Zm-.55.92.41.14.4-.29h-.26v-.08H79.3Z"/><path class="cls-8" d="M83.42,152.74h1.27V153H83.4c0,.18,0,.18.72.18a2,2,0,0,0,.6,0c.06,0,.07-.1.08-.23a1.21,1.21,0,0,0,.32.11c-.05.24-.09.32-.23.38a5.57,5.57,0,0,1-1,0,2.15,2.15,0,0,1-.62,0,.28.28,0,0,1-.17-.3v-.06h-.83v-.27h.85v-.2h-1v1.32a3.2,3.2,0,0,1-.56,1.89,1.16,1.16,0,0,0-.25-.29,3.62,3.62,0,0,0,.48-2.25v-1h1.55v-.71h.38c.06,0,.08,0,.08,0s0,.05-.09.09v.13h1.46v.28H83.71v.15h2V153h-.36v-.36H83.5Zm-.82,2.18V155l-.08.06a1.51,1.51,0,0,1-.43.73.75.75,0,0,0-.26-.21,1.49,1.49,0,0,0,.4-.74Zm.15-.29v.14h-.34v-1.21H85.1a2.67,2.67,0,0,0,0,.4v.36a3.09,3.09,0,0,0,0,.43h-.34v-.12Zm.81-.82h-.81V154h.81Zm0,.4h-.81v.17h.81Zm-.38.6s.07,0,.07.06,0,0-.09.08a.61.61,0,0,0,0,.19v.13c0,.14.06.17.53.17.65,0,.69,0,.74-.1a.92.92,0,0,0,.06-.33,2,2,0,0,0,.34.12,1.61,1.61,0,0,1-.07.37c-.09.21-.28.23-.86.23a5.21,5.21,0,0,1-.79,0c-.25,0-.3-.11-.3-.38v-.12a1.55,1.55,0,0,0,0-.43Zm.44-.15a2.18,2.18,0,0,1,.54.42l-.25.24a1.91,1.91,0,0,0-.49-.45Zm1.14-.68v-.17h-.9V154Zm0,.4v-.17h-.9v.17Zm.61,1.29-.1-.15a2.72,2.72,0,0,0-.42-.53l.24-.18a2.33,2.33,0,0,1,.41.42l.17.24Z"/><path class="cls-8" d="M88.27,155.74A10.69,10.69,0,0,0,86.82,154a.44.44,0,0,1-.17-.31c0-.08,0-.17.18-.29.35-.32.68-.65,1-1a3.83,3.83,0,0,0,.33-.46l.39.23a.08.08,0,0,1,0,.07s0,.05-.13.07c-.43.46-.89.9-1.36,1.32,0,0-.07.08-.07.11s0,.06.08.12a15.82,15.82,0,0,1,1.5,1.67Z"/><path class="cls-8" d="M92.15,152.82a3.36,3.36,0,0,1-.88.23,10.87,10.87,0,0,1-1.06,2.51,1.2,1.2,0,0,0-.34-.21,9.5,9.5,0,0,0,1-2.26H90v-.35H91a8.79,8.79,0,0,0,.19-.89l.41.1a.08.08,0,0,1,.07.05s0,.05-.09.08c-.07.23-.11.4-.18.62q.33-.07.66-.18ZM92,154.49c-.14.19-.17.27-.17.38s.21.28.91.28a4.4,4.4,0,0,0,.88-.1,1.07,1.07,0,0,0-.05.4,7.11,7.11,0,0,1-.92.06c-.91,0-1.2-.2-1.2-.58a.86.86,0,0,1,.27-.59Zm-.38-1a4.25,4.25,0,0,1,1.5-.24h.26v.36h-.33a4.32,4.32,0,0,0-1.34.21Zm1-1.45a4.74,4.74,0,0,1,.67.51l-.21.21a2.66,2.66,0,0,0-.64-.52Zm.36-.37a4,4,0,0,1,.67.5l-.2.22a3,3,0,0,0-.65-.53Z"/><path class="cls-8" d="M96.21,151.74s.07,0,.07.06,0,0,0,.08a4.16,4.16,0,0,0,.28.74,3.92,3.92,0,0,0,.88-.28l.18.33c-.3.11-.6.2-.9.28a3.8,3.8,0,0,0,.76,1.1l-.28.27a2,2,0,0,0-1-.28c-.5,0-.77.17-.77.47s.29.58,1.21.58h.67a.68.68,0,0,0-.13.39h-.65c-1.11,0-1.54-.42-1.54-.92s.43-.81,1.14-.81a2.38,2.38,0,0,1,.53.05l.21.09-.14-.18a4.4,4.4,0,0,1-.39-.66c-.5.08-1,.15-1.52.19l-.07-.37a11.72,11.72,0,0,0,1.44-.15,5,5,0,0,1-.3-.72.24.24,0,0,0-.08-.22Z"/><path class="cls-8" d="M99.15,152.48c.06,0,.1,0,.1.07s0,.06-.11.09a4,4,0,0,0,0,.69,2.4,2.4,0,0,0,.15,1.06c.11.29.27.46.4.46s.17-.13.3-.67l.34.22c-.17.68-.32.87-.62.87a.85.85,0,0,1-.69-.49,2.48,2.48,0,0,1-.29-1.28v-1.08Zm2.19.23a3.38,3.38,0,0,1,1.06,1.61l-.41.18a3,3,0,0,0-.93-1.55Z"/><path class="cls-8" d="M104.48,155.09a.68.68,0,1,1-.68-.68A.69.69,0,0,1,104.48,155.09Zm-1.09,0a.4.4,0,0,0,.41.39h0a.4.4,0,0,0,.45-.32.39.39,0,0,0-.33-.45.24.24,0,0,0-.12,0,.4.4,0,0,0-.46.31v.07Z"/><path class="cls-8" d="M36.69,159.59a3.58,3.58,0,0,1-1,.29v.73a5.14,5.14,0,0,1,1.16.61,1.07,1.07,0,0,0-.25.31,3.72,3.72,0,0,0-.91-.56c0,.44-.35.65-.9.65s-.86-.23-.86-.58.33-.59.88-.59a2.05,2.05,0,0,1,.49.06v-.59H35c-.59,0-.77-.15-.77-.43a.47.47,0,0,1,.19-.38l.27.15c-.08.08-.1.12-.1.18s.12.16.42.16h.25v-.72H33.76v-.35h1.53a4.25,4.25,0,0,0,0-.8h.53s0,.05-.09.09v.61a6.46,6.46,0,0,0,1.07-.18l0,.34c-.37.07-.75.13-1.12.17v.69a2.33,2.33,0,0,0,.89-.29Zm-1.86,1.15c-.33,0-.49.09-.49.26s.17.28.48.28.52-.1.53-.46A1.53,1.53,0,0,0,34.83,160.74Z"/><path class="cls-8" d="M40.1,158.82a3.36,3.36,0,0,1-.88.23,10.87,10.87,0,0,1-1.06,2.51,1.2,1.2,0,0,0-.34-.21,9.32,9.32,0,0,0,1-2.26H38v-.35h.94a8.79,8.79,0,0,0,.19-.89l.41.1a.08.08,0,0,1,.07.05s0,.05-.1.08c-.06.23-.1.4-.17.62q.33-.07.66-.18ZM40,160.49c-.14.19-.17.27-.17.38s.21.28.91.28a4.4,4.4,0,0,0,.88-.1,1.07,1.07,0,0,0-.05.4,7.11,7.11,0,0,1-.92.06c-.91,0-1.21-.2-1.21-.58a.86.86,0,0,1,.27-.59Zm-.39-1a4.27,4.27,0,0,1,1.51-.24h.26v.36H41a4.32,4.32,0,0,0-1.34.21Z"/><path class="cls-8" d="M43.24,161.74a4.84,4.84,0,0,0-.86-1l.29-.27a6.8,6.8,0,0,1,.93,1Z"/><path class="cls-8" d="M48.8,159H46.28v-.37h2.94V161H48.8v-.21H46.25v-.38H48.8Zm.27-1a3.25,3.25,0,0,1,.67.5l-.21.21a2.66,2.66,0,0,0-.64-.52Zm.37-.37a4.67,4.67,0,0,1,.67.5l-.21.21a2.92,2.92,0,0,0-.64-.52Z"/><path class="cls-8" d="M51,160.29a6.13,6.13,0,0,1,1.94,1.06l-.29.35a5.41,5.41,0,0,0-1.86-1.07Zm.12-1.36a5,5,0,0,1,1.46.84l-.29.32a4.18,4.18,0,0,0-1.36-.84Zm.42-1.12a5.37,5.37,0,0,1,1.54.84l-.29.32a4.54,4.54,0,0,0-1.44-.84Z"/><path class="cls-8" d="M54.85,158.05s.08,0,.08.06,0,.08-.13.1a7,7,0,0,0-.22,1.82,3.91,3.91,0,0,0,.22,1.4,1.33,1.33,0,0,0-.38.18A4.9,4.9,0,0,1,54.2,160a10.52,10.52,0,0,1,.18-1.77V158Zm2.24-.05s.07,0,.07.06,0,0-.07.09,0,.32,0,.71c.28,0,.57-.05.85-.09v.35a8.14,8.14,0,0,1-.85.08v1.34a3.67,3.67,0,0,1,.92.53.84.84,0,0,0-.25.31,3,3,0,0,0-.68-.48c0,.43-.31.62-.88.62s-.9-.26-.9-.62.32-.56.81-.56a2.33,2.33,0,0,1,.59.08v-1.2H55.51v-.38h1.2a5.46,5.46,0,0,0-.07-.9Zm-.91,2.66c-.29,0-.45.09-.45.25s.18.3.54.3.5-.1.5-.45A1.5,1.5,0,0,0,56.18,160.66Z"/><path class="cls-8" d="M60.19,157.92s.09,0,.09.07,0,.06-.08.1v.65a3.55,3.55,0,0,0,.7-.22l.17.31a3.33,3.33,0,0,1-.87.25v.79a3.17,3.17,0,0,1,1.14-.22.87.87,0,0,1,1,.73s0,.07,0,.1c0,.53-.42.87-1.07.87a1.4,1.4,0,0,1-.54-.1,1.86,1.86,0,0,1,.07-.34,1.44,1.44,0,0,0,.51.09c.39,0,.64-.19.64-.5s-.27-.53-.65-.53a2.75,2.75,0,0,0-1.06.25v.42a2.2,2.2,0,0,1-.06.72.31.31,0,0,1-.32.19,1.41,1.41,0,0,1-.68-.28c-.21-.14-.32-.27-.32-.39s.35-.54,1-.87v-.89h-.8v-.38h.81v-.87Zm-1,2.94c0,.09.37.32.53.32s.1-.05.1-.16v-.67c-.34.21-.6.39-.6.51Zm3.31-1.22a.89.89,0,0,0-.87-.47h-.1v-.34a1.75,1.75,0,0,1,.56,0,1.15,1.15,0,0,1,.71.51Z"/><path class="cls-8" d="M64.31,160.19v1.12c0,.27-.07.38-.28.44a2.38,2.38,0,0,1-.53.05v-.18a.57.57,0,0,0-.07-.22h.35c.18,0,.2,0,.2-.19v-1.05l-.41.15v.05s0,0-.07,0,0,0-.06,0l-.18-.34c.24-.07.49-.14.74-.23v-.85h-.66v-.34H64v-1h.41s.07,0,.07.05,0,0-.09.09v.8h.55v.34h-.55v.72a5.69,5.69,0,0,0,.56-.26l.08.31-.64.3ZM66,158.54H65v-.35h1v-.59h.46s0,.05-.09.1v.42h1.15v.35H66.36v.5h1.37v.35h-3V159H66Zm-.52,1.72h-.66v-.35h1.85a2.17,2.17,0,0,0,0-.51h.49s0,0-.09.09,0,.08,0,.34h.7v.35h-.66v1.1c0,.33-.18.43-.82.43a1.37,1.37,0,0,0-.09-.4h.33c.18,0,.2,0,.2-.18v-1Zm0,.1a2.6,2.6,0,0,1,.68.6l-.28.25a3,3,0,0,0-.62-.62Z"/><path class="cls-8" d="M69,160.45a6.11,6.11,0,0,0,.35-1.4H69a4,4,0,0,1-.69-.06v-.35a3.51,3.51,0,0,0,.72.07h.26a5.59,5.59,0,0,0,.08-.91l.43.06s.07,0,.08.06h0l-.11.09-.09.65a3.53,3.53,0,0,0,.94-.29l.16.31a4,4,0,0,1-1.16.34l-.15.72-.07.26.24-.18a1.94,1.94,0,0,1,1.07-.32c.59,0,1,.31,1,.8,0,.69-.7,1.19-2.24,1.39a1,1,0,0,0-.16-.36c1.49-.17,2-.59,2-1s-.22-.47-.59-.47a1.67,1.67,0,0,0-1,.4,1.54,1.54,0,0,0-.36.36Z"/><path class="cls-8" d="M73.68,159.41a3.79,3.79,0,0,1-.22,1.53,2,2,0,0,1-.7.84,1,1,0,0,0-.24-.27,1.88,1.88,0,0,0,.59-.69,3.51,3.51,0,0,0,.21-1.4v-1.74h.38s.09,0,.09,0,0,0-.09.08ZM73,158.17h.08l-.09.09V160h-.38V158.1Zm1.15,1.56v.15a1.13,1.13,0,0,0,0,.26h-.38v-.69h3v.72h-.38v-.43h-.93v.38h.93a2.67,2.67,0,0,0,0,.4v.29a.81.81,0,0,0,0,.22v.18c0,.31-.13.38-.71.39,0-.13,0-.26-.08-.38h.24c.16,0,.18,0,.18-.19v-.63h-.56v1.4H75.1v-1.4h-.53v1.18h-.38V160.1h.9v-.36Zm.53-.57h-.47v-.3H76v-.24H74.21v-.31H76v-.23H74.21v-.31h2.2v1.44H76v-.12Z"/><path class="cls-8" d="M78.48,157.83s.07,0,.07.06,0,.05-.1.08a4.12,4.12,0,0,0-.23,1.35v.36h0l.08-.31c.23-.77.56-1.18,1-1.18s.73.44.73,1.26a2.44,2.44,0,0,1-.6,1.79,2.57,2.57,0,0,1-.84.54.93.93,0,0,0-.21-.33,2.21,2.21,0,0,0,.77-.51,2,2,0,0,0,.47-1.46c0-.65-.11-1-.33-1s-.43.24-.63.7a3,3,0,0,0-.29,1.13.67.67,0,0,0,0,.2l-.4.08a4.14,4.14,0,0,1-.15-1.21A5.53,5.53,0,0,1,78,158.1a.89.89,0,0,1,.06-.38Z"/><path class="cls-8" d="M83,161.74A10.21,10.21,0,0,0,81.58,160a.44.44,0,0,1-.17-.31c0-.08,0-.17.19-.29.35-.32.68-.65,1-1a5,5,0,0,0,.34-.46l.38.23a.08.08,0,0,1,.05.07s0,.05-.12.07c-.44.46-.89.9-1.37,1.32,0,0-.07.08-.07.11s0,.06.08.12a13.24,13.24,0,0,1,1.5,1.67Z"/><path class="cls-8" d="M86.92,158.82a3.8,3.8,0,0,1-.88.23A10.87,10.87,0,0,1,85,161.56a1.13,1.13,0,0,0-.35-.21,8.8,8.8,0,0,0,1-2.26H84.8v-.35h.94a5.45,5.45,0,0,0,.2-.89l.41.1a.08.08,0,0,1,.07.05s0,.05-.1.08c-.06.23-.11.4-.17.62q.33-.07.66-.18Zm-.13,1.67c-.13.19-.17.27-.17.38s.21.28.92.28a4.4,4.4,0,0,0,.88-.1,1.07,1.07,0,0,0,0,.4,7.26,7.26,0,0,1-.93.06c-.91,0-1.2-.2-1.2-.58a.86.86,0,0,1,.27-.59Zm-.38-1a4.27,4.27,0,0,1,1.51-.24h.26v.36h-.32a4.32,4.32,0,0,0-1.34.21Zm1-1.45a3.3,3.3,0,0,1,.67.51l-.21.21a2.29,2.29,0,0,0-.64-.52Zm.37-.37a4,4,0,0,1,.66.5l-.2.22a2.7,2.7,0,0,0-.64-.53Z"/><path class="cls-8" d="M91,157.74s.07,0,.07.06,0,0-.06.08a4.16,4.16,0,0,0,.28.74,3.47,3.47,0,0,0,.88-.28l.18.33a7.76,7.76,0,0,1-.9.28,3.83,3.83,0,0,0,.77,1.1l-.29.27a2,2,0,0,0-1-.28c-.5,0-.78.17-.78.47s.3.58,1.22.58H92a.79.79,0,0,0-.13.39h-.6c-1.12,0-1.55-.42-1.55-.92s.43-.81,1.15-.81a1.84,1.84,0,0,1,.52.05l.21.09-.13-.15c-.12-.18-.21-.35-.38-.66-.5.08-1,.15-1.53.19l-.07-.37a11.72,11.72,0,0,0,1.44-.15,6.37,6.37,0,0,1-.29-.72l-.08-.22Z"/><path class="cls-8" d="M93.91,158.48c.06,0,.11,0,.11.07s0,.06-.12.09a4,4,0,0,0,0,.69,2.72,2.72,0,0,0,.14,1.06c.11.29.27.46.41.46s.16-.13.29-.67l.35.22c-.18.68-.33.87-.62.87a.85.85,0,0,1-.69-.49,2.38,2.38,0,0,1-.3-1.28v-1.08Zm2.2.23a3.38,3.38,0,0,1,1.06,1.61l-.41.18a3.21,3.21,0,0,0-.93-1.55Z"/><path class="cls-8" d="M99.19,161.09a.67.67,0,0,1-.67.65h0a.66.66,0,0,1-.73-.57.65.65,0,0,1,.57-.72h.16A.66.66,0,0,1,99.19,161.09Zm-1.08,0a.4.4,0,0,0,.47.34.43.43,0,0,0,.34-.34.41.41,0,0,0-.47-.34A.4.4,0,0,0,98.11,161.09Z"/><path class="cls-8" d="M167.48,125.74a4.41,4.41,0,0,1,.64.5l-.23.3a3.18,3.18,0,0,0-.41-.41v1.92h-.4v-2a3.88,3.88,0,0,1-.52,1.11,2.12,2.12,0,0,0-.21-.36,5,5,0,0,0,.66-1.66h-.55v-.34h.62v-1h.47l-.08.09c-.08.09,0,.15,0,.8H168v.34h-.56Zm2.74.08c.05,0,.07,0,.07.06s0,0-.11.08a4.84,4.84,0,0,1-.55.93l.16.14a4.75,4.75,0,0,0,1.18.62,1,1,0,0,0-.24.31,4.32,4.32,0,0,1-1.33-.81l-.12.12a4,4,0,0,1-1.43.76.85.85,0,0,0-.19-.3,3.37,3.37,0,0,0,1.5-.83,3.94,3.94,0,0,1-.56-1.05l.29-.13a3.54,3.54,0,0,0,.49.92,3.69,3.69,0,0,0,.5-.94Zm-1-.79s.08,0,.08.07,0,.06-.13.06a3.34,3.34,0,0,1-1,.91.89.89,0,0,0-.22-.29,2.5,2.5,0,0,0,1-.88Zm.06-.53v-.66h.47s0,0-.1.09v.49h1.21v.34h-2.68v-.34h1.11Zm1.41,1.5a6.37,6.37,0,0,0-1-.87l.23-.22a6.51,6.51,0,0,1,1,.82Z"/><path class="cls-8" d="M173.48,124.61c0-.25,0-.51,0-.76h.38c.06,0,.11,0,.11.07s0,0-.12.08v.57h1.71v3c0,.23-.06.33-.26.39a2.35,2.35,0,0,1-.59,0,1.37,1.37,0,0,0-.09-.4,2.29,2.29,0,0,0,.37,0c.17,0,.19,0,.19-.19v-2.53h-1.4a2.09,2.09,0,0,1-.11.43,5.26,5.26,0,0,1,1.37,1.12l-.3.27a5.27,5.27,0,0,0-1.17-1.09,2.66,2.66,0,0,1-1.22,1.28,1,1,0,0,0-.21-.28,2.44,2.44,0,0,0,1.19-1.43.48.48,0,0,1,.07-.3h-1.31V128h-.39v-3.46h.94Z"/><path class="cls-8" d="M177.27,124.3c.06,0,.08,0,.08.06s0,.07-.12.1a6.58,6.58,0,0,0-.22,1.82,3.91,3.91,0,0,0,.22,1.4,1.3,1.3,0,0,0-.38.17,4.9,4.9,0,0,1-.22-1.61,10.4,10.4,0,0,1,.18-1.76v-.26Zm2.25-.06a.07.07,0,0,1,.07.07c0,.07,0,0-.07.09s0,.32,0,.7a2.83,2.83,0,0,0,.86-.09v.36c-.32,0-.57.07-.86.08a9.38,9.38,0,0,0,0,1.33,3.61,3.61,0,0,1,.91.53,1,1,0,0,0-.24.31,2.66,2.66,0,0,0-.68-.47c-.05.42-.31.61-.89.61s-.89-.25-.89-.61.32-.56.8-.56a2.32,2.32,0,0,1,.59.07v-1.2H178v-.37h1.2c0-.3,0-.6-.07-.9Zm-.91,2.66c-.3,0-.45.09-.45.26s.18.29.53.29.51-.09.51-.44A1.35,1.35,0,0,0,178.61,126.9Z"/><path class="cls-8" d="M183,125.8H181.4v-.37H183V124h.49s0,0-.09.08v1.24h1.64v.37h-1.64v1.63h2v.37h-4.37v-.37h2Z"/><path class="cls-8" d="M188,125.59h-.91v.15h-.4v-1.22a2.67,2.67,0,0,0,0-.4h3v1.61h-.39v-.15h-.9v.75h1.56v.35h-1.59v.94h.48a14,14,0,0,0,1.51-.05,1.06,1.06,0,0,0-.09.36H189a2.84,2.84,0,0,1-1.16-.16,1.52,1.52,0,0,1-.8-.78,2.43,2.43,0,0,1-.26.44,2.8,2.8,0,0,1-.61.58,1,1,0,0,0-.23-.27,2.49,2.49,0,0,0,.66-.71,3.43,3.43,0,0,0,.38-1.13l.35.09c.06,0,.09,0,.09.07s0,0-.12.07-.07.31-.11.46a1.39,1.39,0,0,0,.67.8l.17.09Zm1.26-1.13h-2.17v.8h2.17Z"/><path class="cls-8" d="M191.48,126a4.68,4.68,0,0,1-.09.91,3.07,3.07,0,0,1-.41,1,1,1,0,0,0-.24-.31,3.94,3.94,0,0,0,.38-2v-1h2.65a4,4,0,0,0,.5-.84l.38.16a.06.06,0,0,1,0,.06h-.1l-.42.58h1V125h-3.65v.78h.79v-.24h-.61v-.28h1.6v.28h-.68v.24h.89V126h-.4v2h-.35v-.56c-.41.1-.57.13-1.17.25,0,.06-.07.08-.09.08a.08.08,0,0,1-.07,0l-.14-.34.52,0V126Zm.33-2.09a1.78,1.78,0,0,1,.52.57l-.31.2a2.82,2.82,0,0,0-.45-.58Zm.3,2.32h.62V126h-.62Zm0,.25v.26h.62v-.27Zm0,.53v.32l.62-.11V127Zm.79-3.12a1.78,1.78,0,0,1,.52.57l-.3.2a2.35,2.35,0,0,0-.46-.58Zm2,1.85h.28v.31h-.32a6.23,6.23,0,0,1-.15.62,2.69,2.69,0,0,1-.28.53,2.22,2.22,0,0,0,.79.52.65.65,0,0,0-.22.3,3.18,3.18,0,0,1-.79-.57h0a3.32,3.32,0,0,1-.85.59,1.27,1.27,0,0,0-.18-.27,2.64,2.64,0,0,0,.87-.61L194,127a2.19,2.19,0,0,1-.23-.65,4.35,4.35,0,0,1-.38.57.63.63,0,0,0-.23-.23,3.78,3.78,0,0,0,.74-1.66l.33.09c.06,0,.08,0,.08.06s0,0-.1.07-.11.34-.15.44Zm-1,.3a2.77,2.77,0,0,0,.32.87,2.26,2.26,0,0,0,.3-.87Z"/><path class="cls-8" d="M197,124.79l.39.15.29.17-.19.28a1.93,1.93,0,0,0-.49-.31v.8h-.34V125a3.53,3.53,0,0,1-.87.81.82.82,0,0,0-.2-.25,3.43,3.43,0,0,0,.95-.91h-.77v-.3h.89v-.52h.43s0,0-.09.09v.35h.81v.3H197Zm.18,2.37a.06.06,0,0,1,.06.07c0,.07,0,0-.13,0a3.28,3.28,0,0,1-.76.46,5.42,5.42,0,0,1-.56.22,1.11,1.11,0,0,0-.17-.3,3.09,3.09,0,0,0,1.3-.66Zm.91,0v.54c0,.32-.17.41-.82.41a1.24,1.24,0,0,0-.09-.39,1.71,1.71,0,0,0,.32,0c.19,0,.21,0,.21-.19v-.59h-2v-.34h4.37v.34h-2Zm1.33-.82h-3.09V126h3.09Zm-.67-1.91v-.52h.43s0,0-.08.09a2,2,0,0,0,0,.35H200v.3h-.8a2.37,2.37,0,0,0,1,.77.88.88,0,0,0-.25.26,2.7,2.7,0,0,1-.82-.72v.89h-.34V125a3.67,3.67,0,0,1-1.12.79.92.92,0,0,0-.19-.25,4.09,4.09,0,0,0,1-.65l.22-.21H198v-.3h.81Zm0,2.62a5,5,0,0,0,1.34.59,1.29,1.29,0,0,0-.22.3,4.68,4.68,0,0,1-1.34-.67Z"/><path class="cls-8" d="M204.29,124.74v.07s0,0-.12.06a2,2,0,0,0-1.54.72,1.21,1.21,0,0,0-.3.79c0,.58.47.92,1.71.93a1.16,1.16,0,0,0-.16.4c-1.4,0-2-.53-2-1.3a1.4,1.4,0,0,1,.62-1.17l.31-.2-.36.1-1.79.38-.1-.42a16.66,16.66,0,0,0,2.37-.38,5.65,5.65,0,0,0,1.08-.25Zm-.42.8a3.28,3.28,0,0,1,.64.54l-.22.19a3.53,3.53,0,0,0-.61-.55Zm.39-.35a3.54,3.54,0,0,1,.63.53l-.22.2a2.9,2.9,0,0,0-.61-.55Z"/><path class="cls-8" d="M207.87,123.92c.06,0,.11,0,.11.07s0,.05-.09.1,0,.25,0,.38v.3c.51,0,1,0,1.52-.1v.41h-1.52v1.22a2.26,2.26,0,0,1-.15.73,2,2,0,0,1-1.51.91.78.78,0,0,0-.18-.35c.77-.14,1.26-.4,1.38-.81a.51.51,0,0,1-.36.1.64.64,0,0,1-.66-.62v-.07a.67.67,0,0,1,.62-.72h.05a.61.61,0,0,1,.41.13v-.51c-1,0-1.66.06-2.15.1v-.41h2.19v-.29a5.81,5.81,0,0,0,0-.59Zm-.73,1.87a.41.41,0,0,0,0,.82.36.36,0,0,0,.36-.38v0a.38.38,0,0,0-.34-.4Z"/><path class="cls-8" d="M211.31,127.34a.68.68,0,1,1-1.36.08.68.68,0,0,1,.64-.72h0a.65.65,0,0,1,.67.63Zm-1.08,0a.4.4,0,0,0,.47.34.43.43,0,0,0,.34-.34.4.4,0,0,0-.4-.39.4.4,0,0,0-.41.39Z"/><path class="cls-8" d="M216.79,127.15h-1.48v-.35h1.48v-.41h.46s0,0-.09.09v.28h1.47v.35h-1.47v.44h2v.37h-4.37v-.37h2Zm0-3v-.29h.47l-.09.08v.26H219v.54a1.82,1.82,0,0,0,0,.33h-.4v-.4h-3.28v.4h-.4v-.75h1.83Zm0,1.31a.12.12,0,0,1-.06.1c-.17.27-.23.36-.31.47l1.31-.09-.39-.19.17-.24a4.19,4.19,0,0,1,1.24.69l-.25.3-.39-.31-1.5.15-1.13.09h-.06s0,0-.06-.08l-.14-.36h.88a4.71,4.71,0,0,0,.32-.58H215.2v-.36h3.7v.36h-.85Z"/><path class="cls-8" d="M221.67,124.61c0-.25,0-.51,0-.76h.38s.11,0,.11.07,0,0-.12.08v.57h1.71v3c0,.23-.06.33-.26.39a2.35,2.35,0,0,1-.59,0,1.37,1.37,0,0,0-.09-.4,2.29,2.29,0,0,0,.37,0c.17,0,.19,0,.19-.19v-2.53H222a2.09,2.09,0,0,1-.11.43,5.26,5.26,0,0,1,1.37,1.12l-.3.27a5.27,5.27,0,0,0-1.17-1.09,2.66,2.66,0,0,1-1.22,1.28,1,1,0,0,0-.21-.28,2.44,2.44,0,0,0,1.19-1.43,1.63,1.63,0,0,1,.07-.3h-1.31V128h-.39v-3.46h.94Z"/><path class="cls-8" d="M228.38,126.89s.05,0,.05.07-.05.06-.15.07a3.27,3.27,0,0,1-.47.44,4.44,4.44,0,0,0,1.14.23,1.43,1.43,0,0,0-.16.3,2.38,2.38,0,0,0-2.54,0,.81.81,0,0,0-.11-.27,4.7,4.7,0,0,0,1.1-.29c-.12-.1-.23-.21-.34-.32a3.36,3.36,0,0,1-.68.35.68.68,0,0,0-.14-.23,3.05,3.05,0,0,0,1.09-.72H227v.1h-.32v-1a2.09,2.09,0,0,1-.2.22.77.77,0,0,0-.22-.22,2.67,2.67,0,0,0,.56-.77h-1.53v.71a2.44,2.44,0,0,0,.65-.67l.26.13a.08.08,0,0,1,.08.07s0,0-.15.07a4,4,0,0,1-.65.65.88.88,0,0,0-.19-.24,7,7,0,0,1-.09,1.12,3.6,3.6,0,0,0,.82-1l.28.13c.05,0,.08.06.08.08s0,0-.15.07l-.24.36h0c.05,0,.08,0,.08,0s0,0-.09.09V128h-.35v-1.38a4,4,0,0,1-.29.29,1.64,1.64,0,0,0-.19-.25,2.71,2.71,0,0,1-.09.41,3.73,3.73,0,0,1-.4.83,1.15,1.15,0,0,0-.27-.27,2.63,2.63,0,0,0,.39-.93,9.08,9.08,0,0,0,.1-1.28v-1a2.67,2.67,0,0,0,0-.4h3.63V125h-.35v-.09h-1.3l.23.08s.07,0,.07,0,0,0-.12.05l-.05.09h1.73v.28h-1.89l-.12.16h1.78v1.11h-.32v-.09h-.59l-.19.21h.74l.07-.06Zm-.2-2.55h-2.9v.23h2.9Zm-.05,1.45H227v.15h1.14Zm0,.38H227v.15h1.14Zm-1,.85a2.31,2.31,0,0,0,.39.31,2.17,2.17,0,0,0,.37-.31Z"/><path class="cls-8" d="M232.11,124.63a6,6,0,0,1-.82.27,3.33,3.33,0,0,0,.26.58,5.23,5.23,0,0,0,.84-.37l.17.31a6.5,6.5,0,0,1-.86.36,4.25,4.25,0,0,0,.69,1l-.3.25a1.7,1.7,0,0,0-1-.32c-.49,0-.74.17-.74.43s.27.45.93.45h.58a.86.86,0,0,0-.09.39h-.52c-.95,0-1.29-.37-1.29-.77s.41-.78,1.11-.78a1.57,1.57,0,0,1,.48,0l.24.1-.16-.19-.26-.45a3.43,3.43,0,0,1-.84.14c-.28,0-.45-.14-.45-.37a.54.54,0,0,1,.08-.28l.32.09a.29.29,0,0,0,0,.13c0,.06,0,.09.13.09a2.32,2.32,0,0,0,.63-.11c-.09-.19-.17-.37-.25-.58-.29.07-.71.13-1.23.2l-.07-.35a9.58,9.58,0,0,0,1.18-.17,1.17,1.17,0,0,0-.13-.4l-.1-.27h.44a.06.06,0,0,1,.06.06l-.07.09c-.07.09.08.3.14.48a4.07,4.07,0,0,0,.76-.28Z"/><path class="cls-8" d="M234.22,128a5.21,5.21,0,0,0-.87-1l.3-.26a5.52,5.52,0,0,1,.93,1Z"/><path class="cls-8" d="M238.48,125.54h.34v.4h0a5,5,0,0,0,.77-2.07l.37.12a.07.07,0,0,1,.07.07c0,.07,0,0-.12.07a8.46,8.46,0,0,1-.36,1.11h.12c.05,0,.07,0,.07.05s0,0-.08.09a5,5,0,0,0,0,.77v1.92h-.38v-2.33a5,5,0,0,1-.29.5,1,1,0,0,0-.2-.29v.7h-.31v-.14h-.33v.4H239v.31h-.83V128h-.36v-.78H237v-.31h.83v-.4h-.33v.2h-.33v-1.19h.66v-.34h-.15v.1h-.33v-.66H237v-.28h.36v-.46h.42l-.09.09v.3h.62v-.46h.42l-.09.09v.3H239v.28h-.37v.66h-.33V125h-.16v.34Zm-.63.72v-.46h-.37v.46Zm.47-1.32v-.3h-.62v.3Zm-.16,1.32h.32v-.46h-.33Zm2.34-.74a3.71,3.71,0,0,0,.59-.66l.31.23a.05.05,0,0,1,0,.06c0,.06,0,0-.15.06a5.23,5.23,0,0,1-.8.68v1.58c0,.13,0,.16.25.16s.35,0,.35-.41v-.28a2.29,2.29,0,0,0,.37.12v.27c0,.57-.08.63-.68.63s-.62-.07-.62-.36V125a8.34,8.34,0,0,0,0-1h.4s.07,0,.07,0,0,0-.09.08v.81Z"/><path class="cls-8" d="M243,124.74s.08,0,.08.05,0,0-.09.09V126h-.37v-.89a6.88,6.88,0,0,1-.54.54,1.14,1.14,0,0,0-.24-.25,3.3,3.3,0,0,0,1.12-1.49l.35.12a.06.06,0,0,1,.06.06c0,.06,0,.05-.1.07-.19.32-.26.45-.37.6Zm2.74,1.87v0s0,0-.11.06l-.34.24-.27.18a4.17,4.17,0,0,0,1.32.56,1.19,1.19,0,0,0-.23.31,3.84,3.84,0,0,1-1.42-.73,2.36,2.36,0,0,1-.64-.8,7.69,7.69,0,0,1-.69.39v.69l.6-.09.61-.13v.31a17.11,17.11,0,0,1-2,.36.14.14,0,0,1-.1.07.06.06,0,0,1-.06-.06l-.12-.35.69-.06V127a9,9,0,0,1-1,.33,1.3,1.3,0,0,0-.14-.32c.34-.08.67-.18,1-.29a7,7,0,0,0,.73-.35h-1.68v-.33h1.95v-.44h.37c.06,0,.09,0,.09,0s0,0-.09.09V126h1.93v.33h-1.86a2.5,2.5,0,0,0,.46.57,3.41,3.41,0,0,0,.61-.53Zm-1.77-1.69-.51,0h-.23v-.34h1.14v-.1a.84.84,0,0,0-.09-.34v-.25h.43c.05,0,.07,0,.07.06s0,.06-.07.08a4.48,4.48,0,0,0,.11.5h.67a2.46,2.46,0,0,0-.56-.34L245,124a2.89,2.89,0,0,1,.6.32l-.19.25h.11l.74-.07v.34h-.75l-.68.05a1.39,1.39,0,0,0,.43.56.94.94,0,0,0,.54.2c.12,0,.16-.06.22-.37a1.57,1.57,0,0,0,.31.18c-.09.38-.22.53-.46.53a1.44,1.44,0,0,1-1.18-.65,2.13,2.13,0,0,1-.23-.42Z"/><path class="cls-8" d="M248.63,124.1a0,0,0,0,1,.05.05l-.09.07-.24.58a5.1,5.1,0,0,0,.94-.21l.1.31a6.08,6.08,0,0,1-1.2.24c-.06.12-.11.23-.17.33l-.17.22.24-.14a.85.85,0,0,1,.38-.09.52.52,0,0,1,.56.47v.1a10.68,10.68,0,0,0,1.19-.67l.26.26a.09.09,0,0,1,0,.07.06.06,0,0,1-.06,0h-.09l-.85.42-.48.25v.81h-.38v-.65c-.43.22-.62.41-.62.63s.15.32.8.32a6.85,6.85,0,0,0,1.28-.12,1.21,1.21,0,0,0,0,.38,9.67,9.67,0,0,1-1.2.08,1.82,1.82,0,0,1-1-.17.53.53,0,0,1-.23-.46.9.9,0,0,1,.44-.7,4.08,4.08,0,0,1,.57-.34v-.07c0-.26-.09-.35-.28-.35a1,1,0,0,0-.66.35,2.33,2.33,0,0,0-.37.46l-.33-.21c.11-.13.18-.21.35-.44a5.44,5.44,0,0,0,.45-.76H247v-.35a4.51,4.51,0,0,0,.52,0H248c.08-.18.16-.38.22-.55a1.34,1.34,0,0,0,.07-.27Z"/><path class="cls-8" d="M168.13,130.17c.05,0,.09,0,.09.06s0,.06-.08.11V131a3.55,3.55,0,0,0,.7-.22l.17.31a4.31,4.31,0,0,1-.87.24v.8a3.41,3.41,0,0,1,1.14-.23.88.88,0,0,1,1,.75s0,.06,0,.09c0,.52-.43.87-1.08.87a1.62,1.62,0,0,1-.54-.1c0-.12.05-.23.07-.35a1.45,1.45,0,0,0,.51.1c.39,0,.64-.2.64-.5a.58.58,0,0,0-.65-.53,2.74,2.74,0,0,0-1.06.24v.42a2.26,2.26,0,0,1-.06.73.32.32,0,0,1-.32.18,1.4,1.4,0,0,1-.68-.27c-.21-.15-.32-.27-.32-.4s.35-.53,1-.86v-.89H167V131h.81v-.87Zm-1,2.94c0,.09.37.31.53.31s.1,0,.11-.16,0-.24,0-.66c-.35.21-.61.42-.61.51Zm3.31-1.22a.9.9,0,0,0-.87-.48h-.09v-.33a2.62,2.62,0,0,1,.56,0,1.26,1.26,0,0,1,.71.51Z"/><path class="cls-8" d="M172.25,132.43v1.13c0,.27-.07.37-.28.43a2.38,2.38,0,0,1-.53,0v-.18a.48.48,0,0,0-.07-.21h.35c.18,0,.2,0,.2-.19V132.4l-.41.15v0a.06.06,0,0,1-.07.06c-.07,0,0,0-.06,0l-.18-.35c.24-.06.49-.14.74-.23v-.85h-.66v-.34h.66v-1h.41s.07,0,.07,0,0,0-.08.08,0,.18,0,.8h.55v.34h-.55v.72l.56-.25.08.31-.64.29Zm1.65-1.64h-1v-.35h1v-.6h.46s0,0-.09.09v.43h1.12v.35h-1.12v.5h1.37v.35h-2.91v-.34h1.18Zm-.52,1.72h-.66v-.35h1.85a2.17,2.17,0,0,0,0-.51h.49s0,0-.09.08,0,.09,0,.35h.66v.35h-.7v1.09c0,.34-.18.43-.82.43a1.24,1.24,0,0,0-.09-.39h.33c.18,0,.2,0,.2-.19v-1Zm0,.09a3.27,3.27,0,0,1,.68.61l-.28.25a3.37,3.37,0,0,0-.62-.63Z"/><path class="cls-8" d="M176.89,132.74a6.11,6.11,0,0,0,.35-1.4H177a4,4,0,0,1-.69-.06v-.35a4.37,4.37,0,0,0,.72.06h.26a5.72,5.72,0,0,0,.08-.92l.43.06c.05,0,.08,0,.08.07s0,.05-.11.1l-.09.65a3.13,3.13,0,0,0,.94-.3l.16.32a3.94,3.94,0,0,1-1.16.33l-.15.73-.07.26.24-.18a1.94,1.94,0,0,1,1.07-.32c.59,0,1,.31,1,.79,0,.7-.7,1.2-2.24,1.39a1,1,0,0,0-.16-.36c1.49-.17,2-.58,2-1s-.22-.46-.59-.46a1.6,1.6,0,0,0-1,.39,1.58,1.58,0,0,0-.36.37Z"/><path class="cls-8" d="M182.48,134a10.69,10.69,0,0,0-1.45-1.76.4.4,0,0,1-.17-.3c0-.09,0-.17.18-.29a13,13,0,0,0,1.05-1.05,3.9,3.9,0,0,0,.34-.46l.38.23a.13.13,0,0,1,.05.07s0,.06-.12.07c-.44.48-.9.9-1.37,1.33a.12.12,0,0,0-.07.11.14.14,0,0,0,.08.11,15.82,15.82,0,0,1,1.5,1.67Z"/><path class="cls-8" d="M186.36,131.07a3.91,3.91,0,0,1-.88.22,11,11,0,0,1-1.06,2.52.84.84,0,0,0-.35-.21,9.32,9.32,0,0,0,1-2.26h-.83V131h.95a8.79,8.79,0,0,0,.19-.89l.41.09s.07,0,.07.05,0,0-.1.09-.11.39-.17.61a4,4,0,0,0,.66-.18Zm-.13,1.67a.58.58,0,0,0-.17.37c0,.21.21.28.92.28a4.38,4.38,0,0,0,.88-.09,1.07,1.07,0,0,0-.05.4,7.25,7.25,0,0,1-.93.05c-.91,0-1.2-.19-1.2-.57a.82.82,0,0,1,.27-.59Zm-.38-1a4.54,4.54,0,0,1,1.51-.23h.26v.35h-.32a4,4,0,0,0-1.34.22Zm1-1.44a4,4,0,0,1,.67.5l-.21.21a2.92,2.92,0,0,0-.64-.52Zm.37-.37a4.67,4.67,0,0,1,.67.5l-.21.21a2.92,2.92,0,0,0-.64-.52Z"/><path class="cls-8" d="M190.42,130h.07l-.06.09a4.16,4.16,0,0,0,.28.74,3.92,3.92,0,0,0,.88-.28l.18.33-.9.27a4,4,0,0,0,.77,1.11l-.29.26a2.08,2.08,0,0,0-1-.27c-.51,0-.78.16-.78.47s.3.57,1.22.57h.66a.79.79,0,0,0-.13.39h-.6c-1.12,0-1.55-.42-1.55-.91s.43-.82,1.15-.82a2.31,2.31,0,0,1,.52.06l.21.08-.14-.17c-.12-.19-.21-.35-.38-.66-.51.08-1,.15-1.53.19l-.07-.37a11.72,11.72,0,0,0,1.44-.15,7.22,7.22,0,0,1-.29-.72L190,130Z"/><path class="cls-8" d="M193.35,130.74c.07,0,.11,0,.11.08s0,.06-.12.09a4,4,0,0,0,0,.69,2.72,2.72,0,0,0,.14,1.06c.11.28.27.45.41.45s.17-.12.29-.66l.35.21c-.18.68-.33.88-.62.88a.84.84,0,0,1-.69-.5,2.38,2.38,0,0,1-.3-1.28v-1.07Zm2.2.23a3.46,3.46,0,0,1,1.06,1.62l-.41.18a3.29,3.29,0,0,0-.93-1.56Z"/><path class="cls-8" d="M198.63,133.34a.67.67,0,0,1-.67.65h0a.67.67,0,0,1-.69-.65h0a.65.65,0,0,1,.68-.64h0a.65.65,0,0,1,.67.63Zm-1.08,0a.4.4,0,0,0,.47.34.43.43,0,0,0,.34-.34.4.4,0,0,0-.4-.39.4.4,0,0,0-.41.39Z"/><g class="cls-10"><circle class="cls-6" cx="150.66" cy="129.33" r="8.78"/><path class="cls-7" d="M144.93,126.51v5.07l.57.57h2.62l.73-.73h0l1.23.73h6.4l.57-.57v-.79l-.48-.56a7.64,7.64,0,0,1-5.77-4l-.51-.32h-4.81Z"/><line class="cls-11" x1="144.27" y1="130.96" x2="157.34" y2="130.96"/><line class="cls-11" x1="152.38" y1="126.64" x2="150.1" y2="127.27"/><line class="cls-11" x1="152.25" y1="127.59" x2="149.98" y2="128.22"/><rect class="cls-12" x="149.73" y="117.69" width="1.86" height="23.28" transform="translate(-47.32 144.42) rotate(-45)"/><circle class="cls-1" cx="150.8" cy="129.05" r="8.78"/></g><path class="cls-8" d="M34.73,12.44V9.06h5.8v3.38H37.81a4,4,0,0,1-.06.65H40.9a13.42,13.42,0,0,1-.3,2.19.64.64,0,0,1-.29.41,5.89,5.89,0,0,1-1.38.25,3.23,3.23,0,0,0-.3-.72h.95a.35.35,0,0,0,.3-.13A6.3,6.3,0,0,0,40,13.72H37.58a4.05,4.05,0,0,1-.69,1,4.74,4.74,0,0,1-1.08.75,5.82,5.82,0,0,1-1.58.5,1.83,1.83,0,0,0-.39-.66,7.25,7.25,0,0,0,1.44-.37,2.38,2.38,0,0,0,.89-.5,3,3,0,0,0,.56-.72H34.2v-.63H37a3.76,3.76,0,0,1,.07-.65Zm2.49-2v-.7H35.48v.75Zm0,1.34V11H35.48v.78Zm2.49-1.34v-.7h-1.8v.75Zm0,1.34V11h-1.8v.78Z"/><path class="cls-8" d="M42.67,10.22l.63.16a9.17,9.17,0,0,1-.13,1,5.68,5.68,0,0,1-.27,1l-.59-.18A8.32,8.32,0,0,0,42.67,10.22ZM43.46,16V8.81h.76V16Zm3.77-5.34V8.84H48v1.79h1.77v.65H48v1.46h1.49v.66H48v1.71h2v.63H44.85v-.69h2.36V13.34h-1.5v-.6h1.5V11.3H46a6.08,6.08,0,0,1-.55,1.25,2,2,0,0,0-.66-.37c.28-.54.47-.92.56-1.13l-.59.19c-.09-.23-.24-.59-.46-1.09l.56-.22L45.38,11a10.19,10.19,0,0,0,.39-1.72l.72.19a7,7,0,0,1-.26,1.19Z"/><path class="cls-8" d="M52,11.53V9.19h6v6a.61.61,0,0,1-.17.44,2,2,0,0,1-1,.34,2,2,0,0,0-.13-.41,1.64,1.64,0,0,0-.26-.37h.79a.17.17,0,0,0,0-.1V13.38h-2v2.46h-.75V13.38h-1.8c-.13.56-.25,1-.36,1.34A6.2,6.2,0,0,1,51.66,16l-.32-.37L51,15.44a6.25,6.25,0,0,0,.78-1.6A12.81,12.81,0,0,0,52,11.53ZM54.52,11V9.88H52.79V11Zm0,1.75V11.66H52.79v1.08ZM57.25,11V9.88h-2V11Zm0,1.75V11.66h-2v1.08Z"/><path class="cls-8" d="M60,15.91V9h.92v2.22c1,.33,1.62.56,1.9.69s.8.37,1.68.81l-.5.78a17.88,17.88,0,0,0-1.57-.88A13.69,13.69,0,0,0,60.93,12v3.88Z"/><path class="cls-8" d="M70.39,10.81l-.69.6v4.43h-.89V12.06a13.09,13.09,0,0,1-1.54,1,15.14,15.14,0,0,1-1.51.75,2.66,2.66,0,0,0-.43-.75,12.33,12.33,0,0,0,2.07-1,11.72,11.72,0,0,0,1.77-1.28A15.13,15.13,0,0,0,70.91,9l.72.59Z"/><path class="cls-8" d="M73,14.91V9.28h.89v5.16a12.28,12.28,0,0,0,2.33-1.28A12.49,12.49,0,0,0,78.37,11a3.13,3.13,0,0,0,.59.56,13.66,13.66,0,0,1-2.14,2.16,17.77,17.77,0,0,1-2.69,1.59,2.55,2.55,0,0,0-.59.31l-.62-.53Z"/><path class="cls-4" d="M157.61,21.3H143.72l-1.62-1.62V5.79l1.62-1.62h13.89l1.62,1.62V19.68Z"/><path class="cls-13" d="M151.87,8.92h-2.34c0-.79-.05-1.5-.07-2.14H152C151.93,7.4,151.9,8.11,151.87,8.92Zm-.34,9.51h-1.87V10h2.17Z"/><path class="cls-8" d="M170.12,6.46V5.74h.82v.75h3V8h-.59v.6h-2.47v.59H173v.59h-2.2l-.07.53h3.32v.63h-2.58a3.47,3.47,0,0,0,.76.56,7,7,0,0,0,1,.47,11.68,11.68,0,0,0,1.18.22,3,3,0,0,0-.46.72,7.39,7.39,0,0,1-1.71-.6,4.53,4.53,0,0,1-1-.68,7.23,7.23,0,0,1-.55-.69h-.22a3.09,3.09,0,0,1-.65.91,2.66,2.66,0,0,1-1,.65,9,9,0,0,1-1.6.5,1.89,1.89,0,0,0-.33-.72,7,7,0,0,0,1.41-.37,3.57,3.57,0,0,0,.92-.5,1.06,1.06,0,0,0,.39-.47H167v-.63h2.85a3.18,3.18,0,0,0,.14-.53h-1.94V9.15h2a5.81,5.81,0,0,1,0-.59h-2.3V8h-.62V6.49ZM173,7.9V7.12h-5V7.9h2.13V7.34h.76V7.9Z"/><path class="cls-8" d="M177.48,8.74v4.09h-.78V9.58l-.4.36q-.2.17-.39.36a3.35,3.35,0,0,0-.53-.6c.39-.31.76-.65,1.12-1a15.68,15.68,0,0,0,1.12-1.43l.59.5c-.16.21-.25.34-.28.39Zm-1.54-1a2.19,2.19,0,0,0-.49-.6,9.83,9.83,0,0,0,1.12-.68c.21-.15.54-.41,1-.79l.56.5a11.51,11.51,0,0,1-1,.85,11.2,11.2,0,0,1-1.23.79Zm2.33,1V8.05H183v.69h-1.18V12a.61.61,0,0,1-.26.5,2.71,2.71,0,0,1-1.15.28,1,1,0,0,1,0-.25.43.43,0,0,0,0-.16,1.76,1.76,0,0,0-.23-.37h.89a.29.29,0,0,0,0-.13V8.84Zm.49-2.13V5.93h3.72v.81Z"/><path class="cls-8" d="M188.21,6.59v.56h3.19v.59h-2.46a3.14,3.14,0,0,0,1,.65,12.59,12.59,0,0,0,1.71.66,3.12,3.12,0,0,0-.4.62,6.11,6.11,0,0,1-1.7-.68,7.38,7.38,0,0,1-1.35-1V9.15h-.56l.3.16c-.18.29-.32.51-.43.65h4v.63H190.1a4.71,4.71,0,0,1-.86,1.12l1.91.72-.33.66c-1.18-.48-1.93-.77-2.23-.88a5.69,5.69,0,0,1-1.05.44c-.53.13-.93.21-1.22.25s-1,.06-1.61.06c-.06-.16-.16-.39-.29-.68h.85a7.11,7.11,0,0,0,1.45-.13,4,4,0,0,0,.95-.25c-.7-.19-1.15-.3-1.35-.34l-.23.25-.65-.41c.37-.46.59-.74.65-.84h-1.87V9.93h2.3l.66-1,.29.13v-1a8.38,8.38,0,0,1-1,.68,6.13,6.13,0,0,1-.92.47l-1.15.41A1.8,1.8,0,0,0,184,9a7.2,7.2,0,0,0,2.76-1.25h-2.36V7.15h3.11v-.5l-2.36.09a2.4,2.4,0,0,0-.3-.59c1.11,0,2.22-.07,3.32-.19a12.41,12.41,0,0,0,2-.31l.42.63C190.19,6.36,189.42,6.46,188.21,6.59Zm1,4H187l-.32.47c.43.08.82.17,1.16.26l.58.17a3.91,3.91,0,0,0,.77-.9Z"/><path class="cls-8" d="M193.73,11.74V8.06h5.75v3.68H198.1l1,.38,1.34.31a7.92,7.92,0,0,0-.42.69c-.38-.09-.91-.23-1.61-.44a3.21,3.21,0,0,1-.54-.22l-.54-.22.45-.5h-2.3l.42.47q-.45.22-.72.33l-.39.17c-.66.21-1.15.36-1.48.44a3.23,3.23,0,0,0-.42-.72c.35-.06.78-.17,1.31-.31a7,7,0,0,0,1-.38Zm.46-4.06V5.9H199V7.68Zm4.4,1.44V8.68h-4v.44Zm0,1V9.65h-4v.47Zm0,1v-.47h-4v.47Zm-.49-4.06v-.6H195v.6Z"/><path class="cls-8" d="M204.93,5.59l.85.28-.13.16a10,10,0,0,0,1.61,1.43,12,12,0,0,0,2,1l-.2.19-.17.16a1.63,1.63,0,0,0-.19.34,11.08,11.08,0,0,1-1.54-.87V8.9h-4.07V8.37a11.11,11.11,0,0,1-1.32.81,5.6,5.6,0,0,0-.42-.62,7,7,0,0,0,1.18-.69c.41-.31.83-.64,1.25-1A14,14,0,0,0,204.93,5.59Zm-3.22,4.78V9.74h7v.66h-4L203.86,12a25.83,25.83,0,0,0,2.82-.28L206,11l.59-.37a10.49,10.49,0,0,1,1,1c.35.44.6.76.75,1l-.72.47-.49-.75-1.28.17a6.24,6.24,0,0,0-1,.14L203,12.9l-.78.09-.27-.81,1.09-.06.72-1.69Zm3.45-3.88a16.13,16.13,0,0,1-1.91,1.79h3.81c-.57-.46-.94-.77-1.12-.94a11.13,11.13,0,0,1-.78-.85Z"/><path class="cls-8" d="M213.48,7.12V5.62h.82v1.5h3.34v.69h-3a13.2,13.2,0,0,0,1.28,1.62A9.7,9.7,0,0,0,217.85,11a1.62,1.62,0,0,0-.32.32c-.13.18-.22.32-.27.4q-.48-.37-1-.9a.88.88,0,0,0-.21-.22l-.23-.2-.21-.21c-.27-.29-.47-.53-.63-.72L214.54,9l-.26-.33v2.06h1.57v.72h-1.57V13h-.8V11.4H211.9v-.72h1.58V8.56a21.22,21.22,0,0,1-1.38,1.75,13,13,0,0,1-1.62,1.43,3,3,0,0,0-.49-.62,10.43,10.43,0,0,0,1-.75,14.41,14.41,0,0,0,1.08-1.13,12.81,12.81,0,0,0,1.12-1.43h-2.95V7.12Z"/><path class="cls-8" d="M220.69,6.56V5.74h.79v.82h1.6v.59h-1l.56.25-.49,1.19h1.08v.65H218.8V8.59h1a4.91,4.91,0,0,0-.43-1.06l.66-.25a9.73,9.73,0,0,1,.42,1.06l-.52.25h1.55q.09-.25.42-1.44H219V6.56Zm-.59,6.28h-.76v-3h3.48v2.81h-.72v-.31h-2Zm2-1.16V10.43h-2v1.25Zm1.41-5.62h2.4l.49.43-1,2.07a3.83,3.83,0,0,1,1,2.09,1.09,1.09,0,0,1-.32.87,1.85,1.85,0,0,1-1.22.38c-.15-.44-.24-.68-.26-.72h.59a.67.67,0,0,0,.36-.09.37.37,0,0,0,.1-.28,4.44,4.44,0,0,0-1-2.19c.37-.81.63-1.45.79-1.91h-1.22V12.9h-.74Z"/><path class="cls-8" d="M167.8,16.65h.43v3.41h-.43v-3l-.72.28V17Z"/><path class="cls-8" d="M171.73,18.55h-1.34v1.51h-.48V16.65h2V17h-1.55V18.2h1.34Z"/><path class="cls-8" d="M175.74,17.39v-.91h.42v.91h1.61v.35h-1.61v.85h1.32v.35h-1.35v1H178v.37h-4.12v-.37h1.85v-1h-1.18v-.35h1.18v-.85h-1a4.51,4.51,0,0,1-.59,1.13l-.2-.18-.17-.07q.17-.21.3-.42a3.28,3.28,0,0,0,.28-.6,8.08,8.08,0,0,0,.25-1l.43.13a4.91,4.91,0,0,1-.17.63Z"/><path class="cls-8" d="M179.48,18.25v2.22h-.42V18.74l-.28.25-.13-.16-.17-.18c.25-.2.44-.36.58-.49a6.09,6.09,0,0,0,.53-.61l.33.26A3.05,3.05,0,0,1,179.48,18.25Zm-.68-.74-.26-.31a.77.77,0,0,1,.21-.14l.32-.21c.1-.08.27-.22.5-.43l.3.3a6,6,0,0,1-1.08.79Zm2.25-.4v-.62h.43v.62h1v.37h-1V18h1.31v.37h-1.31v.52h1v.36h-1V20A5,5,0,0,0,182,20h.83a1.71,1.71,0,0,0-.17.39h-1.16a1.23,1.23,0,0,1-.59-.18,2.61,2.61,0,0,1-.56-.43,2.68,2.68,0,0,1-.53.72,2.13,2.13,0,0,0-.3-.3,3.66,3.66,0,0,0,.52-.72,4.3,4.3,0,0,0,.24-.92l.44.09a6.53,6.53,0,0,1-.2.76,1.67,1.67,0,0,0,.5.45V18.42h-1.22v-.37h1.22v-.51h-1v-.37Z"/><path class="cls-8" d="M183.75,19.94a2.36,2.36,0,0,0-.42-.28,4.23,4.23,0,0,0,.44-.51c.08-.13.24-.43.5-.9l.44.21c-.18.35-.33.62-.44.79A5,5,0,0,1,183.75,19.94Zm1.35-2.46v-1h.48v1h1.77v.4h-1.77v2.55h-.48V17.88h-1.7v-.4Zm2.34,2a2.44,2.44,0,0,0-.4.32A6.24,6.24,0,0,1,186,18.38l.4-.25c.21.34.39.59.52.76a6.15,6.15,0,0,0,.61.64Z"/><path class="cls-8" d="M191.73,18.67H188v-.44h3.75Z"/><path class="cls-8" d="M192.48,20.36a2.63,2.63,0,0,0-.29-.37,2.41,2.41,0,0,0,.7-.61,1.94,1.94,0,0,0,.31-.76,11,11,0,0,0,.08-1.62h.48a6.88,6.88,0,0,1-.06,1.39,2.8,2.8,0,0,1-.18.81,2.63,2.63,0,0,1-.41.63A2.47,2.47,0,0,1,192.48,20.36Zm2-.51V16.74h.46v2.85a6.06,6.06,0,0,0,.74-.6,5.69,5.69,0,0,0,.63-.75c.21.17.32.27.35.28a8.72,8.72,0,0,1-.92,1,7.32,7.32,0,0,1-1,.76l-.3-.32Z"/><path class="cls-8" d="M200.35,16.58l-.35.51h1.23v.34h-4.09v-.34h1.2c-.07-.1-.18-.26-.35-.47l.35-.21.22.24a1.91,1.91,0,0,1,.16.32l-.22.12h1.05l.39-.7Zm-3,3.87V17.74H199v2.32a.38.38,0,0,1-.09.25,1.22,1.22,0,0,1-.55.17,1.1,1.1,0,0,0-.06-.26.37.37,0,0,0-.05-.11l-.08-.08h.41v-.57h-.91v1Zm1.31-2V18.1h-.91v.35Zm0,.7v-.41h-.91v.37Zm.92.56V17.87H200v1.87Zm1,.28v-2.3H201V20a.34.34,0,0,1-.12.3,1.23,1.23,0,0,1-.62.17c-.08-.21-.13-.35-.17-.44h.48a.14.14,0,0,0,0-.09Z"/><path class="cls-8" d="M203,18.74v-.49l.15-.14h.52l.14.14v.49l-.14.14h-.52Z"/><path class="cls-8" d="M206,19.74h1.86v.37h-2.3v-.37a.89.89,0,0,1,.12-.45,1.83,1.83,0,0,1,.28-.44,3.06,3.06,0,0,1,.63-.51,3.66,3.66,0,0,0,.63-.55.89.89,0,0,0,.11-.35.51.51,0,0,0-.17-.35.81.81,0,0,0-.5-.14.75.75,0,0,0-.44.1.33.33,0,0,0-.15.27h-.42a.65.65,0,0,1,.27-.51,1.6,1.6,0,0,1,1.61,0,.85.85,0,0,1,.26.62,1.11,1.11,0,0,1-.17.53,4.37,4.37,0,0,1-.79.63c-.56.36-.83.71-.83,1.05Z"/><path class="cls-8" d="M210.48,18.55h-1.35v1.51h-.47V16.65h2V17H209.1V18.2h1.38Z"/><path class="cls-8" d="M213.2,19.74h1.86v.37h-2.3v-.37a.79.79,0,0,1,.13-.45,1.53,1.53,0,0,1,.27-.44,3.06,3.06,0,0,1,.63-.51,3.66,3.66,0,0,0,.63-.55.89.89,0,0,0,.11-.35.51.51,0,0,0-.17-.35.81.81,0,0,0-.5-.14.75.75,0,0,0-.44.1.33.33,0,0,0-.15.27h-.42a.61.61,0,0,1,.28-.51,1.17,1.17,0,0,1,.75-.21,1.23,1.23,0,0,1,.85.22.85.85,0,0,1,.26.62,1.11,1.11,0,0,1-.17.53,4.37,4.37,0,0,1-.79.63c-.55.36-.83.71-.83,1Z"/><path class="cls-8" d="M217.11,20.17a1.22,1.22,0,0,1-.92-.46,2.55,2.55,0,0,1,0-2.71,1.18,1.18,0,0,1,1.66-.19A1.14,1.14,0,0,1,218,17a2.64,2.64,0,0,1,0,2.71A1.22,1.22,0,0,1,217.11,20.17Zm0-.35a.71.71,0,0,0,.65-.43,2.15,2.15,0,0,0,.22-1,2.27,2.27,0,0,0-.22-1.06.69.69,0,0,0-.65-.4.64.64,0,0,0-.62.4,2.28,2.28,0,0,0-.23,1.06,2,2,0,0,0,.23,1,.65.65,0,0,0,.62.43Z"/><path class="cls-8" d="M220.16,16.65h.42v3.41h-.42v-3l-.72.28V17Z"/><path class="cls-8" d="M223,17v-.47h.44V17h.44v.33h-.44v.39h.18a8.87,8.87,0,0,0,.61-.86l.35.21c-.18.27-.34.49-.46.65h.18V18h-.48l-.19.19-.21.19h.66l.26.31-.79.6h0c.27-.06.51-.11.73-.14v.35l-.75.14v.49a.27.27,0,0,1-.13.26,1.44,1.44,0,0,1-.58.13,1.91,1.91,0,0,0-.11-.41h.34v-.38l-.9.16-.08-.39,1-.12V19h.19l.33-.29H223c-.21.14-.45.28-.72.44a1.25,1.25,0,0,0-.26-.3,4.09,4.09,0,0,0,.46-.25V18.4h.35c.15-.12.29-.25.43-.38h-1.09v-.34H223v-.39h-.63V17Zm2.16.39h1.12v.4h-.23a4.21,4.21,0,0,1-.45,1.7,2.31,2.31,0,0,0,.87.74,1.21,1.21,0,0,0-.28.39l-.44-.32c-.07-.07-.22-.22-.42-.46a3.49,3.49,0,0,1-.93.74l-.11-.19-.16-.14a3.89,3.89,0,0,0,1-.76A2.87,2.87,0,0,1,225,19c0-.05,0-.09-.05-.13l-.07-.22a1.75,1.75,0,0,0-.1-.3l-.19.31a1.42,1.42,0,0,0-.29-.31,4.79,4.79,0,0,0,.4-.78,11.46,11.46,0,0,0,.39-1.17l.41.14A4.16,4.16,0,0,0,225.2,17.34Zm.46.37h-.61l-.05.1a3.8,3.8,0,0,0,.14.67,2.57,2.57,0,0,0,.24.56,3.83,3.83,0,0,0,.28-1.3Z"/><path class="cls-8" d="M228.82,19.24V18.9h.44v.34h1.42v.35h-1.42V20h1.83v.37H227V20h1.85v-.37h-1.34v-.35Zm0-2.38v-.4h.42v.4h1.7v.88h-.37v.19h-1.72l-.37.58a6.61,6.61,0,0,0,1.31-.07l-.24-.19.32-.26c.29.22.59.47.88.74l-.33.28-.28-.27-2.76.2-.08-.39H228q.15-.24.33-.6h-.87v-.21h-.33v-.9Zm1.66.72v-.35h-2.9v.35Z"/><path class="cls-4" d="M157.61,76.29H143.72l-1.62-1.62V60.74l1.62-1.62h13.89l1.62,1.62V74.63Z"/><path class="cls-3" d="M150.66,72.34s4.08-3.06,4.75-5.5-1.7-5.5-4.75-2.45c-3-3-5.43,0-4.75,2.45S150.66,72.34,150.66,72.34Z"/><path class="cls-4" d="M151.55,64l-3.07,3.83.07.13h1.93l1.26-3.9Z"/><path class="cls-4" d="M149.48,71.15l3.11-3.83-.07-.13h-1.94l-1.26,3.91Z"/><path class="cls-8" d="M171.48,70.21l-.66-1.66H168l-.72,1.66h-.8l2.59-6.06h.86l2.39,6.06Zm-3.22-2.28h2.3l-1.08-2.81Z"/><path class="cls-8" d="M174.2,69.55h3v.66h-3.84V64.15H177v.65h-2.75v1.94h2.39v.59h-2.39Z"/><path class="cls-8" d="M180.31,70.21h-1.83V64.15h1.77a3.41,3.41,0,0,1,2.13.5,2.93,2.93,0,0,1,1,2.5,3,3,0,0,1-1,2.53A3.23,3.23,0,0,1,180.31,70.21Zm-.07-5.44h-1v4.78h1A2.24,2.24,0,0,0,182,69a2.43,2.43,0,0,0,.52-1.78,2.79,2.79,0,0,0-.62-2,2.39,2.39,0,0,0-1.61-.47Z"/><path class="cls-14" d="M24.58,48.74H10.69L9.07,47.12V33.22l1.62-1.62H24.58l1.62,1.62V47.11Z"/><circle class="cls-3" cx="17.63" cy="35.75" r="1.26"/><polygon class="cls-3" points="14.85 45.83 20.41 45.83 17.63 38.89 14.85 45.83"/><path class="cls-8" d="M37.15,37.93H41v.69H39.62a8.89,8.89,0,0,1-.46,1.68,4.08,4.08,0,0,1-.56,1c.59.31,1,.53,1.18.65l.95.63-.46.65L39,42.36c-.33-.19-.64-.36-1-.5a12.06,12.06,0,0,1-1.15.69c-.39.16-.8.32-1.21.46a11.78,11.78,0,0,1-1.31.29,2.16,2.16,0,0,0-.1-.44.26.26,0,0,0-.07-.11L34,42.58a8.14,8.14,0,0,0,2-.44,4.45,4.45,0,0,0,1.28-.66c-.11-.06-.6-.27-1.48-.62l-.26.5-.79-.31.66-1.25a2.27,2.27,0,0,0,.21-.41c.08-.19.19-.46.35-.81H33.94v-.69h2.33c.2-.54.39-1.1.59-1.69l.82.28a3.23,3.23,0,0,1-.18.5C37.4,37.25,37.29,37.6,37.15,37.93Zm-1,2.37q1.22.45,1.74.69a4.52,4.52,0,0,0,.88-2.37H36.9c-.25.56-.5,1.12-.76,1.68Z"/><path class="cls-8" d="M42.67,37.65l.63.15a8.87,8.87,0,0,1-.13,1,5.68,5.68,0,0,1-.27,1l-.59-.19A8.25,8.25,0,0,0,42.67,37.65Zm.79,5.75V36.24h.76V43.4Zm3.77-5.35V36.27H48v1.78h1.77v.69H48v1.44h1.49v.65H48v1.72h2v.69H44.85v-.69h2.36V40.83h-1.5v-.65h1.5V38.74H46A6.08,6.08,0,0,1,45.48,40a2,2,0,0,0-.66-.37c.28-.55.47-.92.56-1.13l-.59.19c-.09-.23-.24-.6-.46-1.1l.56-.21.49,1.06a10.19,10.19,0,0,0,.39-1.72l.72.19a6.92,6.92,0,0,1-.26,1.18Z"/><path class="cls-8" d="M52,39V36.62h6v6a.61.61,0,0,1-.17.44,2,2,0,0,1-1,.34A2,2,0,0,0,56.7,43a1.64,1.64,0,0,0-.26-.37h.79a.17.17,0,0,0,0-.1V40.8h-2v2.47h-.75V40.8h-1.8q-.2.86-.36,1.35a6.2,6.2,0,0,1-.66,1.28l-.32-.38L51,42.87a6.25,6.25,0,0,0,.78-1.6A12.81,12.81,0,0,0,52,39Zm2.52-.56V37.3H52.79v1.1Zm0,1.75V39.09H52.79v1.06Zm2.73-1.75V37.3h-2v1.1Zm0,1.75V39.09h-2v1.06Z"/><path class="cls-8" d="M60,43.34V36.4h.92v2.22c1,.33,1.62.56,1.9.68s.8.38,1.68.82l-.5.78A15.63,15.63,0,0,0,62.44,40a13.69,13.69,0,0,0-1.51-.56v3.88Z"/><path class="cls-8" d="M70.39,38.24l-.69.6v4.43h-.89V39.49a13.09,13.09,0,0,1-1.54,1,15.14,15.14,0,0,1-1.51.75,2.66,2.66,0,0,0-.43-.75,12.33,12.33,0,0,0,2.07-1,11.72,11.72,0,0,0,1.77-1.28,15.13,15.13,0,0,0,1.74-1.75l.72.59Z"/><path class="cls-8" d="M73,42.34v-5.6h.89V41.9a12.28,12.28,0,0,0,2.33-1.28,12.49,12.49,0,0,0,2.17-2.19A3.13,3.13,0,0,0,79,39a13.66,13.66,0,0,1-2.14,2.16,17.77,17.77,0,0,1-2.69,1.59,2.22,2.22,0,0,0-.59.31l-.62-.53Z"/><path class="cls-4" d="M24.58,76.16H10.69L9.07,74.54V60.65L10.69,59H24.58l1.62,1.62V74.54Z"/><circle class="cls-15" cx="19.9" cy="66.78" r="0.95"/><polygon class="cls-16" points="17.79 74.03 22.01 74.03 19.9 68.77 17.79 74.03"/><circle class="cls-15" cx="15.69" cy="66.78" r="0.95"/><polygon class="cls-16" points="17.79 69.06 13.58 69.06 15.69 74.32 17.79 69.06"/><rect class="cls-17" x="12.15" y="63.68" width="10.97" height="10.35"/><polygon class="cls-18" points="16 60.62 15.01 62.33 16.99 62.33 16 60.62"/><polygon class="cls-18" points="19.26 62.33 20.25 60.62 18.27 60.62 19.26 62.33"/><path class="cls-8" d="M34.4,65.61v-.78H40v.78H37.61V69h3.15v.79H33.64V69h3.12v-3.4Z"/><path class="cls-8" d="M42,69.74v-5.6h.89V69.3A11.8,11.8,0,0,0,45.2,68a12.1,12.1,0,0,0,2.17-2.18,3.13,3.13,0,0,0,.59.56,13.66,13.66,0,0,1-2.14,2.16,19.6,19.6,0,0,1-2.69,1.59,2.22,2.22,0,0,0-.59.31l-.62-.53Z"/><path class="cls-8" d="M56.23,69.23l-.69.57q-3.12-3.51-3.61-3.94c-.49-.43-.07-.06-.1-.06h-.06a6.07,6.07,0,0,0-.59.65l-1.54,1.82L49,67.7c1.47-1.6,2.29-2.47,2.46-2.59a.6.6,0,0,1,.43-.13.51.51,0,0,1,.33.13C52.48,65.37,53.87,66.74,56.23,69.23Zm-2.66-4.12.4-.35.92.85-.46.37-.38-.39ZM55.71,65l-.46.35c-.29-.27-.58-.57-.89-.88l.43-.37C55,64.24,55.29,64.55,55.71,65Z"/><path class="cls-8" d="M64.05,67.61H57.39v-.78h6.66Z"/><path class="cls-8" d="M68.78,65h2.53l.42.44-.88,1.78a7.11,7.11,0,0,1-.73,1,7.87,7.87,0,0,1-1,1,11.92,11.92,0,0,1-1.41.94,12.38,12.38,0,0,1-1.55.65c-.06-.13-.12-.25-.19-.37a2.42,2.42,0,0,0-.33-.31,9.85,9.85,0,0,0,1.87-.78A10,10,0,0,0,69,68.26a15.1,15.1,0,0,0-1.54-1.12l.49-.53c.63.39,1.16.75,1.57,1.06.27-.35.47-.66.63-.91a7.26,7.26,0,0,0,.52-1.09H68.36c-.39.52-.65.86-.79,1a6.86,6.86,0,0,1-.65.56,6.17,6.17,0,0,1-1.15.82,1.8,1.8,0,0,0-.53-.66,7.63,7.63,0,0,0,1.28-.84,4.56,4.56,0,0,0,1-1.1,9.28,9.28,0,0,0,.82-1.56l.88.28Z"/><path class="cls-8" d="M79.55,67.61H72.89v-.78h6.66Z"/><path class="cls-8" d="M34.89,92.54V91h.79v1.5h.8v.68h-.75v.69a7.83,7.83,0,0,0,1.05.94c-.09.08-.26.27-.53.56l-.52-.56v3.37h-.79V95.16a3.91,3.91,0,0,0-.26.44c-.07.12-.14.27-.23.44a4.89,4.89,0,0,1-.46.56c0-.06-.05-.12-.07-.17a.33.33,0,0,1,0-.14.17.17,0,0,0,0-.1c-.07-.13-.15-.25-.23-.37.3-.42.55-.77.72-1.06.24-.57.44-1.08.59-1.54H33.85v-.68Zm4.56,4a6.15,6.15,0,0,0,.89.62,6.08,6.08,0,0,0,1,.47,1.37,1.37,0,0,0-.26.28,1.11,1.11,0,0,1-.07.16,1.47,1.47,0,0,0-.1.22,6.52,6.52,0,0,1-2-1.22,5.91,5.91,0,0,1-1,.65,6.92,6.92,0,0,1-1.38.57,5.39,5.39,0,0,0-.43-.63c.42-.12.9-.29,1.45-.5a4.44,4.44,0,0,0,.89-.59,5.77,5.77,0,0,1-.6-.78,9.25,9.25,0,0,1-.49-1l.69-.32a5,5,0,0,0,.36.82A3.24,3.24,0,0,0,39,96a4,4,0,0,0,.75-1.54l.73.35c-.27.56-.43.9-.5,1l-.46.69Zm-2.59-1.8-.49-.53a10.61,10.61,0,0,0,.85-.65c.15-.15.34-.36.56-.63l.59.41a5.9,5.9,0,0,1-.66.75A9.08,9.08,0,0,1,36.86,94.74Zm1.67-2.59V91h.76V92.1h1.9v.64H36.63v-.66Zm2.86,2a3.74,3.74,0,0,0-.46.59,14.85,14.85,0,0,1-1.61-1.34l.53-.47a12.26,12.26,0,0,0,1.54,1.14Z"/><path class="cls-8" d="M46.48,91.1v1.34h2.89v4.69a1.94,1.94,0,0,1-.06.59c0,.09-.11.16-.27.22a2.65,2.65,0,0,1-1.08.19,1.91,1.91,0,0,0-.1-.34,1.82,1.82,0,0,0-.29-.38h.91a.17.17,0,0,0,.1,0,.24.24,0,0,0,0-.12V93.1h-2.1l-.1.62,1.08.94,1,1-.59.59c-.29-.37-.55-.68-.79-.93a8.48,8.48,0,0,0-.92-.88,5.67,5.67,0,0,1-.76,1.22,6.26,6.26,0,0,1-1.08.84,2.26,2.26,0,0,0-.46-.65,4.55,4.55,0,0,0,1.35-1.16,4.26,4.26,0,0,0,.52-1.59H43.8v5H43V92.44H45.8V91.1Z"/><path class="cls-8" d="M51.08,92.57l.69-.38.66.94a10.46,10.46,0,0,1,.49.94l-.79.34-.49-.94-.17-.28C51.39,93.05,51.25,92.84,51.08,92.57Zm1.54,5.62-.14-.45a3,3,0,0,0-.33-.38,7,7,0,0,0,2.39-1,5.09,5.09,0,0,0,1.54-1.66,10.48,10.48,0,0,0,1-2.65l.91.25a14,14,0,0,1-.91,2.44,7.31,7.31,0,0,1-1.15,1.56,6.9,6.9,0,0,1-1.48,1.09A10.25,10.25,0,0,1,52.62,98.19ZM53.21,92l.76-.29c.3.53.62,1.14,1,1.85l-.79.28-.33-.75A7,7,0,0,0,53.21,92Z"/><path class="cls-8" d="M58.86,91.85h5.88l.1-.06.55.62-.36.31c-.13.13-.39.36-.79.69s-1,.86-1.54,1.25l-.29-.37A12,12,0,0,1,62.14,96a1.9,1.9,0,0,1-.49.94,4.35,4.35,0,0,1-.79.69,4.73,4.73,0,0,1-1.18.56l-.26-.47a2.33,2.33,0,0,0-.26-.28,4.47,4.47,0,0,0,1.11-.4,2,2,0,0,0,.63-.54,2.68,2.68,0,0,0,.39-.75,4.91,4.91,0,0,0,.17-.93V93.54h.92v.4c.65-.54,1.17-1,1.54-1.37H58.83Z"/><path class="cls-8" d="M73.11,95H66.48v-.78h6.66Z"/><path class="cls-8" d="M75.68,94.79h4.2l.13-.07.52.44a11.77,11.77,0,0,1-.85.88c-.2.18-.48.43-.85.72a11.47,11.47,0,0,0,3,.78,4.19,4.19,0,0,0-.39.72,14.77,14.77,0,0,1-1.74-.44,13.52,13.52,0,0,1-1.51-.66,6,6,0,0,1-1,.44l-1,.31a11.12,11.12,0,0,1-1.38.25,2.65,2.65,0,0,0-.33-.65A13.86,13.86,0,0,0,76,97.26a13,13,0,0,0,1.48-.52,6.85,6.85,0,0,1-.66-.66,4.36,4.36,0,0,1-.46-.69h-.68Zm5-2.32-.69,1h1.54v1.65h-.82v-1H75.35v1h-.72V93.47h4.59c.44-.82.69-1.29.75-1.44Zm-5.68-.34a1.47,1.47,0,0,0-.1-.22l-.09-.17a.41.41,0,0,1-.07-.11.75.75,0,0,0-.07-.12h2.53l1.28-.09a13.65,13.65,0,0,0,2.2-.28l.46.66c-1.1.12-2.17.21-3.22.28Zm.33.34.62-.21c.09.16.23.46.43.9l-.62.22S75.64,93,75.38,92.47Zm2.79,3.94a3.12,3.12,0,0,0,.59-.44,4.94,4.94,0,0,0,.56-.56H77.15A3.47,3.47,0,0,0,78.17,96.41Zm-.79-4,.63-.22c.1.23.25.56.42,1l-.62.22a8,8,0,0,0-.43-1Z"/><path class="cls-8" d="M84.77,92.85v5.44h-.72V94.13c-.48.71-.76,1.11-.82,1.19a7.16,7.16,0,0,0-.4-.78,11.18,11.18,0,0,0,1-1.53,21.23,21.23,0,0,0,.92-2l.76.28c-.09.16-.16.32-.22.45l-.19.44Zm3.64.09V91.19h.79v1.75h1.28v.69H89.17v3.84A.75.75,0,0,1,89,98a4.8,4.8,0,0,1-1.35.25,1.68,1.68,0,0,0-.29-.79h1a.24.24,0,0,0,0-.12V93.66H85.1V93Zm-2.79,1.8.59-.43c.2.18.43.43.69.72l.56.62-.65.44-.56-.75A7.11,7.11,0,0,0,85.62,94.74Z"/><path class="cls-8" d="M157.61,49.46H143.72l-1.62-1.62V34l1.62-1.62h13.89L159.23,34V47.84Z"/><path class="cls-19" d="M150.66,36.14a2.8,2.8,0,0,0-2.8,2.8h5.62a2.8,2.8,0,0,0-2.8-2.8Z"/><rect class="cls-3" x="146.11" y="38.75" width="9.11" height="6.34"/><path class="cls-8" d="M168.48,40.1v4h-.72V41.19a7.34,7.34,0,0,1-.56.69,2.09,2.09,0,0,0-.56-.47,13.25,13.25,0,0,0,1-1.28,11.07,11.07,0,0,0,.79-1.53l.69.31C169,39.15,168.75,39.54,168.48,40.1Zm3.08-2.56v-.6h.69v.6h1.94v.65h-1.94v.44h-.69v-.44h-2v.44h-.69v-.44h-2v-.65h2v-.6h.69v.6Zm-2.26,2.09V39h5.08v.62h-.9v3.72a.61.61,0,0,1-.26.53,3.16,3.16,0,0,1-1.25.28.89.89,0,0,1,0-.23v-.14a.26.26,0,0,0-.09-.17.86.86,0,0,0-.14-.18h.88a.17.17,0,0,0,.1,0,1,1,0,0,0,.07-.15V39.66Zm.13,3.53V40.38h2.49v2.41h-.69v-.25h-1.11v.62Zm1.8-1.22v-1h-1.11v1Z"/><path class="cls-8" d="M177,38.57V36.88h.76v1.69h.77v.62h-.78v1.47l.78-.22v.63l-.78.25v2.87h-.76V41.57L175.7,42l-.23-.72,1.47-.41V39.19h-.65a2.75,2.75,0,0,1-.14.52c-.07.24-.13.45-.19.64a3,3,0,0,0-.66-.22c.09-.23.21-.61.36-1.16a9.79,9.79,0,0,0,.17-1.43l.72.09-.13.94Zm4,5.53a.61.61,0,0,1,0-.19.24.24,0,0,0,0-.12.62.62,0,0,0-.08-.24,1.14,1.14,0,0,0-.15-.23h1a.31.31,0,0,0,.13-.06,1.66,1.66,0,0,0,.16-.85c.1-1.15.14-2.31.13-3.47h-.36a9.13,9.13,0,0,1-.42,2,6.32,6.32,0,0,1-.86,1.57,8.46,8.46,0,0,1-1.61,1.43,1.48,1.48,0,0,0-.49-.59,7,7,0,0,0,1.41-1.19,4,4,0,0,0,.82-1.31,6.59,6.59,0,0,0,.46-1.91h-.36a8.6,8.6,0,0,1-.85,2,5.56,5.56,0,0,1-1.18,1.29,6.36,6.36,0,0,0-.46-.57,7.11,7.11,0,0,0,1.08-1.18,9,9,0,0,0,.66-1.57h-.33a8.75,8.75,0,0,1-.89,1.35L178.4,40a.79.79,0,0,0-.23-.14,5.35,5.35,0,0,0,.63-.87c.11-.19.25-.47.42-.85a10.81,10.81,0,0,0,.4-1.34l.78.22c-.19.58-.36,1-.49,1.31h3l-.07,3a12.29,12.29,0,0,1-.13,1.81,1.37,1.37,0,0,1-.16.66.49.49,0,0,1-.27.15,5.12,5.12,0,0,1-1.29.16Z"/><path class="cls-8" d="M184.31,37.26h2.82l.46.57a18.93,18.93,0,0,1-1.41,1.28l.26.25-.29.28h1.18l.1-.06.59.47-1,1.75c-.11-.07-.31-.17-.62-.32a9.14,9.14,0,0,0,.59-1.22h-.79v3a.61.61,0,0,1-.19.54,2.5,2.5,0,0,1-1,.37,3.68,3.68,0,0,0-.36-.78h.78a.17.17,0,0,0,0-.1v-3h-1.3v-.62h1.67l-.67-.63c-.19-.16-.33-.29-.44-.37l.46-.47a5,5,0,0,1,.62.5l.69-.75h-2.1Zm3.25,7a1.08,1.08,0,0,0-.13-.29l-.07-.1a1.75,1.75,0,0,0-.23-.24,7.74,7.74,0,0,0,1.67-.91l.53.5A6.44,6.44,0,0,1,187.56,44.26Zm.32-6.35v-.65h3.75v.65h-1.48c-.09.38-.15.65-.2.81h1.38v3.94h-3.12V38.74h1l.16-.81Zm2.66,1.94v-.53h-1.6v.53Zm0,1.12v-.59h-1.6V41Zm0,1.13v-.59h-1.6v.59Zm1.35,1.56a3,3,0,0,0-.56.56,14.72,14.72,0,0,1-1.35-1l.6-.43A6.78,6.78,0,0,0,191.89,43.66Z"/><path class="cls-8" d="M195.34,37.16l.89.28-.43,1.22a4.14,4.14,0,0,1,1.11.06,1.06,1.06,0,0,1,.56.44,1.8,1.8,0,0,1,.2.94,7,7,0,0,1-.3,1.81,4.91,4.91,0,0,1-.78,1.63.79.79,0,0,1-.63.34c-.35,0-.77-.31-1.28-.94a4.18,4.18,0,0,0,.5-.53,4.59,4.59,0,0,0,.49.6l.16.06a.3.3,0,0,0,.2-.1,3.88,3.88,0,0,0,.59-1.25,5.39,5.39,0,0,0,.33-1.78.74.74,0,0,0-.17-.53,1.24,1.24,0,0,0-.65-.15h-.59c-.16.39-.33.83-.51,1.29s-.34.83-.45,1.08q-.36.78-1.05,2.13l-.75-.38c.32-.49.62-1,.89-1.53l.21-.47c.08-.16.16-.35.25-.56s.18-.43.27-.67l.32-.74a10,10,0,0,0-1.38.28l-.13-.78a16.05,16.05,0,0,0,1.7-.18A12.15,12.15,0,0,0,195.34,37.16ZM198.75,42c0-.24,0-.48-.06-.71l.46.06a.25.25,0,0,0,.16-.06.31.31,0,0,0,0-.19,2.4,2.4,0,0,0-.29-.94,7.25,7.25,0,0,0-1.22-1.37l.56-.47a9.51,9.51,0,0,1,1.38,1.65,2.66,2.66,0,0,1,.39,1.28.73.73,0,0,1-.19.6,1.37,1.37,0,0,1-.79.19A1.75,1.75,0,0,1,198.75,42Z"/><path class="cls-8" d="M202.66,40.32a6.14,6.14,0,0,0,.63.31,5.08,5.08,0,0,1-.56,1.34.64.64,0,0,1-.49.22.55.55,0,0,1-.46-.28,3.51,3.51,0,0,1-.3-1.69,10.91,10.91,0,0,1,.43-2.84l.85.22a13.49,13.49,0,0,0-.46,2,5,5,0,0,0,0,1.22.14.14,0,0,0,0,.09h.07a.06.06,0,0,0,.06,0A4.24,4.24,0,0,0,202.66,40.32Zm.13,3.69a7.68,7.68,0,0,0-.32-.79,5.17,5.17,0,0,0,1.67-.53,2.11,2.11,0,0,0,.82-1,5.49,5.49,0,0,0,.26-1.93c0-.81-.07-1.61-.16-2.41l.88-.06c.07.83.1,1.62.1,2.37a6.63,6.63,0,0,1-.33,2.38,2.59,2.59,0,0,1-.85,1.06A5.65,5.65,0,0,1,202.79,44Z"/><path class="cls-8" d="M207.85,41V38.69h2.88v2.5h-2.15a5.38,5.38,0,0,1-.2,1.44c-.07.21-.28.71-.62,1.5a1.39,1.39,0,0,0-.28-.39,2,2,0,0,0-.29-.22,8,8,0,0,0,.52-1.25A5.18,5.18,0,0,0,207.85,41Zm-.32-3.09v-.66h3.37v.66ZM210,40.51V39.32h-1.44v1.19Zm2.1-2.32v1.32h2.69v.68h-.89v3.94h-.75V40.19h-1.08a6.62,6.62,0,0,1-.23,1.47,5.09,5.09,0,0,1-.59,1.22A4.69,4.69,0,0,1,210.18,44a.52.52,0,0,0-.1-.18.86.86,0,0,0-.13-.14,1.78,1.78,0,0,0-.36-.25,8.28,8.28,0,0,0,.82-.75,2.68,2.68,0,0,0,.59-.93,4.67,4.67,0,0,0,.3-1.38q.06-1.18,0-3l.66.19c.79-.17,1.57-.35,2.36-.56l.53.62a23.18,23.18,0,0,1-2.73.56Z"/><path class="cls-4" d="M157.61,49.46H143.72l-1.62-1.62V34l1.62-1.62h13.89L159.23,34V47.84Z"/><path class="cls-19" d="M150.66,36.14a2.8,2.8,0,0,0-2.8,2.8h5.62a2.8,2.8,0,0,0-2.8-2.8Z"/><rect class="cls-3" x="146.11" y="38.75" width="9.11" height="6.34"/><path class="cls-8" d="M169.11,90.92v-.66h.75v.66h3v.66h-6v2a10.55,10.55,0,0,1-.19,2.31,5.85,5.85,0,0,1-.73,1.75,1.3,1.3,0,0,0-.26-.31.41.41,0,0,0-.13-.1l-.23-.12a5.28,5.28,0,0,0,.62-1.47,13.89,13.89,0,0,0,.17-2.41V91Zm-.86,1.44v-.62H169v.6h1v2.72H168v1.25l1-.22-.26-.56.62-.19q.22.47.69,1.53l-.69.28V97a1.43,1.43,0,0,0-.13-.28l-2.33.53-.3-.72.63-.09V92.34Zm1,1.06v-.5H168v.5Zm0,1.09V94H168v.56Zm1.11-2.5h2l.07-.06.56.5a16,16,0,0,0-.76,1.56,10.35,10.35,0,0,1,.63,1.07,2.18,2.18,0,0,1,.13.72,1,1,0,0,1-.26.71,2.53,2.53,0,0,1-1.15.44,2.36,2.36,0,0,0-.1-.53l-.2-.34h.66a.2.2,0,0,0,.16-.07.55.55,0,0,0,.07-.28,2,2,0,0,0-.07-.43A1.42,1.42,0,0,0,172,95a1.19,1.19,0,0,0-.13-.25l-.18-.29q-.12-.21-.24-.39l.62-1.44h-1v4.81h-.69Z"/><path class="cls-8" d="M174.3,91.45V90.8h7.28v.65h-3.35v1.06c1.12.69,1.92,1.21,2.4,1.57l-.53.65c-.3-.25-.61-.49-.91-.72l-1-.68v4.06h-.82V91.45Z"/><path class="cls-8" d="M183.59,90.48h6.17v1.85h-1.35V93h1.48v.6h-1.48v.81h1.94V95h-2.59a2.55,2.55,0,0,0,.42.82l1.12-.66.52.53-1.14.56a4.6,4.6,0,0,0,.78.44,6.59,6.59,0,0,0,1,.22,4.35,4.35,0,0,0-.49.72,7.33,7.33,0,0,1-1.38-.5,2.66,2.66,0,0,1-1-.85,3.47,3.47,0,0,1-.66-1.28h-1v1.57l1.48-.29v.63l-.54.12c-.19,0-.38.1-.57.13l-2,.41-.23-.79.62-.07h.49V95h-1a9.71,9.71,0,0,1-.85,2.35,2.6,2.6,0,0,0-.36-.3l-.3-.17a6.28,6.28,0,0,0,.62-1.31,6.69,6.69,0,0,0,.27-1.66C183.58,93.68,183.59,92.55,183.59,90.48Zm.69,3.91h1.38v-.81h-1.09V93h1.09v-.65h-1.32v1.4q0,.31-.06.66ZM189,91.73v-.65h-4.63v.66Zm-1.28,2.66v-.81h-1.31v.81Zm0-1.41v-.65h-1.28V93Z"/><path class="cls-8" d="M192.09,96.74a3.67,3.67,0,0,0-.65-.53,7,7,0,0,0,.88-.84c.24-.29.57-.75,1-1.38l.72.44a16.41,16.41,0,0,1-1,1.31A9,9,0,0,1,192.09,96.74Zm-.52-3.37v-.72H199v.72H195.7v3.44a.45.45,0,0,1-.19.43,3.81,3.81,0,0,1-1.25.25,3.83,3.83,0,0,0-.33-.81h.92a.24.24,0,0,0,0-.12V93.37Zm.88-1.94v-.69h5.65v.72Zm6.63,4.75-.6.56a9.55,9.55,0,0,1-1-1.06,6.6,6.6,0,0,1-1-1.16l.72-.5a9.08,9.08,0,0,0,.92,1.13,13.25,13.25,0,0,0,1,1Z"/><path class="cls-14" d="M156.85,95.5h-3v-3h3Zm-6,0h-3v-3h3Zm-6,0h-3v-3h3Z"/><g class="cls-20"><circle class="cls-6" cx="17.63" cy="157.09" r="8.78"/><circle class="cls-1" cx="17.63" cy="157.09" r="8.78"/><path class="cls-7" d="M17.63,155.47H13.05l-.33-.42c.39-1.21,2.46-2.14,4.91-2.14s4.52.93,4.92,2.14l-.33.42Z"/><path class="cls-21" d="M12.89,156.26c.79,0,.79.64,1.58.64s.78-.64,1.57-.64.79.64,1.58.64.79-.64,1.58-.64.79.64,1.58.64.8-.64,1.59-.64"/><path class="cls-7" d="M22.24,159.29H13l-.3-.31V158l.3-.3h9.22l.31.3V159Z"/><path class="cls-7" d="M22.21,161H13.05l-.26-.26v-.65l.26-.26h9.16l.26.26v.66Z"/><rect class="cls-12" x="16.7" y="145.45" width="1.86" height="23.28" transform="translate(-105.91 58.48) rotate(-45)"/></g></g></svg>