<svg xmlns="http://www.w3.org/2000/svg" id="prefix__レイヤー_1" data-name="レイヤー 1" viewBox="0 0 420.76 176.04"><defs><style>.prefix__cls-1{fill:#fff36d}</style></defs><path d="M128 141.07v-9.33h5.84v17.76h-20V69.14h-67v80.36H33.21l-6.5-8.32h7.14V60.49h93v80.58zm-62.64 2.66l-4.55 5.77h-7.48l-6.49-8.32h6.49l5-6.44zm-.81-22.31h49L91.79 149.5H79.46l-5.52-7.1h9.41l11.2-14.54H52.84v-42h15.09l4.39-5.44H48.79V73h63v7.43H84.33l-4.06 5.47h23.2v23.42H64.53v2.78h47.22v6.44H64.53zm2.43 22l-11.54-14.67h10.38l6.17 8.1zm24.81-49.08v-2H64.53v2zm-27.26 6.44v2.11h27.26v-2.11zm13.3 41.07l-10.22-13.1H77l5.52 7.1zm9.9-13.1l2.44 3.11-4.38 5.66-7-8.77zM163.52 84.13l8.6 11.21-5.68 7.32-3.09-4v50.84h-11v-44.62l-4.06 5.22h-2.59l-6-7.77h1.62l10.88-13.87V81h-10.75v-7.75h10.71V58.71h11.36v14.54h9.9V81h-9.9zm32.29 22.31h13.63l-3.89 4.88h39.92v8h-17.69L217.07 133l6.49 8.32h21.59v8.21h-27.27l-6.81-8.76-6.82 8.76h-30.18l-6.33-8.21h25.31l-12.17-15.76 4.87-6.22h-18v-8h24.18zm-27.59-4.66h6.33l4.22-5.55h12.17l-9.57 12.43h-7.79zm8.28-7.33V60H207v34.45zM197 69.36v-2.88h-10.44v2.88zm-10.39 9.33H197V75.8h-10.44zm0 6.44V88H197v-2.87zm13.15 20.75l-7.47-9.65h11l1.94 2.55zm2.43 29.31l12.33-15.88h-15.14l-4.87 6.22zm10.39-25.65l-5.85-7.43 4.55-5.88h11.68zm-1.79-15.09V60h31.32v34.45zM232 69.36v-2.88h-11.2v2.88zm-11.2 6.44v2.89H232V75.8zm0 9.33V88H232v-2.87zm18.2 11.1l3.89 5.1h3.9v7.33h-10.41l-9.57-12.43zM257.48 97.78h15.58L296.26 68h-11.2l3.74 4.66-5.52 7.11-6.49-8.44-2.27 2.78 6.65 8.43-5.52 7.11-6.65-8.41-6.17 8-6.16-8.1L273.06 60h43l-36 46.4h-15.9zm18.66 39.4l8.44-10.76h13.63l-14.77 19h-18.82l-6.33-8.22zm78.38-23.86v8.21h-40.73v28h-15.42l-6.49-8.21h9.25v-19.79H260.4v-8.21zM286.2 98.89h42.68v8.21H286.2zM359.39 60l-23 29.64 6 7.66h14.77v8.7h-22.4l-26.33-33.86h14.28l6.33 8 9.25-11.88h-21.58V60zm-42.19 66.42h13.47l8.43 10.76h18v8.22H332zM45.89 39.88h8v2.37h-9v7.69h-4.8l-1.5-2.38h3.47v-5.31h-9v-2.37h9v-2h2l1.49-2.4h-8.11V33.2H50zm4.72-8H36.35v3H33.5v-5.36h3.26l-2-3.19h3.09l1.33 2.12-.68 1.07h3.66l-2-3.19h3.09l1.15 1.89-.81 1.3h2.91l2-3.3h3.1l-2.07 3.3h3.93v5.28h-2.85zM58.56 29.58h3.8l-1.26 2h-2.54zm6.75 1.28l-3.5 5.56h-1.9l-1.25-2h1.8l2.24-3.53zm-1.76 4.35h1.83v-6.44h-6.55v-2.21H68v10.62h-3.23zm12.69 3.42v11.31h-14.6V38.63h5.61l1-1.68h3l-1 1.68zm-2.71 4.55v-2.35h-9.17v2.35zm-9.17 2.21v2.35h9.2v-2.35zm5.26-8.94l-1.25-2h2.68l2.24-3.56h2.61l-3.49 5.56zm-.74-6.87H73l-1.26 2h-2.86zm10.28-3v10.6h-3.73l-1.26-2h2.41v-6.41h-7.13v-2.21zM91.11 46.55h-2.89l-1.29-2h1.67v-7.81l-2.07-3.3v16.5H84V26.56h8.62l-3.87 6.27 2.34 3.77zm-2.34-18h-2.24v3.63zm13.92 19.26v-2.63h2.24v4.76h-6.59v-9.69h-1.93l.88 1.42-5.13 8.27h-2.48l-1.32-2.09h2.17l4.72-7.6h-3.46v-2.14h12.76v2.14h-3.63v7.6zM91.62 28.28h5.26v-2.06h2.58v2.06h5.26v6.35h-2.58v-4.21H94.2v4.21h-2.58zm10.22 5v2.15H94.5v-2.14zM130.22 30.36v10.82h-8.9v8.76h-2.88v-8.76h-8.93V30.36h8.93v-4.14h2.88v4.14zm-17.83 2.41v6h6v-6zm8.93 0v6h6v-6zM139.25 40.54V36h5.36v4.58zM165.38 26.22v2.11h9v2.32H153.6v-2.32h9v-2.11zm8.22 11.57v12.15h-4.75l-1.33-2.15h3.36V40H157.1v9.95h-2.71V37.79zm-15.62-1v-5.24h12v5.28zm10.83 4.24v5.51h-9.6v-5.47zm-1.39-6.21v-1.3h-6.82v1.34zm-5.63 8.29v1.34h4.44v-1.3zM179.51 31.44l-1.33-2.09h1.39l1.94-3.13h2.85l-.58.9h5.44v2.05h-2.79l.58.93-1.39 2.21-2-3.14h-1.12l-1.43 2.27zm17.65 3.27h-6.38v1.69h8.72v2.2h-20.1v-2.2h8.73v-1.69h-6.38v-2.2h6.38v-2.2h2.65v2.2h6.38zm-5.33 4.12h2.71V40h4.89v2.2h-4.89v7.74h-4.44l-1.33-2.15h3.06V42.2h-12.12V40h12.12zm-5.7 9.25l-3.36-5.39h3.08l1.84 2.93zm8.28-21.86l-.58.9h6v2.05h-2.92l.51.85-1.42 2.23-1.9-3.08h-1.56l-.65 1h-1.39l-1.22-2h1l1.25-2zM211 36.57l2.88 4.67-1.46 2.35-1.76-2.84v9.19H208v-8.61l-2 3.1h-.51l-1.43-2.26h.34l3.53-5.6h-3.43v-2.32h3.5v-3.86h-2.07l-1.36-2.2h6.12l1.22-2h3l-2.58 4.17h-1.66v3.86h3.22v2.32zm12.83 1.77h2.58l-3.77 6.06v5.54H220v-4.73h-5.22l-1.36-2.14H220V26.22h2.65v14zm-6.11 2.75l-3.6-5.77H217l2.18 3.51zm2.07-8.64l-1.42 2.26-3.77-6.06h2.81zM370.19 81.12h-4v-21a13.12 13.12 0 015.55 1.19 22.13 22.13 0 014.72 2.88c1.4 1.13 3.08 2.62 5 4.48a50.75 50.75 0 006.14 5.19 9.14 9.14 0 005.21 1.66 3.39 3.39 0 002.53-1.19 4.33 4.33 0 001.11-3.08 3.88 3.88 0 00-1.33-3.25 4.81 4.81 0 00-3.07-1h-3v-3.25l3.19-2.37a8.18 8.18 0 015.8 2.51q2.46 2.44 2.46 7.33a11.86 11.86 0 01-1 5 8.86 8.86 0 01-2.77 3.52 6.34 6.34 0 01-3.86 1.29 11.19 11.19 0 01-6.34-1.93 54.41 54.41 0 01-6.88-5.73c-2-2-3.72-3.45-5.06-4.52a16.37 16.37 0 00-4.32-2.47zM373.92 106a7.46 7.46 0 01-5.95-2.71 10.63 10.63 0 01-2.31-7.13A10.59 10.59 0 01368 89a7.5 7.5 0 015.9-2.71h18.3a7.4 7.4 0 015.92 2.71 10.63 10.63 0 012.34 7.15 10.5 10.5 0 01-2.34 7.16 7.49 7.49 0 01-5.92 2.69zm18.28-5.43a4.29 4.29 0 003.17-1.15 4.42 4.42 0 001.16-3.26 4.52 4.52 0 00-1.16-3.29 4.23 4.23 0 00-3.17-1.19h-18.28a4.23 4.23 0 00-3.17 1.19 4.52 4.52 0 00-1.15 3.29 4.41 4.41 0 001.15 3.26 4.29 4.29 0 003.17 1.15zM370.19 131.53h-4v-21a13.12 13.12 0 015.55 1.19 22.13 22.13 0 014.72 2.88c1.4 1.13 3.08 2.62 5 4.48a50.75 50.75 0 006.14 5.19 9.14 9.14 0 005.21 1.66 3.39 3.39 0 002.53-1.19 4.33 4.33 0 001.11-3.08 3.88 3.88 0 00-1.31-3.26 4.81 4.81 0 00-3.07-1h-3v-3.19l3.19-2.37a8.18 8.18 0 015.8 2.51q2.46 2.45 2.46 7.33a11.86 11.86 0 01-1 5 8.86 8.86 0 01-2.77 3.52 6.34 6.34 0 01-3.86 1.29 11.19 11.19 0 01-6.34-1.93 54.41 54.41 0 01-6.88-5.73c-2-2-3.72-3.45-5.06-4.52a16.37 16.37 0 00-4.32-2.47zM400 145.44h-33.84v-5.56H396v-2l3.94-2.92z" class="prefix__cls-1"/></svg>