<svg id="prefix__レイヤー_1" data-name="レイヤー 1" xmlns="http://www.w3.org/2000/svg" viewBox="0 0 137.81 83.38"><defs><style>.prefix__cls-2{fill:#fff}</style></defs><rect x="10.26" y="29.47" width="113.85" height="18.17" rx="2.38" transform="rotate(18.44 67.177 38.54)" fill="#cf084d" opacity=".73"/><path class="prefix__cls-2" d="M16.72 26.36a2.55 2.55 0 01-.45-2.57l1.21-3.64a2.52 2.52 0 012-1.74 6.44 6.44 0 013.52.32 6.07 6.07 0 012.69 1.63l-1.35.64a2.71 2.71 0 00-1.74-1.25 3.35 3.35 0 00-1.93-.14 1.64 1.64 0 00-1.18 1.17l-1.21 3.64c-.41 1.22.22 2.11 1.88 2.66a3.88 3.88 0 001.25.24 2.25 2.25 0 00.95-.23l.64 1.4a4.36 4.36 0 01-1.58.09 8.46 8.46 0 01-1.64-.37 6.62 6.62 0 01-3.06-1.85zM25.63 29.29A2.43 2.43 0 0125.2 27l1.36-4.07a2.37 2.37 0 011.75-1.58 5.59 5.59 0 013.31.26 5.52 5.52 0 012.85 1.81 2.45 2.45 0 01.4 2.28l-1.35 4.07a2.24 2.24 0 01-1.2 1.39 4 4 0 01-1.89.32 8.1 8.1 0 01-2-.39 5.54 5.54 0 01-2.8-1.8zm4.92.79a1.52 1.52 0 001-1L32.87 25a1.48 1.48 0 00-.2-1.4 2.89 2.89 0 00-1.42-.94 2.45 2.45 0 00-1.8-.06 1.63 1.63 0 00-.89 1l-1.36 4.07a1.44 1.44 0 00.22 1.41 2.89 2.89 0 001.4.92 2.68 2.68 0 001.73.08zM35.74 29a3.35 3.35 0 01.86-1.36 6.33 6.33 0 011.34-1c.5-.29 1.16-.64 2-1.06l1.21-.61.79.26L43 27.62a1 1 0 01.1.44 1 1 0 01.34-.28l2.35-1.27.76.25c.06.1.11.21.17.33s.13.26.21.41c.5 1 .88 1.76 1.14 2.33a7.09 7.09 0 01.51 1.73 3.6 3.6 0 01-.14 1.67l-1.36 4.09-2-.67 1.36-4.08a4.92 4.92 0 00-.62-3.57c-.14-.28-.22-.44-.24-.5a1 1 0 01-.31.19 9.25 9.25 0 00-1.22.73 1.46 1.46 0 00-.49.73l-1.71 5.12-2-.66 1.7-5.13a1.54 1.54 0 00.06-.87 5.67 5.67 0 00-.47-1.16 3.72 3.72 0 01-.21-.5l-.5.27a4.92 4.92 0 00-2.69 2.44l-1.36 4.09-2-.67zM51.22 38.54l-2-.67 3.07-9.21 2 .67zM62.56 32.08l2 .67L61.49 42l-2.07-.69a12.93 12.93 0 00-1.54-9l-2.55 7.65-2-.67L56.4 30l2 .65a9.75 9.75 0 011.6 2.7 16 16 0 011 3.3zM71.43 45.27l-1.11-.36-.53-1.1a2.87 2.87 0 01-1.21.38 3.67 3.67 0 01-1.43-.19 5.43 5.43 0 01-2.54-1.6 2.46 2.46 0 01-.36-2.51l1.25-3.73a2.56 2.56 0 011.89-1.72 5.9 5.9 0 013.46.26 6.94 6.94 0 011.91.94 4 4 0 011.1 1l-1.54.78c-.13-.75-.74-1.3-1.84-1.67a3 3 0 00-1.91-.1 1.72 1.72 0 00-1.07 1.15l-1.21 3.64a1.82 1.82 0 000 1.6 2.84 2.84 0 001.6 1 2.08 2.08 0 001.24.08 2.35 2.35 0 001-.63l.71-2.13-1.84-.58-.65-1.38 4.83 1.6zM79.15 47.59a4.8 4.8 0 01-1.31-1.67l1.62-.85a3.36 3.36 0 00.87 1.69 4 4 0 001.55.91 3 3 0 001.27.18.73.73 0 00.7-.46c.11-.33 0-.81-.44-1.45l-1.78-2.68-1.06-1.6a1.82 1.82 0 01-.32-1.58 1.5 1.5 0 01.78-.85 3.57 3.57 0 011.57-.3 7.19 7.19 0 012.14.4A5.57 5.57 0 0187.47 41l-1.55.82a2.28 2.28 0 00-1.67-1.44 2.46 2.46 0 00-1.25-.14.7.7 0 00-.61.46 1.17 1.17 0 00.2.95c.33.59 1 1.65 2.09 3.18.38.54.66.94.82 1.2a2.38 2.38 0 01.41 2 1.8 1.8 0 01-1.51 1.1 6.26 6.26 0 01-3-.37 7.3 7.3 0 01-2.25-1.17zM87.86 50a2.45 2.45 0 01-.44-2.29l1.36-4.07a2.4 2.4 0 011.75-1.58 5.67 5.67 0 013.31.26 5.52 5.52 0 012.85 1.81 2.46 2.46 0 01.41 2.28l-1.36 4.07a2.2 2.2 0 01-1.2 1.4 3.93 3.93 0 01-1.88.31 8.18 8.18 0 01-2-.39 5.52 5.52 0 01-2.8-1.8zm4.91.78a1.46 1.46 0 001-1l1.36-4.06a1.45 1.45 0 00-.2-1.4 2.77 2.77 0 00-1.41-.94 2.51 2.51 0 00-1.8-.07 1.62 1.62 0 00-.9 1l-1.35 4.07a1.4 1.4 0 00.21 1.4 2.85 2.85 0 001.4.92 2.61 2.61 0 001.69.12zM97.93 53.4a2.44 2.44 0 01-.43-2.29L98.86 47a2.39 2.39 0 011.75-1.58 5.67 5.67 0 013.31.26 5.56 5.56 0 012.85 1.81 2.46 2.46 0 01.4 2.28l-1.35 4.07a2.25 2.25 0 01-1.2 1.4 4 4 0 01-1.89.31 8.1 8.1 0 01-2-.39 5.6 5.6 0 01-2.8-1.76zm4.92.78a1.48 1.48 0 001-1l1.36-4.06a1.48 1.48 0 00-.2-1.4 2.76 2.76 0 00-1.42-.94 2.51 2.51 0 00-1.8-.07 1.6 1.6 0 00-.89 1l-1.4 4.07a1.43 1.43 0 00.22 1.4 2.76 2.76 0 001.4.92 2.68 2.68 0 001.73.08zM116 49.9l2 .67-3.07 9.21-2.08-.69a12.83 12.83 0 00-1.54-9l-2.55 7.64-2-.66 3.07-9.21 2 .65a10.26 10.26 0 011.65 2.67 16.66 16.66 0 011 3.3z"/></svg>