<svg version="1.1" id="prefix__レイヤー_1" xmlns="http://www.w3.org/2000/svg" x="0" y="0" viewBox="0 0 913 164.8" xml:space="preserve"><style>.prefix__st0{fill:#fff}.prefix__st1{fill:#dc5e9e}</style><path class="prefix__st0" d="M31.2 0h850.6C899 0 913 14 913 31.2v102.5c0 17.2-14 31.2-31.2 31.2H31.2C14 164.8 0 150.9 0 133.7V31.2C0 14 14 0 31.2 0z"/><path class="prefix__st1" d="M31.2 0h133.7v164.8H31.2C14 164.8 0 150.9 0 133.7V31.2C0 14 14 0 31.2 0zM246.1 70.8h-9.8v27.6H229V63.6h17.1v7.2zm-1.5-5.7h-14.2v31.7h4.3V69.3h9.8v-4.2zM272.6 104.2h-4V88.7c0-4.3-1.5-8-6-8-3.9.1-7 3.4-6.9 7.3v16.1h-4V65.8h4v16.3h.1c1.7-2.9 4.8-4.6 8.1-4.7 3.2 0 8.7 2 8.7 10.8v16zM302.5 90.9c0 9.8-6.4 13.9-12.2 13.9-6.7 0-11.9-5-11.9-13.5 0-8.9 5.6-13.9 12.2-13.9 7.2 0 11.9 5.5 11.9 13.5zm-12-10.4c-5.7 0-8 5.6-8 10.6 0 5.8 3.2 10.5 7.9 10.5s8.1-4.7 8.1-10.6c0-4.6-2.3-10.5-8-10.5zM329.1 97.2c0 2.7.1 4.9.2 7h-3.6l-.2-4.1h-.1c-1.7 3-4.9 4.8-8.4 4.7-3.9 0-8.6-2.3-8.6-11.3V78h4v14.8c0 5.1 1.5 8.6 5.9 8.6 3.8-.1 6.9-3.2 6.8-7V78h4v19.2zM359.2 90.9c0 9.8-6.4 13.9-12.2 13.9-6.7 0-11.9-5-11.9-13.5 0-8.9 5.6-13.9 12.2-13.9 7.1 0 11.9 5.5 11.9 13.5zm-12.1-10.4c-5.7 0-8 5.6-8 10.6 0 5.8 3.2 10.5 7.9 10.5s8-4.7 8-10.6c.1-4.6-2.2-10.5-7.9-10.5zM385.7 97.2c0 2.7.1 4.9.2 7h-3.6l-.2-4.1h-.1c-1.7 3-4.9 4.8-8.4 4.7-3.9 0-8.6-2.3-8.6-11.3V78h4v14.8c0 5.1 1.5 8.6 5.9 8.6 3.8-.1 6.9-3.2 6.8-7V78h4v19.2zM394 78c0-3.3 0-7.5 2.9-10.5 1.7-1.5 3.9-2.4 6.1-2.3 1.3 0 2.7.2 3.9.8l-.7 3.1c-.9-.4-2-.6-3-.6-4.1 0-5.1 3.8-5.1 8.1V78h6.3v3.1H398v23h-4v-23h-3.6V78h3.6zM427 103.1c-2.6 1.1-5.4 1.7-8.2 1.6-7.6 0-12.2-5.4-12.2-13.2 0-8.2 4.6-14.1 11.7-14.1 8.1 0 10.1 7.4 10.1 12 0 .9 0 1.6-.1 2.2h-17.8c0 7.2 4.2 10 8.9 10 2.4 0 4.7-.4 6.9-1.3l.7 2.8zm-2.5-14.5c0-3.6-1.4-8.2-6.6-8.2-4.8 0-6.9 4.6-7.3 8.2h13.9zM446.6 82c-1.5-1-3.3-1.5-5.1-1.5-2.9 0-4.4 1.8-4.4 3.9 0 2.3 1.5 3.3 4.9 4.8 4.2 1.7 6.7 3.9 6.7 7.9 0 4.7-3.5 7.7-9.3 7.7-2.4 0-4.8-.6-6.9-1.8l1.1-3.1c1.8 1.1 3.8 1.7 5.9 1.8 3.5 0 5.2-1.9 5.2-4.2s-1.4-3.8-4.9-5.2c-4.4-1.8-6.7-4.2-6.7-7.4 0-4.1 3.3-7.4 8.5-7.4 2.1 0 4.2.5 6 1.6l-1 2.9zM450.8 107.8h27.1v2.4h-27.1v-2.4zM501.5 104.2h-21.3v-2.4l3.5-3.7c8.5-8.7 12.9-13.9 12.9-19.7 0-3.8-1.7-7.4-6.9-7.4-2.7.2-5.2 1.2-7.2 3l-1.3-2.8c2.6-2.3 5.9-3.5 9.3-3.5 7.2 0 10.1 5.3 10.1 10.2 0 6.8-4.8 12.5-12.2 20l-2.8 3v.1h15.9v3.2zM506.2 86.3c0-12.6 4.9-18.7 11.6-18.7s11 6.4 11 18.2c0 12.5-4.4 18.9-11.5 18.9-6.5.1-11.1-6.4-11.1-18.4zm18.6-.3c0-9-2.2-15.2-7.2-15.2-4.3 0-7.3 5.7-7.3 15.2s2.6 15.5 7.1 15.5c5.4 0 7.4-6.9 7.4-15.5zM554.4 104.2h-21.3v-2.4l3.5-3.7c8.5-8.7 12.9-13.9 12.9-19.7 0-3.8-1.7-7.4-6.9-7.4-2.7.2-5.2 1.2-7.2 3l-1.3-2.8c2.6-2.3 5.9-3.5 9.3-3.5 7.2 0 10.1 5.3 10.1 10.2 0 6.8-4.8 12.5-12.2 20l-2.8 3v.1h15.9v3.2zM569.7 104.2V72h-.1l-5.9 3.4-1-3 7.4-4.2h3.4v36h-3.8zM585.3 101.1h9.8V73.6h7.3v34.7h-17.1v-7.2zm1.5 5.7H601V75h-4.3v27.6h-9.8l-.1 4.2zM635.8 67.6h4v36.6h-4V67.6zM668.7 104.2h-4V88.7c0-4.3-1.5-8-6.1-8-3.9.1-7 3.5-6.9 7.4v16.1h-4V84.7c0-2.7-.1-4.7-.2-6.8h3.6l.2 4.3h.1c1.7-3.1 4.9-4.9 8.4-4.8 3.3 0 8.8 2 8.8 10.8l.1 16zM688.7 82c-1.5-1-3.3-1.5-5.1-1.5-2.9 0-4.4 1.8-4.4 3.9 0 2.3 1.5 3.3 4.8 4.8 4.2 1.7 6.7 3.9 6.7 7.9 0 4.7-3.5 7.7-9.3 7.7-2.4 0-4.8-.6-6.9-1.8l1.1-3.1c1.8 1.1 3.8 1.7 5.9 1.8 3.5 0 5.2-1.9 5.2-4.2s-1.4-3.8-4.8-5.2c-4.4-1.8-6.7-4.2-6.7-7.4 0-4.1 3.3-7.4 8.5-7.4 2.1 0 4.2.5 6 1.6l-1 2.9zM697.9 73.3l3.9-1.3v6h6.8v3.1h-6.8v15.1c0 3.3 1 5.1 3.6 5.1.9 0 1.8-.1 2.7-.4l.2 3.1c-1.2.5-2.6.7-3.9.6-6.3 0-6.5-5.8-6.5-8.6V81h-4v-3h4v-4.7zM730.9 98c0 2.1.1 4.2.4 6.2h-3.6l-.4-3.4h-.1c-1.7 2.5-4.7 4-7.7 3.9-4 .2-7.4-2.9-7.6-6.9v-.6c0-6.3 5.5-9.7 15.2-9.7 0-2.2 0-7.2-6-7.2-2.3 0-4.5.6-6.4 1.9l-1-2.7c2.4-1.5 5.2-2.2 8-2.2 7.4 0 9.3 5.2 9.3 10.4l-.1 10.3zm-3.9-7.4c-4.9 0-11.1.7-11.1 6.2 0 3.4 2.1 4.8 4.5 4.8 3.5.1 6.5-2.6 6.6-6.1v-4.9zM759.9 78c-.1 1.9-.2 4-.2 7.2v15.3c0 4.6-.1 15-12.5 15-2.9.1-5.7-.6-8.2-2.1l1-3.1c2.2 1.3 4.8 2 7.3 2 4.8 0 8.3-2.5 8.3-9.4v-3.2h-.1c-1.7 2.9-4.8 4.6-8.1 4.5-6.2 0-10.7-5.5-10.7-12.9 0-9.1 5.7-13.9 11.3-13.9 3.3-.2 6.4 1.6 8 4.5h.1l.2-3.9h3.6zm-4.3 10.1c.2-3.9-2.8-7.2-6.6-7.4h-.4c-4.6 0-7.8 4.1-7.8 10.4 0 5.6 2.7 9.9 7.8 9.9 3 0 7-2.2 7-7.7v-5.2zM779.5 81.4c-.5-.1-1-.1-1.4-.1-4.3 0-6.5 4.3-6.5 8.7v14.2h-4V85.8c0-2.8 0-5.3-.2-7.8h3.5l.2 5h.1c1.2-3.3 3.9-5.6 7.1-5.6.4 0 .8.1 1.2.2v3.8zM801.2 98c0 2.1.1 4.2.4 6.2H798l-.4-3.4h-.1c-1.7 2.5-4.7 4-7.7 3.9-4 .2-7.4-2.9-7.6-6.9v-.6c0-6.3 5.5-9.7 15.2-9.7 0-2.2 0-7.2-6-7.2-2.3 0-4.5.6-6.4 1.9l-1-2.7c2.4-1.5 5.2-2.2 8-2.2 7.4 0 9.3 5.2 9.3 10.4l-.1 10.3zm-3.9-7.3c-4.9 0-11.1.7-11.1 6.2 0 3.4 2.1 4.8 4.5 4.8 3.5.1 6.5-2.6 6.6-6.1v-4.9zM844.5 104.2h-3.9V89.1c0-5.1-1.8-8.3-5.8-8.3-3.2 0-6.1 3-6.1 7v16.5h-3.9V88.1c0-4.2-1.8-7.3-5.5-7.3-3.4 0-6.4 3.4-6.4 7.4v16H809V84.7c0-2.7-.1-4.6-.2-6.8h3.5l.2 4.2h.1c1.5-3 4.6-4.9 8-4.8 3.3 0 6.2 2.1 7.2 5.2h.1c1.7-3.1 4.4-5.2 8.4-5.2 3.2 0 8.3 2.1 8.3 11l-.1 15.9z"/><path class="prefix__st0" d="M82.4 41.2c-11.2 0-12.6 0-17 .2-3.4.1-6.8.7-10 1.9-5.5 2.1-9.9 6.5-12.1 12.1-1.2 3.2-1.8 6.6-1.9 10-.2 4.4-.2 5.8-.2 17s0 12.6.2 17c.1 3.4.7 6.8 1.9 10 2.1 5.5 6.5 9.9 12.1 12 3.2 1.2 6.6 1.8 10 1.9 4.4.2 5.8.2 17 .2s12.6 0 17-.2c3.4-.1 6.8-.7 10-1.9 5.5-2.1 9.9-6.5 12-12 1.2-3.2 1.8-6.6 1.9-10 .2-4.4.2-5.8.2-17s0-12.6-.2-17c-.1-3.4-.7-6.8-1.9-10-2.1-5.5-6.5-9.9-12-12.1-3.2-1.2-6.6-1.9-10-1.9-4.3-.1-5.8-.2-17-.2zm0 7.4c11 0 12.3 0 16.7.2 2.6 0 5.2.5 7.7 1.4 3.6 1.4 6.4 4.2 7.8 7.8.9 2.5 1.4 5 1.4 7.7.2 4.3.2 5.6.2 16.6s0 12.3-.2 16.7c0 2.6-.5 5.2-1.4 7.7-1.4 3.6-4.2 6.4-7.8 7.8-2.5.9-5 1.4-7.7 1.4-4.3.2-5.6.2-16.7.2s-12.3 0-16.6-.2c-2.6 0-5.2-.5-7.7-1.4-3.6-1.4-6.4-4.2-7.8-7.8-.9-2.5-1.4-5-1.4-7.7-.2-4.3-.2-5.6-.2-16.7s0-12.3.2-16.6c0-2.6.5-5.2 1.4-7.7 1.4-3.6 4.2-6.4 7.8-7.8 2.5-.9 5-1.4 7.7-1.4 4.3-.1 5.6-.2 16.6-.2"/><path class="prefix__st0" d="M82.4 96.2c-7.6 0-13.7-6.2-13.7-13.7s6.2-13.7 13.7-13.7c7.6 0 13.7 6.2 13.7 13.7.1 7.5-6.1 13.7-13.7 13.7zm0-34.9c-11.7 0-21.2 9.5-21.2 21.2s9.5 21.2 21.2 21.2 21.2-9.5 21.2-21.2c0-11.8-9.5-21.2-21.2-21.2zM109.4 60.4c0 2.7-2.2 4.9-4.9 4.9s-4.9-2.2-4.9-4.9 2.2-4.9 4.9-4.9c2.6 0 4.9 2.2 4.9 4.9z"/><path class="prefix__st1" d="M231 55.5V37.2h9.2v1.7H233v6.5h6.6V47H233v8.4h-2zM258 46.2c0 6.4-3.6 9.6-7.9 9.6-4.5 0-7.8-3.6-7.8-9.3 0-6 3.4-9.6 8-9.6 4.7 0 7.7 3.7 7.7 9.3zm-13.6.2c0 3.9 2 7.7 5.7 7.7 3.8 0 5.8-3.7 5.8-7.8 0-3.7-1.8-7.7-5.7-7.7-4 0-5.8 3.9-5.8 7.8zM270.6 55.5H261V37.2h2v16.6h7.6v1.7zM282.7 55.5h-9.6V37.2h2v16.6h7.6v1.7zM300 46.2c0 6.4-3.6 9.6-7.9 9.6-4.5 0-7.8-3.6-7.8-9.3 0-6 3.4-9.6 8-9.6s7.7 3.7 7.7 9.3zm-13.6.2c0 3.9 2 7.7 5.7 7.7 3.8 0 5.8-3.7 5.8-7.8 0-3.7-1.8-7.7-5.7-7.7-4.1 0-5.8 3.9-5.8 7.8zM322.7 37.2l-5 18.3h-2l-2.4-9.8c-.6-2.4-1-4.2-1.2-6-.3 1.8-.8 3.6-1.4 6l-2.6 9.8h-2l-4.5-18.3h2.1l2.2 9.5c.5 2.3 1 4.5 1.3 6.3h.1c.3-1.8.9-4 1.5-6.4l2.5-9.5h2l2.3 9.5c.5 2.2 1 4.4 1.3 6.4h.1c.4-2.1.9-4.1 1.4-6.4l2.5-9.5h1.8zM347.9 55.5h-2l-.5-8.2c-.1-2.6-.3-6-.3-7.9h-.1c-.6 2.1-1.3 4.3-2.2 6.9l-3.3 9.2H338l-3-9c-.9-2.6-1.6-4.9-2.1-7.1h-.1c0 2.2-.2 5.3-.4 8.1l-.5 8H330l1.3-18.3h2.4l3.2 9.3c.8 2.3 1.4 4.2 1.8 6.1h.1c.5-1.8 1.1-3.8 1.9-6.1l3.3-9.3h2.5l1.4 18.3zM361.1 55.5h-9.6V37.2h9.2v1.7h-7.2v6.2h6.8v1.7h-6.8v7.1h7.7v1.6zM365.8 54.2c0-.9.7-1.6 1.5-1.6s1.5.7 1.5 1.6c0 .9-.7 1.6-1.5 1.6-.9 0-1.5-.8-1.5-1.6zm.7-3.9l-.4-13.2h2.3l-.4 13.2h-1.5z"/></svg>