<svg id="prefix__レイヤー_1" data-name="レイヤー 1" xmlns="http://www.w3.org/2000/svg" viewBox="0 0 913 164.84"><defs><style>.prefix__cls-1{fill:#fff}.prefix__cls-2{fill:#00a3e1}</style></defs><rect class="prefix__cls-1" width="913" height="164.84" rx="31.18"/><path class="prefix__cls-2" d="M31.18 0h133.66v164.84H31.18A31.18 31.18 0 010 133.66V31.18A31.18 31.18 0 0131.18 0z"/><g id="prefix__Logo"><path id="prefix__white_background" data-name="white background" class="prefix__cls-1" d="M125.76 60.18c.07 1 .07 1.93.07 2.9 0 29.55-22.5 63.63-63.63 63.63a63.24 63.24 0 01-34.28-10A44.73 44.73 0 0061 107.4a22.43 22.43 0 01-20.9-15.53 22.38 22.38 0 0010.1-.39 22.37 22.37 0 01-17.92-21.92v-.28a22.29 22.29 0 0010.15 2.8 22.4 22.4 0 01-6.92-29.87A63.45 63.45 0 0081.6 65.58a22.38 22.38 0 0138.11-20.4 44.74 44.74 0 0014.2-5.43 22.41 22.41 0 01-9.83 12.37 44.37 44.37 0 0012.84-3.52 45.18 45.18 0 01-11.16 11.58z"/></g><path class="prefix__cls-2" d="M246.05 70.78h-9.84v27.55h-7.3v-34.7h17.14zm-1.49-5.67H230.4v31.74h4.32V69.29h9.84zM254.73 66.36h33.89c-.05 17.67.05 38.5 3 38.5.67 0 1-3.31 1-7.63a11.21 11.21 0 002 2.21c-.33 6.38-1 8.78-3.31 8.83-5.71 0-5.57-18-5.76-39.08H257.8v9.17c0 8.6-.72 21.17-6 29.91a9.57 9.57 0 00-2.64-1.82c5.09-8.36 5.57-19.88 5.57-28.09zm7.68 33.13c-.86 2.68-2.25 5.61-4.7 7.29l-2-1.39a12.46 12.46 0 004.56-6.67zM264.52 88v2.31h19.64v2.11h-19.64v2.4h16.9l.63-.1 1.63.24-.15.92c-.48 6.81-1 9.4-1.87 10.41s-1.82 1.06-3.69 1.06c-.77 0-1.68 0-2.6-.1a6.64 6.64 0 00-.67-2.35c1.54.14 2.88.19 3.41.19s.91 0 1.2-.43c.58-.62 1-2.64 1.34-7.73h-19v-20.1h7.1c.34-.87.67-1.87 1-2.79h-10.22v-2.25h24.29V74h-10.51a1.06 1.06 0 01-.63.15c-.33.72-.76 1.73-1.2 2.64h9.32V88zm.34 17.91a26.91 26.91 0 00-.62-6.58l2-.24a25.08 25.08 0 01.82 6.53zm13-27h-13.34v2.45h13.35zm-13.35 7h13.35v-2.55h-13.34zm6.35 19.09a21.46 21.46 0 00-2.21-5.72l1.92-.52a20.6 20.6 0 012.35 5.61zm4.42-6.87a18.13 18.13 0 013.26 4.37l-1.92 1a16.47 16.47 0 00-3.12-4.5zM307.29 80c1.2 1.44 4.32 5.72 5 6.77l-1.63 2.4a67.23 67.23 0 00-3.41-5.85v24.81h-3V84.8c-1.54 5.47-3.56 10.75-5.67 14a20.76 20.76 0 00-1.58-2.67c2.78-4.13 5.62-12 6.91-18.82H298v-3h6.34V63.63l3.88.28c0 .29-.28.53-.91.63v9.79h5.23v3h-5.23zm34.8 14.69h-5.95a15 15 0 01-4.32 7.4 79.69 79.69 0 019.7 3.79l-1.92 2.4a83.61 83.61 0 00-10.47-4.18c-3.84 2.26-9.31 3.55-16.85 4.27a8.48 8.48 0 00-1.24-2.83c6.19-.38 10.84-1.15 14.3-2.69-2.3-.67-4.61-1.34-6.77-1.87l-.62.91-2.83-.86c1.2-1.73 2.64-4 4.08-6.34h-7.44v-2.64h9c.77-1.35 1.54-2.65 2.16-3.8l3.75.91a1 1 0 01-1.11.48l-1.39 2.41h17.9zm-22.85-10.61a1.22 1.22 0 01-.86.38 19.21 19.21 0 01-4.51 5.62 22.81 22.81 0 00-2-1.64 17.76 17.76 0 004.61-5.52zm6.34-18.77v17.47h-11.47V65.31zM323 70.4v-2.89h-6.34v2.89zm0 5v-2.84h-6.34v2.88zm0 5.13v-3h-6.34v3zm-3 18.24c2.69.63 5.62 1.4 8.5 2.26a12.43 12.43 0 004.32-6.34h-10.26zm4.47-11a25.9 25.9 0 00-3.41-3.55l1.78-1.34a23.57 23.57 0 013.45 3.36zm9-3.69a1.87 1.87 0 01-.86.38 21 21 0 01-4.51 5.76 18.27 18.27 0 00-2-1.68 17.93 17.93 0 004.61-5.66zM340 65.31v17.47h-11.78V65.31zm-2.64 5.09v-2.89h-6.58v2.89zm0 5v-2.84h-6.58v2.88zm0 5.13v-3h-6.58v3zm2.64 9.35a43.84 43.84 0 00-4.56-5.76l1.92-1.2a43.88 43.88 0 014.64 5.52zM386.73 66.7l2.45 1.49a1.65 1.65 0 01-.67.43 45.25 45.25 0 01-8.74 11.28 28.69 28.69 0 0011.14 6.67 12.83 12.83 0 00-2.11 2.74 30.67 30.67 0 01-10.8-6.72v2.49h-19.25v-2.73a36.62 36.62 0 01-11.81 7.77 9.72 9.72 0 00-1.78-2.59 31.11 31.11 0 009.84-5.71 49.46 49.46 0 00-5.37-3.74l1.77-1.59a51.12 51.12 0 015.43 3.6 29.35 29.35 0 002.78-3.21 51 51 0 00-5.61-3.27l1.53-1.68a54.25 54.25 0 015.47 3 29.84 29.84 0 002.69-5.43h-8.3A40 40 0 01347 78a8.46 8.46 0 00-2.17-2 33.68 33.68 0 0010.61-12.38l3.79.57c-.05.39-.34.58-.91.63-.39.67-.77 1.39-1.2 2.11h8.11l.53-.14 2 .91c0 .24-.29.38-.43.48a33.23 33.23 0 01-8.4 14h18.63c-4.36-4.44-7.48-10.18-9.5-17.18l2.88-.62a35.24 35.24 0 006.87 13.49 37.42 37.42 0 006.38-8.21H374v-2.82h12.19zm-27.26 30.67a1 1 0 01-1.06.44 34 34 0 01-9.6 9.26 13.32 13.32 0 00-2.5-2 29.13 29.13 0 009.32-9zm27.41-3.69h-17.52v11c0 3.6-1.64 3.7-9.75 3.7a10.1 10.1 0 00-1.15-3c1.87 0 3.55.1 4.8.1 2.64 0 2.88 0 2.88-.87V93.68h-16.8v-3h37.54zm-.88 13.77a67 67 0 00-10.13-9.69l2.64-1.59a61.77 61.77 0 0110.22 9.46zM427.34 104.19h-21.27v-2.45l3.51-3.69c8.54-8.65 12.86-13.88 12.86-19.73 0-3.84-1.68-7.4-6.86-7.4a12 12 0 00-7.2 3l-1.38-2.8a14 14 0 019.31-3.51c7.25 0 10.13 5.28 10.13 10.23 0 6.76-4.76 12.52-12.2 20l-2.83 3v.1h15.89zM432.09 86.33c0-12.57 4.9-18.67 11.62-18.67s11 6.43 11 18.19c0 12.48-4.37 18.92-11.52 18.92-6.54 0-11.1-6.44-11.1-18.44zm18.58-.33c0-9-2.16-15.16-7.2-15.16-4.27 0-7.3 5.71-7.3 15.16s2.64 15.46 7.15 15.46c5.33.04 7.35-6.87 7.35-15.46zM480.24 104.19H459v-2.45l3.5-3.69c8.55-8.65 12.87-13.88 12.87-19.73 0-3.84-1.68-7.4-6.86-7.4a12 12 0 00-7.21 3l-1.34-2.78a14 14 0 019.31-3.51c7.25 0 10.13 5.28 10.13 10.23 0 6.76-4.75 12.52-12.19 20l-2.83 3v.1h15.89zM495.55 104.19V72h-.1l-5.9 3.41-1-3 7.45-4.18h3.41v36zM511.19 101.12H521V73.56h7.3v34.71h-17.11zm1.49 5.66h14.16V75.05h-4.32v27.56h-9.84zM577.05 66.55c-.14.34-.53.48-1.1.48a59.44 59.44 0 01-13.35 19.21 15.7 15.7 0 00-2.83-2.24c5.14-4.27 10.08-11.57 13.06-18.92zm5.09 15.94a1.17 1.17 0 01-1.2.63 183.62 183.62 0 01-9 19.2c6.76-.19 14.78-.48 22.51-.77-2.31-3.26-5-6.77-7.39-9.6l3-1.44a114.55 114.55 0 0112 16.22l-3.21 1.78c-.63-1.2-1.49-2.59-2.5-4.13-12.05.72-24.87 1.25-32.84 1.59a.92.92 0 01-.76.67l-1.35-4 6.87-.2a145.16 145.16 0 009.41-21.12zm7.63-17.38a74.14 74.14 0 0014 18.39 16.21 16.21 0 00-2.69 2.74 103.35 103.35 0 01-14.45-19.83zM651.21 76.06h-14.45c1.2 15.55 5 28.9 10.18 28.9 1.39 0 2-2.79 2.31-9.31a9.59 9.59 0 002.88 1.82c-.63 8.45-1.92 10.9-5.48 10.9-7.82 0-11.9-14.93-13.25-32.31h-25.49v-3.17h25.25c-.14-3-.24-6-.28-9l4.51.24c0 .43-.29.67-1 .76 0 2.69 0 5.38.19 8h14.64zm-29.42 10.66V101c3.5-.77 7.15-1.58 10.7-2.4l.24 2.83c-8.21 2.07-17 4.13-22.56 5.33a.94.94 0 01-.67.77l-1.35-3.74c2.84-.53 6.44-1.25 10.42-2.12v-15h-9v-3.03h21.53v3.08zM642 63.91a41.46 41.46 0 017.2 6L646.94 72a40.56 40.56 0 00-7.1-6.24zM691 71h-10.8v33.17h-4V71h-10.73v-3.34H691zM728.44 78l-8.3 26.21h-3.55L712.46 91a78.7 78.7 0 01-2.3-8.64H710a67.41 67.41 0 01-2.4 8.69l-4.37 13.1h-3.6L691.91 78H696l3.65 13.73c.72 2.93 1.44 5.62 2 8.3h.14c.58-2.59 1.44-5.42 2.31-8.25L708.47 78h3.46l4.18 13.54c.91 3.07 1.68 5.85 2.3 8.49h.15c.48-2.59 1.2-5.32 2.06-8.44L724.46 78zM735.21 73.42a2.58 2.58 0 01-2.59-2.74 2.61 2.61 0 012.64-2.68 2.72 2.72 0 010 5.43zm2 30.77h-4V78h4zM746.2 73.28l3.94-1.35V78h6.77v3.12h-6.77v15.15c0 3.31 1 5.14 3.55 5.14a7.77 7.77 0 002.69-.39l.24 3.07a10 10 0 01-3.89.63c-6.34 0-6.53-5.76-6.53-8.55v-15h-4V78h4zM763.19 73.28l3.94-1.35V78h6.77v3.12h-6.77v15.15c0 3.31 1 5.14 3.55 5.14a7.77 7.77 0 002.69-.39l.24 3.07a10 10 0 01-3.89.63c-6.34 0-6.53-5.76-6.53-8.55v-15h-4V78h4zM797.66 103.09a19 19 0 01-8.21 1.63c-7.63 0-12.2-5.38-12.2-13.2 0-8.21 4.61-14.12 11.67-14.12 8.06 0 10.13 7.4 10.13 12 0 .91 0 1.58-.1 2.21h-17.81c.05 7.24 4.18 10 8.88 10a16.58 16.58 0 006.87-1.34zm-2.55-14.5c0-3.55-1.44-8.16-6.57-8.16-4.8 0-6.92 4.56-7.3 8.16zM817 81.39a11.47 11.47 0 00-1.44-.1c-4.32 0-6.53 4.27-6.53 8.69v14.21h-4V85.85c0-2.78 0-5.33-.19-7.82h3.5l.19 5h.15c1.15-3.27 3.88-5.62 7.1-5.62a9.84 9.84 0 011.2.15z"/></svg>